<?xml version="1.0" encoding="utf-8"?>
<svg viewBox="0 0 600 400" xmlns="http://www.w3.org/2000/svg" xmlns:bx="https://boxy-svg.com">
  <ellipse style="fill: rgb(216, 216, 216); stroke: rgb(0, 0, 0);" cx="300.338" cy="199.925" rx="294.669" ry="198.876"/>
  <text style="white-space: pre; fill: rgb(51, 51, 51); font-family: Arial, sans-serif; font-size: 14.9px; text-anchor: middle;" x="115.185" y="234.175" transform="matrix(0.660949, 0, 0, 0.64249, 222.912155, -119.402412)">The World Wide Web<tspan x="115.18499755859375" dy="1em">​</tspan>(Foundational technology: HTTP)</text>
  <ellipse style="fill: rgb(216, 216, 216); stroke: rgb(0, 0, 0);" cx="183.776" cy="279.957" rx="106.005" ry="72.502"/>
  <text style="white-space: pre; fill: rgb(51, 51, 51); font-family: Arial, sans-serif; font-size: 14.9px; text-anchor: middle;" x="115.185" y="234.175" transform="matrix(0.660949, 0, 0, 0.64249, 105.436333, 86.252182)">The Document Web<tspan x="115.18499755859375" dy="1em">​</tspan>(Foundational technology: HTML)</text>
  <ellipse style="fill: rgb(216, 216, 216); stroke: rgb(0, 0, 0);" cx="412.493" cy="280.621" rx="107.747" ry="72.289"/>
  <text style="white-space: pre; fill: rgb(51, 51, 51); font-family: Arial, sans-serif; font-size: 14.9px; text-anchor: middle;" x="115.185" y="234.175" transform="matrix(0.660949, 0, 0, 0.64249, 335.887543, 85.920822)">The Semantic Web<tspan x="115.18499755859375" dy="1em">​</tspan>(Foundational technology: RDF)</text>
  <ellipse style="stroke: rgb(192, 192, 192); fill: rgb(190, 9, 9);" cx="301.822" cy="135.003" rx="178.48" ry="76.896"/>
  <text style="fill: rgb(255, 255, 255); font-family: Arial, sans-serif; font-size: 14.9px; text-anchor: middle; white-space: pre;" transform="matrix(0.690722, 0, 0, 0.671432, 213.356659, -69.728798)"><tspan x="115.185" y="234.175">Qworum - The Service Web</tspan><tspan x="115.18499755859375" dy="1em">​</tspan><tspan>(Foundational technology: The Qworum script)</tspan></text>
  <g transform="matrix(1.13619, 0, 0, 1.104459, -22.961313, -9.393214)" style="">
    <g>
      <rect x="177.365" y="133.558" width="42.569" height="22.959" rx="3" ry="3" style="fill: rgb(255, 255, 255); stroke: rgb(0, 0, 0);"/>
      <text style="white-space: pre; fill: rgb(51, 51, 51); font-family: Arial, sans-serif; font-size: 8.7px; text-anchor: middle;" x="198.649" y="148.099">Service</text>
    </g>
    <g transform="matrix(1, 0, 0, 1, 73.608612, -18.107874)">
      <rect x="177.365" y="133.558" width="42.569" height="22.959" rx="3" ry="3" style="fill: rgb(255, 255, 255); stroke: rgb(0, 0, 0);"/>
      <text style="white-space: pre; fill: rgb(51, 51, 51); font-family: Arial, sans-serif; font-size: 8.7px; text-anchor: middle;" x="198.649" y="148.099">Service</text>
    </g>
    <g transform="matrix(1, 0, 0, 1, 103.887245, 22.724092)">
      <rect x="177.365" y="133.558" width="42.569" height="22.959" rx="3" ry="3" style="fill: rgb(255, 255, 255); stroke: rgb(0, 0, 0);"/>
      <text style="white-space: pre; fill: rgb(51, 51, 51); font-family: Arial, sans-serif; font-size: 8.7px; text-anchor: middle;" x="198.649" y="148.099">Service</text>
    </g>
    <g transform="matrix(1, 0, 0, 1, 160.720413, -9.10717)">
      <rect x="177.365" y="133.558" width="42.569" height="22.959" rx="3" ry="3" style="fill: rgb(255, 255, 255); stroke: rgb(0, 0, 0);"/>
      <text style="white-space: pre; fill: rgb(51, 51, 51); font-family: Arial, sans-serif; font-size: 8.7px; text-anchor: middle;" x="198.649" y="148.099">Service</text>
    </g>
    <path d="M 215.151 139.848 H 236.532 L 236.532 137.348 L 253.532 140.848 L 236.532 144.348 L 236.532 141.848 H 215.151 V 139.848 Z" style="fill: rgb(216, 216, 216); stroke: rgb(0, 0, 0);" transform="matrix(0.954261, -0.298976, 0.298976, 0.954261, -28.42515, 67.814133)" bx:shape="arrow 215.151 137.348 38.381 7 2 17 0 1@48880d89"/>
    <path d="M 219.569 151.771 H 268.693 L 268.693 149.271 L 285.693 152.771 L 268.693 156.271 L 268.693 153.771 H 219.569 V 151.771 Z" style="fill: rgb(216, 216, 216); stroke: rgb(0, 0, 0);" transform="matrix(0.986249, 0.165269, -0.165269, 0.986249, 28.267702, -34.18718)" bx:shape="arrow 219.569 149.271 66.124 7 2 17 0 1@31890b85"/>
    <path d="M 291.851 125.996 H 323.708 L 323.708 123.496 L 340.708 126.996 L 323.708 130.496 L 323.708 127.996 H 291.851 V 125.996 Z" style="fill: rgb(216, 216, 216); stroke: rgb(0, 0, 0);" transform="matrix(0.991119, 0.132979, -0.132979, 0.991119, 21.479742, -37.682217)" bx:shape="arrow 291.851 123.496 48.857 7 2 17 0 1@234971b8"/>
  </g>
  <g style="" transform="matrix(1.13619, 0, 0, 1.104459, -32.050835, -22.135881)">
    <rect x="111.416" y="277.959" width="44.036" height="18.043" rx="3" ry="3" style="fill: rgb(255, 255, 255); stroke: rgb(0, 0, 0);"/>
    <text style="white-space: pre; fill: rgb(51, 51, 51); font-family: Arial, sans-serif; font-size: 8.7px; text-anchor: middle;" x="133.434" y="289.962">Document</text>
  </g>
  <path d="M 157.403 315.903 H 190.186 L 190.186 313.131 L 209.421 317.012 L 190.186 320.893 L 190.186 318.121 H 157.403 V 315.903 Z" style="fill: rgb(216, 216, 216); stroke: rgb(0, 0, 0);" transform="matrix(0.92601, 0.377499, -0.396211, 0.918382, 120.581184, -46.22316)" bx:shape="arrow 157.403 313.131 52.018 7.762 2.218 19.235 0 1@acbc4f21"/>
  <g transform="matrix(1.13619, 0, 0, 1.104459, -26.477518, -10.63495)" style="">
    <g>
      <rect x="308.974" y="274.314" width="33.454" height="18.043" rx="3" ry="3" style="fill: rgb(255, 255, 255); stroke: rgb(0, 0, 0);"/>
      <text style="white-space: pre; fill: rgb(51, 51, 51); font-family: Arial, sans-serif; font-size: 8.7px; text-anchor: middle;" x="326.258" y="285.939">Data</text>
    </g>
    <path d="M 137.376 268.957 H 154.257 L 154.257 266.457 L 171.257 269.957 L 154.257 273.457 L 154.257 270.957 H 137.376 V 268.957 Z" style="fill: rgb(216, 216, 216); stroke: rgb(0, 0, 0);" transform="matrix(0.900354, -0.435157, 0.435157, 0.900354, 99.109459, 92.263382)" bx:shape="arrow 137.376 266.457 33.881 7 2 17 0 1@e00c0bcb"/>
    <path d="M 198.737 255.129 H 211.461 L 211.461 252.629 L 228.461 256.129 L 211.461 259.629 L 211.461 257.129 H 198.737 V 255.129 Z" style="fill: rgb(216, 216, 216); stroke: rgb(0, 0, 0);" transform="matrix(0.945818, 0.324698, -0.324698, 0.945818, 296.827118, -45.06852)" bx:shape="arrow 198.737 252.629 29.724 7 2 17 0 1@8b60d744"/>
    <path d="M 139.109 284.844 H 168.082 L 168.082 282.344 L 185.082 285.844 L 168.082 289.344 L 168.082 286.844 H 139.109 V 284.844 Z" style="fill: rgb(216, 216, 216); stroke: rgb(0, 0, 0);" transform="matrix(0.922188, 0.386742, -0.386742, 0.922188, 324.266541, -25.973768)" bx:shape="arrow 139.109 282.344 45.973 7 2 17 0 1@83d9bf78"/>
    <g transform="matrix(1, 0, 0, 1, 59.031631, -22.501173)">
      <rect x="308.974" y="274.314" width="33.454" height="18.043" rx="3" ry="3" style="fill: rgb(255, 255, 255); stroke: rgb(0, 0, 0);"/>
      <text style="white-space: pre; fill: rgb(51, 51, 51); font-family: Arial, sans-serif; font-size: 8.7px; text-anchor: middle;" x="326.258" y="285.939">Data</text>
    </g>
    <g transform="matrix(1, 0, 0, 1, 119.714294, -11.846053)">
      <rect x="308.974" y="274.314" width="33.454" height="18.043" rx="3" ry="3" style="fill: rgb(255, 255, 255); stroke: rgb(0, 0, 0);"/>
      <text style="white-space: pre; fill: rgb(51, 51, 51); font-family: Arial, sans-serif; font-size: 8.7px; text-anchor: middle;" x="326.258" y="285.939">Data</text>
    </g>
    <g transform="matrix(1, 0, 0, 1, 74.783905, 24.254456)">
      <rect x="308.974" y="274.314" width="33.454" height="18.043" rx="3" ry="3" style="fill: rgb(255, 255, 255); stroke: rgb(0, 0, 0);"/>
      <text style="white-space: pre; fill: rgb(51, 51, 51); font-family: Arial, sans-serif; font-size: 8.7px; text-anchor: middle;" x="326.258" y="285.939">Data</text>
    </g>
  </g>
  <g transform="matrix(1.13619, 0, 0, 1.104459, 31.635811, -52.383713)" style="">
    <rect x="111.416" y="277.959" width="44.036" height="18.043" rx="3" ry="3" style="fill: rgb(255, 255, 255); stroke: rgb(0, 0, 0);"/>
    <text style="white-space: pre; fill: rgb(51, 51, 51); font-family: Arial, sans-serif; font-size: 8.7px; text-anchor: middle;" x="133.434" y="289.962">Document</text>
  </g>
  <path d="M 225.147 282.601 H 239.562 L 239.562 279.832 L 258.821 283.709 L 239.562 287.585 L 239.562 284.816 H 225.147 V 282.601 Z" style="fill: rgb(216, 216, 216); stroke: rgb(0, 0, 0);" transform="matrix(0.948576, 0.31655, -0.333055, 0.943068, 88.616852, -72.482033)" bx:shape="arrow 225.147 279.832 33.674 7.753 2.215 19.259 0 1@da1fa110"/>
  <path d="M 155.269 298.613 H 174.349 L 174.349 295.837 L 193.563 299.723 L 174.349 303.609 L 174.349 300.833 H 155.269 V 298.613 Z" style="fill: rgb(216, 216, 216); stroke: rgb(0, 0, 0);" transform="matrix(0.905086, -0.425228, 0.445319, 0.895647, -148.830566, 81.68441)" bx:shape="arrow 155.269 295.837 38.294 7.772 2.22 19.214 0 1@b58b4f74"/>
  <g transform="matrix(1.13619, 0, 0, 1.104459, 104.815514, -30.002893)" style="">
    <rect x="111.416" y="277.959" width="44.036" height="18.043" rx="3" ry="3" style="fill: rgb(255, 255, 255); stroke: rgb(0, 0, 0);"/>
    <text style="white-space: pre; fill: rgb(51, 51, 51); font-family: Arial, sans-serif; font-size: 8.7px; text-anchor: middle;" x="133.434" y="289.962">Document</text>
  </g>
  <g transform="matrix(1.13619, 0, 0, 1.104459, 63.425781, 6.579569)" style="">
    <rect x="111.416" y="277.959" width="44.036" height="18.043" rx="3" ry="3" style="fill: rgb(255, 255, 255); stroke: rgb(0, 0, 0);"/>
    <text style="white-space: pre; fill: rgb(51, 51, 51); font-family: Arial, sans-serif; font-size: 8.7px; text-anchor: middle;" x="133.434" y="289.962">Document</text>
  </g>
</svg>