<?xml version="1.0" encoding="utf-8"?>
<svg viewBox="0 0 500 500" xmlns="http://www.w3.org/2000/svg">
  <defs>
    <linearGradient id="color-1" gradientUnits="userSpaceOnUse" gradientTransform="matrix(9.257242, 0, 0, 9.40978, 646.720703, 486.970265)">
      <stop style="stop-color: rgb(190, 9, 9)"/>
    </linearGradient>
  </defs>
  <rect width="500" height="500" rx="3" ry="3" style="stroke: rgb(0, 0, 0); fill: url('#color-1'); stroke-width: 0px;"/>
  <g/>
  <rect x="44.065" y="45.76" width="411.015" height="128.625" style="fill: rgb(255, 255, 255); fill-opacity: 0.13; stroke: rgb(96, 96, 96);"/>
  <rect x="44.564" y="174.408" width="411.015" height="147.224" style="fill: rgb(255, 255, 255); fill-opacity: 0.13; stroke: rgb(96, 96, 96);"/>
  <rect x="44.349" y="321.711" width="411.015" height="130.15" style="fill: rgb(255, 255, 255); fill-opacity: 0.13; stroke: rgb(96, 96, 96);"/>
  <rect x="45.087" y="321.501" width="106.479" height="129.479" style="fill: rgb(196, 196, 196); stroke: rgb(128, 128, 128);"/>
  <rect x="158.831" y="175.738" width="107.756" height="277.099" style="fill: rgb(196, 196, 196); stroke: rgb(128, 128, 128);"/>
  <rect x="273.019" y="45.34" width="221.062" height="405.753" style="fill: rgb(196, 196, 196); stroke: rgb(128, 128, 128);"/>
  <text style="fill: rgb(255, 255, 255); font-family: Arial, sans-serif; font-size: 16px; white-space: pre; transform-box: fill-box; transform-origin: 31.8744% 31.8182%;" transform="matrix(0, -1, 1, 0, -15.329729, 228.706775)" x="12.692" y="183.28">Data layer</text>
  <text style="fill: rgb(255, 255, 255); font-family: Arial, sans-serif; font-size: 16px; white-space: pre; transform-origin: 36.005px 174.481px;" transform="matrix(0, -1, 1, 0, -16.147369, 121.967682)" x="12.692" y="183.28">Business logic layer</text>
  <text style="fill: rgb(255, 255, 255); font-family: Arial, sans-serif; font-size: 16px; white-space: pre; transform-origin: 36.005px 174.481px;" transform="matrix(0, -1, 1, 0, -15.738758, -54.155445)" x="12.692" y="183.28">UI layer</text>
  <text style="fill: rgb(71, 71, 71); font-family: Arial, sans-serif; font-size: 16px; text-anchor: middle; white-space: pre; transform-origin: 110.141px 370.293px;" transform="matrix(1, 0, 0, 1, 10.56546, -4.106985)"><tspan x="86.828" y="379.092">REST</tspan><tspan x="86.828" dy="1em">​</tspan><tspan x="86.828" dy="1em">​</tspan><tspan>GraphQL</tspan><tspan x="86.828" dy="1em">​</tspan><tspan x="86.828" dy="1em">​</tspan><tspan>...</tspan></text>
  <text style="fill: rgb(255, 255, 255); font-family: Arial, sans-serif; font-size: 16px; white-space: pre; transform-origin: 116.332px 15.527px;" x="93.019" y="24.326">The application layer coverage of API protocols</text>
  <text style="fill: rgb(71, 71, 71); font-family: Arial, sans-serif; font-size: 16px; text-anchor: middle; white-space: pre; transform-origin: 250.188px 294.481px;" transform="matrix(1, 0, 0, 1, -14.248664, -12.396293)"><tspan x="226.875" y="303.28">JSON-RPC</tspan><tspan x="226.875" dy="1em">​</tspan><tspan x="226.875" dy="1em">​</tspan><tspan>gRPC</tspan><tspan x="226.875" dy="1em">​</tspan><tspan x="226.875" dy="1em">​</tspan><tspan>XML-RPC</tspan><tspan x="226.875" dy="1em">​</tspan><tspan x="226.875" dy="1em">​</tspan><tspan>...</tspan><tspan x="226.875" dy="1em">​</tspan><tspan x="226.875" dy="1em">​</tspan></text>
  <g transform="matrix(0.19497, 0, 0, 0.19497, 276.465179, 214.775116)" style="">
    <g transform="matrix(0.903508, 0, 0, 0.903508, 96.561516, 97.806091)" id="g-1" style="">
      <g style="" paint-order="stroke">
        <g transform="matrix(1.1678653367973049 0 0 1.1678653367973049 0 0.20391490254198175)">
          <linearGradient id="gradient-1" gradientUnits="userSpaceOnUse" gradientTransform="matrix(1 0 0 -1 -0.0151 399.6987)" x1="176.2537" y1="289.8855" x2="424.7229" y2="108.8203">
            <stop offset="0" style="stop-color:rgb(202,159,239);stop-opacity: 1"/>
            <stop offset="0.2182" style="stop-color:rgb(182,124,233);stop-opacity: 1"/>
            <stop offset="0.7515" style="stop-color:rgb(104,29,170);stop-opacity: 1"/>
            <stop offset="1" style="stop-color:rgb(72,20,118);stop-opacity: 1"/>
          </linearGradient>
          <path style="stroke: none; stroke-width: 1; stroke-dasharray: none; stroke-linecap: butt; stroke-dashoffset: 0; stroke-linejoin: miter; stroke-miterlimit: 4; fill-rule: nonzero; opacity: 1; fill: url('#gradient-1');" paint-order="stroke" transform=" translate(-300, -200.0005)" d="M 390.291 199.862 L 390.293 199.85999999999999 L 390.295 199.862 L 390.295 155.71099999999998 L 299.86 109.70599999999999 L 255.709 109.707 L 209.705 200.14 L 209.705 244.29199999999997 L 300.14 290.29499999999996 L 344.28999999999996 290.29499999999996 L 390.28799999999995 199.86899999999997 L 390.29499999999996 199.86199999999997 L 390.291 199.86199999999997 z M 300.002 161.631 L 338.358 199.988 C 338.219 199.99099999999999 338.083 200.005 337.944 200.005 L 338.367 200.004 L 300.01500000000004 238.357 L 300.01500000000004 238.357 L 300 238.37 L 300 238.37 L 261.631 200.002 L 300.002 161.631 L 300.002 161.631 L 300.002 161.631 L 300.002 161.631 z" stroke-linecap="round"/>
        </g>
        <g transform="matrix(1.1678653367973049 0 0 1.1678653367973049 6.7858815394607745 -44.272484651378164)">
          <linearGradient id="gradient-2" gradientUnits="userSpaceOnUse" gradientTransform="matrix(1 0 0 -1 -305.8256 237.78169999999997)" x1="305.825" y1="291.6951" x2="305.825" y2="192.3951">
            <stop offset="0" style="stop-color:rgb(202,159,239);stop-opacity: 1"/>
            <stop offset="0.2182" style="stop-color:rgb(182,124,233);stop-opacity: 1"/>
            <stop offset="0.7515" style="stop-color:rgb(104,29,170);stop-opacity: 1"/>
            <stop offset="1" style="stop-color:rgb(72,20,118);stop-opacity: 1"/>
          </linearGradient>
          <polygon style="stroke: none; stroke-width: 1; stroke-dasharray: none; stroke-linecap: butt; stroke-dashoffset: 0; stroke-linejoin: miter; stroke-miterlimit: 4; fill-rule: nonzero; opacity: 1; fill: url('#gradient-2');" paint-order="stroke" points="84.48450000000003,-6.205999999999989 84.48450000000003,37.94499999999999 20.228499999999997,-26.324000000000012 -58.305499999999995,52.210999999999984 -84.4845,26.032999999999987 -5.950499999999977,-52.211 "/>
        </g>
        <g transform="matrix(1.1678653367973049 0 0 1.1678653367973049 -44.47698348658855 -6.58021483891352)">
          <linearGradient id="gradient-3" gradientUnits="userSpaceOnUse" gradientTransform="matrix(1 0 0 -1 -261.9311 205.50719999999995)" x1="208.2117" y1="204.1013" x2="333.0244" y2="206.8594">
            <stop offset="0" style="stop-color:rgb(202,159,239);stop-opacity: 1"/>
            <stop offset="0.2182" style="stop-color:rgb(182,124,233);stop-opacity: 1"/>
            <stop offset="0.7515" style="stop-color:rgb(104,29,170);stop-opacity: 1"/>
            <stop offset="1" style="stop-color:rgb(72,20,118);stop-opacity: 1"/>
          </linearGradient>
          <polygon style="stroke: none; stroke-width: 1; stroke-dasharray: none; stroke-linecap: butt; stroke-dashoffset: 0; stroke-linejoin: miter; stroke-miterlimit: 4; fill-rule: nonzero; opacity: 1; fill: url('#gradient-3');" paint-order="stroke" points="-6.206999999999994,-84.48450000000003 37.94400000000002,-84.48550000000002 -26.323999999999984,-20.228500000000025 52.21100000000001,58.30649999999997 26.031999999999982,84.4855 -52.210999999999984,5.947499999999991 "/>
        </g>
        <g transform="matrix(1.1678653367973049 0 0 1.1678653367973049 -6.785297606792369 44.68148232179897)">
          <linearGradient id="gradient-4" gradientUnits="userSpaceOnUse" gradientTransform="matrix(1 0 0 -1 -294.2051 161.61369999999997)" x1="294.2048" y1="110.3357" x2="294.2048" y2="237.2195">
            <stop offset="0" style="stop-color:rgb(202,159,239);stop-opacity: 1"/>
            <stop offset="0.2182" style="stop-color:rgb(182,124,233);stop-opacity: 1"/>
            <stop offset="0.7515" style="stop-color:rgb(104,29,170);stop-opacity: 1"/>
            <stop offset="1" style="stop-color:rgb(72,20,118);stop-opacity: 1"/>
          </linearGradient>
          <polygon style="stroke: none; stroke-width: 1; stroke-dasharray: none; stroke-linecap: butt; stroke-dashoffset: 0; stroke-linejoin: miter; stroke-miterlimit: 4; fill-rule: nonzero; opacity: 1; fill: url('#gradient-4');" paint-order="stroke" points="-84.48499999999999,6.206999999999994 -84.48499999999999,-37.946 -20.22800000000001,26.323999999999984 58.30599999999998,-52.21000000000001 84.48500000000001,-26.03400000000002 5.949000000000012,52.21000000000001 "/>
        </g>
        <g transform="matrix(1.1678653367973049 0 0 1.1678653367973049 52.68474107359998 0.20391490254198175)">
          <linearGradient id="gradient-5" gradientUnits="userSpaceOnUse" gradientTransform="matrix(1 0 0 -1 -345.1271 199.69819999999999)" x1="392.4285" y1="198.3289" x2="299.4081" y2="199.7071">
            <stop offset="0" style="stop-color:rgb(202,159,239);stop-opacity: 1"/>
            <stop offset="0.2182" style="stop-color:rgb(182,124,233);stop-opacity: 1"/>
            <stop offset="0.7515" style="stop-color:rgb(104,29,170);stop-opacity: 1"/>
            <stop offset="1" style="stop-color:rgb(72,20,118);stop-opacity: 1"/>
          </linearGradient>
          <polygon style="stroke: none; stroke-width: 1; stroke-dasharray: none; stroke-linecap: butt; stroke-dashoffset: 0; stroke-linejoin: miter; stroke-miterlimit: 4; fill-rule: nonzero; opacity: 1; fill: url('#gradient-5');" paint-order="stroke" points="-0.8219999999999459,90.29450000000003 -44.972999999999956,90.29450000000003 19.295000000000016,26.036500000000018 -45.18099999999998,-38.36949999999999 -45.18099999999998,-90.29449999999999 45.18100000000004,-0.1414999999999793 "/>
        </g>
        <g transform="matrix(1.1678653367973049 0 0 1.1678653367973049 -52.725032427719555 -36.17006725921996)">
          <linearGradient id="gradient-6" gradientUnits="userSpaceOnUse" gradientTransform="matrix(1 0 0 -1 -0.0151 399.6987)" x1="208.7708" y1="152.5276" x2="303.2424" y2="288.3743">
            <stop offset="0" style="stop-color:rgb(202,159,239);stop-opacity: 1"/>
            <stop offset="0.2182" style="stop-color:rgb(182,124,233);stop-opacity: 1"/>
            <stop offset="0.7515" style="stop-color:rgb(104,29,170);stop-opacity: 1"/>
            <stop offset="1" style="stop-color:rgb(72,20,118);stop-opacity: 1"/>
          </linearGradient>
          <path style="stroke: none; stroke-width: 1; stroke-dasharray: none; stroke-linecap: butt; stroke-dashoffset: 0; stroke-linejoin: miter; stroke-miterlimit: 4; fill-rule: nonzero; opacity: 1; fill: url('#gradient-6');" paint-order="stroke" transform=" translate(-254.8535, -168.85480107762928)" d="M 300.002 161.631 L 261.391 200.242 L 209.705 200.13899999999998 L 266.419 143.24999999999997 C 271.85999999999996 137.79199999999997 280.25 135.83699999999996 287.81899999999996 138.95199999999997 C 295.38599999999997 142.06799999999998 299.96799999999996 149.36399999999998 299.989 157.07199999999997 L 300.002 161.631 z" stroke-linecap="round"/>
        </g>
        <g transform="matrix(1.1678653367973049 0 0 1.1678653367973049 -35.58386257305648 52.923691936245916)">
          <linearGradient id="gradient-7" gradientUnits="userSpaceOnUse" gradientTransform="matrix(1 0 0 -1 -0.0151 399.6987)" x1="340.5837" y1="110.3547" x2="213.0103" y2="204.8282">
            <stop offset="0" style="stop-color:rgb(202,159,239);stop-opacity: 1"/>
            <stop offset="0.2182" style="stop-color:rgb(182,124,233);stop-opacity: 1"/>
            <stop offset="0.7515" style="stop-color:rgb(104,29,170);stop-opacity: 1"/>
            <stop offset="1" style="stop-color:rgb(72,20,118);stop-opacity: 1"/>
          </linearGradient>
          <path style="stroke: none; stroke-width: 1; stroke-dasharray: none; stroke-linecap: butt; stroke-dashoffset: 0; stroke-linejoin: miter; stroke-miterlimit: 4; fill-rule: nonzero; opacity: 1; fill: url('#gradient-7');" paint-order="stroke" transform=" translate(-269.53085133030845, -245.1425)" d="M 261.619 199.99 L 300 238.37 L 300.14 290.295 L 245.009 235.334 C 239.26399999999998 229.606 237.20499999999998 220.776 240.48399999999998 212.809 C 243.76399999999998 204.843 251.44199999999998 200.02 259.555 199.99699999999999 L 261.619 199.99 z" stroke-linecap="round"/>
        </g>
        <g transform="matrix(1.1678653367973049 0 0 1.1678653367973049 52.72620029305631 34.929444213592234)">
          <linearGradient id="gradient-8" gradientUnits="userSpaceOnUse" gradientTransform="matrix(1 0 0 -1 -0.0151 399.6987)" x1="389.1619" y1="243.325" x2="297.4487" y2="112.9962">
            <stop offset="0" style="stop-color:rgb(202,159,239);stop-opacity: 1"/>
            <stop offset="0.2182" style="stop-color:rgb(182,124,233);stop-opacity: 1"/>
            <stop offset="0.7515" style="stop-color:rgb(104,29,170);stop-opacity: 1"/>
            <stop offset="1" style="stop-color:rgb(72,20,118);stop-opacity: 1"/>
          </linearGradient>
          <path style="stroke: none; stroke-width: 1; stroke-dasharray: none; stroke-linecap: butt; stroke-dashoffset: 0; stroke-linejoin: miter; stroke-miterlimit: 4; fill-rule: nonzero; opacity: 1; fill: url('#gradient-8');" paint-order="stroke" transform=" translate(-345.14750000000004, -229.73468956527967)" d="M 300 238.37 L 338.37 200.001 L 390.295 199.862 L 337.10400000000004 253.21699999999998 C 331.08900000000006 259.24899999999997 321.81600000000003 261.40999999999997 313.451 257.966 C 305.086 254.52200000000005 300.02200000000005 246.457 300 237.93800000000002 L 300 238.37 z" stroke-linecap="round"/>
        </g>
        <g transform="matrix(1.1678653367973049 0 0 1.1678653367973049 34.276824219178366 -52.927779464924754)">
          <linearGradient id="gradient-9" gradientUnits="userSpaceOnUse" gradientTransform="matrix(1 0 0 -1 -0.0151 399.6987)" x1="257.9387" y1="289.2546" x2="387.4989" y2="194.8412">
            <stop offset="0" style="stop-color:rgb(202,159,239);stop-opacity: 1"/>
            <stop offset="0.2182" style="stop-color:rgb(182,124,233);stop-opacity: 1"/>
            <stop offset="0.7515" style="stop-color:rgb(104,29,170);stop-opacity: 1"/>
            <stop offset="1" style="stop-color:rgb(72,20,118);stop-opacity: 1"/>
          </linearGradient>
          <path style="stroke: none; stroke-width: 1; stroke-dasharray: none; stroke-linecap: butt; stroke-dashoffset: 0; stroke-linejoin: miter; stroke-miterlimit: 4; fill-rule: nonzero; opacity: 1; fill: url('#gradient-9');" paint-order="stroke" transform=" translate(-329.6991895652797, -154.855)" d="M 338.303 200.004 L 299.86 161.631 L 299.86 109.706 L 353.148 162.899 C 359.18 168.914 361.341 178.187 357.89700000000005 186.552 C 354.45500000000004 194.917 346.39200000000005 199.98 337.87300000000005 200.004 L 338.303 200.004 z" stroke-linecap="round"/>
        </g>
      </g>
    </g>
    <path d="M 326.786 176.585 L 306.851 152.707 C 301.337 154.081 295.698 154.768 289.934 154.768 C 277.65 154.768 266.372 151.886 256.099 146.122 C 245.819 140.358 237.673 132.369 231.659 122.155 C 225.639 111.942 222.628 100.381 222.628 87.472 C 222.628 74.689 225.639 63.187 231.659 52.967 C 237.673 42.753 245.819 34.764 256.099 29 C 266.372 23.236 277.65 20.354 289.934 20.354 C 302.343 20.354 313.654 23.236 323.868 29 C 334.081 34.764 342.165 42.753 348.12 52.967 C 354.075 63.187 357.052 74.689 357.052 87.472 C 357.052 99.125 354.577 109.747 349.628 119.336 C 344.679 128.925 337.943 136.727 329.418 142.74 L 359.497 176.585 L 326.786 176.585 Z M 249.7 87.472 C 249.7 96.24 251.393 103.946 254.778 110.591 C 258.163 117.236 262.895 122.343 268.974 125.912 C 275.054 129.487 282.04 131.275 289.934 131.275 C 297.834 131.275 304.791 129.487 310.805 125.912 C 316.819 122.343 321.518 117.236 324.903 110.591 C 328.288 103.946 329.98 96.24 329.98 87.472 C 329.98 78.698 328.288 71.021 324.903 64.442 C 321.518 57.857 316.819 52.812 310.805 49.309 C 304.791 45.8 297.834 44.045 289.934 44.045 C 282.04 44.045 275.054 45.8 268.974 49.309 C 262.895 52.812 258.163 57.857 254.778 64.442 C 251.393 71.021 249.7 78.698 249.7 87.472 Z M 535.159 49.309 L 504.706 153.457 L 476.313 153.457 L 457.325 80.699 L 438.337 153.457 L 409.767 153.457 L 379.116 49.309 L 405.813 49.309 L 424.239 128.642 L 444.164 49.309 L 471.995 49.309 L 491.545 128.455 L 509.97 49.309 L 535.159 49.309 Z M 609.494 155.152 C 599.471 155.152 590.447 152.928 582.422 148.478 C 574.404 144.029 568.107 137.729 563.533 129.579 C 558.958 121.436 556.671 112.037 556.671 101.383 C 556.671 90.729 559.021 81.327 563.72 73.177 C 568.419 65.034 574.844 58.738 582.994 54.288 C 591.137 49.838 600.224 47.614 610.253 47.614 C 620.276 47.614 629.363 49.838 637.513 54.288 C 645.656 58.738 652.077 65.034 656.777 73.177 C 661.482 81.327 663.835 90.729 663.835 101.383 C 663.835 112.037 661.42 121.436 656.589 129.579 C 651.765 137.729 645.248 144.029 637.039 148.478 C 628.83 152.928 619.649 155.152 609.494 155.152 Z M 609.494 132.211 C 614.259 132.211 618.742 131.051 622.941 128.731 C 627.141 126.418 630.493 122.941 632.997 118.301 C 635.508 113.66 636.763 108.021 636.763 101.383 C 636.763 91.478 634.161 83.864 628.955 78.54 C 623.756 73.21 617.398 70.545 609.879 70.545 C 602.353 70.545 596.053 73.21 590.979 78.54 C 585.906 83.864 583.369 91.478 583.369 101.383 C 583.369 111.281 585.843 118.895 590.792 124.226 C 595.741 129.549 601.975 132.211 609.494 132.211 Z M 723.313 65.478 C 726.698 59.957 731.115 55.632 736.563 52.504 C 742.018 49.368 748.256 47.801 755.275 47.801 L 755.275 75.435 L 748.315 75.435 C 740.047 75.435 733.813 77.377 729.613 81.261 C 725.413 85.146 723.313 91.915 723.313 101.57 L 723.313 153.457 L 696.99 153.457 L 696.99 49.309 L 723.313 49.309 L 723.313 65.478 Z M 885.065 49.309 L 885.065 153.457 L 858.565 153.457 L 858.565 140.295 C 855.18 144.811 850.76 148.353 845.305 150.923 C 839.856 153.486 833.934 154.768 827.539 154.768 C 819.396 154.768 812.189 153.046 805.919 149.602 C 799.656 146.158 794.736 141.081 791.161 134.37 C 787.592 127.666 785.807 119.678 785.807 110.404 L 785.807 49.309 L 812.12 49.309 L 812.12 106.648 C 812.12 114.916 814.191 121.275 818.331 125.724 C 822.465 130.174 828.105 132.399 835.249 132.399 C 842.518 132.399 848.22 130.174 852.354 125.724 C 856.494 121.275 858.565 114.916 858.565 106.648 L 858.565 49.309 L 885.065 49.309 Z M 1054.162 47.801 C 1066.945 47.801 1077.254 51.718 1085.088 59.553 C 1092.923 67.387 1096.84 78.32 1096.84 92.352 L 1096.84 153.457 L 1070.517 153.457 L 1070.517 95.931 C 1070.517 87.781 1068.45 81.544 1064.316 77.219 C 1060.175 72.895 1054.533 70.732 1047.389 70.732 C 1040.244 70.732 1034.576 72.895 1030.382 77.219 C 1026.182 81.544 1024.083 87.781 1024.083 95.931 L 1024.083 153.457 L 997.76 153.457 L 997.76 95.931 C 997.76 87.781 995.693 81.544 991.559 77.219 C 987.418 72.895 981.776 70.732 974.631 70.732 C 967.362 70.732 961.631 72.895 957.438 77.219 C 953.238 81.544 951.138 87.781 951.138 95.931 L 951.138 153.457 L 924.815 153.457 L 924.815 49.309 L 951.138 49.309 L 951.138 61.899 C 954.523 57.515 958.877 54.068 964.201 51.557 C 969.531 49.053 975.39 47.801 981.779 47.801 C 989.929 47.801 997.198 49.523 1003.586 52.967 C 1009.981 56.417 1014.934 61.337 1018.443 67.725 C 1021.828 61.712 1026.748 56.887 1033.202 53.253 C 1039.656 49.618 1046.643 47.801 1054.162 47.801 Z" style="line-height: 30.5111px; white-space: pre; fill: rgb(101, 29, 164);"/>
  </g>
</svg>