<?xml version="1.0" encoding="UTF-8" standalone="no"?>
<!DOCTYPE svg PUBLIC "-//W3C//DTD SVG 1.1//EN" "http://www.w3.org/Graphics/SVG/1.1/DTD/svg11.dtd">
<!-- Created with Vectornator (http://vectornator.io/) -->
<svg height="100%" stroke-miterlimit="10" style="fill-rule:nonzero;clip-rule:evenodd;stroke-linecap:round;stroke-linejoin:round;" version="1.1" viewBox="12.0655 12.326 487.935 449.314" width="100%" xml:space="preserve" xmlns="http://www.w3.org/2000/svg" xmlns:vectornator="http://vectornator.io" xmlns:xlink="http://www.w3.org/1999/xlink">
<defs>
<linearGradient gradientTransform="matrix(9.03386 0 0 8.45588 643.18 449.931)" gradientUnits="userSpaceOnUse" id="LinearGradient" x1="0" x2="1000" y1="0" y2="0">
<stop offset="0" stop-color="#9958d1"/>
</linearGradient>
<linearGradient gradientTransform="matrix(0.205728 0 0 -0.205728 233.605 147.207)" gradientUnits="userSpaceOnUse" id="LinearGradient_2" x1="176.254" x2="424.723" y1="289.885" y2="108.82">
<stop offset="0" stop-color="#ca9fef"/>
<stop offset="0.2182" stop-color="#b67ce9"/>
<stop offset="0.7515" stop-color="#681daa"/>
<stop offset="1" stop-color="#481476"/>
</linearGradient>
<linearGradient gradientTransform="matrix(0.205728 0 0 -0.205728 233.605 147.207)" gradientUnits="userSpaceOnUse" id="LinearGradient_3" x1="305.825" x2="305.825" y1="291.695" y2="192.395">
<stop offset="0" stop-color="#ca9fef"/>
<stop offset="0.2182" stop-color="#b67ce9"/>
<stop offset="0.7515" stop-color="#681daa"/>
<stop offset="1" stop-color="#481476"/>
</linearGradient>
<linearGradient gradientTransform="matrix(0.205728 0 0 -0.205728 233.605 147.207)" gradientUnits="userSpaceOnUse" id="LinearGradient_4" x1="208.212" x2="333.024" y1="204.101" y2="206.859">
<stop offset="0" stop-color="#ca9fef"/>
<stop offset="0.2182" stop-color="#b67ce9"/>
<stop offset="0.7515" stop-color="#681daa"/>
<stop offset="1" stop-color="#481476"/>
</linearGradient>
<linearGradient gradientTransform="matrix(0.205728 0 0 -0.205728 233.605 147.207)" gradientUnits="userSpaceOnUse" id="LinearGradient_5" x1="294.205" x2="294.205" y1="110.336" y2="237.219">
<stop offset="0" stop-color="#ca9fef"/>
<stop offset="0.2182" stop-color="#b67ce9"/>
<stop offset="0.7515" stop-color="#681daa"/>
<stop offset="1" stop-color="#481476"/>
</linearGradient>
<linearGradient gradientTransform="matrix(0.205728 0 0 -0.205728 233.605 147.207)" gradientUnits="userSpaceOnUse" id="LinearGradient_6" x1="392.428" x2="299.408" y1="198.329" y2="199.707">
<stop offset="0" stop-color="#ca9fef"/>
<stop offset="0.2182" stop-color="#b67ce9"/>
<stop offset="0.7515" stop-color="#681daa"/>
<stop offset="1" stop-color="#481476"/>
</linearGradient>
<linearGradient gradientTransform="matrix(0.205728 0 0 -0.205728 233.605 147.207)" gradientUnits="userSpaceOnUse" id="LinearGradient_7" x1="208.771" x2="303.242" y1="152.528" y2="288.374">
<stop offset="0" stop-color="#ca9fef"/>
<stop offset="0.2182" stop-color="#b67ce9"/>
<stop offset="0.7515" stop-color="#681daa"/>
<stop offset="1" stop-color="#481476"/>
</linearGradient>
<linearGradient gradientTransform="matrix(0.205728 0 0 -0.205728 233.605 147.207)" gradientUnits="userSpaceOnUse" id="LinearGradient_8" x1="340.584" x2="213.01" y1="110.355" y2="204.828">
<stop offset="0" stop-color="#ca9fef"/>
<stop offset="0.2182" stop-color="#b67ce9"/>
<stop offset="0.7515" stop-color="#681daa"/>
<stop offset="1" stop-color="#481476"/>
</linearGradient>
<linearGradient gradientTransform="matrix(0.205728 0 0 -0.205728 233.605 147.207)" gradientUnits="userSpaceOnUse" id="LinearGradient_9" x1="389.162" x2="297.449" y1="243.325" y2="112.996">
<stop offset="0" stop-color="#ca9fef"/>
<stop offset="0.2182" stop-color="#b67ce9"/>
<stop offset="0.7515" stop-color="#681daa"/>
<stop offset="1" stop-color="#481476"/>
</linearGradient>
<linearGradient gradientTransform="matrix(0.205728 0 0 -0.205728 233.533 147.135)" gradientUnits="userSpaceOnUse" id="LinearGradient_10" x1="257.939" x2="387.499" y1="289.255" y2="194.841">
<stop offset="0" stop-color="#ca9fef"/>
<stop offset="0.2182" stop-color="#b67ce9"/>
<stop offset="0.7515" stop-color="#681daa"/>
<stop offset="1" stop-color="#481476"/>
</linearGradient>
</defs>
<g id="Graphics" vectornator:layerName="Graphics">
<path d="M14.9931 12.326L497.072 12.326C498.689 12.326 500 13.533 500 15.0219L500 458.944C500 460.433 498.689 461.64 497.072 461.64L14.9931 461.64C13.3762 461.64 12.0655 460.433 12.0655 458.944L12.0655 15.0219C12.0655 13.533 13.3762 12.326 14.9931 12.326Z" fill="url(#LinearGradient)" fill-rule="nonzero" opacity="1" stroke="#000000" stroke-linecap="butt" stroke-linejoin="miter" stroke-width="0" vectornator:layerName="Background"/>
<g opacity="1" vectornator:layerName="Application layers">
<path d="M44.065 45.76L455.08 45.76L455.08 45.76L455.08 174.385L455.08 174.385L44.065 174.385L44.065 174.385L44.065 45.76L44.065 45.76Z" fill="#ffffff" fill-opacity="0.13" fill-rule="nonzero" opacity="1" stroke="#606060" stroke-linecap="butt" stroke-linejoin="miter" stroke-width="1" vectornator:layerName="rect"/>
<path d="M44.564 174.408L455.579 174.408L455.579 174.408L455.579 321.632L455.579 321.632L44.564 321.632L44.564 321.632L44.564 174.408L44.564 174.408Z" fill="#ffffff" fill-opacity="0.13" fill-rule="nonzero" opacity="1" stroke="#606060" stroke-linecap="butt" stroke-linejoin="miter" stroke-width="1" vectornator:layerName="rect"/>
<path d="M44.349 321.711L455.364 321.711L455.364 321.711L455.364 451.861L455.364 451.861L44.349 451.861L44.349 451.861L44.349 321.711L44.349 321.711Z" fill="#ffffff" fill-opacity="0.13" fill-rule="nonzero" opacity="1" stroke="#606060" stroke-linecap="butt" stroke-linejoin="miter" stroke-width="1" vectornator:layerName="rect"/>
<g fill="#ffffff" opacity="1" stroke="none" vectornator:layerName="text">
<path d="M30.3721 414.95L21.2096 414.95L21.2096 411.794C21.2096 411.081 21.2534 410.537 21.3409 410.162C21.4617 409.637 21.6804 409.19 21.9971 408.819C22.4054 408.335 22.9273 407.974 23.5627 407.734C24.1981 407.495 24.9242 407.375 25.7409 407.375C26.4367 407.375 27.0534 407.456 27.5909 407.619C28.1284 407.781 28.5731 407.99 28.9252 408.244C29.2773 408.498 29.5544 408.776 29.7565 409.078C29.9586 409.38 30.1117 409.745 30.2159 410.172C30.32 410.599 30.3721 411.09 30.3721 411.644L30.3721 414.95ZM29.2909 413.737L29.2909 411.781C29.2909 411.177 29.2346 410.703 29.1221 410.359C29.0096 410.016 28.8513 409.742 28.6471 409.537C28.3596 409.25 27.9731 409.026 27.4877 408.866C27.0023 408.705 26.4138 408.625 25.7221 408.625C24.7638 408.625 24.0273 408.782 23.5127 409.097C22.9981 409.411 22.6534 409.794 22.4784 410.244C22.3534 410.569 22.2909 411.092 22.2909 411.812L22.2909 413.737L29.2909 413.737Z"/>
<path d="M29.5534 401.519C29.9075 401.935 30.1575 402.336 30.3034 402.722C30.4492 403.107 30.5221 403.521 30.5221 403.962C30.5221 404.692 30.344 405.252 29.9877 405.644C29.6315 406.035 29.1763 406.231 28.6221 406.231C28.2971 406.231 28.0002 406.157 27.7315 406.009C27.4627 405.861 27.2471 405.668 27.0846 405.428C26.9221 405.189 26.7992 404.919 26.7159 404.619C26.6575 404.398 26.6013 404.065 26.5471 403.619C26.4388 402.71 26.3096 402.042 26.1596 401.612C26.0054 401.608 25.9075 401.606 25.8659 401.606C25.4075 401.606 25.0846 401.712 24.8971 401.925C24.6429 402.212 24.5159 402.64 24.5159 403.206C24.5159 403.735 24.6086 404.126 24.794 404.378C24.9794 404.63 25.3075 404.817 25.7784 404.937L25.6284 406.037C25.1575 405.937 24.7773 405.773 24.4877 405.544C24.1981 405.315 23.9752 404.983 23.819 404.55C23.6627 404.117 23.5846 403.615 23.5846 403.044C23.5846 402.477 23.6513 402.017 23.7846 401.662C23.9179 401.308 24.0856 401.048 24.2877 400.881C24.4898 400.715 24.745 400.598 25.0534 400.531C25.245 400.494 25.5909 400.475 26.0909 400.475L27.5909 400.475C28.6367 400.475 29.2981 400.451 29.5752 400.403C29.8523 400.355 30.1179 400.26 30.3721 400.119L30.3721 401.294C30.1388 401.41 29.8659 401.485 29.5534 401.519ZM27.0409 401.612C27.2075 402.021 27.3492 402.633 27.4659 403.45C27.5325 403.912 27.6075 404.24 27.6909 404.431C27.7742 404.623 27.8961 404.771 28.0565 404.875C28.2169 404.979 28.395 405.031 28.5909 405.031C28.8909 405.031 29.1409 404.918 29.3409 404.691C29.5409 404.464 29.6409 404.131 29.6409 403.694C29.6409 403.26 29.5461 402.875 29.3565 402.537C29.1669 402.2 28.9075 401.952 28.5784 401.794C28.3242 401.673 27.9492 401.612 27.4534 401.612L27.0409 401.612Z"/>
<path d="M29.3659 396.275L30.3596 396.112C30.4263 396.429 30.4596 396.712 30.4596 396.962C30.4596 397.371 30.395 397.687 30.2659 397.912C30.1367 398.137 29.9669 398.296 29.7565 398.387C29.5461 398.479 29.1034 398.525 28.4284 398.525L24.6096 398.525L24.6096 399.35L23.7346 399.35L23.7346 398.525L22.0909 398.525L21.4159 397.406L23.7346 397.406L23.7346 396.275L24.6096 396.275L24.6096 397.406L28.4909 397.406C28.8117 397.406 29.0179 397.386 29.1096 397.347C29.2013 397.307 29.2742 397.243 29.3284 397.153C29.3825 397.064 29.4096 396.935 29.4096 396.769C29.4096 396.644 29.395 396.479 29.3659 396.275Z"/>
<path d="M29.5534 390.844C29.9075 391.26 30.1575 391.661 30.3034 392.047C30.4492 392.432 30.5221 392.846 30.5221 393.287C30.5221 394.017 30.344 394.577 29.9877 394.969C29.6315 395.36 29.1763 395.556 28.6221 395.556C28.2971 395.556 28.0002 395.482 27.7315 395.334C27.4627 395.186 27.2471 394.993 27.0846 394.753C26.9221 394.514 26.7992 394.244 26.7159 393.944C26.6575 393.723 26.6013 393.39 26.5471 392.944C26.4388 392.035 26.3096 391.367 26.1596 390.937C26.0054 390.933 25.9075 390.931 25.8659 390.931C25.4075 390.931 25.0846 391.037 24.8971 391.25C24.6429 391.537 24.5159 391.965 24.5159 392.531C24.5159 393.06 24.6086 393.451 24.794 393.703C24.9794 393.955 25.3075 394.142 25.7784 394.262L25.6284 395.362C25.1575 395.262 24.7773 395.098 24.4877 394.869C24.1981 394.64 23.9752 394.308 23.819 393.875C23.6627 393.442 23.5846 392.94 23.5846 392.369C23.5846 391.802 23.6513 391.342 23.7846 390.987C23.9179 390.633 24.0856 390.373 24.2877 390.206C24.4898 390.04 24.745 389.923 25.0534 389.856C25.245 389.819 25.5909 389.8 26.0909 389.8L27.5909 389.8C28.6367 389.8 29.2981 389.776 29.5752 389.728C29.8523 389.68 30.1179 389.585 30.3721 389.444L30.3721 390.619C30.1388 390.735 29.8659 390.81 29.5534 390.844ZM27.0409 390.937C27.2075 391.346 27.3492 391.958 27.4659 392.775C27.5325 393.237 27.6075 393.565 27.6909 393.756C27.7742 393.948 27.8961 394.096 28.0565 394.2C28.2169 394.304 28.395 394.356 28.5909 394.356C28.8909 394.356 29.1409 394.243 29.3409 394.016C29.5409 393.789 29.6409 393.456 29.6409 393.019C29.6409 392.585 29.5461 392.2 29.3565 391.862C29.1669 391.525 28.9075 391.277 28.5784 391.119C28.3242 390.998 27.9492 390.937 27.4534 390.937L27.0409 390.937Z"/>
<path d="M30.3721 384.525L21.2096 384.525L21.2096 383.4L30.3721 383.4L30.3721 384.525Z"/>
<path d="M29.5534 377.325C29.9075 377.742 30.1575 378.143 30.3034 378.528C30.4492 378.914 30.5221 379.327 30.5221 379.769C30.5221 380.498 30.344 381.058 29.9877 381.45C29.6315 381.842 29.1763 382.037 28.6221 382.037C28.2971 382.037 28.0002 381.964 27.7315 381.816C27.4627 381.668 27.2471 381.474 27.0846 381.234C26.9221 380.995 26.7992 380.725 26.7159 380.425C26.6575 380.204 26.6013 379.871 26.5471 379.425C26.4388 378.517 26.3096 377.848 26.1596 377.419C26.0054 377.415 25.9075 377.412 25.8659 377.412C25.4075 377.412 25.0846 377.519 24.8971 377.731C24.6429 378.019 24.5159 378.446 24.5159 379.012C24.5159 379.542 24.6086 379.932 24.794 380.184C24.9794 380.436 25.3075 380.623 25.7784 380.744L25.6284 381.844C25.1575 381.744 24.7773 381.579 24.4877 381.35C24.1981 381.121 23.9752 380.79 23.819 380.356C23.6627 379.923 23.5846 379.421 23.5846 378.85C23.5846 378.283 23.6513 377.823 23.7846 377.469C23.9179 377.115 24.0856 376.854 24.2877 376.687C24.4898 376.521 24.745 376.404 25.0534 376.337C25.245 376.3 25.5909 376.281 26.0909 376.281L27.5909 376.281C28.6367 376.281 29.2981 376.257 29.5752 376.209C29.8523 376.161 30.1179 376.067 30.3721 375.925L30.3721 377.1C30.1388 377.217 29.8659 377.292 29.5534 377.325ZM27.0409 377.419C27.2075 377.827 27.3492 378.44 27.4659 379.256C27.5325 379.719 27.6075 380.046 27.6909 380.237C27.7742 380.429 27.8961 380.577 28.0565 380.681C28.2169 380.785 28.395 380.837 28.5909 380.837C28.8909 380.837 29.1409 380.724 29.3409 380.497C29.5409 380.27 29.6409 379.937 29.6409 379.5C29.6409 379.067 29.5461 378.681 29.3565 378.344C29.1669 378.006 28.9075 377.758 28.5784 377.6C28.3242 377.479 27.9492 377.419 27.4534 377.419L27.0409 377.419Z"/>
<path d="M32.9284 374.587L31.8721 374.712C31.9388 374.467 31.9721 374.252 31.9721 374.069C31.9721 373.819 31.9304 373.619 31.8471 373.469C31.7638 373.319 31.6471 373.196 31.4971 373.1C31.3846 373.029 31.1054 372.915 30.6596 372.756C30.5971 372.735 30.5054 372.702 30.3846 372.656L23.7346 375.175L23.7346 373.962L27.5784 372.581C28.0659 372.402 28.5784 372.242 29.1159 372.1C28.5992 371.971 28.095 371.817 27.6034 371.637L23.7346 370.219L23.7346 369.094L30.4846 371.619C31.2138 371.89 31.7159 372.1 31.9909 372.25C32.3617 372.45 32.6336 372.679 32.8065 372.937C32.9794 373.196 33.0659 373.504 33.0659 373.862C33.0659 374.079 33.02 374.321 32.9284 374.587Z"/>
<path d="M28.2346 363.594L28.3784 362.431C29.0575 362.615 29.5846 362.954 29.9596 363.45C30.3346 363.946 30.5221 364.579 30.5221 365.35C30.5221 366.321 30.2231 367.091 29.6252 367.659C29.0273 368.228 28.1888 368.512 27.1096 368.512C25.9929 368.512 25.1263 368.225 24.5096 367.65C23.8929 367.075 23.5846 366.329 23.5846 365.412C23.5846 364.525 23.8867 363.8 24.4909 363.237C25.095 362.675 25.945 362.394 27.0409 362.394C27.1075 362.394 27.2075 362.396 27.3409 362.4L27.3409 367.35C28.07 367.308 28.6284 367.102 29.0159 366.731C29.4034 366.36 29.5971 365.898 29.5971 365.344C29.5971 364.931 29.4888 364.579 29.2721 364.287C29.0554 363.996 28.7096 363.765 28.2346 363.594ZM26.4159 367.287L26.4159 363.581C25.8575 363.631 25.4388 363.773 25.1596 364.006C24.7263 364.365 24.5096 364.829 24.5096 365.4C24.5096 365.917 24.6825 366.351 25.0284 366.703C25.3742 367.055 25.8367 367.25 26.4159 367.287Z"/>
<path d="M30.3721 361.031L23.7346 361.031L23.7346 360.019L24.7409 360.019C24.27 359.76 23.9596 359.522 23.8096 359.303C23.6596 359.084 23.5846 358.844 23.5846 358.581C23.5846 358.202 23.7054 357.817 23.9471 357.425L24.9909 357.812C24.8284 358.087 24.7471 358.362 24.7471 358.637C24.7471 358.883 24.8211 359.104 24.969 359.3C25.1169 359.496 25.3221 359.635 25.5846 359.719C25.9846 359.844 26.4221 359.906 26.8971 359.906L30.3721 359.906L30.3721 361.031Z"/>
</g>
<g fill="#ffffff" opacity="1" stroke="none" vectornator:layerName="text">
<path d="M29.5545 308.261L20.392 308.261L20.392 304.823C20.392 304.123 20.4847 303.562 20.6701 303.139C20.8555 302.716 21.1409 302.385 21.5263 302.145C21.9118 301.906 22.3149 301.786 22.7357 301.786C23.1274 301.786 23.4961 301.892 23.842 302.105C24.1878 302.317 24.467 302.638 24.6795 303.067C24.842 302.513 25.119 302.087 25.5107 301.789C25.9024 301.491 26.3649 301.342 26.8982 301.342C27.3274 301.342 27.7263 301.433 28.0951 301.614C28.4638 301.795 28.7482 302.019 28.9482 302.286C29.1482 302.553 29.2993 302.887 29.4013 303.289C29.5034 303.691 29.5545 304.184 29.5545 304.767L29.5545 308.261ZM24.242 307.048L24.242 305.067C24.242 304.53 24.2065 304.144 24.1357 303.911C24.044 303.603 23.892 303.37 23.6795 303.214C23.467 303.058 23.2003 302.98 22.8795 302.98C22.5753 302.98 22.3076 303.053 22.0763 303.198C21.8451 303.344 21.6868 303.553 21.6013 303.823C21.5159 304.094 21.4732 304.559 21.4732 305.217L21.4732 307.048L24.242 307.048ZM28.4732 307.048L28.4732 304.767C28.4732 304.375 28.4586 304.1 28.4295 303.942C28.3795 303.663 28.2961 303.43 28.1795 303.242C28.0628 303.055 27.893 302.9 27.6701 302.78C27.4472 302.659 27.1899 302.598 26.8982 302.598C26.5565 302.598 26.2597 302.686 26.0076 302.861C25.7555 303.036 25.5784 303.279 25.4763 303.589C25.3743 303.899 25.3232 304.346 25.3232 304.93L25.3232 307.048L28.4732 307.048Z"/>
<path d="M29.5545 295.467L28.5795 295.467C29.3295 295.984 29.7045 296.686 29.7045 297.573C29.7045 297.965 29.6295 298.331 29.4795 298.67C29.3295 299.01 29.1409 299.262 28.9138 299.427C28.6868 299.591 28.4086 299.707 28.0795 299.773C27.8586 299.819 27.5086 299.842 27.0295 299.842L22.917 299.842L22.917 298.717L26.5982 298.717C27.1857 298.717 27.5815 298.694 27.7857 298.648C28.0815 298.578 28.3138 298.428 28.4826 298.198C28.6513 297.969 28.7357 297.686 28.7357 297.348C28.7357 297.011 28.6493 296.694 28.4763 296.398C28.3034 296.103 28.068 295.893 27.7701 295.77C27.4722 295.647 27.0399 295.586 26.4732 295.586L22.917 295.586L22.917 294.461L29.5545 294.461L29.5545 295.467Z"/>
<path d="M27.5732 293.148L27.3982 292.036C27.844 291.973 28.1857 291.799 28.4232 291.514C28.6607 291.229 28.7795 290.83 28.7795 290.317C28.7795 289.8 28.6743 289.417 28.4638 289.167C28.2534 288.917 28.0065 288.792 27.7232 288.792C27.469 288.792 27.269 288.903 27.1232 289.123C27.0232 289.278 26.8961 289.661 26.742 290.273C26.5336 291.098 26.3534 291.67 26.2013 291.989C26.0493 292.308 25.8388 292.549 25.5701 292.714C25.3013 292.879 25.0045 292.961 24.6795 292.961C24.3836 292.961 24.1097 292.893 23.8576 292.758C23.6055 292.622 23.3961 292.438 23.2295 292.205C23.1003 292.03 22.9909 291.791 22.9013 291.489C22.8118 291.187 22.767 290.863 22.767 290.517C22.767 289.996 22.842 289.539 22.992 289.145C23.142 288.752 23.3451 288.461 23.6013 288.273C23.8576 288.086 24.2003 287.957 24.6295 287.886L24.7795 288.986C24.4378 289.036 24.1711 289.181 23.9795 289.42C23.7878 289.66 23.692 289.998 23.692 290.436C23.692 290.953 23.7774 291.321 23.9482 291.542C24.119 291.763 24.319 291.873 24.5482 291.873C24.694 291.873 24.8253 291.828 24.942 291.736C25.0628 291.644 25.1628 291.5 25.242 291.305C25.2836 291.192 25.3795 290.861 25.5295 290.311C25.742 289.515 25.9159 288.96 26.0513 288.645C26.1868 288.331 26.3836 288.084 26.642 287.905C26.9003 287.725 27.2211 287.636 27.6045 287.636C27.9795 287.636 28.3326 287.745 28.6638 287.964C28.9951 288.183 29.2513 288.498 29.4326 288.911C29.6138 289.323 29.7045 289.79 29.7045 290.311C29.7045 291.173 29.5253 291.831 29.167 292.283C28.8086 292.735 28.2774 293.023 27.5732 293.148Z"/>
<path d="M21.6857 286.292L20.392 286.292L20.392 285.167L21.6857 285.167L21.6857 286.292ZM29.5545 286.292L22.917 286.292L22.917 285.167L29.5545 285.167L29.5545 286.292Z"/>
<path d="M29.5545 283.455L22.917 283.455L22.917 282.442L23.8607 282.442C23.1315 281.955 22.767 281.25 22.767 280.33C22.767 279.93 22.8388 279.562 22.9826 279.227C23.1263 278.891 23.3149 278.64 23.5482 278.473C23.7815 278.307 24.0586 278.19 24.3795 278.123C24.5878 278.082 24.9524 278.061 25.4732 278.061L29.5545 278.061L29.5545 279.186L25.517 279.186C25.0586 279.186 24.7159 279.23 24.4888 279.317C24.2618 279.405 24.0805 279.56 23.9451 279.783C23.8097 280.006 23.742 280.267 23.742 280.567C23.742 281.046 23.894 281.46 24.1982 281.808C24.5024 282.156 25.0795 282.33 25.9295 282.33L29.5545 282.33L29.5545 283.455Z"/>
<path d="M27.417 271.792L27.5607 270.63C28.2399 270.813 28.767 271.153 29.142 271.648C29.517 272.144 29.7045 272.778 29.7045 273.548C29.7045 274.519 29.4055 275.289 28.8076 275.858C28.2097 276.427 27.3711 276.711 26.292 276.711C25.1753 276.711 24.3086 276.423 23.692 275.848C23.0753 275.273 22.767 274.528 22.767 273.611C22.767 272.723 23.069 271.998 23.6732 271.436C24.2774 270.873 25.1274 270.592 26.2232 270.592C26.2899 270.592 26.3899 270.594 26.5232 270.598L26.5232 275.548C27.2524 275.507 27.8107 275.3 28.1982 274.93C28.5857 274.559 28.7795 274.096 28.7795 273.542C28.7795 273.13 28.6711 272.778 28.4545 272.486C28.2378 272.194 27.892 271.963 27.417 271.792ZM25.5982 275.486L25.5982 271.78C25.0399 271.83 24.6211 271.971 24.342 272.205C23.9086 272.563 23.692 273.028 23.692 273.598C23.692 274.115 23.8649 274.549 24.2107 274.902C24.5565 275.254 25.019 275.448 25.5982 275.486Z"/>
<path d="M27.5732 269.667L27.3982 268.555C27.844 268.492 28.1857 268.318 28.4232 268.033C28.6607 267.747 28.7795 267.348 28.7795 266.836C28.7795 266.319 28.6743 265.936 28.4638 265.686C28.2534 265.436 28.0065 265.311 27.7232 265.311C27.469 265.311 27.269 265.421 27.1232 265.642C27.0232 265.796 26.8961 266.18 26.742 266.792C26.5336 267.617 26.3534 268.189 26.2013 268.508C26.0493 268.827 25.8388 269.068 25.5701 269.233C25.3013 269.397 25.0045 269.48 24.6795 269.48C24.3836 269.48 24.1097 269.412 23.8576 269.277C23.6055 269.141 23.3961 268.957 23.2295 268.723C23.1003 268.548 22.9909 268.31 22.9013 268.008C22.8118 267.706 22.767 267.382 22.767 267.036C22.767 266.515 22.842 266.058 22.992 265.664C23.142 265.27 23.3451 264.98 23.6013 264.792C23.8576 264.605 24.2003 264.475 24.6295 264.405L24.7795 265.505C24.4378 265.555 24.1711 265.699 23.9795 265.939C23.7878 266.179 23.692 266.517 23.692 266.955C23.692 267.471 23.7774 267.84 23.9482 268.061C24.119 268.282 24.319 268.392 24.5482 268.392C24.694 268.392 24.8253 268.346 24.942 268.255C25.0628 268.163 25.1628 268.019 25.242 267.823C25.2836 267.711 25.3795 267.38 25.5295 266.83C25.742 266.034 25.9159 265.479 26.0513 265.164C26.1868 264.849 26.3836 264.603 26.642 264.423C26.9003 264.244 27.2211 264.155 27.6045 264.155C27.9795 264.155 28.3326 264.264 28.6638 264.483C28.9951 264.702 29.2513 265.017 29.4326 265.43C29.6138 265.842 29.7045 266.309 29.7045 266.83C29.7045 267.692 29.5253 268.349 29.167 268.802C28.8086 269.254 28.2774 269.542 27.5732 269.667Z"/>
<path d="M27.5732 263.267L27.3982 262.155C27.844 262.092 28.1857 261.918 28.4232 261.633C28.6607 261.347 28.7795 260.948 28.7795 260.436C28.7795 259.919 28.6743 259.536 28.4638 259.286C28.2534 259.036 28.0065 258.911 27.7232 258.911C27.469 258.911 27.269 259.021 27.1232 259.242C27.0232 259.396 26.8961 259.78 26.742 260.392C26.5336 261.217 26.3534 261.789 26.2013 262.108C26.0493 262.427 25.8388 262.668 25.5701 262.833C25.3013 262.997 25.0045 263.08 24.6795 263.08C24.3836 263.08 24.1097 263.012 23.8576 262.877C23.6055 262.741 23.3961 262.557 23.2295 262.323C23.1003 262.148 22.9909 261.91 22.9013 261.608C22.8118 261.306 22.767 260.982 22.767 260.636C22.767 260.115 22.842 259.658 22.992 259.264C23.142 258.87 23.3451 258.58 23.6013 258.392C23.8576 258.205 24.2003 258.075 24.6295 258.005L24.7795 259.105C24.4378 259.155 24.1711 259.299 23.9795 259.539C23.7878 259.779 23.692 260.117 23.692 260.555C23.692 261.071 23.7774 261.44 23.9482 261.661C24.119 261.882 24.319 261.992 24.5482 261.992C24.694 261.992 24.8253 261.946 24.942 261.855C25.0628 261.763 25.1628 261.619 25.242 261.423C25.2836 261.311 25.3795 260.98 25.5295 260.43C25.742 259.634 25.9159 259.079 26.0513 258.764C26.1868 258.449 26.3836 258.203 26.642 258.023C26.9003 257.844 27.2211 257.755 27.6045 257.755C27.9795 257.755 28.3326 257.864 28.6638 258.083C28.9951 258.302 29.2513 258.617 29.4326 259.03C29.6138 259.442 29.7045 259.909 29.7045 260.43C29.7045 261.292 29.5253 261.949 29.167 262.402C28.8086 262.854 28.2774 263.142 27.5732 263.267Z"/>
<path d="M29.5545 252.886L20.392 252.886L20.392 251.761L29.5545 251.761L29.5545 252.886Z"/>
<path d="M26.2357 250.436C25.0065 250.436 24.0961 250.094 23.5045 249.411C23.0128 248.84 22.767 248.144 22.767 247.323C22.767 246.411 23.0659 245.665 23.6638 245.086C24.2618 244.507 25.0878 244.217 26.142 244.217C26.9961 244.217 27.668 244.345 28.1576 244.602C28.6472 244.858 29.0274 245.231 29.2982 245.72C29.569 246.21 29.7045 246.744 29.7045 247.323C29.7045 248.253 29.4065 249.004 28.8107 249.577C28.2149 250.149 27.3565 250.436 26.2357 250.436ZM26.2357 249.28C27.0857 249.28 27.7222 249.094 28.1451 248.723C28.568 248.353 28.7795 247.886 28.7795 247.323C28.7795 246.765 28.567 246.3 28.142 245.93C27.717 245.559 27.069 245.373 26.1982 245.373C25.3774 245.373 24.7555 245.56 24.3326 245.933C23.9097 246.306 23.6982 246.769 23.6982 247.323C23.6982 247.886 23.9086 248.353 24.3295 248.723C24.7503 249.094 25.3857 249.28 26.2357 249.28Z"/>
<path d="M30.1045 243.105L30.267 242.011C30.6045 241.965 30.8503 241.838 31.0045 241.63C31.2128 241.35 31.317 240.969 31.317 240.486C31.317 239.965 31.2128 239.563 31.0045 239.28C30.7961 238.996 30.5045 238.805 30.1295 238.705C29.9003 238.646 29.419 238.619 28.6857 238.623C29.2649 239.115 29.5545 239.728 29.5545 240.461C29.5545 241.373 29.2253 242.08 28.567 242.58C27.9086 243.08 27.119 243.33 26.1982 243.33C25.5649 243.33 24.9805 243.215 24.4451 242.986C23.9097 242.757 23.4961 242.424 23.2045 241.989C22.9128 241.554 22.767 241.042 22.767 240.455C22.767 239.671 23.0836 239.025 23.717 238.517L22.917 238.517L22.917 237.48L28.6545 237.48C29.6878 237.48 30.4201 237.585 30.8513 237.795C31.2826 238.006 31.6232 238.339 31.8732 238.795C32.1232 239.252 32.2482 239.813 32.2482 240.48C32.2482 241.271 32.0701 241.911 31.7138 242.398C31.3576 242.886 30.8211 243.121 30.1045 243.105ZM26.117 242.173C26.9878 242.173 27.6232 242 28.0232 241.655C28.4232 241.309 28.6232 240.875 28.6232 240.355C28.6232 239.838 28.4243 239.405 28.0263 239.055C27.6284 238.705 27.0045 238.53 26.1545 238.53C25.342 238.53 24.7295 238.71 24.317 239.07C23.9045 239.431 23.6982 239.865 23.6982 240.373C23.6982 240.873 23.9013 241.298 24.3076 241.648C24.7138 241.998 25.317 242.173 26.117 242.173Z"/>
<path d="M21.6857 235.773L20.392 235.773L20.392 234.648L21.6857 234.648L21.6857 235.773ZM29.5545 235.773L22.917 235.773L22.917 234.648L29.5545 234.648L29.5545 235.773Z"/>
<path d="M27.1232 228.605L27.267 227.498C28.0295 227.619 28.6263 227.929 29.0576 228.427C29.4888 228.924 29.7045 229.536 29.7045 230.261C29.7045 231.169 29.4076 231.899 28.8138 232.452C28.2201 233.004 27.369 233.28 26.2607 233.28C25.544 233.28 24.917 233.161 24.3795 232.923C23.842 232.686 23.4388 232.324 23.1701 231.839C22.9013 231.354 22.767 230.825 22.767 230.255C22.767 229.534 22.9493 228.944 23.3138 228.486C23.6784 228.028 24.1961 227.734 24.867 227.605L25.0357 228.698C24.5899 228.803 24.2545 228.987 24.0295 229.252C23.8045 229.516 23.692 229.836 23.692 230.211C23.692 230.778 23.8951 231.238 24.3013 231.592C24.7076 231.946 25.3503 232.123 26.2295 232.123C27.1211 232.123 27.769 231.953 28.1732 231.611C28.5774 231.269 28.7795 230.823 28.7795 230.273C28.7795 229.832 28.644 229.463 28.3732 229.167C28.1024 228.871 27.6857 228.684 27.1232 228.605Z"/>
<path d="M29.5545 223.005L20.392 223.005L20.392 221.88L29.5545 221.88L29.5545 223.005Z"/>
<path d="M28.7357 215.805C29.0899 216.221 29.3399 216.622 29.4857 217.008C29.6315 217.393 29.7045 217.807 29.7045 218.248C29.7045 218.978 29.5263 219.538 29.1701 219.93C28.8138 220.321 28.3586 220.517 27.8045 220.517C27.4795 220.517 27.1826 220.443 26.9138 220.295C26.6451 220.147 26.4295 219.954 26.267 219.714C26.1045 219.474 25.9815 219.205 25.8982 218.905C25.8399 218.684 25.7836 218.35 25.7295 217.905C25.6211 216.996 25.492 216.328 25.342 215.898C25.1878 215.894 25.0899 215.892 25.0482 215.892C24.5899 215.892 24.267 215.998 24.0795 216.211C23.8253 216.498 23.6982 216.925 23.6982 217.492C23.6982 218.021 23.7909 218.412 23.9763 218.664C24.1618 218.916 24.4899 219.103 24.9607 219.223L24.8107 220.323C24.3399 220.223 23.9597 220.059 23.6701 219.83C23.3805 219.6 23.1576 219.269 23.0013 218.836C22.8451 218.403 22.767 217.9 22.767 217.33C22.767 216.763 22.8336 216.303 22.967 215.948C23.1003 215.594 23.268 215.334 23.4701 215.167C23.6722 215 23.9274 214.884 24.2357 214.817C24.4274 214.78 24.7732 214.761 25.2732 214.761L26.7732 214.761C27.819 214.761 28.4805 214.737 28.7576 214.689C29.0347 214.641 29.3003 214.546 29.5545 214.405L29.5545 215.58C29.3211 215.696 29.0482 215.771 28.7357 215.805ZM26.2232 215.898C26.3899 216.307 26.5315 216.919 26.6482 217.736C26.7149 218.198 26.7899 218.525 26.8732 218.717C26.9565 218.909 27.0784 219.057 27.2388 219.161C27.3993 219.265 27.5774 219.317 27.7732 219.317C28.0732 219.317 28.3232 219.204 28.5232 218.976C28.7232 218.749 28.8232 218.417 28.8232 217.98C28.8232 217.546 28.7284 217.161 28.5388 216.823C28.3493 216.486 28.0899 216.238 27.7607 216.08C27.5065 215.959 27.1315 215.898 26.6357 215.898L26.2232 215.898Z"/>
<path d="M32.1107 213.067L31.0545 213.192C31.1211 212.946 31.1545 212.732 31.1545 212.548C31.1545 212.298 31.1128 212.098 31.0295 211.948C30.9461 211.798 30.8295 211.675 30.6795 211.58C30.567 211.509 30.2878 211.394 29.842 211.236C29.7795 211.215 29.6878 211.182 29.567 211.136L22.917 213.655L22.917 212.442L26.7607 211.061C27.2482 210.882 27.7607 210.721 28.2982 210.58C27.7815 210.45 27.2774 210.296 26.7857 210.117L22.917 208.698L22.917 207.573L29.667 210.098C30.3961 210.369 30.8982 210.58 31.1732 210.73C31.544 210.93 31.8159 211.159 31.9888 211.417C32.1618 211.675 32.2482 211.984 32.2482 212.342C32.2482 212.559 32.2024 212.8 32.1107 213.067Z"/>
<path d="M27.417 202.073L27.5607 200.911C28.2399 201.094 28.767 201.434 29.142 201.93C29.517 202.425 29.7045 203.059 29.7045 203.83C29.7045 204.8 29.4055 205.57 28.8076 206.139C28.2097 206.708 27.3711 206.992 26.292 206.992C25.1753 206.992 24.3086 206.705 23.692 206.13C23.0753 205.555 22.767 204.809 22.767 203.892C22.767 203.005 23.069 202.28 23.6732 201.717C24.2774 201.155 25.1274 200.873 26.2232 200.873C26.2899 200.873 26.3899 200.875 26.5232 200.88L26.5232 205.83C27.2524 205.788 27.8107 205.582 28.1982 205.211C28.5857 204.84 28.7795 204.378 28.7795 203.823C28.7795 203.411 28.6711 203.059 28.4545 202.767C28.2378 202.475 27.892 202.244 27.417 202.073ZM25.5982 205.767L25.5982 202.061C25.0399 202.111 24.6211 202.253 24.342 202.486C23.9086 202.844 23.692 203.309 23.692 203.88C23.692 204.396 23.8649 204.831 24.2107 205.183C24.5565 205.535 25.019 205.73 25.5982 205.767Z"/>
<path d="M29.5545 199.511L22.917 199.511L22.917 198.498L23.9232 198.498C23.4524 198.24 23.142 198.001 22.992 197.783C22.842 197.564 22.767 197.323 22.767 197.061C22.767 196.682 22.8878 196.296 23.1295 195.905L24.1732 196.292C24.0107 196.567 23.9295 196.842 23.9295 197.117C23.9295 197.363 24.0034 197.584 24.1513 197.78C24.2993 197.975 24.5045 198.115 24.767 198.198C25.167 198.323 25.6045 198.386 26.0795 198.386L29.5545 198.386L29.5545 199.511Z"/>
</g>
<g fill="#ffffff" opacity="1" stroke="none" vectornator:layerName="text">
<path d="M20.8006 126.075L20.8006 124.863L26.0943 124.863C27.0152 124.863 27.7464 124.967 28.2881 125.175C28.8297 125.384 29.2704 125.76 29.61 126.303C29.9495 126.847 30.1193 127.561 30.1193 128.444C30.1193 129.302 29.9714 130.004 29.6756 130.55C29.3797 131.096 28.9516 131.486 28.3912 131.719C27.8308 131.952 27.0652 132.069 26.0943 132.069L20.8006 132.069L20.8006 130.857L26.0881 130.857C26.8839 130.857 27.4704 130.783 27.8475 130.635C28.2245 130.487 28.5152 130.233 28.7193 129.872C28.9235 129.512 29.0256 129.071 29.0256 128.55C29.0256 127.659 28.8235 127.023 28.4193 126.644C28.0152 126.265 27.2381 126.075 26.0881 126.075L20.8006 126.075Z"/>
<path d="M29.9631 122.638L20.8006 122.638L20.8006 121.425L29.9631 121.425L29.9631 122.638Z"/>
<path d="M29.9631 115.9L20.8006 115.9L20.8006 114.775L29.9631 114.775L29.9631 115.9Z"/>
<path d="M29.1443 108.7C29.4985 109.117 29.7485 109.518 29.8943 109.903C30.0402 110.289 30.1131 110.702 30.1131 111.144C30.1131 111.873 29.935 112.434 29.5787 112.825C29.2225 113.217 28.7672 113.413 28.2131 113.413C27.8881 113.413 27.5912 113.339 27.3225 113.191C27.0537 113.043 26.8381 112.849 26.6756 112.61C26.5131 112.37 26.3902 112.1 26.3068 111.8C26.2485 111.579 26.1922 111.246 26.1381 110.8C26.0297 109.892 25.9006 109.223 25.7506 108.794C25.5964 108.79 25.4985 108.788 25.4568 108.788C24.9985 108.788 24.6756 108.894 24.4881 109.107C24.2339 109.394 24.1068 109.821 24.1068 110.388C24.1068 110.917 24.1995 111.308 24.3849 111.56C24.5704 111.812 24.8985 111.998 25.3693 112.119L25.2193 113.219C24.7485 113.119 24.3683 112.954 24.0787 112.725C23.7891 112.496 23.5662 112.165 23.4099 111.732C23.2537 111.298 23.1756 110.796 23.1756 110.225C23.1756 109.659 23.2422 109.198 23.3756 108.844C23.5089 108.49 23.6766 108.229 23.8787 108.063C24.0808 107.896 24.336 107.779 24.6443 107.713C24.836 107.675 25.1818 107.657 25.6818 107.657L27.1818 107.657C28.2277 107.657 28.8891 107.633 29.1662 107.585C29.4433 107.537 29.7089 107.442 29.9631 107.3L29.9631 108.475C29.7297 108.592 29.4568 108.667 29.1443 108.7ZM26.6318 108.794C26.7985 109.202 26.9402 109.815 27.0568 110.632C27.1235 111.094 27.1985 111.421 27.2818 111.613C27.3652 111.804 27.487 111.952 27.6475 112.057C27.8079 112.161 27.986 112.213 28.1818 112.213C28.4818 112.213 28.7318 112.099 28.9318 111.872C29.1318 111.645 29.2318 111.313 29.2318 110.875C29.2318 110.442 29.137 110.057 28.9475 109.719C28.7579 109.382 28.4985 109.134 28.1693 108.975C27.9152 108.854 27.5402 108.794 27.0443 108.794L26.6318 108.794Z"/>
<path d="M32.5193 105.963L31.4631 106.088C31.5297 105.842 31.5631 105.627 31.5631 105.444C31.5631 105.194 31.5214 104.994 31.4381 104.844C31.3547 104.694 31.2381 104.571 31.0881 104.475C30.9756 104.404 30.6964 104.29 30.2506 104.132C30.1881 104.111 30.0964 104.077 29.9756 104.032L23.3256 106.55L23.3256 105.338L27.1693 103.957C27.6568 103.777 28.1693 103.617 28.7068 103.475C28.1902 103.346 27.686 103.192 27.1943 103.013L23.3256 101.594L23.3256 100.469L30.0756 102.994C30.8047 103.265 31.3068 103.475 31.5818 103.625C31.9527 103.825 32.2245 104.054 32.3975 104.313C32.5704 104.571 32.6568 104.879 32.6568 105.238C32.6568 105.454 32.611 105.696 32.5193 105.963Z"/>
<path d="M27.8256 94.969L27.9693 93.8065C28.6485 93.9898 29.1756 94.3294 29.5506 94.8253C29.9256 95.3211 30.1131 95.9544 30.1131 96.7253C30.1131 97.6961 29.8141 98.4659 29.2162 99.0346C28.6183 99.6034 27.7797 99.8878 26.7006 99.8878C25.5839 99.8878 24.7172 99.6003 24.1006 99.0253C23.4839 98.4503 23.1756 97.7044 23.1756 96.7878C23.1756 95.9003 23.4777 95.1753 24.0818 94.6128C24.686 94.0503 25.536 93.769 26.6318 93.769C26.6985 93.769 26.7985 93.7711 26.9318 93.7753L26.9318 98.7253C27.661 98.6836 28.2193 98.4773 28.6068 98.1065C28.9943 97.7357 29.1881 97.2732 29.1881 96.719C29.1881 96.3065 29.0797 95.9544 28.8631 95.6628C28.6464 95.3711 28.3006 95.1398 27.8256 94.969ZM26.0068 98.6628L26.0068 94.9565C25.4485 95.0065 25.0297 95.1482 24.7506 95.3815C24.3172 95.7398 24.1006 96.2044 24.1006 96.7753C24.1006 97.2919 24.2735 97.7263 24.6193 98.0784C24.9652 98.4305 25.4277 98.6253 26.0068 98.6628Z"/>
<path d="M29.9631 92.4065L23.3256 92.4065L23.3256 91.394L24.3318 91.394C23.861 91.1357 23.5506 90.8971 23.4006 90.6784C23.2506 90.4596 23.1756 90.219 23.1756 89.9565C23.1756 89.5773 23.2964 89.1919 23.5381 88.8003L24.5818 89.1878C24.4193 89.4628 24.3381 89.7378 24.3381 90.0128C24.3381 90.2586 24.412 90.4794 24.5599 90.6753C24.7079 90.8711 24.9131 91.0107 25.1756 91.094C25.5756 91.219 26.0131 91.2815 26.4881 91.2815L29.9631 91.2815L29.9631 92.4065Z"/>
</g>
</g>
<g opacity="1" vectornator:layerName="Data protocols">
<path d="M45.087 321.501L151.566 321.501L151.566 321.501L151.566 450.98L151.566 450.98L45.087 450.98L45.087 450.98L45.087 321.501L45.087 321.501Z" fill="#c4c4c4" fill-rule="nonzero" opacity="1" stroke="#808080" stroke-linecap="butt" stroke-linejoin="miter" stroke-width="1" vectornator:layerName="rect"/>
<g fill="#474747" opacity="1" stroke="none" vectornator:layerName="tspan">
<path d="M82.264 376.286L82.264 367.123L86.3265 367.123C87.1432 367.123 87.764 367.206 88.189 367.37C88.614 367.535 88.9536 367.826 89.2077 368.242C89.4619 368.659 89.589 369.119 89.589 369.623C89.589 370.273 89.3786 370.821 88.9577 371.267C88.5369 371.713 87.8869 371.996 87.0077 372.117C87.3286 372.271 87.5723 372.423 87.739 372.573C88.0932 372.898 88.4286 373.305 88.7452 373.792L90.339 376.286L88.814 376.286L87.6015 374.38C87.2473 373.83 86.9557 373.409 86.7265 373.117C86.4973 372.826 86.2921 372.621 86.1109 372.505C85.9296 372.388 85.7452 372.307 85.5577 372.261C85.4202 372.232 85.1952 372.217 84.8827 372.217L83.4765 372.217L83.4765 376.286L82.264 376.286ZM83.4765 371.167L86.0827 371.167C86.6369 371.167 87.0702 371.11 87.3827 370.995C87.6952 370.881 87.9327 370.697 88.0952 370.445C88.2577 370.193 88.339 369.919 88.339 369.623C88.339 369.19 88.1817 368.834 87.8671 368.555C87.5525 368.276 87.0557 368.136 86.3765 368.136L83.4765 368.136L83.4765 371.167Z"/>
<path d="M91.514 376.286L91.514 367.123L98.139 367.123L98.139 368.205L92.7265 368.205L92.7265 371.011L97.7952 371.011L97.7952 372.086L92.7265 372.086L92.7265 375.205L98.3515 375.205L98.3515 376.286L91.514 376.286Z"/>
<path d="M99.614 373.342L100.758 373.242C100.812 373.701 100.938 374.077 101.136 374.37C101.334 374.664 101.641 374.902 102.058 375.083C102.474 375.264 102.943 375.355 103.464 375.355C103.927 375.355 104.335 375.286 104.689 375.148C105.043 375.011 105.307 374.822 105.48 374.583C105.653 374.343 105.739 374.082 105.739 373.798C105.739 373.511 105.656 373.26 105.489 373.045C105.322 372.831 105.047 372.651 104.664 372.505C104.418 372.409 103.874 372.26 103.033 372.058C102.191 371.856 101.602 371.665 101.264 371.486C100.827 371.257 100.5 370.972 100.286 370.633C100.071 370.293 99.964 369.913 99.964 369.492C99.964 369.03 100.095 368.597 100.358 368.195C100.62 367.793 101.004 367.488 101.508 367.28C102.012 367.071 102.572 366.967 103.189 366.967C103.868 366.967 104.467 367.077 104.986 367.295C105.505 367.514 105.904 367.836 106.183 368.261C106.462 368.686 106.612 369.167 106.633 369.705L105.47 369.792C105.408 369.213 105.196 368.776 104.836 368.48C104.475 368.184 103.943 368.036 103.239 368.036C102.506 368.036 101.971 368.17 101.636 368.439C101.3 368.708 101.133 369.032 101.133 369.411C101.133 369.74 101.252 370.011 101.489 370.223C101.722 370.436 102.332 370.654 103.317 370.877C104.303 371.1 104.979 371.294 105.345 371.461C105.879 371.707 106.272 372.018 106.527 372.395C106.781 372.772 106.908 373.207 106.908 373.698C106.908 374.186 106.768 374.645 106.489 375.077C106.21 375.508 105.809 375.843 105.286 376.083C104.763 376.322 104.174 376.442 103.52 376.442C102.691 376.442 101.996 376.321 101.436 376.08C100.875 375.838 100.436 375.475 100.117 374.989C99.7984 374.504 99.6307 373.955 99.614 373.342Z"/>
<path d="M110.895 376.286L110.895 368.205L107.877 368.205L107.877 367.123L115.139 367.123L115.139 368.205L112.108 368.205L112.108 376.286L110.895 376.286Z"/>
<path d="M77.2765 387.692L77.2765 386.617L81.1577 386.611L81.1577 390.011C80.5619 390.486 79.9473 390.843 79.314 391.083C78.6807 391.322 78.0307 391.442 77.364 391.442C76.464 391.442 75.6463 391.25 74.9109 390.864C74.1755 390.479 73.6202 389.921 73.2452 389.192C72.8702 388.463 72.6827 387.648 72.6827 386.748C72.6827 385.857 72.8692 385.025 73.2421 384.252C73.615 383.479 74.1515 382.905 74.8515 382.53C75.5515 382.155 76.3577 381.967 77.2702 381.967C77.9327 381.967 78.5317 382.075 79.0671 382.289C79.6025 382.504 80.0223 382.803 80.3265 383.186C80.6307 383.569 80.8619 384.069 81.0202 384.686L79.9265 384.986C79.789 384.519 79.6182 384.153 79.414 383.886C79.2098 383.619 78.9182 383.406 78.539 383.245C78.1598 383.085 77.739 383.005 77.2765 383.005C76.7223 383.005 76.2432 383.089 75.839 383.258C75.4348 383.427 75.1088 383.648 74.8609 383.923C74.613 384.198 74.4202 384.501 74.2827 384.83C74.0494 385.396 73.9327 386.011 73.9327 386.673C73.9327 387.49 74.0734 388.173 74.3546 388.723C74.6359 389.273 75.0452 389.682 75.5827 389.948C76.1202 390.215 76.6911 390.348 77.2952 390.348C77.8202 390.348 78.3327 390.247 78.8327 390.045C79.3327 389.843 79.7119 389.628 79.9702 389.398L79.9702 387.692L77.2765 387.692Z"/>
<path d="M82.789 391.286L82.789 384.648L83.8015 384.648L83.8015 385.655C84.0598 385.184 84.2984 384.873 84.5171 384.723C84.7359 384.573 84.9765 384.498 85.239 384.498C85.6182 384.498 86.0036 384.619 86.3952 384.861L86.0077 385.905C85.7327 385.742 85.4577 385.661 85.1827 385.661C84.9369 385.661 84.7161 385.735 84.5202 385.883C84.3244 386.031 84.1848 386.236 84.1015 386.498C83.9765 386.898 83.914 387.336 83.914 387.811L83.914 391.286L82.789 391.286Z"/>
<path d="M91.3952 390.467C90.9786 390.821 90.5775 391.071 90.1921 391.217C89.8067 391.363 89.3932 391.436 88.9515 391.436C88.2223 391.436 87.6619 391.258 87.2702 390.902C86.8786 390.545 86.6827 390.09 86.6827 389.536C86.6827 389.211 86.7567 388.914 86.9046 388.645C87.0525 388.377 87.2463 388.161 87.4859 387.998C87.7255 387.836 87.9952 387.713 88.2952 387.63C88.5161 387.571 88.8494 387.515 89.2952 387.461C90.2036 387.353 90.8723 387.223 91.3015 387.073C91.3057 386.919 91.3077 386.821 91.3077 386.78C91.3077 386.321 91.2015 385.998 90.989 385.811C90.7015 385.557 90.2744 385.43 89.7077 385.43C89.1786 385.43 88.788 385.522 88.5359 385.708C88.2838 385.893 88.0973 386.221 87.9765 386.692L86.8765 386.542C86.9765 386.071 87.1411 385.691 87.3702 385.402C87.5994 385.112 87.9307 384.889 88.364 384.733C88.7973 384.577 89.2994 384.498 89.8702 384.498C90.4369 384.498 90.8973 384.565 91.2515 384.698C91.6057 384.832 91.8661 385 92.0327 385.202C92.1994 385.404 92.3161 385.659 92.3827 385.967C92.4202 386.159 92.439 386.505 92.439 387.005L92.439 388.505C92.439 389.551 92.463 390.212 92.5109 390.489C92.5588 390.766 92.6536 391.032 92.7952 391.286L91.6202 391.286C91.5036 391.053 91.4286 390.78 91.3952 390.467ZM91.3015 387.955C90.8932 388.121 90.2807 388.263 89.464 388.38C89.0015 388.446 88.6744 388.521 88.4827 388.605C88.2911 388.688 88.1432 388.81 88.039 388.97C87.9348 389.131 87.8827 389.309 87.8827 389.505C87.8827 389.805 87.9963 390.055 88.2234 390.255C88.4505 390.455 88.7827 390.555 89.2202 390.555C89.6536 390.555 90.039 390.46 90.3765 390.27C90.714 390.081 90.9619 389.821 91.1202 389.492C91.2411 389.238 91.3015 388.863 91.3015 388.367L91.3015 387.955Z"/>
<path d="M94.1827 393.83L94.1827 384.648L95.2077 384.648L95.2077 385.511C95.4494 385.173 95.7223 384.92 96.0265 384.752C96.3307 384.583 96.6994 384.498 97.1327 384.498C97.6994 384.498 98.1994 384.644 98.6327 384.936C99.0661 385.228 99.3932 385.639 99.614 386.17C99.8348 386.702 99.9453 387.284 99.9453 387.917C99.9453 388.596 99.8234 389.208 99.5796 389.752C99.3359 390.295 98.9817 390.712 98.5171 391.002C98.0525 391.291 97.564 391.436 97.0515 391.436C96.6765 391.436 96.34 391.357 96.0421 391.198C95.7442 391.04 95.4994 390.84 95.3077 390.598L95.3077 393.83L94.1827 393.83ZM95.2015 388.005C95.2015 388.859 95.3744 389.49 95.7202 389.898C96.0661 390.307 96.4848 390.511 96.9765 390.511C97.4765 390.511 97.9046 390.3 98.2609 389.877C98.6171 389.454 98.7952 388.798 98.7952 387.911C98.7952 387.065 98.6213 386.432 98.2734 386.011C97.9255 385.59 97.5098 385.38 97.0265 385.38C96.5473 385.38 96.1234 385.604 95.7546 386.052C95.3859 386.5 95.2015 387.151 95.2015 388.005Z"/>
<path d="M101.302 391.286L101.302 382.123L102.427 382.123L102.427 385.411C102.952 384.803 103.614 384.498 104.414 384.498C104.906 384.498 105.333 384.595 105.695 384.789C106.058 384.983 106.317 385.251 106.473 385.592C106.63 385.934 106.708 386.43 106.708 387.08L106.708 391.286L105.583 391.286L105.583 387.08C105.583 386.517 105.461 386.108 105.217 385.852C104.973 385.595 104.629 385.467 104.183 385.467C103.849 385.467 103.536 385.554 103.242 385.727C102.948 385.9 102.739 386.134 102.614 386.43C102.489 386.726 102.427 387.134 102.427 387.655L102.427 391.286L101.302 391.286Z"/>
<path d="M115.508 390.305C116.07 390.692 116.589 390.976 117.064 391.155L116.708 391.998C116.049 391.761 115.393 391.386 114.739 390.873C114.06 391.253 113.31 391.442 112.489 391.442C111.66 391.442 110.908 391.242 110.233 390.842C109.558 390.442 109.038 389.88 108.673 389.155C108.309 388.43 108.127 387.613 108.127 386.705C108.127 385.801 108.31 384.978 108.677 384.236C109.043 383.494 109.565 382.93 110.242 382.542C110.919 382.155 111.677 381.961 112.514 381.961C113.36 381.961 114.122 382.162 114.802 382.564C115.481 382.966 115.998 383.529 116.355 384.252C116.711 384.975 116.889 385.79 116.889 386.698C116.889 387.453 116.774 388.131 116.545 388.733C116.316 389.335 115.97 389.859 115.508 390.305ZM112.839 388.755C113.539 388.951 114.116 389.242 114.57 389.63C115.283 388.98 115.639 388.003 115.639 386.698C115.639 385.957 115.513 385.309 115.261 384.755C115.009 384.201 114.64 383.77 114.155 383.464C113.669 383.158 113.124 383.005 112.52 383.005C111.616 383.005 110.866 383.314 110.27 383.933C109.674 384.552 109.377 385.476 109.377 386.705C109.377 387.896 109.671 388.811 110.261 389.448C110.85 390.086 111.604 390.405 112.52 390.405C112.954 390.405 113.362 390.323 113.745 390.161C113.366 389.915 112.966 389.74 112.545 389.636L112.839 388.755Z"/>
<path d="M118.47 391.286L118.47 382.123L119.683 382.123L119.683 390.205L124.195 390.205L124.195 391.286L118.47 391.286Z"/>
<path d="M93.4202 406.286L93.4202 405.005L94.7015 405.005L94.7015 406.286L93.4202 406.286ZM97.689 406.286L97.689 405.005L98.9702 405.005L98.9702 406.286L97.689 406.286ZM101.952 406.286L101.952 405.005L103.239 405.005L103.239 406.286L101.952 406.286Z"/>
</g>
</g>
<g opacity="1" vectornator:layerName="RPC protocols">
<path d="M158.831 175.738L266.587 175.738L266.587 175.738L266.587 452.837L266.587 452.837L158.831 452.837L158.831 452.837L158.831 175.738L158.831 175.738Z" fill="#c4c4c4" fill-rule="nonzero" opacity="1" stroke="#808080" stroke-linecap="butt" stroke-linejoin="miter" stroke-width="1" vectornator:layerName="rect"/>
<g fill="#474747" opacity="1" stroke="none" vectornator:layerName="tspan">
<path d="M183.016 231.244L184.11 231.094C184.139 231.794 184.27 232.274 184.504 232.532C184.737 232.79 185.06 232.919 185.473 232.919C185.777 232.919 186.039 232.85 186.26 232.71C186.481 232.57 186.633 232.381 186.716 232.141C186.8 231.902 186.841 231.519 186.841 230.994L186.841 224.682L188.054 224.682L188.054 230.926C188.054 231.692 187.961 232.286 187.776 232.707C187.59 233.128 187.296 233.449 186.894 233.669C186.492 233.89 186.02 234.001 185.479 234.001C184.675 234.001 184.059 233.769 183.632 233.307C183.205 232.844 183 232.157 183.016 231.244Z"/>
<path d="M189.623 230.901L190.766 230.801C190.82 231.259 190.946 231.635 191.144 231.929C191.342 232.222 191.65 232.46 192.066 232.641C192.483 232.822 192.952 232.913 193.473 232.913C193.935 232.913 194.343 232.844 194.698 232.707C195.052 232.569 195.315 232.381 195.488 232.141C195.661 231.902 195.748 231.64 195.748 231.357C195.748 231.069 195.664 230.818 195.498 230.604C195.331 230.389 195.056 230.209 194.673 230.063C194.427 229.967 193.883 229.818 193.041 229.616C192.2 229.414 191.61 229.224 191.273 229.044C190.835 228.815 190.509 228.531 190.294 228.191C190.08 227.852 189.973 227.471 189.973 227.051C189.973 226.588 190.104 226.156 190.366 225.754C190.629 225.352 191.012 225.046 191.516 224.838C192.02 224.63 192.581 224.526 193.198 224.526C193.877 224.526 194.476 224.635 194.994 224.854C195.513 225.072 195.912 225.394 196.191 225.819C196.47 226.244 196.62 226.726 196.641 227.263L195.479 227.351C195.416 226.771 195.205 226.334 194.844 226.038C194.484 225.742 193.952 225.594 193.248 225.594C192.514 225.594 191.98 225.729 191.644 225.997C191.309 226.266 191.141 226.59 191.141 226.969C191.141 227.299 191.26 227.569 191.498 227.782C191.731 227.994 192.34 228.212 193.326 228.435C194.311 228.658 194.987 228.853 195.354 229.019C195.887 229.265 196.281 229.577 196.535 229.954C196.789 230.331 196.916 230.765 196.916 231.257C196.916 231.744 196.777 232.204 196.498 232.635C196.218 233.066 195.817 233.402 195.294 233.641C194.771 233.881 194.183 234.001 193.529 234.001C192.7 234.001 192.005 233.88 191.444 233.638C190.884 233.396 190.444 233.033 190.126 232.547C189.807 232.062 189.639 231.513 189.623 230.901Z"/>
<path d="M198.204 229.382C198.204 227.861 198.612 226.67 199.429 225.81C200.245 224.95 201.3 224.519 202.591 224.519C203.437 224.519 204.2 224.721 204.879 225.126C205.558 225.53 206.076 226.093 206.432 226.816C206.788 227.539 206.966 228.359 206.966 229.276C206.966 230.205 206.779 231.036 206.404 231.769C206.029 232.503 205.498 233.058 204.81 233.435C204.123 233.812 203.381 234.001 202.585 234.001C201.723 234.001 200.952 233.792 200.273 233.376C199.593 232.959 199.079 232.39 198.729 231.669C198.379 230.949 198.204 230.186 198.204 229.382ZM199.454 229.401C199.454 230.505 199.751 231.375 200.344 232.01C200.938 232.645 201.683 232.963 202.579 232.963C203.491 232.963 204.242 232.642 204.832 232.001C205.421 231.359 205.716 230.449 205.716 229.269C205.716 228.524 205.59 227.872 205.338 227.316C205.086 226.76 204.717 226.329 204.232 226.022C203.746 225.716 203.202 225.563 202.598 225.563C201.739 225.563 201.001 225.858 200.382 226.447C199.763 227.037 199.454 228.021 199.454 229.401Z"/>
<path d="M208.516 233.844L208.516 224.682L209.76 224.682L214.573 231.876L214.573 224.682L215.735 224.682L215.735 233.844L214.491 233.844L209.679 226.644L209.679 233.844L208.516 233.844Z"/>
<path d="M217.191 231.094L217.191 229.963L220.648 229.963L220.648 231.094L217.191 231.094Z"/>
<path d="M222.054 233.844L222.054 224.682L226.116 224.682C226.933 224.682 227.554 224.764 227.979 224.929C228.404 225.093 228.743 225.384 228.998 225.801C229.252 226.217 229.379 226.678 229.379 227.182C229.379 227.832 229.168 228.38 228.748 228.826C228.327 229.271 227.677 229.555 226.798 229.676C227.118 229.83 227.362 229.982 227.529 230.132C227.883 230.457 228.218 230.863 228.535 231.351L230.129 233.844L228.604 233.844L227.391 231.938C227.037 231.388 226.745 230.967 226.516 230.676C226.287 230.384 226.082 230.18 225.901 230.063C225.719 229.946 225.535 229.865 225.348 229.819C225.21 229.79 224.985 229.776 224.673 229.776L223.266 229.776L223.266 233.844L222.054 233.844ZM223.266 228.726L225.873 228.726C226.427 228.726 226.86 228.668 227.173 228.554C227.485 228.439 227.723 228.256 227.885 228.004C228.048 227.752 228.129 227.478 228.129 227.182C228.129 226.749 227.971 226.392 227.657 226.113C227.342 225.834 226.845 225.694 226.166 225.694L223.266 225.694L223.266 228.726Z"/>
<path d="M231.279 233.844L231.279 224.682L234.735 224.682C235.343 224.682 235.808 224.711 236.129 224.769C236.579 224.844 236.956 224.987 237.26 225.197C237.564 225.408 237.809 225.703 237.994 226.082C238.18 226.461 238.273 226.878 238.273 227.332C238.273 228.111 238.025 228.77 237.529 229.31C237.033 229.85 236.137 230.119 234.841 230.119L232.491 230.119L232.491 233.844L231.279 233.844ZM232.491 229.038L234.86 229.038C235.643 229.038 236.2 228.892 236.529 228.601C236.858 228.309 237.023 227.899 237.023 227.369C237.023 226.986 236.926 226.658 236.732 226.385C236.538 226.112 236.283 225.932 235.966 225.844C235.762 225.79 235.385 225.763 234.835 225.763L232.491 225.763L232.491 229.038Z"/>
<path d="M246.354 230.632L247.566 230.938C247.312 231.934 246.855 232.693 246.194 233.216C245.534 233.739 244.727 234.001 243.773 234.001C242.785 234.001 241.982 233.8 241.363 233.397C240.744 232.995 240.274 232.413 239.951 231.651C239.628 230.888 239.466 230.069 239.466 229.194C239.466 228.24 239.649 227.408 240.013 226.697C240.378 225.987 240.896 225.447 241.569 225.079C242.242 224.71 242.983 224.526 243.791 224.526C244.708 224.526 245.479 224.759 246.104 225.226C246.729 225.692 247.164 226.349 247.41 227.194L246.216 227.476C246.004 226.809 245.695 226.324 245.291 226.019C244.887 225.715 244.379 225.563 243.766 225.563C243.062 225.563 242.474 225.732 242.001 226.069C241.528 226.407 241.195 226.86 241.004 227.429C240.812 227.997 240.716 228.584 240.716 229.188C240.716 229.967 240.83 230.647 241.057 231.229C241.284 231.81 241.637 232.244 242.116 232.532C242.595 232.819 243.114 232.963 243.673 232.963C244.352 232.963 244.927 232.767 245.398 232.376C245.868 231.984 246.187 231.403 246.354 230.632Z"/>
<path d="M186.613 248.844L190.157 244.069L187.032 239.682L188.476 239.682L190.138 242.032C190.484 242.519 190.73 242.894 190.876 243.157C191.08 242.824 191.321 242.476 191.601 242.113L193.444 239.682L194.763 239.682L191.544 244.001L195.013 248.844L193.513 248.844L191.207 245.576C191.078 245.388 190.944 245.184 190.807 244.963C190.603 245.296 190.457 245.526 190.369 245.651L188.069 248.844L186.613 248.844Z"/>
<path d="M196.044 248.844L196.044 239.682L197.869 239.682L200.038 246.169C200.238 246.774 200.384 247.226 200.476 247.526C200.58 247.192 200.742 246.703 200.963 246.057L203.157 239.682L204.788 239.682L204.788 248.844L203.619 248.844L203.619 241.176L200.957 248.844L199.863 248.844L197.213 241.044L197.213 248.844L196.044 248.844Z"/>
<path d="M206.694 248.844L206.694 239.682L207.907 239.682L207.907 247.763L212.419 247.763L212.419 248.844L206.694 248.844Z"/>
<path d="M213.282 246.094L213.282 244.963L216.738 244.963L216.738 246.094L213.282 246.094Z"/>
<path d="M218.144 248.844L218.144 239.682L222.207 239.682C223.024 239.682 223.644 239.764 224.069 239.929C224.494 240.093 224.834 240.384 225.088 240.801C225.342 241.217 225.469 241.678 225.469 242.182C225.469 242.832 225.259 243.38 224.838 243.826C224.417 244.271 223.767 244.555 222.888 244.676C223.209 244.83 223.453 244.982 223.619 245.132C223.974 245.457 224.309 245.863 224.626 246.351L226.219 248.844L224.694 248.844L223.482 246.938C223.128 246.388 222.836 245.967 222.607 245.676C222.378 245.384 222.173 245.18 221.991 245.063C221.81 244.946 221.626 244.865 221.438 244.819C221.301 244.79 221.076 244.776 220.763 244.776L219.357 244.776L219.357 248.844L218.144 248.844ZM219.357 243.726L221.963 243.726C222.517 243.726 222.951 243.668 223.263 243.554C223.576 243.439 223.813 243.256 223.976 243.004C224.138 242.752 224.219 242.478 224.219 242.182C224.219 241.749 224.062 241.392 223.748 241.113C223.433 240.834 222.936 240.694 222.257 240.694L219.357 240.694L219.357 243.726Z"/>
<path d="M227.369 248.844L227.369 239.682L230.826 239.682C231.434 239.682 231.899 239.711 232.219 239.769C232.669 239.844 233.046 239.987 233.351 240.197C233.655 240.408 233.9 240.703 234.085 241.082C234.27 241.461 234.363 241.878 234.363 242.332C234.363 243.111 234.115 243.77 233.619 244.31C233.124 244.85 232.228 245.119 230.932 245.119L228.582 245.119L228.582 248.844L227.369 248.844ZM228.582 244.038L230.951 244.038C231.734 244.038 232.29 243.892 232.619 243.601C232.949 243.309 233.113 242.899 233.113 242.369C233.113 241.986 233.016 241.658 232.823 241.385C232.629 241.112 232.374 240.932 232.057 240.844C231.853 240.79 231.476 240.763 230.926 240.763L228.582 240.763L228.582 244.038Z"/>
<path d="M242.444 245.632L243.657 245.938C243.403 246.934 242.945 247.693 242.285 248.216C241.625 248.739 240.817 249.001 239.863 249.001C238.876 249.001 238.073 248.8 237.454 248.397C236.835 247.995 236.364 247.413 236.041 246.651C235.718 245.888 235.557 245.069 235.557 244.194C235.557 243.24 235.739 242.408 236.104 241.697C236.468 240.987 236.987 240.447 237.66 240.079C238.333 239.71 239.074 239.526 239.882 239.526C240.799 239.526 241.569 239.759 242.194 240.226C242.819 240.692 243.255 241.349 243.501 242.194L242.307 242.476C242.094 241.809 241.786 241.324 241.382 241.019C240.978 240.715 240.469 240.563 239.857 240.563C239.153 240.563 238.564 240.732 238.091 241.069C237.618 241.407 237.286 241.86 237.094 242.429C236.903 242.997 236.807 243.584 236.807 244.188C236.807 244.967 236.92 245.647 237.148 246.229C237.375 246.81 237.728 247.244 238.207 247.532C238.686 247.819 239.205 247.963 239.763 247.963C240.442 247.963 241.017 247.767 241.488 247.376C241.959 246.984 242.278 246.403 242.444 245.632Z"/>
<path d="M198.926 264.394L200.019 264.557C200.065 264.894 200.192 265.14 200.401 265.294C200.68 265.503 201.061 265.607 201.544 265.607C202.065 265.607 202.467 265.503 202.751 265.294C203.034 265.086 203.226 264.794 203.326 264.419C203.384 264.19 203.411 263.709 203.407 262.976C202.915 263.555 202.303 263.844 201.569 263.844C200.657 263.844 199.951 263.515 199.451 262.857C198.951 262.199 198.701 261.409 198.701 260.488C198.701 259.855 198.815 259.27 199.044 258.735C199.274 258.2 199.606 257.786 200.041 257.494C200.477 257.203 200.988 257.057 201.576 257.057C202.359 257.057 203.005 257.374 203.513 258.007L203.513 257.207L204.551 257.207L204.551 262.944C204.551 263.978 204.445 264.71 204.235 265.141C204.025 265.572 203.691 265.913 203.235 266.163C202.779 266.413 202.217 266.538 201.551 266.538C200.759 266.538 200.119 266.36 199.632 266.004C199.144 265.647 198.909 265.111 198.926 264.394ZM199.857 260.407C199.857 261.278 200.03 261.913 200.376 262.313C200.721 262.713 201.155 262.913 201.676 262.913C202.192 262.913 202.626 262.714 202.976 262.316C203.326 261.918 203.501 261.294 203.501 260.444C203.501 259.632 203.32 259.019 202.96 258.607C202.6 258.194 202.165 257.988 201.657 257.988C201.157 257.988 200.732 258.191 200.382 258.597C200.032 259.004 199.857 259.607 199.857 260.407Z"/>
<path d="M206.413 263.844L206.413 254.682L210.476 254.682C211.292 254.682 211.913 254.764 212.338 254.929C212.763 255.093 213.103 255.384 213.357 255.801C213.611 256.217 213.738 256.678 213.738 257.182C213.738 257.832 213.528 258.38 213.107 258.826C212.686 259.271 212.036 259.555 211.157 259.676C211.478 259.83 211.721 259.982 211.888 260.132C212.242 260.457 212.578 260.863 212.894 261.351L214.488 263.844L212.963 263.844L211.751 261.938C211.396 261.388 211.105 260.967 210.876 260.676C210.646 260.384 210.441 260.18 210.26 260.063C210.079 259.946 209.894 259.865 209.707 259.819C209.569 259.79 209.344 259.776 209.032 259.776L207.626 259.776L207.626 263.844L206.413 263.844ZM207.626 258.726L210.232 258.726C210.786 258.726 211.219 258.668 211.532 258.554C211.844 258.439 212.082 258.256 212.244 258.004C212.407 257.752 212.488 257.478 212.488 257.182C212.488 256.749 212.331 256.392 212.016 256.113C211.702 255.834 211.205 255.694 210.526 255.694L207.626 255.694L207.626 258.726Z"/>
<path d="M215.638 263.844L215.638 254.682L219.094 254.682C219.703 254.682 220.167 254.711 220.488 254.769C220.938 254.844 221.315 254.987 221.619 255.197C221.924 255.408 222.168 255.703 222.354 256.082C222.539 256.461 222.632 256.878 222.632 257.332C222.632 258.111 222.384 258.77 221.888 259.31C221.392 259.85 220.496 260.119 219.201 260.119L216.851 260.119L216.851 263.844L215.638 263.844ZM216.851 259.038L219.219 259.038C220.003 259.038 220.559 258.892 220.888 258.601C221.217 258.309 221.382 257.899 221.382 257.369C221.382 256.986 221.285 256.658 221.091 256.385C220.898 256.112 220.642 255.932 220.326 255.844C220.121 255.79 219.744 255.763 219.194 255.763L216.851 255.763L216.851 259.038Z"/>
<path d="M230.713 260.632L231.926 260.938C231.671 261.934 231.214 262.693 230.554 263.216C229.893 263.739 229.086 264.001 228.132 264.001C227.144 264.001 226.341 263.8 225.723 263.397C225.104 262.995 224.633 262.413 224.31 261.651C223.987 260.888 223.826 260.069 223.826 259.194C223.826 258.24 224.008 257.408 224.373 256.697C224.737 255.987 225.256 255.447 225.929 255.079C226.602 254.71 227.342 254.526 228.151 254.526C229.067 254.526 229.838 254.759 230.463 255.226C231.088 255.692 231.524 256.349 231.769 257.194L230.576 257.476C230.363 256.809 230.055 256.324 229.651 256.019C229.246 255.715 228.738 255.563 228.126 255.563C227.421 255.563 226.833 255.732 226.36 256.069C225.887 256.407 225.555 256.86 225.363 257.429C225.171 257.997 225.076 258.584 225.076 259.188C225.076 259.967 225.189 260.647 225.416 261.229C225.643 261.81 225.996 262.244 226.476 262.532C226.955 262.819 227.474 262.963 228.032 262.963C228.711 262.963 229.286 262.767 229.757 262.376C230.228 261.984 230.546 261.403 230.713 260.632Z"/>
<path d="M210.454 278.844L210.454 277.563L211.735 277.563L211.735 278.844L210.454 278.844ZM214.723 278.844L214.723 277.563L216.004 277.563L216.004 278.844L214.723 278.844ZM218.985 278.844L218.985 277.563L220.273 277.563L220.273 278.844L218.985 278.844Z"/>
</g>
</g>
<g opacity="1" vectornator:layerName="Full-stack protocols">
<path d="M273.019 45.34L494.081 45.34L494.081 45.34L494.081 451.093L494.081 451.093L273.019 451.093L273.019 451.093L273.019 45.34L273.019 45.34Z" fill="#c4c4c4" fill-rule="nonzero" opacity="1" stroke="#808080" stroke-linecap="butt" stroke-linejoin="miter" stroke-width="1" vectornator:layerName="rect"/>
<g opacity="1" vectornator:layerName="Qworum logo+name">
<g opacity="1" vectornator:layerName="Qworum logo">
<path d="M313.901 106.095L313.902 106.094L313.902 106.095L313.902 97.0116L295.297 87.5471L286.214 87.5473L276.75 106.152L276.75 115.235L295.355 124.699L304.438 124.699L313.901 106.096L313.902 106.095L313.901 106.095ZM295.326 98.2295L303.217 106.121C303.189 106.121 303.161 106.124 303.132 106.124L303.219 106.124L295.329 114.014L295.329 114.014L295.326 114.017L295.326 114.017L287.432 106.123L295.326 98.2295L295.326 98.2295L295.326 98.2295L295.326 98.2295Z" fill="url(#LinearGradient_2)" fill-rule="nonzero" opacity="1" stroke="none" vectornator:layerName="path"/>
<path d="M313.902 97.0116L313.902 106.095L300.683 92.8728L284.526 109.03L279.141 103.644L295.297 87.5471L313.902 97.0116Z" fill="url(#LinearGradient_3)" fill-rule="nonzero" opacity="1" stroke="none" vectornator:layerName="polygon"/>
<path d="M286.214 87.5473L295.297 87.5471L282.075 100.767L298.232 116.923L292.847 122.309L276.75 106.152L286.214 87.5473Z" fill="url(#LinearGradient_4)" fill-rule="nonzero" opacity="1" stroke="none" vectornator:layerName="polygon"/>
<path d="M276.75 115.235L276.75 106.152L289.969 119.374L306.126 103.217L311.512 108.602L295.355 124.699L276.75 115.235Z" fill="url(#LinearGradient_5)" fill-rule="nonzero" opacity="1" stroke="none" vectornator:layerName="polygon"/>
<path d="M304.438 124.699L295.355 124.699L308.576 111.48L295.312 98.2295L295.312 87.5471L313.902 106.094L304.438 124.699Z" fill="url(#LinearGradient_6)" fill-rule="nonzero" opacity="1" stroke="none" vectornator:layerName="polygon"/>
<path d="M295.326 98.2295L287.383 106.173L276.75 106.152L288.417 94.448C289.537 93.3252 291.263 92.923 292.82 93.5638C294.377 94.2049 295.319 95.7058 295.324 97.2916L295.326 98.2295Z" fill="url(#LinearGradient_7)" fill-rule="nonzero" opacity="1" stroke="none" vectornator:layerName="path"/>
<path d="M287.43 106.121L295.326 114.017L295.355 124.699L284.013 113.392C282.831 112.214 282.407 110.397 283.082 108.758C283.757 107.119 285.336 106.127 287.005 106.122L287.43 106.121Z" fill="url(#LinearGradient_8)" fill-rule="nonzero" opacity="1" stroke="none" vectornator:layerName="path"/>
<path d="M295.326 114.017L303.22 106.123L313.902 106.095L302.959 117.071C301.722 118.312 299.814 118.757 298.093 118.048C296.372 117.34 295.33 115.681 295.326 113.928L295.326 114.017Z" fill="url(#LinearGradient_9)" fill-rule="nonzero" opacity="1" stroke="none" vectornator:layerName="path"/>
<path d="M303.134 106.052L295.225 98.1577L295.225 87.4753L306.188 98.4185C307.429 99.656 307.874 101.564 307.165 103.285C306.457 105.006 304.798 106.047 303.046 106.052L303.134 106.052Z" fill="url(#LinearGradient_10)" fill-rule="nonzero" opacity="1" stroke="none" vectornator:layerName="path"/>
</g>
<path d="M340.213 121.447L336.326 116.791C335.251 117.059 334.152 117.193 333.028 117.193C330.633 117.193 328.434 116.631 326.431 115.507C324.427 114.384 322.838 112.826 321.666 110.835C320.492 108.843 319.905 106.589 319.905 104.072C319.905 101.58 320.492 99.3376 321.666 97.345C322.838 95.3535 324.427 93.7959 326.431 92.6721C328.434 91.5483 330.633 90.9864 333.028 90.9864C335.447 90.9864 337.652 91.5483 339.644 92.6721C341.635 93.7959 343.211 95.3535 344.372 97.345C345.533 99.3376 346.114 101.58 346.114 104.072C346.114 106.344 345.631 108.415 344.666 110.285C343.701 112.154 342.388 113.676 340.726 114.848L346.59 121.447L340.213 121.447ZM325.183 104.072C325.183 105.782 325.513 107.284 326.173 108.58C326.833 109.875 327.756 110.871 328.941 111.567C330.127 112.264 331.489 112.613 333.028 112.613C334.568 112.613 335.924 112.264 337.097 111.567C338.27 110.871 339.186 109.875 339.846 108.58C340.506 107.284 340.836 105.782 340.836 104.072C340.836 102.362 340.506 100.865 339.846 99.5822C339.186 98.2984 338.27 97.3147 337.097 96.6318C335.924 95.9476 334.568 95.6054 333.028 95.6054C331.489 95.6054 330.127 95.9476 328.941 96.6318C327.756 97.3147 326.833 98.2984 326.173 99.5822C325.513 100.865 325.183 102.362 325.183 104.072ZM380.839 96.6318L374.902 116.938L369.366 116.938L365.664 102.752L361.962 116.938L356.392 116.938L350.416 96.6318L355.621 96.6318L359.213 112.099L363.098 96.6318L368.524 96.6318L372.336 112.063L375.928 96.6318L380.839 96.6318ZM395.332 117.268C393.378 117.268 391.619 116.834 390.054 115.967C388.491 115.099 387.263 113.871 386.371 112.282C385.479 110.694 385.033 108.862 385.033 106.785C385.033 104.707 385.492 102.874 386.408 101.285C387.324 99.6977 388.577 98.4701 390.166 97.6025C391.753 96.7349 393.525 96.3013 395.48 96.3013C397.435 96.3013 399.206 96.7349 400.795 97.6025C402.383 98.4701 403.635 99.6977 404.551 101.285C405.468 102.874 405.927 104.707 405.927 106.785C405.927 108.862 405.456 110.694 404.515 112.282C403.574 113.871 402.303 115.099 400.703 115.967C399.102 116.834 397.312 117.268 395.332 117.268ZM395.332 112.795C396.261 112.795 397.135 112.569 397.954 112.117C398.773 111.666 399.427 110.988 399.915 110.083C400.404 109.178 400.649 108.079 400.649 106.785C400.649 104.853 400.142 103.369 399.127 102.331C398.113 101.292 396.873 100.772 395.407 100.772C393.94 100.772 392.712 101.292 391.723 102.331C390.733 103.369 390.239 104.853 390.239 106.785C390.239 108.714 390.721 110.199 391.686 111.238C392.651 112.276 393.866 112.795 395.332 112.795ZM417.524 99.7842C418.184 98.7078 419.045 97.8646 420.107 97.2547C421.171 96.6433 422.387 96.3378 423.755 96.3378L423.755 101.726L422.398 101.726C420.786 101.726 419.571 102.104 418.752 102.861C417.933 103.619 417.524 104.939 417.524 106.821L417.524 116.938L412.391 116.938L412.391 96.6318L417.524 96.6318L417.524 99.7842ZM449.06 96.6318L449.06 116.938L443.894 116.938L443.894 114.371C443.234 115.252 442.372 115.942 441.308 116.443C440.246 116.943 439.091 117.193 437.845 117.193C436.257 117.193 434.852 116.857 433.629 116.186C432.408 115.514 431.449 114.525 430.752 113.216C430.056 111.909 429.708 110.352 429.708 108.543L429.708 96.6318L434.838 96.6318L434.838 107.811C434.838 109.423 435.242 110.663 436.049 111.53C436.855 112.398 437.955 112.832 439.348 112.832C440.765 112.832 441.877 112.398 442.683 111.53C443.49 110.663 443.894 109.423 443.894 107.811L443.894 96.6318L449.06 96.6318ZM482.029 96.3378C484.522 96.3378 486.532 97.1014 488.059 98.629C489.587 100.156 490.35 102.288 490.35 105.024L490.35 116.938L485.218 116.938L485.218 105.722C485.218 104.133 484.815 102.917 484.009 102.073C483.202 101.23 482.102 100.809 480.709 100.809C479.316 100.809 478.211 101.23 477.393 102.073C476.574 102.917 476.165 104.133 476.165 105.722L476.165 116.938L471.033 116.938L471.033 105.722C471.033 104.133 470.63 102.917 469.824 102.073C469.016 101.23 467.916 100.809 466.523 100.809C465.106 100.809 463.989 101.23 463.171 102.073C462.352 102.917 461.943 104.133 461.943 105.722L461.943 116.938L456.811 116.938L456.811 96.6318L461.943 96.6318L461.943 99.0864C462.603 98.2317 463.452 97.5596 464.49 97.0701C465.529 96.5819 466.671 96.3378 467.917 96.3378C469.506 96.3378 470.923 96.6735 472.169 97.345C473.415 98.0176 474.381 98.9769 475.065 100.222C475.725 99.05 476.684 98.1092 477.943 97.4007C479.201 96.692 480.563 96.3378 482.029 96.3378Z" fill="#651da4" fill-rule="nonzero" opacity="1" stroke="none" vectornator:layerName="Qworum name"/>
</g>
</g>
<g fill="#ffffff" opacity="1" stroke="none" vectornator:layerName="Title">
<path d="M101.25 35.0001L101.25 26.6739L98.2764 26.6739L98.2764 24.9786L106.24 24.9786L106.24 26.6739L103.273 26.6739L103.273 35.0001L101.25 35.0001Z"/>
<path d="M109.446 24.9786L109.446 28.6632C110.066 27.9385 110.807 27.5762 111.668 27.5762C112.11 27.5762 112.509 27.6583 112.864 27.8223C113.22 27.9864 113.487 28.196 113.667 28.4512C113.848 28.7065 113.971 28.989 114.037 29.2989C114.103 29.6088 114.136 30.0896 114.136 30.7413L114.136 35.0001L112.215 35.0001L112.215 31.1651C112.215 30.404 112.178 29.921 112.105 29.7159C112.033 29.5108 111.904 29.3479 111.719 29.2271C111.535 29.1064 111.303 29.046 111.025 29.046C110.706 29.046 110.422 29.1234 110.171 29.2784C109.92 29.4333 109.737 29.6669 109.621 29.9791C109.504 30.2913 109.446 30.7527 109.446 31.3634L109.446 35.0001L107.525 35.0001L107.525 24.9786L109.446 24.9786Z"/>
<path d="M120.288 32.6895L122.202 33.0108C121.956 33.7126 121.568 34.247 121.037 34.6138C120.506 34.9807 119.841 35.1641 119.044 35.1641C117.782 35.1641 116.847 34.7517 116.241 33.9268C115.763 33.266 115.523 32.432 115.523 31.4249C115.523 30.2218 115.838 29.2795 116.467 28.5982C117.096 27.9169 117.891 27.5762 118.853 27.5762C119.933 27.5762 120.785 27.9329 121.409 28.6461C122.034 29.3593 122.332 30.4519 122.305 31.9239L117.492 31.9239C117.506 32.4936 117.661 32.9368 117.957 33.2535C118.253 33.5702 118.622 33.7286 119.064 33.7286C119.365 33.7286 119.618 33.6466 119.823 33.4825C120.028 33.3184 120.183 33.0541 120.288 32.6895ZM120.397 30.7481C120.384 30.1921 120.24 29.7694 119.967 29.4801C119.693 29.1907 119.361 29.046 118.969 29.046C118.549 29.046 118.203 29.1986 117.93 29.504C117.656 29.8093 117.522 30.224 117.526 30.7481L120.397 30.7481Z"/>
<path d="M129.195 29.9552L127.452 29.6407C127.648 28.9389 127.985 28.4193 128.464 28.0821C128.942 27.7449 129.653 27.5762 130.597 27.5762C131.453 27.5762 132.091 27.6776 132.511 27.8804C132.93 28.0832 133.225 28.3407 133.396 28.6529C133.567 28.9651 133.652 29.5382 133.652 30.3721L133.632 32.6143C133.632 33.2524 133.663 33.7229 133.724 34.026C133.786 34.329 133.901 34.6537 134.069 35.0001L132.169 35.0001C132.119 34.8725 132.057 34.6833 131.984 34.4327C131.952 34.3188 131.93 34.2436 131.916 34.2071C131.588 34.5261 131.237 34.7654 130.863 34.9249C130.49 35.0844 130.091 35.1641 129.667 35.1641C128.92 35.1641 128.331 34.9613 127.9 34.5557C127.469 34.1501 127.254 33.6374 127.254 33.0177C127.254 32.6075 127.352 32.2418 127.548 31.9205C127.744 31.5992 128.018 31.3531 128.372 31.1822C128.725 31.0113 129.234 30.8621 129.899 30.7344C130.797 30.5658 131.419 30.4086 131.766 30.2628L131.766 30.0714C131.766 29.7022 131.674 29.439 131.492 29.2818C131.31 29.1246 130.966 29.046 130.46 29.046C130.118 29.046 129.852 29.1132 129.66 29.2476C129.469 29.3821 129.314 29.6179 129.195 29.9552ZM131.766 31.5137C131.52 31.5958 131.13 31.6938 130.597 31.8077C130.063 31.9216 129.715 32.0333 129.551 32.1427C129.3 32.3204 129.175 32.546 129.175 32.8194C129.175 33.0883 129.275 33.3207 129.476 33.5167C129.676 33.7126 129.931 33.8106 130.241 33.8106C130.588 33.8106 130.918 33.6967 131.232 33.4688C131.465 33.2956 131.618 33.0837 131.69 32.8331C131.741 32.669 131.766 32.3568 131.766 31.8966L131.766 31.5137Z"/>
<path d="M135.491 27.7403L137.282 27.7403L137.282 28.8067C137.515 28.4421 137.829 28.1459 138.226 27.918C138.622 27.6902 139.062 27.5762 139.545 27.5762C140.388 27.5762 141.104 27.9066 141.691 28.5675C142.279 29.2283 142.573 30.1488 142.573 31.3292C142.573 32.5414 142.277 33.4836 141.685 34.1558C141.092 34.828 140.374 35.1641 139.531 35.1641C139.13 35.1641 138.767 35.0844 138.441 34.9249C138.115 34.7654 137.772 34.4919 137.412 34.1046L137.412 37.7618L135.491 37.7618L135.491 27.7403ZM137.392 31.2471C137.392 32.0629 137.553 32.6656 137.877 33.0552C138.201 33.4449 138.595 33.6397 139.06 33.6397C139.506 33.6397 139.878 33.4608 140.174 33.1031C140.47 32.7454 140.618 32.1586 140.618 31.3428C140.618 30.5818 140.466 30.0167 140.16 29.6475C139.855 29.2784 139.477 29.0938 139.025 29.0938C138.556 29.0938 138.166 29.275 137.856 29.6373C137.547 29.9996 137.392 30.5362 137.392 31.2471Z"/>
<path d="M144.043 27.7403L145.834 27.7403L145.834 28.8067C146.066 28.4421 146.381 28.1459 146.777 27.918C147.174 27.6902 147.614 27.5762 148.097 27.5762C148.94 27.5762 149.655 27.9066 150.243 28.5675C150.831 29.2283 151.125 30.1488 151.125 31.3292C151.125 32.5414 150.829 33.4836 150.236 34.1558C149.644 34.828 148.926 35.1641 148.083 35.1641C147.682 35.1641 147.319 35.0844 146.993 34.9249C146.667 34.7654 146.324 34.4919 145.964 34.1046L145.964 37.7618L144.043 37.7618L144.043 27.7403ZM145.943 31.2471C145.943 32.0629 146.105 32.6656 146.429 33.0552C146.752 33.4449 147.146 33.6397 147.611 33.6397C148.058 33.6397 148.429 33.4608 148.726 33.1031C149.022 32.7454 149.17 32.1586 149.17 31.3428C149.17 30.5818 149.017 30.0167 148.712 29.6475C148.407 29.2784 148.028 29.0938 147.577 29.0938C147.108 29.0938 146.718 29.275 146.408 29.6373C146.098 29.9996 145.943 30.5362 145.943 31.2471Z"/>
<path d="M152.649 35.0001L152.649 24.9786L154.57 24.9786L154.57 35.0001L152.649 35.0001Z"/>
<path d="M156.539 26.7559L156.539 24.9786L158.46 24.9786L158.46 26.7559L156.539 26.7559ZM156.539 35.0001L156.539 27.7403L158.46 27.7403L158.46 35.0001L156.539 35.0001Z"/>
<path d="M166.759 29.8868L164.865 30.2286C164.801 29.8503 164.657 29.5655 164.431 29.3741C164.206 29.1827 163.913 29.087 163.553 29.087C163.074 29.087 162.693 29.2522 162.408 29.5826C162.123 29.913 161.98 30.4656 161.98 31.2403C161.98 32.1016 162.125 32.71 162.415 33.0655C162.704 33.421 163.092 33.5987 163.58 33.5987C163.945 33.5987 164.243 33.495 164.476 33.2877C164.708 33.0803 164.872 32.7237 164.968 32.2178L166.855 32.5391C166.659 33.405 166.283 34.059 165.727 34.501C165.171 34.9431 164.425 35.1641 163.491 35.1641C162.429 35.1641 161.583 34.8292 160.952 34.1593C160.32 33.4893 160.005 32.5619 160.005 31.377C160.005 30.1785 160.322 29.2454 160.955 28.5777C161.589 27.9101 162.445 27.5762 163.525 27.5762C164.41 27.5762 165.112 27.7665 165.634 28.147C166.156 28.5276 166.531 29.1075 166.759 29.8868Z"/>
<path d="M169.65 29.9552L167.907 29.6407C168.103 28.9389 168.44 28.4193 168.919 28.0821C169.397 27.7449 170.108 27.5762 171.052 27.5762C171.909 27.5762 172.547 27.6776 172.966 27.8804C173.385 28.0832 173.68 28.3407 173.851 28.6529C174.022 28.9651 174.107 29.5382 174.107 30.3721L174.087 32.6143C174.087 33.2524 174.118 33.7229 174.179 34.026C174.241 34.329 174.356 34.6537 174.524 35.0001L172.624 35.0001C172.574 34.8725 172.512 34.6833 172.439 34.4327C172.408 34.3188 172.385 34.2436 172.371 34.2071C172.043 34.5261 171.692 34.7654 171.318 34.9249C170.945 35.0844 170.546 35.1641 170.122 35.1641C169.375 35.1641 168.786 34.9613 168.355 34.5557C167.924 34.1501 167.709 33.6374 167.709 33.0177C167.709 32.6075 167.807 32.2418 168.003 31.9205C168.199 31.5992 168.473 31.3531 168.827 31.1822C169.18 31.0113 169.689 30.8621 170.355 30.7344C171.252 30.5658 171.874 30.4086 172.221 30.2628L172.221 30.0714C172.221 29.7022 172.13 29.439 171.947 29.2818C171.765 29.1246 171.421 29.046 170.915 29.046C170.573 29.046 170.307 29.1132 170.115 29.2476C169.924 29.3821 169.769 29.6179 169.65 29.9552ZM172.221 31.5137C171.975 31.5958 171.585 31.6938 171.052 31.8077C170.519 31.9216 170.17 32.0333 170.006 32.1427C169.755 32.3204 169.63 32.546 169.63 32.8194C169.63 33.0883 169.73 33.3207 169.931 33.5167C170.131 33.7126 170.386 33.8106 170.696 33.8106C171.043 33.8106 171.373 33.6967 171.688 33.4688C171.92 33.2956 172.073 33.0837 172.146 32.8331C172.196 32.669 172.221 32.3568 172.221 31.8966L172.221 31.5137Z"/>
<path d="M179.33 27.7403L179.33 29.2716L178.018 29.2716L178.018 32.1973C178.018 32.7898 178.03 33.135 178.055 33.233C178.08 33.331 178.137 33.4119 178.226 33.4757C178.315 33.5395 178.423 33.5714 178.551 33.5714C178.729 33.5714 178.986 33.5098 179.323 33.3868L179.487 34.877C179.041 35.0684 178.535 35.1641 177.97 35.1641C177.623 35.1641 177.311 35.106 177.033 34.9898C176.755 34.8736 176.551 34.7232 176.421 34.5386C176.292 34.3541 176.202 34.1046 176.151 33.7901C176.11 33.5668 176.09 33.1156 176.09 32.4366L176.09 29.2716L175.208 29.2716L175.208 27.7403L176.09 27.7403L176.09 26.2979L178.018 25.1768L178.018 27.7403L179.33 27.7403Z"/>
<path d="M180.663 26.7559L180.663 24.9786L182.584 24.9786L182.584 26.7559L180.663 26.7559ZM180.663 35.0001L180.663 27.7403L182.584 27.7403L182.584 35.0001L180.663 35.0001Z"/>
<path d="M184.108 31.2677C184.108 30.6296 184.266 30.0121 184.58 29.4151C184.895 28.8181 185.34 28.3624 185.917 28.0479C186.493 27.7335 187.137 27.5762 187.848 27.5762C188.946 27.5762 189.846 27.9329 190.548 28.6461C191.25 29.3593 191.601 30.2605 191.601 31.3497C191.601 32.448 191.246 33.3583 190.538 34.0806C189.829 34.803 188.937 35.1641 187.861 35.1641C187.196 35.1641 186.561 35.0137 185.958 34.713C185.354 34.4122 184.895 33.9713 184.58 33.3902C184.266 32.8092 184.108 32.1016 184.108 31.2677ZM186.077 31.3702C186.077 32.0902 186.248 32.6417 186.59 33.0245C186.932 33.4073 187.353 33.5987 187.855 33.5987C188.356 33.5987 188.776 33.4073 189.116 33.0245C189.455 32.6417 189.625 32.0857 189.625 31.3565C189.625 30.6456 189.455 30.0987 189.116 29.7159C188.776 29.3331 188.356 29.1417 187.855 29.1417C187.353 29.1417 186.932 29.3331 186.59 29.7159C186.248 30.0987 186.077 30.6501 186.077 31.3702Z"/>
<path d="M199.708 35.0001L197.787 35.0001L197.787 31.295C197.787 30.5111 197.746 30.0041 197.664 29.774C197.582 29.5439 197.449 29.365 197.264 29.2374C197.08 29.1098 196.857 29.046 196.598 29.046C196.265 29.046 195.966 29.1371 195.702 29.3194C195.438 29.5017 195.257 29.7432 195.159 30.044C195.061 30.3448 195.012 30.9008 195.012 31.712L195.012 35.0001L193.091 35.0001L193.091 27.7403L194.875 27.7403L194.875 28.8067C195.508 27.9864 196.306 27.5762 197.268 27.5762C197.691 27.5762 198.079 27.6526 198.43 27.8052C198.781 27.9579 199.046 28.1527 199.226 28.3897C199.406 28.6267 199.531 28.8956 199.602 29.1964C199.673 29.4971 199.708 29.9278 199.708 30.4884L199.708 35.0001Z"/>
<path d="M205.546 35.0001L205.546 24.9786L207.467 24.9786L207.467 35.0001L205.546 35.0001Z"/>
<path d="M210.871 29.9552L209.128 29.6407C209.324 28.9389 209.661 28.4193 210.14 28.0821C210.618 27.7449 211.329 27.5762 212.272 27.5762C213.129 27.5762 213.767 27.6776 214.187 27.8804C214.606 28.0832 214.901 28.3407 215.072 28.6529C215.243 28.9651 215.328 29.5382 215.328 30.3721L215.308 32.6143C215.308 33.2524 215.338 33.7229 215.4 34.026C215.461 34.329 215.577 34.6537 215.745 35.0001L213.845 35.0001C213.795 34.8725 213.733 34.6833 213.66 34.4327C213.628 34.3188 213.605 34.2436 213.592 34.2071C213.264 34.5261 212.913 34.7654 212.539 34.9249C212.165 35.0844 211.767 35.1641 211.343 35.1641C210.595 35.1641 210.006 34.9613 209.576 34.5557C209.145 34.1501 208.93 33.6374 208.93 33.0177C208.93 32.6075 209.028 32.2418 209.224 31.9205C209.42 31.5992 209.694 31.3531 210.047 31.1822C210.401 31.0113 210.91 30.8621 211.575 30.7344C212.473 30.5658 213.095 30.4086 213.441 30.2628L213.441 30.0714C213.441 29.7022 213.35 29.439 213.168 29.2818C212.986 29.1246 212.642 29.046 212.136 29.046C211.794 29.046 211.527 29.1132 211.336 29.2476C211.145 29.3821 210.99 29.6179 210.871 29.9552ZM213.441 31.5137C213.195 31.5958 212.806 31.6938 212.272 31.8077C211.739 31.9216 211.391 32.0333 211.227 32.1427C210.976 32.3204 210.851 32.546 210.851 32.8194C210.851 33.0883 210.951 33.3207 211.151 33.5167C211.352 33.7126 211.607 33.8106 211.917 33.8106C212.263 33.8106 212.594 33.6967 212.908 33.4688C213.141 33.2956 213.293 33.0837 213.366 32.8331C213.416 32.669 213.441 32.3568 213.441 31.8966L213.441 31.5137Z"/>
<path d="M216.313 27.7403L218.356 27.7403L220.093 32.8946L221.788 27.7403L223.777 27.7403L221.214 34.7266L220.756 35.9913C220.587 36.4151 220.427 36.7387 220.274 36.962C220.121 37.1853 219.946 37.3664 219.748 37.5054C219.549 37.6444 219.306 37.7527 219.016 37.8302C218.727 37.9076 218.4 37.9464 218.035 37.9464C217.666 37.9464 217.304 37.9076 216.948 37.8302L216.777 36.3262C217.078 36.3855 217.349 36.4151 217.591 36.4151C218.037 36.4151 218.368 36.2841 218.582 36.022C218.796 35.76 218.96 35.4262 219.074 35.0206L216.313 27.7403Z"/>
<path d="M229.212 32.6895L231.126 33.0108C230.88 33.7126 230.491 34.247 229.96 34.6138C229.43 34.9807 228.765 35.1641 227.968 35.1641C226.705 35.1641 225.771 34.7517 225.165 33.9268C224.687 33.266 224.447 32.432 224.447 31.4249C224.447 30.2218 224.762 29.2795 225.391 28.5982C226.02 27.9169 226.815 27.5762 227.776 27.5762C228.856 27.5762 229.709 27.9329 230.333 28.6461C230.957 29.3593 231.256 30.4519 231.229 31.9239L226.416 31.9239C226.43 32.4936 226.585 32.9368 226.881 33.2535C227.177 33.5702 227.546 33.7286 227.988 33.7286C228.289 33.7286 228.542 33.6466 228.747 33.4825C228.952 33.3184 229.107 33.0541 229.212 32.6895ZM229.321 30.7481C229.308 30.1921 229.164 29.7694 228.891 29.4801C228.617 29.1907 228.285 29.046 227.893 29.046C227.473 29.046 227.127 29.1986 226.854 29.504C226.58 29.8093 226.446 30.224 226.45 30.7481L229.321 30.7481Z"/>
<path d="M234.633 35.0001L232.712 35.0001L232.712 27.7403L234.496 27.7403L234.496 28.7725C234.801 28.2849 235.076 27.9636 235.32 27.8087C235.564 27.6537 235.841 27.5762 236.15 27.5762C236.588 27.5762 237.009 27.697 237.415 27.9385L236.82 29.6134C236.497 29.4037 236.196 29.2989 235.918 29.2989C235.649 29.2989 235.421 29.373 235.234 29.5211C235.048 29.6692 234.901 29.9369 234.793 30.3243C234.686 30.7117 234.633 31.5229 234.633 32.7579L234.633 35.0001Z"/>
<path d="M248.462 29.8868L246.568 30.2286C246.505 29.8503 246.36 29.5655 246.134 29.3741C245.909 29.1827 245.616 29.087 245.256 29.087C244.777 29.087 244.396 29.2522 244.111 29.5826C243.826 29.913 243.684 30.4656 243.684 31.2403C243.684 32.1016 243.828 32.71 244.118 33.0655C244.407 33.421 244.796 33.5987 245.283 33.5987C245.648 33.5987 245.946 33.495 246.179 33.2877C246.411 33.0803 246.575 32.7237 246.671 32.2178L248.558 32.5391C248.362 33.405 247.986 34.059 247.43 34.501C246.874 34.9431 246.129 35.1641 245.194 35.1641C244.133 35.1641 243.286 34.8292 242.655 34.1593C242.024 33.4893 241.708 32.5619 241.708 31.377C241.708 30.1785 242.025 29.2454 242.658 28.5777C243.292 27.9101 244.148 27.5762 245.229 27.5762C246.113 27.5762 246.816 27.7665 247.337 28.147C247.859 28.5276 248.234 29.1075 248.462 29.8868Z"/>
<path d="M249.474 31.2677C249.474 30.6296 249.631 30.0121 249.945 29.4151C250.26 28.8181 250.705 28.3624 251.282 28.0479C251.858 27.7335 252.502 27.5762 253.213 27.5762C254.311 27.5762 255.211 27.9329 255.913 28.6461C256.615 29.3593 256.966 30.2605 256.966 31.3497C256.966 32.448 256.612 33.3583 255.903 34.0806C255.194 34.803 254.302 35.1641 253.227 35.1641C252.561 35.1641 251.927 35.0137 251.323 34.713C250.719 34.4122 250.26 33.9713 249.945 33.3902C249.631 32.8092 249.474 32.1016 249.474 31.2677ZM251.442 31.3702C251.442 32.0902 251.613 32.6417 251.955 33.0245C252.297 33.4073 252.718 33.5987 253.22 33.5987C253.721 33.5987 254.141 33.4073 254.481 33.0245C254.82 32.6417 254.99 32.0857 254.99 31.3565C254.99 30.6456 254.82 30.0987 254.481 29.7159C254.141 29.3331 253.721 29.1417 253.22 29.1417C252.718 29.1417 252.297 29.3331 251.955 29.7159C251.613 30.0987 251.442 30.6501 251.442 31.3702Z"/>
<path d="M260.466 35.0001L257.54 27.7403L259.557 27.7403L260.924 31.4454L261.32 32.6827C261.425 32.3682 261.491 32.1609 261.519 32.0606C261.582 31.8555 261.651 31.6505 261.724 31.4454L263.105 27.7403L265.08 27.7403L262.195 35.0001L260.466 35.0001Z"/>
<path d="M270.46 32.6895L272.374 33.0108C272.128 33.7126 271.739 34.247 271.209 34.6138C270.678 34.9807 270.013 35.1641 269.216 35.1641C267.953 35.1641 267.019 34.7517 266.413 33.9268C265.935 33.266 265.695 32.432 265.695 31.4249C265.695 30.2218 266.01 29.2795 266.639 28.5982C267.268 27.9169 268.063 27.5762 269.024 27.5762C270.105 27.5762 270.957 27.9329 271.581 28.6461C272.205 29.3593 272.504 30.4519 272.477 31.9239L267.664 31.9239C267.678 32.4936 267.833 32.9368 268.129 33.2535C268.425 33.5702 268.794 33.7286 269.236 33.7286C269.537 33.7286 269.79 33.6466 269.995 33.4825C270.2 33.3184 270.355 33.0541 270.46 32.6895ZM270.569 30.7481C270.556 30.1921 270.412 29.7694 270.139 29.4801C269.865 29.1907 269.533 29.046 269.141 29.046C268.721 29.046 268.375 29.1986 268.102 29.504C267.828 29.8093 267.694 30.224 267.698 30.7481L270.569 30.7481Z"/>
<path d="M275.881 35.0001L273.96 35.0001L273.96 27.7403L275.744 27.7403L275.744 28.7725C276.049 28.2849 276.324 27.9636 276.568 27.8087C276.812 27.6537 277.089 27.5762 277.398 27.5762C277.836 27.5762 278.258 27.697 278.663 27.9385L278.068 29.6134C277.745 29.4037 277.444 29.2989 277.166 29.2989C276.897 29.2989 276.669 29.373 276.482 29.5211C276.296 29.6692 276.149 29.9369 276.042 30.3243C275.934 30.7117 275.881 31.5229 275.881 32.7579L275.881 35.0001Z"/>
<path d="M280.926 29.9552L279.183 29.6407C279.379 28.9389 279.716 28.4193 280.194 28.0821C280.673 27.7449 281.384 27.5762 282.327 27.5762C283.184 27.5762 283.822 27.6776 284.241 27.8804C284.66 28.0832 284.956 28.3407 285.126 28.6529C285.297 28.9651 285.383 29.5382 285.383 30.3721L285.362 32.6143C285.362 33.2524 285.393 33.7229 285.455 34.026C285.516 34.329 285.631 34.6537 285.8 35.0001L283.899 35.0001C283.849 34.8725 283.788 34.6833 283.715 34.4327C283.683 34.3188 283.66 34.2436 283.646 34.2071C283.318 34.5261 282.967 34.7654 282.594 34.9249C282.22 35.0844 281.821 35.1641 281.397 35.1641C280.65 35.1641 280.061 34.9613 279.63 34.5557C279.2 34.1501 278.984 33.6374 278.984 33.0177C278.984 32.6075 279.082 32.2418 279.278 31.9205C279.474 31.5992 279.749 31.3531 280.102 31.1822C280.455 31.0113 280.965 30.8621 281.63 30.7344C282.528 30.5658 283.15 30.4086 283.496 30.2628L283.496 30.0714C283.496 29.7022 283.405 29.439 283.223 29.2818C283.04 29.1246 282.696 29.046 282.19 29.046C281.849 29.046 281.582 29.1132 281.391 29.2476C281.199 29.3821 281.044 29.6179 280.926 29.9552ZM283.496 31.5137C283.25 31.5958 282.86 31.6938 282.327 31.8077C281.794 31.9216 281.445 32.0333 281.281 32.1427C281.031 32.3204 280.905 32.546 280.905 32.8194C280.905 33.0883 281.006 33.3207 281.206 33.5167C281.407 33.7126 281.662 33.8106 281.972 33.8106C282.318 33.8106 282.648 33.6967 282.963 33.4688C283.195 33.2956 283.348 33.0837 283.421 32.8331C283.471 32.669 283.496 32.3568 283.496 31.8966L283.496 31.5137Z"/>
<path d="M287.099 35.4786L289.293 35.7452C289.329 36.0004 289.414 36.1759 289.546 36.2716C289.728 36.4083 290.015 36.4766 290.407 36.4766C290.909 36.4766 291.285 36.4014 291.535 36.251C291.704 36.1508 291.831 35.989 291.918 35.7657C291.977 35.6062 292.007 35.3122 292.007 34.8839L292.007 33.8243C291.433 34.6081 290.708 35.0001 289.833 35.0001C288.858 35.0001 288.085 34.5876 287.516 33.7628C287.069 33.1111 286.846 32.2999 286.846 31.3292C286.846 30.1124 287.139 29.1827 287.724 28.5401C288.31 27.8975 289.038 27.5762 289.908 27.5762C290.806 27.5762 291.547 27.9705 292.13 28.7589L292.13 27.7403L293.928 27.7403L293.928 34.255C293.928 35.1117 293.857 35.752 293.716 36.1759C293.575 36.5997 293.376 36.9324 293.121 37.1739C292.866 37.4154 292.525 37.6046 292.099 37.7413C291.673 37.878 291.134 37.9464 290.482 37.9464C289.252 37.9464 288.379 37.7356 287.864 37.314C287.349 36.8925 287.092 36.3581 287.092 35.711C287.092 35.6472 287.094 35.5697 287.099 35.4786ZM288.814 31.2198C288.814 31.99 288.964 32.5539 289.262 32.9117C289.561 33.2694 289.929 33.4483 290.366 33.4483C290.836 33.4483 291.232 33.2649 291.556 32.898C291.879 32.5312 292.041 31.9877 292.041 31.2677C292.041 30.5157 291.886 29.9574 291.576 29.5928C291.266 29.2283 290.874 29.046 290.4 29.046C289.94 29.046 289.561 29.2248 289.262 29.5826C288.964 29.9403 288.814 30.4861 288.814 31.2198Z"/>
<path d="M300.032 32.6895L301.946 33.0108C301.7 33.7126 301.312 34.247 300.781 34.6138C300.25 34.9807 299.586 35.1641 298.788 35.1641C297.526 35.1641 296.591 34.7517 295.985 33.9268C295.507 33.266 295.268 32.432 295.268 31.4249C295.268 30.2218 295.582 29.2795 296.211 28.5982C296.84 27.9169 297.635 27.5762 298.597 27.5762C299.677 27.5762 300.529 27.9329 301.153 28.6461C301.778 29.3593 302.076 30.4519 302.049 31.9239L297.236 31.9239C297.25 32.4936 297.405 32.9368 297.701 33.2535C297.997 33.5702 298.367 33.7286 298.809 33.7286C299.109 33.7286 299.362 33.6466 299.567 33.4825C299.772 33.3184 299.927 33.0541 300.032 32.6895ZM300.142 30.7481C300.128 30.1921 299.984 29.7694 299.711 29.4801C299.438 29.1907 299.105 29.046 298.713 29.046C298.294 29.046 297.947 29.1986 297.674 29.504C297.4 29.8093 297.266 30.224 297.271 30.7481L300.142 30.7481Z"/>
<path d="M307.06 31.2677C307.06 30.6296 307.217 30.0121 307.531 29.4151C307.846 28.8181 308.291 28.3624 308.868 28.0479C309.444 27.7335 310.088 27.5762 310.799 27.5762C311.897 27.5762 312.797 27.9329 313.499 28.6461C314.201 29.3593 314.552 30.2605 314.552 31.3497C314.552 32.448 314.197 33.3583 313.489 34.0806C312.78 34.803 311.888 35.1641 310.813 35.1641C310.147 35.1641 309.513 35.0137 308.909 34.713C308.305 34.4122 307.846 33.9713 307.531 33.3902C307.217 32.8092 307.06 32.1016 307.06 31.2677ZM309.028 31.3702C309.028 32.0902 309.199 32.6417 309.541 33.0245C309.883 33.4073 310.304 33.5987 310.806 33.5987C311.307 33.5987 311.727 33.4073 312.067 33.0245C312.406 32.6417 312.576 32.0857 312.576 31.3565C312.576 30.6456 312.406 30.0987 312.067 29.7159C311.727 29.3331 311.307 29.1417 310.806 29.1417C310.304 29.1417 309.883 29.3331 309.541 29.7159C309.199 30.0987 309.028 30.6501 309.028 31.3702Z"/>
<path d="M315.215 27.7403L316.281 27.7403L316.281 27.1934C316.281 26.5828 316.346 26.127 316.476 25.8262C316.606 25.5255 316.845 25.2805 317.194 25.0914C317.542 24.9023 317.983 24.8077 318.517 24.8077C319.063 24.8077 319.599 24.8897 320.123 25.0538L319.863 26.3936C319.558 26.3207 319.264 26.2843 318.981 26.2843C318.703 26.2843 318.504 26.3492 318.383 26.4791C318.263 26.609 318.202 26.8585 318.202 27.2276L318.202 27.7403L319.638 27.7403L319.638 29.251L318.202 29.251L318.202 35.0001L316.281 35.0001L316.281 29.251L315.215 29.251L315.215 27.7403Z"/>
<path d="M333.139 35.0001L330.938 35.0001L330.063 32.7237L326.057 32.7237L325.23 35.0001L323.083 35.0001L326.986 24.9786L329.126 24.9786L333.139 35.0001ZM329.413 31.0352L328.032 27.3165L326.679 31.0352L329.413 31.0352Z"/>
<path d="M334.212 35.0001L334.212 24.9786L337.459 24.9786C338.689 24.9786 339.492 25.0287 339.865 25.129C340.439 25.2794 340.92 25.6064 341.308 26.1099C341.695 26.6135 341.889 27.2641 341.889 28.0616C341.889 28.6768 341.777 29.1941 341.554 29.6134C341.33 30.0326 341.047 30.3619 340.703 30.6011C340.359 30.8404 340.009 30.9988 339.653 31.0762C339.17 31.1719 338.471 31.2198 337.555 31.2198L336.235 31.2198L336.235 35.0001L334.212 35.0001ZM336.235 26.6739L336.235 29.5177L337.343 29.5177C338.14 29.5177 338.674 29.4652 338.942 29.3604C339.211 29.2556 339.422 29.0915 339.575 28.8682C339.727 28.6449 339.804 28.3852 339.804 28.0889C339.804 27.7244 339.697 27.4236 339.482 27.1866C339.268 26.9496 338.997 26.8015 338.669 26.7423C338.427 26.6967 337.942 26.6739 337.213 26.6739L336.235 26.6739Z"/>
<path d="M343.488 35.0001L343.488 24.9786L345.512 24.9786L345.512 35.0001L343.488 35.0001Z"/>
<path d="M351.261 27.7403L353.052 27.7403L353.052 28.8067C353.284 28.4421 353.599 28.1459 353.995 27.918C354.392 27.6902 354.831 27.5762 355.314 27.5762C356.158 27.5762 356.873 27.9066 357.461 28.5675C358.049 29.2283 358.343 30.1488 358.343 31.3292C358.343 32.5414 358.047 33.4836 357.454 34.1558C356.862 34.828 356.144 35.1641 355.301 35.1641C354.9 35.1641 354.536 35.0844 354.21 34.9249C353.885 34.7654 353.542 34.4919 353.182 34.1046L353.182 37.7618L351.261 37.7618L351.261 27.7403ZM353.161 31.2471C353.161 32.0629 353.323 32.6656 353.646 33.0552C353.97 33.4449 354.364 33.6397 354.829 33.6397C355.276 33.6397 355.647 33.4608 355.943 33.1031C356.24 32.7454 356.388 32.1586 356.388 31.3428C356.388 30.5818 356.235 30.0167 355.93 29.6475C355.624 29.2784 355.246 29.0938 354.795 29.0938C354.326 29.0938 353.936 29.275 353.626 29.6373C353.316 29.9996 353.161 30.5362 353.161 31.2471Z"/>
<path d="M361.706 35.0001L359.785 35.0001L359.785 27.7403L361.569 27.7403L361.569 28.7725C361.875 28.2849 362.149 27.9636 362.393 27.8087C362.637 27.6537 362.914 27.5762 363.224 27.5762C363.661 27.5762 364.083 27.697 364.488 27.9385L363.894 29.6134C363.57 29.4037 363.269 29.2989 362.991 29.2989C362.722 29.2989 362.494 29.373 362.308 29.5211C362.121 29.6692 361.974 29.9369 361.867 30.3243C361.76 30.7117 361.706 31.5229 361.706 32.7579L361.706 35.0001Z"/>
<path d="M364.871 31.2677C364.871 30.6296 365.028 30.0121 365.343 29.4151C365.657 28.8181 366.103 28.3624 366.679 28.0479C367.256 27.7335 367.899 27.5762 368.61 27.5762C369.709 27.5762 370.609 27.9329 371.311 28.6461C372.012 29.3593 372.363 30.2605 372.363 31.3497C372.363 32.448 372.009 33.3583 371.3 34.0806C370.592 34.803 369.7 35.1641 368.624 35.1641C367.959 35.1641 367.324 35.0137 366.72 34.713C366.116 34.4122 365.657 33.9713 365.343 33.3902C365.028 32.8092 364.871 32.1016 364.871 31.2677ZM366.84 31.3702C366.84 32.0902 367.011 32.6417 367.353 33.0245C367.694 33.4073 368.116 33.5987 368.617 33.5987C369.119 33.5987 369.539 33.4073 369.878 33.0245C370.218 32.6417 370.388 32.0857 370.388 31.3565C370.388 30.6456 370.218 30.0987 369.878 29.7159C369.539 29.3331 369.119 29.1417 368.617 29.1417C368.116 29.1417 367.694 29.3331 367.353 29.7159C367.011 30.0987 366.84 30.6501 366.84 31.3702Z"/>
<path d="M377.196 27.7403L377.196 29.2716L375.884 29.2716L375.884 32.1973C375.884 32.7898 375.896 33.135 375.921 33.233C375.946 33.331 376.003 33.4119 376.092 33.4757C376.181 33.5395 376.289 33.5714 376.417 33.5714C376.595 33.5714 376.852 33.5098 377.189 33.3868L377.354 34.877C376.907 35.0684 376.401 35.1641 375.836 35.1641C375.49 35.1641 375.177 35.106 374.899 34.9898C374.621 34.8736 374.417 34.7232 374.288 34.5386C374.158 34.3541 374.068 34.1046 374.018 33.7901C373.977 33.5668 373.956 33.1156 373.956 32.4366L373.956 29.2716L373.074 29.2716L373.074 27.7403L373.956 27.7403L373.956 26.2979L375.884 25.1768L375.884 27.7403L377.196 27.7403Z"/>
<path d="M378.085 31.2677C378.085 30.6296 378.242 30.0121 378.557 29.4151C378.871 28.8181 379.317 28.3624 379.893 28.0479C380.47 27.7335 381.113 27.5762 381.824 27.5762C382.923 27.5762 383.823 27.9329 384.524 28.6461C385.226 29.3593 385.577 30.2605 385.577 31.3497C385.577 32.448 385.223 33.3583 384.514 34.0806C383.806 34.803 382.913 35.1641 381.838 35.1641C381.173 35.1641 380.538 35.0137 379.934 34.713C379.33 34.4122 378.871 33.9713 378.557 33.3902C378.242 32.8092 378.085 32.1016 378.085 31.2677ZM380.054 31.3702C380.054 32.0902 380.225 32.6417 380.566 33.0245C380.908 33.4073 381.33 33.5987 381.831 33.5987C382.332 33.5987 382.753 33.4073 383.092 33.0245C383.432 32.6417 383.602 32.0857 383.602 31.3565C383.602 30.6456 383.432 30.0987 383.092 29.7159C382.753 29.3331 382.332 29.1417 381.831 29.1417C381.33 29.1417 380.908 29.3331 380.566 29.7159C380.225 30.0987 380.054 30.6501 380.054 31.3702Z"/>
<path d="M393.411 29.8868L391.518 30.2286C391.454 29.8503 391.309 29.5655 391.084 29.3741C390.858 29.1827 390.565 29.087 390.205 29.087C389.727 29.087 389.345 29.2522 389.06 29.5826C388.775 29.913 388.633 30.4656 388.633 31.2403C388.633 32.1016 388.778 32.71 389.067 33.0655C389.356 33.421 389.745 33.5987 390.232 33.5987C390.597 33.5987 390.896 33.495 391.128 33.2877C391.36 33.0803 391.524 32.7237 391.62 32.2178L393.507 32.5391C393.311 33.405 392.935 34.059 392.379 34.501C391.823 34.9431 391.078 35.1641 390.144 35.1641C389.082 35.1641 388.235 34.8292 387.604 34.1593C386.973 33.4893 386.657 32.5619 386.657 31.377C386.657 30.1785 386.974 29.2454 387.607 28.5777C388.241 27.9101 389.098 27.5762 390.178 27.5762C391.062 27.5762 391.765 27.7665 392.287 28.147C392.808 28.5276 393.183 29.1075 393.411 29.8868Z"/>
<path d="M394.423 31.2677C394.423 30.6296 394.58 30.0121 394.895 29.4151C395.209 28.8181 395.654 28.3624 396.231 28.0479C396.807 27.7335 397.451 27.5762 398.162 27.5762C399.26 27.5762 400.16 27.9329 400.862 28.6461C401.564 29.3593 401.915 30.2605 401.915 31.3497C401.915 32.448 401.561 33.3583 400.852 34.0806C400.143 34.803 399.251 35.1641 398.176 35.1641C397.51 35.1641 396.876 35.0137 396.272 34.713C395.668 34.4122 395.209 33.9713 394.895 33.3902C394.58 32.8092 394.423 32.1016 394.423 31.2677ZM396.392 31.3702C396.392 32.0902 396.563 32.6417 396.904 33.0245C397.246 33.4073 397.668 33.5987 398.169 33.5987C398.67 33.5987 399.091 33.4073 399.43 33.0245C399.77 32.6417 399.939 32.0857 399.939 31.3565C399.939 30.6456 399.77 30.0987 399.43 29.7159C399.091 29.3331 398.67 29.1417 398.169 29.1417C397.668 29.1417 397.246 29.3331 396.904 29.7159C396.563 30.0987 396.392 30.6501 396.392 31.3702Z"/>
<path d="M403.419 35.0001L403.419 24.9786L405.34 24.9786L405.34 35.0001L403.419 35.0001Z"/>
<path d="M406.632 32.9288L408.56 32.6348C408.642 33.0085 408.808 33.2922 409.059 33.4859C409.309 33.6796 409.66 33.7764 410.111 33.7764C410.608 33.7764 410.982 33.6853 411.232 33.503C411.401 33.3754 411.485 33.2045 411.485 32.9903C411.485 32.8445 411.44 32.7237 411.349 32.628C411.253 32.5369 411.039 32.4525 410.706 32.3751C409.157 32.0333 408.174 31.7211 407.76 31.4385C407.186 31.0466 406.898 30.502 406.898 29.8048C406.898 29.1759 407.147 28.6472 407.644 28.2188C408.14 27.7904 408.91 27.5762 409.954 27.5762C410.948 27.5762 411.686 27.738 412.169 28.0616C412.652 28.3852 412.985 28.8637 413.167 29.4971L411.355 29.8321C411.278 29.5496 411.131 29.3331 410.915 29.1827C410.698 29.0323 410.389 28.9571 409.988 28.9571C409.482 28.9571 409.12 29.0277 408.901 29.169C408.756 29.2693 408.683 29.3992 408.683 29.5587C408.683 29.6954 408.746 29.8116 408.874 29.9073C409.047 30.0349 409.645 30.2149 410.668 30.4473C411.692 30.6798 412.406 30.9646 412.812 31.3018C413.213 31.6436 413.413 32.1199 413.413 32.7305C413.413 33.3959 413.135 33.9678 412.579 34.4464C412.023 34.9249 411.201 35.1641 410.111 35.1641C409.122 35.1641 408.34 34.9636 407.763 34.5626C407.187 34.1615 406.81 33.6169 406.632 32.9288Z"/>
</g>
</g>
</svg>
