<?xml version="1.0" encoding="UTF-8" standalone="no"?>
<!DOCTYPE svg PUBLIC "-//W3C//DTD SVG 1.1//EN" "http://www.w3.org/Graphics/SVG/1.1/DTD/svg11.dtd">
<!-- Created with Vectornator (http://vectornator.io/) -->
<svg height="100%" stroke-miterlimit="10" style="fill-rule:nonzero;clip-rule:evenodd;stroke-linecap:round;stroke-linejoin:round;" version="1.1" viewBox="0 0 600 400" width="100%" xml:space="preserve" xmlns="http://www.w3.org/2000/svg" xmlns:vectornator="http://vectornator.io" xmlns:xlink="http://www.w3.org/1999/xlink">
<defs>
<linearGradient gradientTransform="matrix(86.428 0 0 30.577 140.705 57.171)" gradientUnits="userSpaceOnUse" id="LinearGradient" x1="0" x2="1" y1="0" y2="0">
<stop offset="0" stop-color="#204051"/>
</linearGradient>
<linearGradient gradientTransform="matrix(86.428 0 0 30.577 332.513 57.275)" gradientUnits="userSpaceOnUse" id="LinearGradient_2" x1="0" x2="1" y1="0" y2="0">
<stop offset="0" stop-color="#204051"/>
</linearGradient>
</defs>
<g id="Untitled" vectornator:layerName="Untitled">
<g opacity="1" vectornator:layerName="g">
<path d="M140.705 57.171L227.133 57.171L227.133 57.171L227.133 87.748L227.133 87.748L140.705 87.748L140.705 87.748L140.705 57.171L140.705 57.171Z" fill="url(#LinearGradient)" fill-rule="nonzero" opacity="1" stroke="#000000" stroke-linecap="butt" stroke-linejoin="miter" stroke-width="1" vectornator:layerName="rect"/>
<g fill="#ffffff" opacity="1" stroke="none" vectornator:layerName="text">
<path d="M160.568 69.4822L161.447 69.4822L161.447 73.3202C161.447 73.9878 161.372 74.5179 161.22 74.9106C161.069 75.3033 160.797 75.6228 160.403 75.869C160.008 76.1152 159.491 76.2383 158.851 76.2383C158.228 76.2383 157.719 76.131 157.324 75.9166C156.928 75.7021 156.645 75.3917 156.476 74.9854C156.307 74.5791 156.223 74.024 156.223 73.3202L156.223 69.4822L157.102 69.4822L157.102 73.3156C157.102 73.8926 157.155 74.3178 157.262 74.5912C157.37 74.8646 157.554 75.0753 157.815 75.2233C158.077 75.3713 158.396 75.4453 158.774 75.4453C159.42 75.4453 159.881 75.2988 160.156 75.0058C160.431 74.7128 160.568 74.1494 160.568 73.3156L160.568 69.4822Z"/>
<path d="M162.48 74.6886L163.287 74.5617C163.332 74.8849 163.458 75.1327 163.665 75.3048C163.872 75.477 164.161 75.5631 164.533 75.5631C164.907 75.5631 165.185 75.4868 165.367 75.3343C165.548 75.1817 165.638 75.0028 165.638 74.7973C165.638 74.6131 165.558 74.4681 165.398 74.3623C165.287 74.2898 165.009 74.1977 164.565 74.0859C163.966 73.9349 163.552 73.8042 163.321 73.694C163.09 73.5837 162.914 73.4312 162.795 73.2363C162.676 73.0415 162.616 72.8262 162.616 72.5906C162.616 72.3761 162.665 72.1775 162.763 71.9948C162.862 71.812 162.995 71.6602 163.164 71.5394C163.291 71.4457 163.464 71.3664 163.683 71.3015C163.902 71.2365 164.137 71.2041 164.388 71.2041C164.765 71.2041 165.097 71.2584 165.382 71.3672C165.668 71.4759 165.879 71.6232 166.015 71.809C166.15 71.9948 166.244 72.2432 166.295 72.5544L165.498 72.6631C165.462 72.4154 165.357 72.2221 165.183 72.0831C165.009 71.9442 164.764 71.8747 164.447 71.8747C164.072 71.8747 163.805 71.9366 163.645 72.0605C163.485 72.1843 163.405 72.3293 163.405 72.4955C163.405 72.6012 163.438 72.6964 163.504 72.7809C163.571 72.8685 163.675 72.941 163.817 72.9984C163.898 73.0286 164.139 73.0981 164.537 73.2069C165.114 73.3609 165.517 73.4871 165.745 73.5852C165.973 73.6834 166.152 73.8261 166.282 74.0134C166.412 74.2007 166.477 74.4333 166.477 74.7112C166.477 74.9831 166.397 75.2391 166.239 75.4793C166.08 75.7195 165.851 75.9052 165.552 76.0366C165.253 76.168 164.915 76.2338 164.537 76.2338C163.912 76.2338 163.436 76.1039 163.108 75.8441C162.78 75.5843 162.571 75.1991 162.48 74.6886Z"/>
<path d="M170.741 74.5753L171.583 74.6795C171.451 75.1719 171.204 75.5541 170.845 75.8259C170.485 76.0978 170.026 76.2338 169.467 76.2338C168.764 76.2338 168.205 76.017 167.793 75.5835C167.381 75.15 167.175 74.5421 167.175 73.7597C167.175 72.9501 167.383 72.3218 167.8 71.8747C168.217 71.4276 168.757 71.2041 169.422 71.2041C170.065 71.2041 170.591 71.4231 170.999 71.8611C171.407 72.2991 171.611 72.9154 171.611 73.7098C171.611 73.7582 171.609 73.8307 171.606 73.9273L168.017 73.9273C168.048 74.456 168.197 74.8608 168.466 75.1417C168.735 75.4227 169.07 75.5631 169.472 75.5631C169.771 75.5631 170.026 75.4846 170.238 75.3275C170.449 75.1704 170.617 74.9197 170.741 74.5753ZM168.063 73.2567L170.75 73.2567C170.713 72.8519 170.611 72.5483 170.442 72.3459C170.182 72.0318 169.845 71.8747 169.431 71.8747C169.057 71.8747 168.742 72.0001 168.486 72.2508C168.231 72.5015 168.09 72.8368 168.063 73.2567Z"/>
<path d="M172.598 76.125L172.598 71.3128L173.333 71.3128L173.333 72.0423C173.52 71.701 173.693 71.4759 173.851 71.3672C174.01 71.2584 174.184 71.2041 174.375 71.2041C174.65 71.2041 174.929 71.2917 175.213 71.4669L174.932 72.2236C174.733 72.1058 174.533 72.0469 174.334 72.0469C174.156 72.0469 173.996 72.1005 173.854 72.2077C173.712 72.315 173.61 72.4637 173.55 72.6541C173.459 72.9441 173.414 73.2612 173.414 73.6056L173.414 76.125L172.598 76.125Z"/>
<path d="M181.416 75.5314C181.114 75.7882 180.823 75.9694 180.544 76.0752C180.265 76.1809 179.965 76.2338 179.645 76.2338C179.116 76.2338 178.71 76.1046 178.426 75.8463C178.142 75.588 178 75.258 178 74.8562C178 74.6206 178.053 74.4054 178.161 74.2105C178.268 74.0157 178.408 73.8594 178.582 73.7416C178.756 73.6237 178.951 73.5346 179.169 73.4742C179.329 73.4319 179.571 73.3911 179.894 73.3519C180.552 73.2733 181.037 73.1797 181.348 73.0709C181.351 72.9592 181.353 72.8882 181.353 72.858C181.353 72.5257 181.276 72.2916 181.122 72.1556C180.913 71.9714 180.604 71.8792 180.193 71.8792C179.809 71.8792 179.526 71.9464 179.343 72.0809C179.16 72.2153 179.025 72.4532 178.938 72.7945L178.14 72.6858C178.213 72.3444 178.332 72.0688 178.498 71.8588C178.664 71.6489 178.904 71.4873 179.219 71.374C179.533 71.2607 179.897 71.2041 180.311 71.2041C180.721 71.2041 181.055 71.2524 181.312 71.3491C181.569 71.4457 181.758 71.5673 181.878 71.7138C181.999 71.8603 182.084 72.0454 182.132 72.2689C182.159 72.4079 182.173 72.6586 182.173 73.0211L182.173 74.1086C182.173 74.8668 182.19 75.3464 182.225 75.5473C182.26 75.7482 182.329 75.9407 182.431 76.125L181.579 76.125C181.495 75.9558 181.44 75.758 181.416 75.5314ZM181.348 73.7098C181.052 73.8307 180.608 73.9334 180.016 74.018C179.681 74.0663 179.444 74.1207 179.305 74.1811C179.166 74.2415 179.059 74.3299 178.983 74.4462C178.907 74.5625 178.87 74.6916 178.87 74.8336C178.87 75.0511 178.952 75.2323 179.117 75.3773C179.281 75.5223 179.522 75.5948 179.839 75.5948C180.154 75.5948 180.433 75.5261 180.678 75.3887C180.922 75.2512 181.102 75.0632 181.217 74.8245C181.305 74.6403 181.348 74.3684 181.348 74.0089L181.348 73.7098Z"/>
<path d="M183.288 76.5238L184.081 76.6416C184.114 76.8863 184.206 77.0645 184.357 77.1763C184.559 77.3273 184.836 77.4028 185.186 77.4028C185.564 77.4028 185.855 77.3273 186.061 77.1763C186.266 77.0252 186.405 76.8138 186.478 76.5419C186.52 76.3757 186.54 76.0268 186.537 75.4952C186.18 75.9151 185.736 76.125 185.204 76.125C184.543 76.125 184.031 75.8864 183.668 75.4091C183.306 74.9318 183.125 74.3593 183.125 73.6917C183.125 73.2326 183.208 72.8089 183.374 72.4207C183.54 72.0325 183.781 71.7327 184.097 71.5212C184.412 71.3098 184.783 71.2041 185.209 71.2041C185.777 71.2041 186.245 71.4336 186.614 71.8928L186.614 71.3128L187.366 71.3128L187.366 75.4725C187.366 76.2217 187.29 76.7526 187.137 77.0652C186.984 77.3779 186.743 77.6248 186.412 77.8061C186.081 77.9873 185.674 78.078 185.191 78.078C184.617 78.078 184.153 77.9488 183.8 77.6905C183.446 77.4323 183.276 77.0433 183.288 76.5238ZM183.963 73.6328C183.963 74.2642 184.088 74.7248 184.339 75.0148C184.59 75.3048 184.904 75.4498 185.281 75.4498C185.656 75.4498 185.97 75.3056 186.224 75.0171C186.478 74.7286 186.605 74.2762 186.605 73.66C186.605 73.0709 186.474 72.6269 186.213 72.3278C185.951 72.0287 185.636 71.8792 185.268 71.8792C184.905 71.8792 184.597 72.0265 184.343 72.321C184.09 72.6155 183.963 73.0528 183.963 73.6328Z"/>
<path d="M191.893 74.5753L192.735 74.6795C192.602 75.1719 192.356 75.5541 191.997 75.8259C191.637 76.0978 191.178 76.2338 190.619 76.2338C189.915 76.2338 189.357 76.017 188.945 75.5835C188.533 75.15 188.326 74.5421 188.326 73.7597C188.326 72.9501 188.535 72.3218 188.952 71.8747C189.369 71.4276 189.909 71.2041 190.574 71.2041C191.217 71.2041 191.743 71.4231 192.151 71.8611C192.559 72.2991 192.763 72.9154 192.763 73.7098C192.763 73.7582 192.761 73.8307 192.758 73.9273L189.169 73.9273C189.199 74.456 189.349 74.8608 189.618 75.1417C189.887 75.4227 190.222 75.5631 190.624 75.5631C190.923 75.5631 191.178 75.4846 191.39 75.3275C191.601 75.1704 191.769 74.9197 191.893 74.5753ZM189.215 73.2567L191.902 73.2567C191.865 72.8519 191.763 72.5483 191.593 72.3459C191.334 72.0318 190.997 71.8747 190.583 71.8747C190.208 71.8747 189.893 72.0001 189.638 72.2508C189.383 72.5015 189.242 72.8368 189.215 73.2567Z"/>
<path d="M193.759 76.125L193.759 71.3128L194.493 71.3128L194.493 71.997C194.847 71.4684 195.357 71.2041 196.025 71.2041C196.315 71.2041 196.582 71.2562 196.825 71.3604C197.068 71.4646 197.25 71.6013 197.371 71.7705C197.492 71.9396 197.576 72.1405 197.625 72.3731C197.655 72.5242 197.67 72.7885 197.67 73.1661L197.67 76.125L196.854 76.125L196.854 73.1978C196.854 72.8655 196.823 72.6171 196.759 72.4524C196.696 72.2878 196.583 72.1564 196.422 72.0582C196.26 71.96 196.07 71.9109 195.853 71.9109C195.505 71.9109 195.206 72.0212 194.953 72.2417C194.701 72.4622 194.575 72.8806 194.575 73.4969L194.575 76.125L193.759 76.125Z"/>
<path d="M200.701 75.3955L200.819 76.1159C200.59 76.1643 200.384 76.1884 200.203 76.1884C199.907 76.1884 199.677 76.1416 199.514 76.048C199.351 75.9543 199.236 75.8312 199.17 75.6787C199.103 75.5261 199.07 75.2052 199.07 74.7158L199.07 71.9472L198.472 71.9472L198.472 71.3128L199.07 71.3128L199.07 70.1211L199.881 69.6317L199.881 71.3128L200.701 71.3128L200.701 71.9472L199.881 71.9472L199.881 74.7611C199.881 74.9937 199.895 75.1432 199.924 75.2097C199.953 75.2761 200 75.329 200.065 75.3683C200.13 75.4076 200.222 75.4272 200.343 75.4272C200.434 75.4272 200.553 75.4166 200.701 75.3955Z"/>
</g>
</g>
<g opacity="1" vectornator:layerName="g">
<path d="M332.513 57.275L418.941 57.275L418.941 57.275L418.941 87.852L418.941 87.852L332.513 87.852L332.513 87.852L332.513 57.275L332.513 57.275Z" fill="url(#LinearGradient_2)" fill-rule="nonzero" opacity="1" stroke="#000000" stroke-linecap="butt" stroke-linejoin="miter" stroke-width="1" vectornator:layerName="rect"/>
<g fill="#ffffff" opacity="1" stroke="none" vectornator:layerName="text">
<path d="M359.244 73.9368L360.073 73.8643C360.112 74.1966 360.204 74.4692 360.347 74.6822C360.491 74.8951 360.714 75.0673 361.016 75.1987C361.318 75.3301 361.658 75.3958 362.035 75.3958C362.37 75.3958 362.666 75.346 362.923 75.2463C363.18 75.1466 363.371 75.0099 363.496 74.8362C363.622 74.6625 363.684 74.473 363.684 74.2676C363.684 74.0591 363.624 73.8771 363.503 73.7215C363.382 73.566 363.183 73.4353 362.905 73.3296C362.727 73.2601 362.333 73.1521 361.722 73.0056C361.112 72.8591 360.685 72.7209 360.44 72.591C360.123 72.4249 359.887 72.2187 359.731 71.9725C359.575 71.7263 359.498 71.4506 359.498 71.1455C359.498 70.8102 359.593 70.4968 359.783 70.2053C359.973 69.9138 360.251 69.6925 360.617 69.5415C360.982 69.3904 361.389 69.3149 361.836 69.3149C362.328 69.3149 362.762 69.3942 363.138 69.5528C363.515 69.7114 363.804 69.9447 364.006 70.2529C364.209 70.561 364.317 70.9099 364.332 71.2996L363.49 71.363C363.444 70.9431 363.291 70.6259 363.03 70.4115C362.768 70.197 362.383 70.0897 361.872 70.0897C361.34 70.0897 360.953 70.1872 360.71 70.382C360.467 70.5769 360.345 70.8117 360.345 71.0866C360.345 71.3253 360.431 71.5216 360.603 71.6757C360.772 71.8297 361.214 71.9876 361.929 72.1492C362.643 72.3108 363.133 72.452 363.399 72.5729C363.786 72.7511 364.071 72.9769 364.255 73.2503C364.44 73.5237 364.532 73.8386 364.532 74.1951C364.532 74.5485 364.431 74.8815 364.228 75.1942C364.026 75.5069 363.735 75.75 363.356 75.9237C362.977 76.0974 362.55 76.1843 362.076 76.1843C361.475 76.1843 360.971 76.0967 360.565 75.9215C360.158 75.7463 359.84 75.4827 359.609 75.1308C359.378 74.7788 359.256 74.3808 359.244 73.9368Z"/>
<path d="M368.923 74.5213L369.765 74.6255C369.633 75.1179 369.386 75.5001 369.027 75.7719C368.667 76.0438 368.208 76.1797 367.649 76.1797C366.945 76.1797 366.387 75.963 365.975 75.5295C365.563 75.096 365.357 74.4881 365.357 73.7057C365.357 72.8961 365.565 72.2678 365.982 71.8207C366.399 71.3736 366.939 71.1501 367.604 71.1501C368.247 71.1501 368.773 71.3691 369.181 71.8071C369.589 72.2451 369.793 72.8614 369.793 73.6558C369.793 73.7042 369.791 73.7767 369.788 73.8733L366.199 73.8733C366.23 74.402 366.379 74.8068 366.648 75.0877C366.917 75.3687 367.252 75.5091 367.654 75.5091C367.953 75.5091 368.208 75.4306 368.42 75.2735C368.631 75.1164 368.799 74.8657 368.923 74.5213ZM366.245 73.2027L368.932 73.2027C368.895 72.7979 368.793 72.4943 368.624 72.2919C368.364 71.9778 368.027 71.8207 367.613 71.8207C367.239 71.8207 366.924 71.9461 366.668 72.1968C366.413 72.4475 366.272 72.7828 366.245 73.2027Z"/>
<path d="M370.78 76.071L370.78 71.2588L371.514 71.2588L371.514 71.9883C371.702 71.647 371.875 71.4219 372.033 71.3132C372.192 71.2044 372.366 71.1501 372.557 71.1501C372.832 71.1501 373.111 71.2377 373.395 71.4129L373.114 72.1696C372.915 72.0518 372.715 71.9929 372.516 71.9929C372.338 71.9929 372.178 72.0465 372.036 72.1537C371.894 72.261 371.792 72.4097 371.732 72.6001C371.641 72.8901 371.596 73.2072 371.596 73.5516L371.596 76.071L370.78 76.071Z"/>
<path d="M375.217 76.071L373.386 71.2588L374.247 71.2588L375.28 74.1407C375.392 74.4518 375.494 74.7751 375.588 75.1104C375.661 74.8566 375.762 74.5515 375.892 74.1951L376.961 71.2588L377.799 71.2588L375.978 76.071L375.217 76.071Z"/>
<path d="M381.814 74.5213L382.657 74.6255C382.524 75.1179 382.278 75.5001 381.918 75.7719C381.559 76.0438 381.1 76.1797 380.541 76.1797C379.837 76.1797 379.279 75.963 378.866 75.5295C378.454 75.096 378.248 74.4881 378.248 73.7057C378.248 72.8961 378.456 72.2678 378.873 71.8207C379.29 71.3736 379.831 71.1501 380.495 71.1501C381.139 71.1501 381.664 71.3691 382.072 71.8071C382.48 72.2451 382.684 72.8614 382.684 73.6558C382.684 73.7042 382.683 73.7767 382.679 73.8733L379.091 73.8733C379.121 74.402 379.27 74.8068 379.539 75.0877C379.808 75.3687 380.144 75.5091 380.545 75.5091C380.844 75.5091 381.1 75.4306 381.311 75.2735C381.523 75.1164 381.69 74.8657 381.814 74.5213ZM379.136 73.2027L381.823 73.2027C381.787 72.7979 381.684 72.4943 381.515 72.2919C381.255 71.9778 380.918 71.8207 380.504 71.8207C380.13 71.8207 379.815 71.9461 379.56 72.1968C379.304 72.4475 379.163 72.7828 379.136 73.2027Z"/>
<path d="M383.672 76.071L383.672 71.2588L384.406 71.2588L384.406 71.9883C384.593 71.647 384.766 71.4219 384.925 71.3132C385.083 71.2044 385.258 71.1501 385.448 71.1501C385.723 71.1501 386.002 71.2377 386.286 71.4129L386.005 72.1696C385.806 72.0518 385.607 71.9929 385.407 71.9929C385.229 71.9929 385.069 72.0465 384.927 72.1537C384.785 72.261 384.684 72.4097 384.623 72.6001C384.533 72.8901 384.487 73.2072 384.487 73.5516L384.487 76.071L383.672 76.071Z"/>
</g>
</g>
<path d="M184.304 88.291L185.421 302.271" fill="#d8d8d8" fill-rule="nonzero" opacity="1" stroke="#000000" stroke-linecap="butt" stroke-linejoin="miter" stroke-width="1" vectornator:layerName="line"/>
<path d="M377.483 89.457L378.6 303.437" fill="#d8d8d8" fill-rule="nonzero" opacity="1" stroke="#000000" stroke-linecap="butt" stroke-linejoin="miter" stroke-width="1" vectornator:layerName="line"/>
<path d="M177.854 127.769L190.48 127.769L190.48 127.769L190.48 250.956L190.48 250.956L177.854 250.956L177.854 250.956L177.854 127.769L177.854 127.769Z" fill="#d8d8d8" fill-rule="nonzero" opacity="1" stroke="#000000" stroke-linecap="butt" stroke-linejoin="miter" stroke-width="1" vectornator:layerName="rect"/>
<path d="M371.321 164.36L383.947 164.36L383.947 164.36L383.947 206.078L383.947 206.078L371.321 206.078L371.321 206.078L371.321 164.36L371.321 164.36Z" fill="#d8d8d8" fill-rule="nonzero" opacity="1" stroke="#000000" stroke-linecap="butt" stroke-linejoin="miter" stroke-width="1" vectornator:layerName="rect"/>
<path d="M191.054 134.271L371.467 167.32" fill="#d8d8d8" fill-rule="nonzero" opacity="1" stroke="#000000" stroke-linecap="butt" stroke-linejoin="miter" stroke-width="1" vectornator:layerName="line"/>
<path d="M371.932 199.36L191.161 242.233" fill="#d8d8d8" fill-rule="nonzero" opacity="1" stroke="#000000" stroke-linecap="butt" stroke-linejoin="miter" stroke-width="1" vectornator:layerName="line"/>
<path d="M356.992 157.043L370.514 167.13L355.157 171.413" fill="#d8d8d8" fill-opacity="0" fill-rule="nonzero" opacity="1" stroke="#000000" stroke-linecap="butt" stroke-linejoin="miter" stroke-width="1" vectornator:layerName="polyline"/>
<path d="M203.359 231.058L190.796 242.317L206.475 245.207" fill="#d8d8d8" fill-opacity="0" fill-rule="nonzero" opacity="1" stroke="#000000" stroke-linecap="butt" stroke-linejoin="miter" stroke-width="1" vectornator:layerName="polyline"/>
<g fill="#333333" opacity="1" stroke="none" vectornator:layerName="text">
<path d="M234.569 137.515L234.569 130.872L235.448 130.872L235.448 133.6L238.901 133.6L238.901 130.872L239.78 130.872L239.78 137.515L238.901 137.515L238.901 134.384L235.448 134.384L235.448 137.515L234.569 137.515Z"/>
<path d="M242.934 137.515L242.934 131.656L240.745 131.656L240.745 130.872L246.011 130.872L246.011 131.656L243.813 131.656L243.813 137.515L242.934 137.515Z"/>
<path d="M248.602 137.515L248.602 131.656L246.414 131.656L246.414 130.872L251.679 130.872L251.679 131.656L249.481 131.656L249.481 137.515L248.602 137.515Z"/>
<path d="M252.581 137.515L252.581 130.872L255.087 130.872C255.528 130.872 255.864 130.893 256.097 130.936C256.423 130.99 256.697 131.093 256.917 131.246C257.138 131.399 257.315 131.612 257.45 131.887C257.584 132.162 257.651 132.464 257.651 132.793C257.651 133.358 257.472 133.836 257.112 134.228C256.753 134.619 256.103 134.814 255.164 134.814L253.46 134.814L253.46 137.515L252.581 137.515ZM253.46 134.03L255.177 134.03C255.745 134.03 256.148 133.925 256.387 133.713C256.626 133.502 256.745 133.204 256.745 132.821C256.745 132.543 256.675 132.305 256.534 132.107C256.394 131.909 256.209 131.778 255.979 131.715C255.831 131.676 255.558 131.656 255.159 131.656L253.46 131.656L253.46 134.03Z"/>
<path d="M260.225 139.468C259.775 138.9 259.394 138.235 259.083 137.474C258.772 136.713 258.616 135.925 258.616 135.109C258.616 134.39 258.733 133.701 258.965 133.043C259.237 132.278 259.657 131.517 260.225 130.759L260.81 130.759C260.444 131.387 260.202 131.836 260.085 132.105C259.9 132.522 259.755 132.957 259.65 133.41C259.52 133.975 259.455 134.542 259.455 135.113C259.455 136.566 259.906 138.018 260.81 139.468L260.225 139.468Z"/>
<path d="M261.562 135.381L262.391 135.308C262.43 135.641 262.522 135.913 262.665 136.126C262.809 136.339 263.031 136.511 263.334 136.643C263.636 136.774 263.975 136.84 264.353 136.84C264.688 136.84 264.984 136.79 265.241 136.69C265.498 136.591 265.689 136.454 265.814 136.28C265.94 136.107 266.002 135.917 266.002 135.712C266.002 135.503 265.942 135.321 265.821 135.166C265.7 135.01 265.501 134.879 265.223 134.774C265.045 134.704 264.651 134.596 264.04 134.45C263.43 134.303 263.003 134.165 262.758 134.035C262.441 133.869 262.204 133.663 262.049 133.416C261.893 133.17 261.816 132.895 261.816 132.59C261.816 132.254 261.911 131.941 262.101 131.649C262.291 131.358 262.569 131.137 262.935 130.985C263.3 130.834 263.707 130.759 264.154 130.759C264.646 130.759 265.08 130.838 265.456 130.997C265.832 131.155 266.122 131.389 266.324 131.697C266.527 132.005 266.635 132.354 266.65 132.744L265.808 132.807C265.762 132.387 265.609 132.07 265.348 131.855C265.086 131.641 264.7 131.534 264.19 131.534C263.658 131.534 263.271 131.631 263.028 131.826C262.784 132.021 262.663 132.256 262.663 132.531C262.663 132.769 262.749 132.966 262.921 133.12C263.09 133.274 263.532 133.432 264.247 133.593C264.961 133.755 265.451 133.896 265.717 134.017C266.104 134.195 266.389 134.421 266.573 134.694C266.758 134.968 266.85 135.283 266.85 135.639C266.85 135.992 266.749 136.326 266.546 136.638C266.344 136.951 266.053 137.194 265.674 137.368C265.295 137.541 264.868 137.628 264.394 137.628C263.793 137.628 263.289 137.541 262.883 137.365C262.476 137.19 262.158 136.927 261.927 136.575C261.695 136.223 261.574 135.825 261.562 135.381Z"/>
<path d="M268.481 139.468L267.896 139.468C268.8 138.018 269.251 136.566 269.251 135.113C269.251 134.546 269.186 133.982 269.056 133.423C268.954 132.97 268.81 132.535 268.626 132.118C268.508 131.846 268.265 131.393 267.896 130.759L268.481 130.759C269.049 131.517 269.469 132.278 269.741 133.043C269.973 133.701 270.09 134.39 270.09 135.109C270.09 135.925 269.933 136.713 269.621 137.474C269.308 138.235 268.928 138.9 268.481 139.468Z"/>
<path d="M273.733 137.515L273.733 130.872L276.678 130.872C277.27 130.872 277.72 130.932 278.028 131.051C278.336 131.17 278.583 131.381 278.767 131.683C278.951 131.985 279.043 132.319 279.043 132.685C279.043 133.156 278.891 133.553 278.586 133.876C278.281 134.2 277.809 134.405 277.172 134.493C277.405 134.604 277.581 134.715 277.702 134.823C277.959 135.059 278.202 135.354 278.432 135.707L279.587 137.515L278.481 137.515L277.602 136.133C277.346 135.734 277.134 135.429 276.968 135.218C276.802 135.006 276.653 134.858 276.522 134.774C276.39 134.689 276.257 134.63 276.121 134.597C276.021 134.576 275.858 134.565 275.631 134.565L274.612 134.565L274.612 137.515L273.733 137.515ZM274.612 133.804L276.501 133.804C276.903 133.804 277.217 133.762 277.444 133.679C277.67 133.596 277.843 133.463 277.96 133.281C278.078 133.098 278.137 132.899 278.137 132.685C278.137 132.371 278.023 132.112 277.795 131.91C277.567 131.707 277.207 131.606 276.714 131.606L274.612 131.606L274.612 133.804Z"/>
<path d="M283.611 135.965L284.454 136.07C284.321 136.562 284.075 136.944 283.715 137.216C283.356 137.488 282.896 137.624 282.338 137.624C281.634 137.624 281.076 137.407 280.663 136.974C280.251 136.54 280.045 135.932 280.045 135.15C280.045 134.34 280.253 133.712 280.67 133.265C281.087 132.818 281.628 132.594 282.292 132.594C282.936 132.594 283.461 132.813 283.869 133.251C284.277 133.689 284.481 134.305 284.481 135.1C284.481 135.148 284.479 135.221 284.476 135.317L280.888 135.317C280.918 135.846 281.067 136.251 281.336 136.532C281.605 136.813 281.94 136.953 282.342 136.953C282.641 136.953 282.896 136.875 283.108 136.717C283.319 136.56 283.487 136.31 283.611 135.965ZM280.933 134.647L283.62 134.647C283.584 134.242 283.481 133.938 283.312 133.736C283.052 133.422 282.715 133.265 282.301 133.265C281.927 133.265 281.612 133.39 281.357 133.641C281.101 133.892 280.96 134.227 280.933 134.647Z"/>
<path d="M288.545 139.359L288.545 137.003C288.419 137.181 288.241 137.329 288.013 137.447C287.785 137.565 287.542 137.624 287.286 137.624C286.715 137.624 286.223 137.396 285.811 136.94C285.398 136.483 285.192 135.858 285.192 135.064C285.192 134.58 285.276 134.147 285.444 133.763C285.611 133.379 285.855 133.089 286.173 132.891C286.492 132.693 286.842 132.594 287.222 132.594C287.817 132.594 288.286 132.845 288.627 133.346L288.627 132.703L289.361 132.703L289.361 139.359L288.545 139.359ZM286.031 135.095C286.031 135.715 286.16 136.179 286.42 136.489C286.68 136.798 286.991 136.953 287.354 136.953C287.701 136.953 288 136.806 288.251 136.511C288.502 136.217 288.627 135.769 288.627 135.168C288.627 134.527 288.495 134.046 288.23 133.722C287.966 133.399 287.656 133.237 287.299 133.237C286.946 133.237 286.646 133.388 286.4 133.688C286.154 133.989 286.031 134.458 286.031 135.095Z"/>
<path d="M293.793 137.515L293.793 136.808C293.418 137.352 292.909 137.624 292.266 137.624C291.982 137.624 291.717 137.569 291.47 137.461C291.224 137.352 291.041 137.215 290.922 137.051C290.803 136.886 290.719 136.684 290.671 136.446C290.637 136.286 290.621 136.032 290.621 135.684L290.621 132.703L291.436 132.703L291.436 135.372C291.436 135.798 291.453 136.085 291.486 136.233C291.538 136.447 291.646 136.616 291.812 136.738C291.979 136.86 292.184 136.921 292.429 136.921C292.673 136.921 292.903 136.859 293.117 136.733C293.332 136.608 293.484 136.437 293.573 136.221C293.662 136.005 293.706 135.692 293.706 135.281L293.706 132.703L294.522 132.703L294.522 137.515L293.793 137.515Z"/>
<path d="M299.094 135.965L299.937 136.07C299.804 136.562 299.558 136.944 299.198 137.216C298.839 137.488 298.38 137.624 297.821 137.624C297.117 137.624 296.559 137.407 296.147 136.974C295.734 136.54 295.528 135.932 295.528 135.15C295.528 134.34 295.736 133.712 296.153 133.265C296.57 132.818 297.111 132.594 297.776 132.594C298.419 132.594 298.945 132.813 299.352 133.251C299.76 133.689 299.964 134.305 299.964 135.1C299.964 135.148 299.963 135.221 299.96 135.317L296.371 135.317C296.401 135.846 296.551 136.251 296.819 136.532C297.088 136.813 297.424 136.953 297.825 136.953C298.124 136.953 298.38 136.875 298.591 136.717C298.803 136.56 298.97 136.31 299.094 135.965ZM296.416 134.647L299.103 134.647C299.067 134.242 298.964 133.938 298.795 133.736C298.535 133.422 298.198 133.265 297.785 133.265C297.41 133.265 297.095 133.39 296.84 133.641C296.585 133.892 296.443 134.227 296.416 134.647Z"/>
<path d="M300.635 136.079L301.441 135.952C301.487 136.275 301.613 136.523 301.82 136.695C302.027 136.867 302.316 136.953 302.687 136.953C303.062 136.953 303.34 136.877 303.521 136.724C303.702 136.572 303.793 136.393 303.793 136.187C303.793 136.003 303.713 135.858 303.553 135.752C303.441 135.68 303.163 135.588 302.719 135.476C302.121 135.325 301.706 135.194 301.475 135.084C301.244 134.974 301.069 134.821 300.95 134.626C300.83 134.431 300.771 134.216 300.771 133.981C300.771 133.766 300.82 133.568 300.918 133.385C301.016 133.202 301.15 133.05 301.319 132.929C301.446 132.836 301.619 132.756 301.838 132.691C302.057 132.627 302.292 132.594 302.542 132.594C302.92 132.594 303.252 132.648 303.537 132.757C303.822 132.866 304.033 133.013 304.169 133.199C304.305 133.385 304.399 133.633 304.45 133.944L303.653 134.053C303.616 133.805 303.511 133.612 303.338 133.473C303.164 133.334 302.919 133.265 302.601 133.265C302.227 133.265 301.959 133.327 301.799 133.45C301.639 133.574 301.559 133.719 301.559 133.885C301.559 133.991 301.592 134.086 301.659 134.171C301.725 134.259 301.829 134.331 301.971 134.388C302.053 134.419 302.293 134.488 302.692 134.597C303.269 134.751 303.671 134.877 303.9 134.975C304.128 135.073 304.307 135.216 304.436 135.403C304.566 135.591 304.631 135.823 304.631 136.101C304.631 136.373 304.552 136.629 304.393 136.869C304.235 137.109 304.006 137.295 303.707 137.427C303.408 137.558 303.07 137.624 302.692 137.624C302.067 137.624 301.59 137.494 301.262 137.234C300.935 136.974 300.725 136.589 300.635 136.079Z"/>
<path d="M307.382 136.785L307.5 137.506C307.27 137.554 307.065 137.578 306.883 137.578C306.587 137.578 306.358 137.532 306.195 137.438C306.031 137.344 305.917 137.221 305.85 137.069C305.784 136.916 305.751 136.595 305.751 136.106L305.751 133.337L305.152 133.337L305.152 132.703L305.751 132.703L305.751 131.511L306.562 131.022L306.562 132.703L307.382 132.703L307.382 133.337L306.562 133.337L306.562 136.151C306.562 136.384 306.576 136.533 306.605 136.6C306.633 136.666 306.68 136.719 306.745 136.758C306.81 136.798 306.903 136.817 307.024 136.817C307.114 136.817 307.234 136.807 307.382 136.785Z"/>
</g>
<g fill="#333333" opacity="1" stroke="none" vectornator:layerName="text">
<path d="M254.527 211.956L254.527 205.313L257.472 205.313C258.064 205.313 258.514 205.373 258.822 205.492C259.13 205.611 259.376 205.822 259.561 206.124C259.745 206.426 259.837 206.76 259.837 207.126C259.837 207.597 259.685 207.994 259.379 208.317C259.074 208.641 258.603 208.846 257.966 208.934C258.198 209.045 258.375 209.156 258.496 209.264C258.753 209.5 258.996 209.795 259.225 210.148L260.381 211.956L259.275 211.956L258.396 210.574C258.139 210.175 257.928 209.87 257.762 209.659C257.596 209.447 257.447 209.299 257.316 209.215C257.184 209.13 257.05 209.071 256.914 209.038C256.815 209.017 256.652 209.006 256.425 209.006L255.406 209.006L255.406 211.956L254.527 211.956ZM255.406 208.245L257.295 208.245C257.697 208.245 258.011 208.203 258.238 208.12C258.464 208.037 258.636 207.904 258.754 207.722C258.872 207.539 258.931 207.34 258.931 207.126C258.931 206.812 258.817 206.553 258.589 206.351C258.361 206.148 258 206.047 257.508 206.047L255.406 206.047L255.406 208.245Z"/>
<path d="M264.405 210.406L265.247 210.511C265.115 211.003 264.868 211.385 264.509 211.657C264.149 211.929 263.69 212.065 263.131 212.065C262.428 212.065 261.869 211.848 261.457 211.415C261.045 210.981 260.839 210.373 260.839 209.591C260.839 208.781 261.047 208.153 261.464 207.706C261.881 207.259 262.421 207.035 263.086 207.035C263.729 207.035 264.255 207.254 264.663 207.692C265.071 208.13 265.275 208.746 265.275 209.541C265.275 209.589 265.273 209.662 265.27 209.758L261.681 209.758C261.712 210.287 261.861 210.692 262.13 210.973C262.399 211.254 262.734 211.394 263.136 211.394C263.435 211.394 263.69 211.316 263.902 211.158C264.113 211.001 264.281 210.751 264.405 210.406ZM261.727 209.088L264.414 209.088C264.377 208.683 264.275 208.379 264.106 208.177C263.846 207.863 263.509 207.706 263.095 207.706C262.721 207.706 262.406 207.831 262.15 208.082C261.895 208.333 261.754 208.668 261.727 209.088Z"/>
<path d="M265.945 210.52L266.752 210.393C266.797 210.716 266.923 210.964 267.13 211.136C267.337 211.308 267.626 211.394 267.998 211.394C268.373 211.394 268.65 211.318 268.832 211.165C269.013 211.013 269.104 210.834 269.104 210.628C269.104 210.444 269.024 210.299 268.863 210.193C268.752 210.121 268.474 210.029 268.03 209.917C267.432 209.766 267.017 209.635 266.786 209.525C266.555 209.415 266.38 209.262 266.26 209.067C266.141 208.872 266.081 208.657 266.081 208.422C266.081 208.207 266.13 208.009 266.228 207.826C266.327 207.643 266.46 207.491 266.629 207.37C266.756 207.277 266.929 207.197 267.148 207.132C267.367 207.068 267.602 207.035 267.853 207.035C268.231 207.035 268.562 207.089 268.848 207.198C269.133 207.307 269.344 207.454 269.48 207.64C269.616 207.826 269.709 208.074 269.761 208.385L268.963 208.494C268.927 208.246 268.822 208.053 268.648 207.914C268.474 207.775 268.229 207.706 267.912 207.706C267.537 207.706 267.27 207.768 267.11 207.891C266.95 208.015 266.87 208.16 266.87 208.326C266.87 208.432 266.903 208.527 266.969 208.612C267.036 208.7 267.14 208.772 267.282 208.829C267.364 208.86 267.604 208.929 268.002 209.038C268.579 209.192 268.982 209.318 269.21 209.416C269.438 209.514 269.617 209.657 269.747 209.844C269.877 210.032 269.942 210.264 269.942 210.542C269.942 210.814 269.863 211.07 269.704 211.31C269.545 211.55 269.317 211.736 269.017 211.868C268.718 211.999 268.38 212.065 268.002 212.065C267.377 212.065 266.901 211.935 266.573 211.675C266.245 211.415 266.036 211.03 265.945 210.52Z"/>
<path d="M270.912 213.8L270.912 207.144L271.655 207.144L271.655 207.769C271.83 207.524 272.028 207.341 272.248 207.219C272.469 207.096 272.736 207.035 273.05 207.035C273.461 207.035 273.824 207.141 274.138 207.352C274.452 207.564 274.689 207.862 274.849 208.247C275.009 208.632 275.089 209.054 275.089 209.514C275.089 210.006 275.001 210.449 274.824 210.844C274.648 211.238 274.391 211.54 274.054 211.75C273.717 211.96 273.363 212.065 272.991 212.065C272.719 212.065 272.476 212.007 272.26 211.893C272.044 211.778 271.866 211.633 271.727 211.458L271.727 213.8L270.912 213.8ZM271.65 209.577C271.65 210.196 271.775 210.654 272.026 210.95C272.277 211.246 272.581 211.394 272.937 211.394C273.299 211.394 273.61 211.241 273.868 210.934C274.126 210.628 274.256 210.153 274.256 209.509C274.256 208.896 274.129 208.437 273.877 208.132C273.625 207.827 273.324 207.674 272.973 207.674C272.626 207.674 272.318 207.836 272.051 208.161C271.784 208.486 271.65 208.958 271.65 209.577Z"/>
<path d="M275.769 209.55C275.769 208.659 276.017 207.999 276.512 207.57C276.926 207.213 277.43 207.035 278.026 207.035C278.687 207.035 279.228 207.252 279.648 207.685C280.068 208.119 280.278 208.718 280.278 209.482C280.278 210.101 280.185 210.588 279.999 210.943C279.813 211.298 279.543 211.574 279.188 211.77C278.833 211.967 278.445 212.065 278.026 212.065C277.352 212.065 276.807 211.849 276.392 211.417C275.977 210.985 275.769 210.363 275.769 209.55ZM276.607 209.55C276.607 210.166 276.742 210.628 277.011 210.934C277.279 211.241 277.618 211.394 278.026 211.394C278.43 211.394 278.767 211.24 279.036 210.932C279.305 210.624 279.439 210.154 279.439 209.523C279.439 208.928 279.304 208.477 279.034 208.17C278.763 207.864 278.427 207.71 278.026 207.71C277.618 207.71 277.279 207.863 277.011 208.168C276.742 208.473 276.607 208.934 276.607 209.55Z"/>
<path d="M281.234 211.956L281.234 207.144L281.968 207.144L281.968 207.828C282.321 207.299 282.832 207.035 283.499 207.035C283.789 207.035 284.056 207.087 284.299 207.191C284.542 207.296 284.724 207.432 284.845 207.601C284.966 207.771 285.051 207.972 285.099 208.204C285.129 208.355 285.144 208.619 285.144 208.997L285.144 211.956L284.329 211.956L284.329 209.029C284.329 208.697 284.297 208.448 284.233 208.283C284.17 208.119 284.057 207.987 283.896 207.889C283.734 207.791 283.545 207.742 283.327 207.742C282.98 207.742 282.68 207.852 282.428 208.073C282.175 208.293 282.049 208.712 282.049 209.328L282.049 211.956L281.234 211.956Z"/>
<path d="M286.069 210.52L286.875 210.393C286.92 210.716 287.047 210.964 287.253 211.136C287.46 211.308 287.75 211.394 288.121 211.394C288.496 211.394 288.774 211.318 288.955 211.165C289.136 211.013 289.227 210.834 289.227 210.628C289.227 210.444 289.147 210.299 288.987 210.193C288.875 210.121 288.597 210.029 288.153 209.917C287.555 209.766 287.14 209.635 286.909 209.525C286.678 209.415 286.503 209.262 286.383 209.067C286.264 208.872 286.204 208.657 286.204 208.422C286.204 208.207 286.254 208.009 286.352 207.826C286.45 207.643 286.584 207.491 286.753 207.37C286.88 207.277 287.053 207.197 287.272 207.132C287.491 207.068 287.725 207.035 287.976 207.035C288.354 207.035 288.685 207.089 288.971 207.198C289.256 207.307 289.467 207.454 289.603 207.64C289.739 207.826 289.833 208.074 289.884 208.385L289.086 208.494C289.05 208.246 288.945 208.053 288.771 207.914C288.598 207.775 288.352 207.706 288.035 207.706C287.661 207.706 287.393 207.768 287.233 207.891C287.073 208.015 286.993 208.16 286.993 208.326C286.993 208.432 287.026 208.527 287.093 208.612C287.159 208.7 287.263 208.772 287.405 208.829C287.487 208.86 287.727 208.929 288.126 209.038C288.703 209.192 289.105 209.318 289.333 209.416C289.561 209.514 289.74 209.657 289.87 209.844C290 210.032 290.065 210.264 290.065 210.542C290.065 210.814 289.986 211.07 289.827 211.31C289.669 211.55 289.44 211.736 289.141 211.868C288.842 211.999 288.503 212.065 288.126 212.065C287.5 212.065 287.024 211.935 286.696 211.675C286.368 211.415 286.159 211.03 286.069 210.52Z"/>
<path d="M294.329 210.406L295.172 210.511C295.039 211.003 294.793 211.385 294.433 211.657C294.074 211.929 293.615 212.065 293.056 212.065C292.352 212.065 291.794 211.848 291.381 211.415C290.969 210.981 290.763 210.373 290.763 209.591C290.763 208.781 290.971 208.153 291.388 207.706C291.805 207.259 292.346 207.035 293.01 207.035C293.654 207.035 294.18 207.254 294.587 207.692C294.995 208.13 295.199 208.746 295.199 209.541C295.199 209.589 295.198 209.662 295.195 209.758L291.606 209.758C291.636 210.287 291.785 210.692 292.054 210.973C292.323 211.254 292.659 211.394 293.06 211.394C293.359 211.394 293.615 211.316 293.826 211.158C294.038 211.001 294.205 210.751 294.329 210.406ZM291.651 209.088L294.338 209.088C294.302 208.683 294.199 208.379 294.03 208.177C293.77 207.863 293.433 207.706 293.019 207.706C292.645 207.706 292.33 207.831 292.075 208.082C291.819 208.333 291.678 208.668 291.651 209.088Z"/>
</g>
</g>
</svg>
