<?xml version="1.0" encoding="UTF-8" standalone="no"?>
<!DOCTYPE svg PUBLIC "-//W3C//DTD SVG 1.1//EN" "http://www.w3.org/Graphics/SVG/1.1/DTD/svg11.dtd">
<!-- Created with Vectornator (http://vectornator.io/) -->
<svg height="100%" stroke-miterlimit="10" style="fill-rule:nonzero;clip-rule:evenodd;stroke-linecap:round;stroke-linejoin:round;" version="1.1" viewBox="0 0 600 400" width="100%" xml:space="preserve" xmlns="http://www.w3.org/2000/svg" xmlns:vectornator="http://vectornator.io" xmlns:xlink="http://www.w3.org/1999/xlink">
<defs>
<linearGradient gradientTransform="matrix(86.428 0 0 30.577 160.882 19.4061)" gradientUnits="userSpaceOnUse" id="LinearGradient" x1="0" x2="1" y1="0" y2="0">
<stop offset="0" stop-color="#204051"/>
</linearGradient>
<linearGradient gradientTransform="matrix(86.428 0 0 30.577 352.69 19.5101)" gradientUnits="userSpaceOnUse" id="LinearGradient_2" x1="0" x2="1" y1="0" y2="0">
<stop offset="0" stop-color="#204051"/>
</linearGradient>
</defs>
<g id="Untitled" vectornator:layerName="Untitled">
<g opacity="1" vectornator:layerName="g">
<path d="M160.882 19.4061L247.31 19.4061L247.31 19.4061L247.31 49.9831L247.31 49.9831L160.882 49.9831L160.882 49.9831L160.882 19.4061L160.882 19.4061Z" fill="url(#LinearGradient)" fill-rule="nonzero" opacity="1" stroke="#000000" stroke-linecap="butt" stroke-linejoin="miter" stroke-width="1" vectornator:layerName="rect"/>
<g fill="#ffffff" opacity="1" stroke="none" vectornator:layerName="text">
<path d="M179.59 38.3601L182.141 31.7172L183.089 31.7172L185.807 38.3601L184.806 38.3601L184.031 36.3482L181.253 36.3482L180.524 38.3601L179.59 38.3601ZM181.507 35.6322L183.759 35.6322L183.066 33.7926C182.854 33.2337 182.697 32.7745 182.595 32.4151C182.51 32.841 182.391 33.2639 182.237 33.6838L181.507 35.6322Z"/>
<path d="M186.51 38.3601L186.51 31.7172L189.015 31.7172C189.456 31.7172 189.793 31.7384 190.026 31.7807C190.352 31.8351 190.626 31.9385 190.846 32.0911C191.067 32.2436 191.244 32.4573 191.378 32.7322C191.513 33.0071 191.58 33.3092 191.58 33.6385C191.58 34.2034 191.4 34.6814 191.041 35.0726C190.681 35.4638 190.032 35.6594 189.092 35.6594L187.389 35.6594L187.389 38.3601L186.51 38.3601ZM187.389 34.8755L189.106 34.8755C189.674 34.8755 190.077 34.7698 190.316 34.5583C190.555 34.3469 190.674 34.0493 190.674 33.6657C190.674 33.3878 190.604 33.1499 190.463 32.952C190.323 32.7541 190.138 32.6235 189.908 32.5601C189.76 32.5208 189.487 32.5012 189.088 32.5012L187.389 32.5012L187.389 34.8755Z"/>
<path d="M192.849 38.3601L192.849 31.7172L193.728 31.7172L193.728 38.3601L192.849 38.3601Z"/>
<path d="M200.892 36.5974L201.694 36.7016C201.606 37.2544 201.382 37.6872 201.021 37.9998C200.66 38.3125 200.217 38.4688 199.691 38.4688C199.032 38.4688 198.503 38.2536 198.103 37.8231C197.703 37.3926 197.502 36.7756 197.502 35.9721C197.502 35.4525 197.589 34.9979 197.761 34.6082C197.933 34.2185 198.195 33.9262 198.547 33.7314C198.899 33.5365 199.282 33.4391 199.696 33.4391C200.218 33.4391 200.646 33.5713 200.978 33.8356C201.31 34.0999 201.523 34.4753 201.617 34.9616L200.824 35.084C200.748 34.7607 200.615 34.5176 200.423 34.3544C200.231 34.1913 199.999 34.1097 199.727 34.1097C199.316 34.1097 198.983 34.257 198.726 34.5515C198.469 34.8461 198.341 35.312 198.341 35.9494C198.341 36.5959 198.465 37.0656 198.712 37.3587C198.96 37.6517 199.283 37.7982 199.682 37.7982C200.002 37.7982 200.27 37.7 200.484 37.5037C200.698 37.3073 200.834 37.0052 200.892 36.5974Z"/>
<path d="M202.374 38.3601L202.374 31.7172L203.189 31.7172L203.189 38.3601L202.374 38.3601Z"/>
<path d="M204.458 32.6552L204.458 31.7172L205.274 31.7172L205.274 32.6552L204.458 32.6552ZM204.458 38.3601L204.458 33.5479L205.274 33.5479L205.274 38.3601L204.458 38.3601Z"/>
<path d="M209.809 36.8104L210.652 36.9146C210.519 37.407 210.273 37.7891 209.914 38.061C209.554 38.3329 209.095 38.4688 208.536 38.4688C207.832 38.4688 207.274 38.2521 206.862 37.8186C206.449 37.3851 206.243 36.7771 206.243 35.9947C206.243 35.1852 206.452 34.5568 206.869 34.1097C207.285 33.6627 207.826 33.4391 208.491 33.4391C209.134 33.4391 209.66 33.6581 210.068 34.0962C210.475 34.5342 210.679 35.1504 210.679 35.9449C210.679 35.9932 210.678 36.0657 210.675 36.1624L207.086 36.1624C207.116 36.691 207.266 37.0958 207.535 37.3768C207.803 37.6577 208.139 37.7982 208.541 37.7982C208.84 37.7982 209.095 37.7196 209.306 37.5626C209.518 37.4055 209.685 37.1547 209.809 36.8104ZM207.131 35.4918L209.818 35.4918C209.782 35.087 209.679 34.7834 209.51 34.581C209.25 34.2668 208.914 34.1097 208.5 34.1097C208.125 34.1097 207.81 34.2351 207.555 34.4858C207.3 34.7366 207.159 35.0719 207.131 35.4918Z"/>
<path d="M211.676 38.3601L211.676 33.5479L212.41 33.5479L212.41 34.2321C212.764 33.7034 213.274 33.4391 213.942 33.4391C214.232 33.4391 214.498 33.4912 214.742 33.5954C214.985 33.6997 215.167 33.8364 215.288 34.0055C215.408 34.1747 215.493 34.3756 215.541 34.6082C215.572 34.7592 215.587 35.0235 215.587 35.4012L215.587 38.3601L214.771 38.3601L214.771 35.4329C214.771 35.1006 214.739 34.8521 214.676 34.6875C214.612 34.5228 214.5 34.3914 214.338 34.2933C214.177 34.1951 213.987 34.146 213.77 34.146C213.422 34.146 213.122 34.2563 212.87 34.4768C212.618 34.6973 212.492 35.1157 212.492 35.7319L212.492 38.3601L211.676 38.3601Z"/>
<path d="M218.618 37.6305L218.736 38.351C218.506 38.3993 218.301 38.4235 218.12 38.4235C217.824 38.4235 217.594 38.3767 217.431 38.283C217.268 38.1894 217.153 38.0663 217.086 37.9137C217.02 37.7612 216.987 37.4402 216.987 36.9508L216.987 34.1822L216.389 34.1822L216.389 33.5479L216.987 33.5479L216.987 32.3562L217.798 31.8668L217.798 33.5479L218.618 33.5479L218.618 34.1822L217.798 34.1822L217.798 36.9962C217.798 37.2288 217.812 37.3783 217.841 37.4447C217.87 37.5112 217.916 37.5641 217.981 37.6033C218.046 37.6426 218.139 37.6622 218.26 37.6622C218.351 37.6622 218.47 37.6517 218.618 37.6305Z"/>
</g>
</g>
<g opacity="1" vectornator:layerName="g">
<path d="M352.69 19.5101L439.118 19.5101L439.118 19.5101L439.118 50.0871L439.118 50.0871L352.69 50.0871L352.69 50.0871L352.69 19.5101L352.69 19.5101Z" fill="url(#LinearGradient_2)" fill-rule="nonzero" opacity="1" stroke="#000000" stroke-linecap="butt" stroke-linejoin="miter" stroke-width="1" vectornator:layerName="rect"/>
<g fill="#ffffff" opacity="1" stroke="none" vectornator:layerName="text">
<path d="M375.32 38.3061L373.557 31.6632L374.459 31.6632L375.469 36.0178C375.578 36.4739 375.672 36.927 375.75 37.3772C375.92 36.6673 376.019 36.2579 376.049 36.1492L377.314 31.6632L378.374 31.6632L379.326 35.0254C379.564 35.8592 379.736 36.6431 379.842 37.3772C379.927 36.9573 380.037 36.4754 380.173 35.9317L381.215 31.6632L382.099 31.6632L380.277 38.3061L379.43 38.3061L378.03 33.2447C377.912 32.8217 377.842 32.5619 377.821 32.4653C377.752 32.7704 377.687 33.0302 377.626 33.2447L376.217 38.3061L375.32 38.3061Z"/>
<path d="M385.941 36.7564L386.784 36.8606C386.651 37.353 386.405 37.7351 386.045 38.007C385.686 38.2789 385.227 38.4148 384.668 38.4148C383.964 38.4148 383.406 38.1981 382.994 37.7646C382.581 37.3311 382.375 36.7231 382.375 35.9407C382.375 35.1312 382.584 34.5028 383 34.0557C383.417 33.6087 383.958 33.3851 384.623 33.3851C385.266 33.3851 385.792 33.6041 386.199 34.0422C386.607 34.4802 386.811 35.0964 386.811 35.8909C386.811 35.9392 386.81 36.0117 386.807 36.1084L383.218 36.1084C383.248 36.637 383.398 37.0418 383.666 37.3228C383.935 37.6037 384.271 37.7442 384.672 37.7442C384.971 37.7442 385.227 37.6656 385.438 37.5086C385.65 37.3515 385.817 37.1007 385.941 36.7564ZM383.263 35.4378L385.95 35.4378C385.914 35.033 385.811 34.7294 385.642 34.527C385.382 34.2128 385.046 34.0557 384.632 34.0557C384.257 34.0557 383.942 34.1811 383.687 34.4318C383.432 34.6826 383.29 35.0179 383.263 35.4378Z"/>
<path d="M388.56 38.3061L387.804 38.3061L387.804 31.6632L388.619 31.6632L388.619 34.0331C388.964 33.6011 389.403 33.3851 389.938 33.3851C390.234 33.3851 390.514 33.4448 390.778 33.5641C391.043 33.6834 391.26 33.8511 391.431 34.0671C391.601 34.2831 391.735 34.5436 391.832 34.8487C391.928 35.1538 391.977 35.4801 391.977 35.8275C391.977 36.6522 391.773 37.2895 391.365 37.7397C390.957 38.1898 390.468 38.4148 389.897 38.4148C389.329 38.4148 388.883 38.1777 388.56 37.7034L388.56 38.3061ZM388.551 35.8637C388.551 36.4407 388.63 36.8576 388.787 37.1143C389.044 37.5342 389.391 37.7442 389.829 37.7442C390.185 37.7442 390.494 37.5894 390.753 37.2797C391.013 36.9701 391.143 36.5087 391.143 35.8954C391.143 35.2671 391.018 34.8034 390.769 34.5043C390.52 34.2053 390.219 34.0557 389.865 34.0557C389.509 34.0557 389.201 34.2106 388.941 34.5202C388.681 34.8298 388.551 35.2777 388.551 35.8637Z"/>
<path d="M394.41 38.3061L396.961 31.6632L397.908 31.6632L400.627 38.3061L399.626 38.3061L398.851 36.2942L396.073 36.2942L395.344 38.3061L394.41 38.3061ZM396.327 35.5782L398.579 35.5782L397.886 33.7386C397.674 33.1797 397.517 32.7205 397.414 32.3611C397.33 32.787 397.21 33.2099 397.056 33.6298L396.327 35.5782Z"/>
<path d="M401.329 38.3061L401.329 31.6632L403.835 31.6632C404.276 31.6632 404.613 31.6844 404.846 31.7267C405.172 31.7811 405.445 31.8845 405.666 32.0371C405.886 32.1896 406.064 32.4033 406.198 32.6782C406.333 32.9531 406.4 33.2552 406.4 33.5845C406.4 34.1494 406.22 34.6274 405.861 35.0186C405.501 35.4098 404.852 35.6054 403.912 35.6054L402.208 35.6054L402.208 38.3061L401.329 38.3061ZM402.208 34.8215L403.926 34.8215C404.494 34.8215 404.897 34.7158 405.136 34.5043C405.374 34.2929 405.494 33.9953 405.494 33.6117C405.494 33.3338 405.423 33.0959 405.283 32.898C405.142 32.7001 404.957 32.5695 404.728 32.5061C404.58 32.4668 404.306 32.4472 403.908 32.4472L402.208 32.4472L402.208 34.8215Z"/>
<path d="M407.669 38.3061L407.669 31.6632L408.548 31.6632L408.548 38.3061L407.669 38.3061Z"/>
</g>
</g>
<path d="M204.096 50.0871L204.532 390.679" fill="#d8d8d8" fill-rule="nonzero" opacity="1" stroke="#000000" stroke-linecap="butt" stroke-linejoin="miter" stroke-width="1" vectornator:layerName="line"/>
<path d="M398.892 64.005L396.73 390.679" fill="#d8d8d8" fill-rule="nonzero" opacity="1" stroke="#000000" stroke-linecap="butt" stroke-linejoin="miter" stroke-width="1" vectornator:layerName="line"/>
<path d="M198.031 66.004L210.657 66.004L210.657 66.004L210.657 383.84L210.657 383.84L198.031 383.84L198.031 383.84L198.031 66.004L198.031 66.004Z" fill="#d8d8d8" fill-rule="nonzero" opacity="1" stroke="#000000" stroke-linecap="butt" stroke-linejoin="miter" stroke-width="1" vectornator:layerName="rect"/>
<path d="M391.498 102.595L404.124 102.595L404.124 102.595L404.124 125.205L404.124 125.205L391.498 125.205L391.498 125.205L391.498 102.595L391.498 102.595Z" fill="#d8d8d8" fill-rule="nonzero" opacity="1" stroke="#000000" stroke-linecap="butt" stroke-linejoin="miter" stroke-width="1" vectornator:layerName="rect"/>
<path d="M211.231 72.506L391.644 105.555" fill="#d8d8d8" fill-rule="nonzero" opacity="1" stroke="#000000" stroke-linecap="butt" stroke-linejoin="miter" stroke-width="1" vectornator:layerName="line"/>
<path d="M392.109 122.595L211.338 165.468" fill="#d8d8d8" fill-rule="nonzero" opacity="1" stroke="#000000" stroke-linecap="butt" stroke-linejoin="miter" stroke-width="1" vectornator:layerName="line"/>
<path d="M377.17 95.2778L390.692 105.365L375.335 109.649" fill="#d8d8d8" fill-opacity="0" fill-rule="nonzero" opacity="1" stroke="#000000" stroke-linecap="butt" stroke-linejoin="miter" stroke-width="1" vectornator:layerName="polyline"/>
<path d="M223.536 154.293L210.973 165.552L226.652 168.442" fill="#d8d8d8" fill-opacity="0" fill-rule="nonzero" opacity="1" stroke="#000000" stroke-linecap="butt" stroke-linejoin="miter" stroke-width="1" vectornator:layerName="polyline"/>
<g fill="#333333" opacity="1" stroke="none" vectornator:layerName="text">
<path d="M270.523 73.6158L271.352 73.5433C271.391 73.8756 271.483 74.1482 271.626 74.3612C271.77 74.5741 271.992 74.7463 272.295 74.8777C272.597 75.0091 272.937 75.0748 273.314 75.0748C273.649 75.0748 273.945 75.025 274.202 74.9253C274.459 74.8256 274.65 74.6889 274.775 74.5152C274.901 74.3415 274.963 74.152 274.963 73.9466C274.963 73.7381 274.903 73.5561 274.782 73.4005C274.661 73.245 274.462 73.1143 274.184 73.0086C274.006 72.9391 273.612 72.8311 273.001 72.6846C272.391 72.5381 271.964 72.3999 271.719 72.27C271.402 72.1039 271.166 71.8977 271.01 71.6515C270.854 71.4053 270.777 71.1296 270.777 70.8245C270.777 70.4892 270.872 70.1758 271.062 69.8843C271.252 69.5928 271.53 69.3715 271.896 69.2205C272.261 69.0694 272.668 68.9939 273.115 68.9939C273.607 68.9939 274.041 69.0732 274.417 69.2318C274.794 69.3904 275.083 69.6237 275.285 69.9319C275.488 70.24 275.596 70.5889 275.611 70.9786L274.769 71.042C274.723 70.6221 274.57 70.3049 274.309 70.0905C274.047 69.876 273.662 69.7687 273.151 69.7687C272.619 69.7687 272.232 69.8662 271.989 70.061C271.746 70.2559 271.624 70.4907 271.624 70.7656C271.624 71.0043 271.71 71.2006 271.882 71.3547C272.051 71.5087 272.493 71.6666 273.208 71.8282C273.922 71.9898 274.412 72.131 274.678 72.2519C275.065 72.4301 275.35 72.6559 275.534 72.9293C275.719 73.2027 275.811 73.5176 275.811 73.8741C275.811 74.2275 275.71 74.5605 275.507 74.8732C275.305 75.1859 275.014 75.429 274.635 75.6027C274.256 75.7764 273.829 75.8633 273.355 75.8633C272.754 75.8633 272.25 75.7757 271.844 75.6005C271.437 75.4253 271.119 75.1617 270.888 74.8098C270.657 74.4578 270.535 74.0598 270.523 73.6158Z"/>
<path d="M280.202 74.2003L281.044 74.3045C280.912 74.7969 280.665 75.1791 280.306 75.4509C279.946 75.7228 279.487 75.8588 278.928 75.8588C278.224 75.8588 277.666 75.642 277.254 75.2085C276.842 74.775 276.636 74.1671 276.636 73.3847C276.636 72.5751 276.844 71.9468 277.261 71.4997C277.678 71.0526 278.218 70.8291 278.883 70.8291C279.526 70.8291 280.052 71.0481 280.46 71.4861C280.868 71.9241 281.072 72.5404 281.072 73.3348C281.072 73.3832 281.07 73.4557 281.067 73.5523L277.478 73.5523C277.509 74.081 277.658 74.4858 277.927 74.7667C278.196 75.0477 278.531 75.1881 278.933 75.1881C279.232 75.1881 279.487 75.1096 279.699 74.9525C279.91 74.7954 280.078 74.5447 280.202 74.2003ZM277.524 72.8817L280.211 72.8817C280.174 72.4769 280.072 72.1733 279.903 71.9709C279.643 71.6568 279.306 71.4997 278.892 71.4997C278.517 71.4997 278.203 71.6251 277.947 71.8758C277.692 72.1265 277.551 72.4618 277.524 72.8817Z"/>
<path d="M282.059 75.75L282.059 70.9378L282.793 70.9378L282.793 71.6673C282.981 71.326 283.154 71.1009 283.312 70.9922C283.471 70.8834 283.645 70.8291 283.836 70.8291C284.111 70.8291 284.39 70.9167 284.674 71.0919L284.393 71.8486C284.194 71.7308 283.994 71.6719 283.795 71.6719C283.617 71.6719 283.457 71.7255 283.315 71.8327C283.173 71.94 283.071 72.0887 283.011 72.2791C282.92 72.5691 282.875 72.8862 282.875 73.2306L282.875 75.75L282.059 75.75Z"/>
<path d="M286.496 75.75L284.665 70.9378L285.526 70.9378L286.559 73.8197C286.671 74.1308 286.773 74.4541 286.867 74.7894C286.94 74.5356 287.041 74.2305 287.171 73.8741L288.24 70.9378L289.078 70.9378L287.257 75.75L286.496 75.75Z"/>
<path d="M289.803 70.0452L289.803 69.1072L290.619 69.1072L290.619 70.0452L289.803 70.0452ZM289.803 75.75L289.803 70.9378L290.619 70.9378L290.619 75.75L289.803 75.75Z"/>
<path d="M295.001 73.9873L295.803 74.0916C295.715 74.6444 295.491 75.0771 295.13 75.3898C294.769 75.7024 294.326 75.8588 293.8 75.8588C293.141 75.8588 292.612 75.6435 292.212 75.213C291.811 74.7826 291.611 74.1656 291.611 73.362C291.611 72.8424 291.697 72.3878 291.87 71.9981C292.042 71.6084 292.304 71.3162 292.656 71.1213C293.008 70.9265 293.391 70.8291 293.804 70.8291C294.327 70.8291 294.754 70.9612 295.087 71.2255C295.419 71.4899 295.632 71.8652 295.726 72.3516L294.933 72.4739C294.857 72.1507 294.724 71.9075 294.532 71.7444C294.34 71.5812 294.108 71.4997 293.836 71.4997C293.425 71.4997 293.092 71.647 292.835 71.9415C292.578 72.236 292.45 72.702 292.45 73.3394C292.45 73.9858 292.573 74.4556 292.821 74.7486C293.069 75.0416 293.392 75.1881 293.791 75.1881C294.111 75.1881 294.378 75.0899 294.593 74.8936C294.807 74.6972 294.943 74.3952 295.001 73.9873Z"/>
<path d="M299.795 74.2003L300.638 74.3045C300.505 74.7969 300.258 75.1791 299.899 75.4509C299.539 75.7228 299.08 75.8588 298.521 75.8588C297.818 75.8588 297.26 75.642 296.847 75.2085C296.435 74.775 296.229 74.1671 296.229 73.3847C296.229 72.5751 296.437 71.9468 296.854 71.4997C297.271 71.0526 297.812 70.8291 298.476 70.8291C299.12 70.8291 299.645 71.0481 300.053 71.4861C300.461 71.9241 300.665 72.5404 300.665 73.3348C300.665 73.3832 300.663 73.4557 300.66 73.5523L297.071 73.5523C297.102 74.081 297.251 74.4858 297.52 74.7667C297.789 75.0477 298.124 75.1881 298.526 75.1881C298.825 75.1881 299.08 75.1096 299.292 74.9525C299.503 74.7954 299.671 74.5447 299.795 74.2003ZM297.117 72.8817L299.804 72.8817C299.768 72.4769 299.665 72.1733 299.496 71.9709C299.236 71.6568 298.899 71.4997 298.485 71.4997C298.111 71.4997 297.796 71.6251 297.54 71.8758C297.285 72.1265 297.144 72.4618 297.117 72.8817Z"/>
<path d="M307.38 73.9873L308.182 74.0916C308.094 74.6444 307.87 75.0771 307.509 75.3898C307.148 75.7024 306.705 75.8588 306.179 75.8588C305.521 75.8588 304.991 75.6435 304.591 75.213C304.191 74.7826 303.991 74.1656 303.991 73.362C303.991 72.8424 304.077 72.3878 304.249 71.9981C304.421 71.6084 304.683 71.3162 305.035 71.1213C305.387 70.9265 305.77 70.8291 306.184 70.8291C306.706 70.8291 307.134 70.9612 307.466 71.2255C307.798 71.4899 308.011 71.8652 308.105 72.3516L307.312 72.4739C307.237 72.1507 307.103 71.9075 306.911 71.7444C306.719 71.5812 306.487 71.4997 306.216 71.4997C305.805 71.4997 305.471 71.647 305.214 71.9415C304.957 72.236 304.829 72.702 304.829 73.3394C304.829 73.9858 304.953 74.4556 305.201 74.7486C305.448 75.0416 305.771 75.1881 306.17 75.1881C306.49 75.1881 306.758 75.0899 306.972 74.8936C307.187 74.6972 307.323 74.3952 307.38 73.9873Z"/>
<path d="M312.02 75.1564C311.718 75.4132 311.427 75.5944 311.148 75.7002C310.868 75.8059 310.569 75.8588 310.248 75.8588C309.72 75.8588 309.313 75.7296 309.029 75.4713C308.745 75.213 308.603 74.883 308.603 74.4812C308.603 74.2456 308.657 74.0304 308.764 73.8355C308.872 73.6407 309.012 73.4844 309.186 73.3666C309.359 73.2487 309.555 73.1596 309.773 73.0992C309.933 73.0569 310.174 73.0161 310.498 72.9769C311.156 72.8983 311.641 72.8047 311.952 72.6959C311.955 72.5842 311.957 72.5132 311.957 72.483C311.957 72.1507 311.88 71.9166 311.726 71.7806C311.517 71.5964 311.207 71.5042 310.797 71.5042C310.413 71.5042 310.13 71.5714 309.947 71.7059C309.764 71.8403 309.629 72.0782 309.541 72.4195L308.744 72.3108C308.816 71.9694 308.936 71.6938 309.102 71.4838C309.268 71.2739 309.508 71.1123 309.822 70.999C310.137 70.8857 310.501 70.8291 310.914 70.8291C311.325 70.8291 311.659 70.8774 311.916 70.9741C312.173 71.0707 312.361 71.1923 312.482 71.3388C312.603 71.4853 312.688 71.6704 312.736 71.8939C312.763 72.0329 312.777 72.2836 312.777 72.6461L312.777 73.7336C312.777 74.4918 312.794 74.9714 312.829 75.1723C312.864 75.3732 312.932 75.5657 313.035 75.75L312.183 75.75C312.099 75.5808 312.044 75.383 312.02 75.1564ZM311.952 73.3348C311.656 73.4557 311.212 73.5584 310.62 73.643C310.285 73.6913 310.047 73.7457 309.908 73.8061C309.77 73.8665 309.662 73.9549 309.587 74.0712C309.511 74.1875 309.473 74.3166 309.473 74.4586C309.473 74.6761 309.556 74.8573 309.72 75.0023C309.885 75.1473 310.126 75.2198 310.443 75.2198C310.757 75.2198 311.037 75.1511 311.281 75.0137C311.526 74.8762 311.706 74.6882 311.821 74.4495C311.908 74.2653 311.952 73.9934 311.952 73.6339L311.952 73.3348Z"/>
<path d="M314.023 75.75L314.023 69.1072L314.838 69.1072L314.838 75.75L314.023 75.75Z"/>
<path d="M316.085 75.75L316.085 69.1072L316.9 69.1072L316.9 75.75L316.085 75.75Z"/>
</g>
<path d="M390.727 203.473L403.353 203.473L403.353 203.473L403.353 226.083L403.353 226.083L390.727 226.083L390.727 226.083L390.727 203.473L390.727 203.473Z" fill="#d8d8d8" fill-rule="nonzero" opacity="1" stroke="#000000" stroke-linecap="butt" stroke-linejoin="miter" stroke-width="1" vectornator:layerName="rect"/>
<path d="M210.46 173.384L390.873 206.433" fill="#d8d8d8" fill-rule="nonzero" opacity="1" stroke="#000000" stroke-linecap="butt" stroke-linejoin="miter" stroke-width="1" vectornator:layerName="line"/>
<path d="M391.338 223.473L210.567 266.346" fill="#d8d8d8" fill-rule="nonzero" opacity="1" stroke="#000000" stroke-linecap="butt" stroke-linejoin="miter" stroke-width="1" vectornator:layerName="line"/>
<path d="M376.399 196.156L389.921 206.243L374.564 210.527" fill="#d8d8d8" fill-opacity="0" fill-rule="nonzero" opacity="1" stroke="#000000" stroke-linecap="butt" stroke-linejoin="miter" stroke-width="1" vectornator:layerName="polyline"/>
<path d="M222.765 255.171L210.202 266.43L225.881 269.32" fill="#d8d8d8" fill-opacity="0" fill-rule="nonzero" opacity="1" stroke="#000000" stroke-linecap="butt" stroke-linejoin="miter" stroke-width="1" vectornator:layerName="polyline"/>
<path d="M390.912 304.893L403.538 304.893L403.538 304.893L403.538 327.503L403.538 327.503L390.912 327.503L390.912 327.503L390.912 304.893L390.912 304.893Z" fill="#d8d8d8" fill-rule="nonzero" opacity="1" stroke="#000000" stroke-linecap="butt" stroke-linejoin="miter" stroke-width="1" vectornator:layerName="rect"/>
<path d="M210.645 274.804L391.058 307.853" fill="#d8d8d8" fill-rule="nonzero" opacity="1" stroke="#000000" stroke-linecap="butt" stroke-linejoin="miter" stroke-width="1" vectornator:layerName="line"/>
<path d="M391.523 323.893L210.202 356.591" fill="#d8d8d8" fill-rule="nonzero" opacity="1" stroke="#000000" stroke-linecap="butt" stroke-linejoin="miter" stroke-width="1" vectornator:layerName="line"/>
<path d="M376.584 297.576L390.106 307.664L374.749 311.947" fill="#d8d8d8" fill-opacity="0" fill-rule="nonzero" opacity="1" stroke="#000000" stroke-linecap="butt" stroke-linejoin="miter" stroke-width="1" vectornator:layerName="polyline"/>
<path d="M223.765 345.443L211.202 356.702L226.881 359.591" fill="#d8d8d8" fill-opacity="0" fill-rule="nonzero" opacity="1" stroke="#000000" stroke-linecap="butt" stroke-linejoin="miter" stroke-width="1" vectornator:layerName="polyline"/>
<g fill="#333333" opacity="1" stroke="none" vectornator:layerName="text">
<path d="M132.296 372.42L133.175 372.642C132.991 373.364 132.659 373.915 132.18 374.294C131.702 374.673 131.116 374.863 130.424 374.863C129.709 374.863 129.126 374.717 128.678 374.426C128.229 374.134 127.888 373.712 127.654 373.159C127.419 372.606 127.302 372.013 127.302 371.378C127.302 370.686 127.435 370.083 127.699 369.568C127.963 369.053 128.339 368.662 128.827 368.394C129.315 368.127 129.852 367.993 130.438 367.993C131.103 367.993 131.661 368.163 132.115 368.501C132.568 368.839 132.883 369.315 133.062 369.928L132.196 370.132C132.042 369.649 131.819 369.297 131.526 369.076C131.233 368.856 130.864 368.746 130.42 368.746C129.909 368.746 129.483 368.868 129.14 369.113C128.797 369.357 128.556 369.686 128.417 370.098C128.278 370.511 128.209 370.936 128.209 371.374C128.209 371.939 128.291 372.432 128.456 372.853C128.62 373.275 128.876 373.589 129.224 373.798C129.571 374.006 129.947 374.111 130.352 374.111C130.844 374.111 131.261 373.969 131.603 373.685C131.944 373.401 132.175 372.979 132.296 372.42Z"/>
<path d="M137.294 374.156C136.992 374.413 136.701 374.594 136.422 374.7C136.142 374.805 135.842 374.858 135.522 374.858C134.993 374.858 134.587 374.729 134.303 374.471C134.019 374.213 133.877 373.883 133.877 373.481C133.877 373.245 133.931 373.03 134.038 372.835C134.145 372.64 134.286 372.484 134.46 372.366C134.633 372.248 134.829 372.159 135.046 372.099C135.206 372.056 135.448 372.016 135.771 371.976C136.43 371.898 136.915 371.804 137.226 371.695C137.229 371.584 137.23 371.513 137.23 371.482C137.23 371.15 137.153 370.916 136.999 370.78C136.791 370.596 136.481 370.504 136.07 370.504C135.687 370.504 135.404 370.571 135.221 370.705C135.038 370.84 134.903 371.078 134.815 371.419L134.018 371.31C134.09 370.969 134.21 370.693 134.376 370.483C134.542 370.273 134.782 370.112 135.096 369.998C135.41 369.885 135.774 369.829 136.188 369.829C136.599 369.829 136.933 369.877 137.19 369.974C137.446 370.07 137.635 370.192 137.756 370.338C137.877 370.485 137.961 370.67 138.01 370.893C138.037 371.032 138.051 371.283 138.051 371.646L138.051 372.733C138.051 373.491 138.068 373.971 138.103 374.172C138.137 374.373 138.206 374.565 138.309 374.749L137.457 374.749C137.372 374.58 137.318 374.382 137.294 374.156ZM137.226 372.334C136.93 372.455 136.486 372.558 135.894 372.642C135.558 372.691 135.321 372.745 135.182 372.806C135.043 372.866 134.936 372.954 134.861 373.071C134.785 373.187 134.747 373.316 134.747 373.458C134.747 373.676 134.83 373.857 134.994 374.002C135.159 374.147 135.4 374.219 135.717 374.219C136.031 374.219 136.311 374.151 136.555 374.013C136.8 373.876 136.98 373.688 137.094 373.449C137.182 373.265 137.226 372.993 137.226 372.633L137.226 372.334Z"/>
<path d="M139.297 374.749L139.297 368.107L140.112 368.107L140.112 374.749L139.297 374.749Z"/>
<path d="M141.358 374.749L141.358 368.107L142.174 368.107L142.174 374.749L141.358 374.749Z"/>
<path d="M146.007 374.749L146.007 369.937L146.741 369.937L146.741 370.667C146.929 370.325 147.102 370.1 147.26 369.992C147.419 369.883 147.593 369.829 147.784 369.829C148.059 369.829 148.338 369.916 148.622 370.091L148.341 370.848C148.142 370.73 147.942 370.671 147.743 370.671C147.565 370.671 147.405 370.725 147.263 370.832C147.121 370.939 147.019 371.088 146.959 371.279C146.868 371.569 146.823 371.886 146.823 372.23L146.823 374.749L146.007 374.749Z"/>
<path d="M152.401 373.2L153.244 373.304C153.111 373.796 152.865 374.179 152.505 374.45C152.146 374.722 151.687 374.858 151.128 374.858C150.424 374.858 149.866 374.642 149.453 374.208C149.041 373.775 148.835 373.167 148.835 372.384C148.835 371.575 149.043 370.946 149.46 370.499C149.877 370.052 150.418 369.829 151.082 369.829C151.726 369.829 152.251 370.048 152.659 370.486C153.067 370.924 153.271 371.54 153.271 372.334C153.271 372.383 153.27 372.455 153.266 372.552L149.678 372.552C149.708 373.08 149.857 373.485 150.126 373.766C150.395 374.047 150.73 374.188 151.132 374.188C151.431 374.188 151.687 374.109 151.898 373.952C152.11 373.795 152.277 373.544 152.401 373.2ZM149.723 371.881L152.41 371.881C152.374 371.476 152.271 371.173 152.102 370.97C151.842 370.656 151.505 370.499 151.091 370.499C150.717 370.499 150.402 370.625 150.147 370.875C149.891 371.126 149.75 371.461 149.723 371.881Z"/>
<path d="M153.942 373.313L154.748 373.186C154.794 373.509 154.92 373.757 155.127 373.929C155.333 374.102 155.623 374.188 155.994 374.188C156.369 374.188 156.647 374.111 156.828 373.959C157.009 373.806 157.1 373.627 157.1 373.422C157.1 373.238 157.02 373.093 156.86 372.987C156.748 372.914 156.47 372.822 156.026 372.71C155.428 372.559 155.013 372.429 154.782 372.318C154.551 372.208 154.376 372.056 154.257 371.861C154.137 371.666 154.078 371.451 154.078 371.215C154.078 371.001 154.127 370.802 154.225 370.619C154.323 370.437 154.457 370.285 154.626 370.164C154.753 370.07 154.926 369.991 155.145 369.926C155.364 369.861 155.599 369.829 155.849 369.829C156.227 369.829 156.558 369.883 156.844 369.992C157.129 370.1 157.34 370.248 157.476 370.433C157.612 370.619 157.706 370.868 157.757 371.179L156.959 371.288C156.923 371.04 156.818 370.847 156.645 370.708C156.471 370.569 156.225 370.499 155.908 370.499C155.534 370.499 155.266 370.561 155.106 370.685C154.946 370.809 154.866 370.954 154.866 371.12C154.866 371.226 154.899 371.321 154.966 371.405C155.032 371.493 155.136 371.566 155.278 371.623C155.36 371.653 155.6 371.723 155.999 371.831C156.576 371.985 156.978 372.112 157.206 372.21C157.434 372.308 157.613 372.451 157.743 372.638C157.873 372.825 157.938 373.058 157.938 373.336C157.938 373.608 157.859 373.864 157.7 374.104C157.542 374.344 157.313 374.53 157.014 374.661C156.715 374.793 156.376 374.858 155.999 374.858C155.374 374.858 154.897 374.728 154.569 374.469C154.241 374.209 154.032 373.824 153.942 373.313Z"/>
<path d="M162.062 374.749L162.062 374.043C161.687 374.586 161.178 374.858 160.535 374.858C160.251 374.858 159.986 374.804 159.739 374.695C159.493 374.586 159.31 374.45 159.191 374.285C159.072 374.12 158.988 373.919 158.94 373.68C158.906 373.52 158.89 373.266 158.89 372.919L158.89 369.937L159.705 369.937L159.705 372.606C159.705 373.032 159.722 373.319 159.755 373.467C159.807 373.682 159.915 373.85 160.081 373.972C160.248 374.095 160.453 374.156 160.698 374.156C160.942 374.156 161.172 374.093 161.386 373.968C161.601 373.842 161.753 373.672 161.842 373.456C161.931 373.24 161.976 372.926 161.976 372.516L161.976 369.937L162.791 369.937L162.791 374.749L162.062 374.749Z"/>
<path d="M164.051 374.749L164.051 368.107L164.866 368.107L164.866 374.749L164.051 374.749Z"/>
<path d="M167.911 374.02L168.029 374.74C167.8 374.789 167.594 374.813 167.413 374.813C167.117 374.813 166.887 374.766 166.724 374.672C166.561 374.579 166.446 374.456 166.38 374.303C166.313 374.151 166.28 373.83 166.28 373.34L166.28 370.572L165.682 370.572L165.682 369.937L166.28 369.937L166.28 368.746L167.091 368.256L167.091 369.937L167.911 369.937L167.911 370.572L167.091 370.572L167.091 373.386C167.091 373.618 167.106 373.768 167.134 373.834C167.163 373.901 167.21 373.954 167.275 373.993C167.34 374.032 167.433 374.052 167.554 374.052C167.644 374.052 167.763 374.041 167.911 374.02Z"/>
</g>
<g fill="#333333" opacity="1" stroke="none" vectornator:layerName="text">
<path d="M138.933 116.801L138.118 116.801L138.118 111.604C137.922 111.791 137.664 111.978 137.345 112.165C137.027 112.353 136.74 112.493 136.487 112.587L136.487 111.798C136.943 111.584 137.342 111.324 137.683 111.019C138.024 110.714 138.266 110.418 138.408 110.131L138.933 110.131L138.933 116.801Z"/>
<path d="M140.923 115.365L141.729 115.238C141.775 115.561 141.901 115.809 142.108 115.981C142.315 116.153 142.604 116.239 142.975 116.239C143.35 116.239 143.628 116.163 143.809 116.01C143.99 115.858 144.081 115.679 144.081 115.473C144.081 115.289 144.001 115.144 143.841 115.038C143.729 114.966 143.451 114.874 143.007 114.762C142.409 114.611 141.994 114.48 141.763 114.37C141.532 114.26 141.357 114.107 141.238 113.912C141.118 113.717 141.059 113.502 141.059 113.267C141.059 113.052 141.108 112.853 141.206 112.671C141.304 112.488 141.438 112.336 141.607 112.215C141.734 112.122 141.907 112.042 142.126 111.977C142.345 111.912 142.58 111.88 142.83 111.88C143.208 111.88 143.54 111.934 143.825 112.043C144.11 112.152 144.321 112.299 144.457 112.485C144.593 112.671 144.687 112.919 144.738 113.23L143.941 113.339C143.904 113.091 143.799 112.898 143.626 112.759C143.452 112.62 143.206 112.551 142.889 112.551C142.515 112.551 142.247 112.613 142.087 112.736C141.927 112.86 141.847 113.005 141.847 113.171C141.847 113.277 141.88 113.372 141.947 113.457C142.013 113.544 142.117 113.617 142.259 113.674C142.341 113.705 142.581 113.774 142.98 113.883C143.557 114.037 143.959 114.163 144.187 114.261C144.416 114.359 144.595 114.502 144.724 114.689C144.854 114.877 144.919 115.109 144.919 115.387C144.919 115.659 144.84 115.915 144.681 116.155C144.523 116.395 144.294 116.581 143.995 116.713C143.696 116.844 143.358 116.91 142.98 116.91C142.355 116.91 141.878 116.78 141.55 116.52C141.223 116.26 141.013 115.875 140.923 115.365Z"/>
<path d="M147.67 116.071L147.788 116.792C147.558 116.84 147.353 116.864 147.171 116.864C146.875 116.864 146.646 116.818 146.483 116.724C146.319 116.63 146.205 116.507 146.138 116.355C146.072 116.202 146.038 115.881 146.038 115.392L146.038 112.623L145.44 112.623L145.44 111.989L146.038 111.989L146.038 110.797L146.85 110.308L146.85 111.989L147.67 111.989L147.67 112.623L146.85 112.623L146.85 115.437C146.85 115.67 146.864 115.819 146.893 115.886C146.921 115.952 146.968 116.005 147.033 116.044C147.098 116.083 147.191 116.103 147.312 116.103C147.402 116.103 147.522 116.093 147.67 116.071Z"/>
<path d="M151.046 118.645L151.046 111.989L151.789 111.989L151.789 112.614C151.964 112.369 152.162 112.186 152.382 112.064C152.603 111.941 152.87 111.88 153.184 111.88C153.595 111.88 153.958 111.986 154.272 112.197C154.586 112.409 154.823 112.707 154.983 113.092C155.143 113.477 155.223 113.899 155.223 114.359C155.223 114.851 155.135 115.294 154.958 115.689C154.782 116.083 154.525 116.385 154.188 116.595C153.851 116.805 153.497 116.91 153.125 116.91C152.853 116.91 152.61 116.852 152.394 116.738C152.178 116.623 152 116.478 151.861 116.303L151.861 118.645L151.046 118.645ZM151.784 114.422C151.784 115.041 151.909 115.499 152.16 115.795C152.411 116.091 152.715 116.239 153.071 116.239C153.433 116.239 153.744 116.086 154.002 115.779C154.26 115.473 154.39 114.998 154.39 114.354C154.39 113.741 154.263 113.282 154.011 112.977C153.759 112.671 153.458 112.519 153.107 112.519C152.76 112.519 152.452 112.681 152.185 113.006C151.918 113.331 151.784 113.803 151.784 114.422Z"/>
<path d="M156.207 116.801L156.207 110.158L157.022 110.158L157.022 112.542C157.403 112.101 157.883 111.88 158.463 111.88C158.82 111.88 159.129 111.95 159.392 112.091C159.655 112.231 159.843 112.425 159.956 112.673C160.07 112.921 160.126 113.28 160.126 113.751L160.126 116.801L159.311 116.801L159.311 113.751C159.311 113.344 159.222 113.047 159.045 112.861C158.869 112.675 158.619 112.582 158.296 112.582C158.054 112.582 157.827 112.645 157.614 112.77C157.401 112.896 157.249 113.066 157.158 113.28C157.068 113.495 157.022 113.791 157.022 114.168L157.022 116.801L156.207 116.801Z"/>
<path d="M164.508 116.207C164.206 116.464 163.915 116.645 163.636 116.751C163.356 116.857 163.056 116.91 162.736 116.91C162.208 116.91 161.801 116.781 161.517 116.522C161.233 116.264 161.091 115.934 161.091 115.532C161.091 115.297 161.145 115.081 161.252 114.886C161.359 114.692 161.5 114.535 161.674 114.418C161.847 114.3 162.043 114.211 162.26 114.15C162.42 114.108 162.662 114.067 162.985 114.028C163.644 113.949 164.129 113.856 164.44 113.747C164.443 113.635 164.444 113.564 164.444 113.534C164.444 113.202 164.367 112.968 164.213 112.832C164.005 112.647 163.695 112.555 163.284 112.555C162.901 112.555 162.618 112.622 162.435 112.757C162.252 112.891 162.117 113.129 162.029 113.47L161.232 113.362C161.304 113.02 161.424 112.745 161.59 112.535C161.756 112.325 161.996 112.163 162.31 112.05C162.624 111.937 162.988 111.88 163.402 111.88C163.813 111.88 164.147 111.928 164.404 112.025C164.66 112.122 164.849 112.243 164.97 112.39C165.091 112.536 165.175 112.721 165.224 112.945C165.251 113.084 165.265 113.335 165.265 113.697L165.265 114.785C165.265 115.543 165.282 116.022 165.317 116.223C165.351 116.424 165.42 116.617 165.523 116.801L164.671 116.801C164.586 116.632 164.532 116.434 164.508 116.207ZM164.44 114.386C164.144 114.507 163.7 114.609 163.108 114.694C162.772 114.742 162.535 114.797 162.396 114.857C162.257 114.917 162.15 115.006 162.075 115.122C161.999 115.238 161.961 115.368 161.961 115.51C161.961 115.727 162.044 115.908 162.208 116.053C162.373 116.198 162.614 116.271 162.931 116.271C163.245 116.271 163.525 116.202 163.769 116.065C164.014 115.927 164.194 115.739 164.308 115.5C164.396 115.316 164.44 115.044 164.44 114.685L164.44 114.386Z"/>
<path d="M166.203 115.365L167.009 115.238C167.054 115.561 167.181 115.809 167.387 115.981C167.594 116.153 167.884 116.239 168.255 116.239C168.63 116.239 168.908 116.163 169.089 116.01C169.27 115.858 169.361 115.679 169.361 115.473C169.361 115.289 169.281 115.144 169.121 115.038C169.009 114.966 168.731 114.874 168.287 114.762C167.689 114.611 167.274 114.48 167.043 114.37C166.812 114.26 166.637 114.107 166.517 113.912C166.398 113.717 166.338 113.502 166.338 113.267C166.338 113.052 166.388 112.853 166.486 112.671C166.584 112.488 166.718 112.336 166.887 112.215C167.014 112.122 167.187 112.042 167.406 111.977C167.625 111.912 167.859 111.88 168.11 111.88C168.488 111.88 168.819 111.934 169.105 112.043C169.39 112.152 169.601 112.299 169.737 112.485C169.873 112.671 169.967 112.919 170.018 113.23L169.22 113.339C169.184 113.091 169.079 112.898 168.905 112.759C168.732 112.62 168.486 112.551 168.169 112.551C167.795 112.551 167.527 112.613 167.367 112.736C167.207 112.86 167.127 113.005 167.127 113.171C167.127 113.277 167.16 113.372 167.227 113.457C167.293 113.544 167.397 113.617 167.539 113.674C167.621 113.705 167.861 113.774 168.26 113.883C168.837 114.037 169.239 114.163 169.467 114.261C169.695 114.359 169.874 114.502 170.004 114.689C170.134 114.877 170.199 115.109 170.199 115.387C170.199 115.659 170.12 115.915 169.961 116.155C169.803 116.395 169.574 116.581 169.275 116.713C168.976 116.844 168.637 116.91 168.26 116.91C167.634 116.91 167.158 116.78 166.83 116.52C166.502 116.26 166.293 115.875 166.203 115.365Z"/>
<path d="M174.463 115.251L175.306 115.355C175.173 115.848 174.927 116.23 174.567 116.502C174.208 116.774 173.749 116.91 173.19 116.91C172.486 116.91 171.928 116.693 171.515 116.259C171.103 115.826 170.897 115.218 170.897 114.436C170.897 113.626 171.105 112.998 171.522 112.551C171.939 112.104 172.48 111.88 173.144 111.88C173.788 111.88 174.314 112.099 174.721 112.537C175.129 112.975 175.333 113.591 175.333 114.386C175.333 114.434 175.332 114.507 175.329 114.603L171.74 114.603C171.77 115.132 171.919 115.537 172.188 115.818C172.457 116.099 172.793 116.239 173.194 116.239C173.493 116.239 173.749 116.161 173.96 116.003C174.172 115.846 174.339 115.596 174.463 115.251ZM171.785 113.933L174.472 113.933C174.436 113.528 174.333 113.224 174.164 113.022C173.904 112.708 173.567 112.551 173.154 112.551C172.779 112.551 172.464 112.676 172.209 112.927C171.953 113.177 171.812 113.513 171.785 113.933Z"/>
</g>
<g fill="#333333" opacity="1" stroke="none" vectornator:layerName="text">
<path d="M136.443 221.419L136.443 222.203L132.052 222.203C132.046 222.007 132.078 221.818 132.148 221.637C132.259 221.337 132.438 221.043 132.685 220.753C132.931 220.463 133.286 220.128 133.752 219.747C134.474 219.155 134.962 218.686 135.215 218.34C135.469 217.994 135.596 217.667 135.596 217.359C135.596 217.036 135.48 216.763 135.249 216.541C135.018 216.319 134.717 216.208 134.345 216.208C133.953 216.208 133.638 216.326 133.403 216.562C133.167 216.797 133.048 217.123 133.045 217.54L132.207 217.454C132.264 216.829 132.48 216.352 132.854 216.025C133.229 215.697 133.732 215.533 134.363 215.533C135.001 215.533 135.505 215.71 135.877 216.063C136.248 216.417 136.434 216.855 136.434 217.377C136.434 217.643 136.38 217.904 136.271 218.161C136.162 218.418 135.982 218.688 135.73 218.972C135.477 219.256 135.058 219.646 134.472 220.141C133.983 220.552 133.669 220.831 133.53 220.977C133.391 221.124 133.276 221.271 133.185 221.419L136.443 221.419Z"/>
<path d="M137.544 222.203L137.544 217.391L138.278 217.391L138.278 218.075C138.632 217.546 139.142 217.282 139.81 217.282C140.1 217.282 140.367 217.334 140.61 217.438C140.853 217.543 141.035 217.679 141.156 217.848C141.277 218.018 141.361 218.218 141.409 218.451C141.44 218.602 141.455 218.866 141.455 219.244L141.455 222.203L140.639 222.203L140.639 219.276C140.639 218.943 140.607 218.695 140.544 218.53C140.481 218.366 140.368 218.234 140.206 218.136C140.045 218.038 139.855 217.989 139.638 217.989C139.29 217.989 138.991 218.099 138.738 218.32C138.486 218.54 138.36 218.959 138.36 219.575L138.36 222.203L137.544 222.203Z"/>
<path d="M145.827 222.203L145.827 221.596C145.522 222.073 145.074 222.312 144.482 222.312C144.098 222.312 143.745 222.206 143.424 221.994C143.102 221.783 142.853 221.488 142.676 221.109C142.499 220.73 142.411 220.294 142.411 219.801C142.411 219.321 142.491 218.885 142.651 218.494C142.811 218.103 143.051 217.803 143.372 217.595C143.692 217.386 144.05 217.282 144.445 217.282C144.735 217.282 144.994 217.343 145.22 217.466C145.447 217.588 145.631 217.747 145.773 217.944L145.773 215.56L146.584 215.56L146.584 222.203L145.827 222.203ZM143.249 219.801C143.249 220.418 143.379 220.878 143.639 221.183C143.899 221.489 144.205 221.641 144.559 221.641C144.915 221.641 145.218 221.495 145.467 221.204C145.716 220.912 145.841 220.467 145.841 219.869C145.841 219.211 145.714 218.727 145.46 218.419C145.207 218.111 144.894 217.957 144.522 217.957C144.16 217.957 143.857 218.105 143.614 218.401C143.371 218.697 143.249 219.164 143.249 219.801Z"/>
<path d="M150.445 224.047L150.445 217.391L151.188 217.391L151.188 218.016C151.363 217.771 151.561 217.588 151.782 217.466C152.002 217.343 152.269 217.282 152.584 217.282C152.994 217.282 153.357 217.388 153.671 217.599C153.985 217.811 154.222 218.109 154.382 218.494C154.543 218.879 154.623 219.301 154.623 219.761C154.623 220.253 154.534 220.696 154.358 221.091C154.181 221.485 153.924 221.787 153.587 221.997C153.25 222.207 152.896 222.312 152.525 222.312C152.253 222.312 152.009 222.254 151.793 222.139C151.577 222.025 151.399 221.88 151.26 221.704L151.26 224.047L150.445 224.047ZM151.183 219.824C151.183 220.443 151.309 220.901 151.559 221.197C151.81 221.493 152.114 221.641 152.47 221.641C152.833 221.641 153.143 221.488 153.401 221.181C153.66 220.875 153.789 220.399 153.789 219.756C153.789 219.143 153.663 218.684 153.411 218.379C153.158 218.073 152.857 217.921 152.507 217.921C152.159 217.921 151.852 218.083 151.584 218.408C151.317 218.733 151.183 219.205 151.183 219.824Z"/>
<path d="M155.606 222.203L155.606 215.56L156.422 215.56L156.422 217.944C156.802 217.503 157.282 217.282 157.862 217.282C158.219 217.282 158.529 217.352 158.791 217.493C159.054 217.633 159.242 217.827 159.356 218.075C159.469 218.323 159.525 218.682 159.525 219.153L159.525 222.203L158.71 222.203L158.71 219.153C158.71 218.746 158.621 218.449 158.445 218.263C158.268 218.077 158.018 217.984 157.695 217.984C157.453 217.984 157.226 218.047 157.013 218.172C156.8 218.298 156.648 218.468 156.557 218.682C156.467 218.897 156.422 219.193 156.422 219.57L156.422 222.203L155.606 222.203Z"/>
<path d="M163.907 221.609C163.605 221.866 163.314 222.047 163.035 222.153C162.755 222.259 162.456 222.312 162.135 222.312C161.607 222.312 161.2 222.183 160.917 221.924C160.633 221.666 160.491 221.336 160.491 220.934C160.491 220.699 160.544 220.483 160.651 220.288C160.759 220.094 160.899 219.937 161.073 219.819C161.247 219.702 161.442 219.613 161.66 219.552C161.82 219.51 162.061 219.469 162.385 219.43C163.043 219.351 163.528 219.258 163.839 219.149C163.842 219.037 163.844 218.966 163.844 218.936C163.844 218.604 163.767 218.369 163.613 218.234C163.404 218.049 163.095 217.957 162.684 217.957C162.3 217.957 162.017 218.024 161.834 218.159C161.651 218.293 161.516 218.531 161.429 218.872L160.631 218.764C160.704 218.422 160.823 218.147 160.989 217.937C161.155 217.727 161.395 217.565 161.709 217.452C162.024 217.339 162.388 217.282 162.802 217.282C163.212 217.282 163.546 217.33 163.803 217.427C164.06 217.524 164.249 217.645 164.369 217.792C164.49 217.938 164.575 218.123 164.623 218.347C164.65 218.486 164.664 218.737 164.664 219.099L164.664 220.187C164.664 220.945 164.681 221.424 164.716 221.625C164.751 221.826 164.819 222.019 164.922 222.203L164.07 222.203C163.986 222.034 163.931 221.836 163.907 221.609ZM163.839 219.788C163.543 219.909 163.099 220.011 162.507 220.096C162.172 220.144 161.935 220.199 161.796 220.259C161.657 220.319 161.549 220.408 161.474 220.524C161.398 220.64 161.361 220.77 161.361 220.912C161.361 221.129 161.443 221.31 161.608 221.455C161.772 221.6 162.013 221.673 162.33 221.673C162.644 221.673 162.924 221.604 163.169 221.467C163.413 221.329 163.593 221.141 163.708 220.902C163.795 220.718 163.839 220.446 163.839 220.087L163.839 219.788Z"/>
<path d="M165.602 220.767L166.408 220.64C166.454 220.963 166.58 221.211 166.787 221.383C166.994 221.555 167.283 221.641 167.654 221.641C168.029 221.641 168.307 221.565 168.488 221.412C168.669 221.26 168.76 221.081 168.76 220.875C168.76 220.691 168.68 220.546 168.52 220.44C168.408 220.368 168.13 220.276 167.686 220.164C167.088 220.013 166.673 219.882 166.442 219.772C166.211 219.662 166.036 219.509 165.917 219.314C165.797 219.119 165.738 218.904 165.738 218.669C165.738 218.454 165.787 218.255 165.885 218.073C165.983 217.89 166.117 217.738 166.286 217.617C166.413 217.524 166.586 217.444 166.805 217.379C167.024 217.314 167.259 217.282 167.509 217.282C167.887 217.282 168.219 217.336 168.504 217.445C168.79 217.554 169 217.701 169.136 217.887C169.272 218.073 169.366 218.321 169.417 218.632L168.62 218.741C168.583 218.493 168.478 218.3 168.305 218.161C168.131 218.022 167.886 217.953 167.568 217.953C167.194 217.953 166.926 218.015 166.766 218.138C166.606 218.262 166.526 218.407 166.526 218.573C166.526 218.679 166.559 218.774 166.626 218.859C166.692 218.946 166.797 219.019 166.939 219.076C167.02 219.107 167.26 219.176 167.659 219.285C168.236 219.439 168.639 219.565 168.867 219.663C169.095 219.761 169.274 219.904 169.404 220.091C169.533 220.279 169.598 220.511 169.598 220.789C169.598 221.061 169.519 221.317 169.361 221.557C169.202 221.797 168.973 221.983 168.674 222.115C168.375 222.246 168.037 222.312 167.659 222.312C167.034 222.312 166.557 222.182 166.229 221.922C165.902 221.662 165.692 221.277 165.602 220.767Z"/>
<path d="M173.862 220.653L174.705 220.757C174.572 221.25 174.326 221.632 173.967 221.904C173.607 222.176 173.148 222.312 172.589 222.312C171.885 222.312 171.327 222.095 170.915 221.661C170.502 221.228 170.296 220.62 170.296 219.838C170.296 219.028 170.505 218.4 170.922 217.953C171.338 217.506 171.879 217.282 172.544 217.282C173.187 217.282 173.713 217.501 174.121 217.939C174.528 218.377 174.732 218.993 174.732 219.788C174.732 219.836 174.731 219.909 174.728 220.005L171.139 220.005C171.169 220.534 171.319 220.939 171.588 221.22C171.856 221.501 172.192 221.641 172.594 221.641C172.893 221.641 173.148 221.563 173.359 221.405C173.571 221.248 173.738 220.998 173.862 220.653ZM171.184 219.335L173.871 219.335C173.835 218.93 173.732 218.626 173.563 218.424C173.303 218.11 172.967 217.953 172.553 217.953C172.178 217.953 171.863 218.078 171.608 218.329C171.353 218.579 171.212 218.915 171.184 219.335Z"/>
</g>
<g fill="#333333" opacity="1" stroke="none" vectornator:layerName="text">
<path d="M132.161 317.345L132.977 317.237C133.07 317.699 133.23 318.032 133.455 318.236C133.68 318.44 133.954 318.542 134.277 318.542C134.661 318.542 134.985 318.409 135.249 318.143C135.514 317.877 135.646 317.548 135.646 317.155C135.646 316.78 135.523 316.472 135.279 316.228C135.034 315.985 134.723 315.864 134.345 315.864C134.191 315.864 133.999 315.894 133.77 315.954L133.86 315.238C133.915 315.244 133.959 315.247 133.992 315.247C134.339 315.247 134.652 315.157 134.93 314.976C135.208 314.794 135.347 314.515 135.347 314.137C135.347 313.838 135.245 313.59 135.043 313.394C134.841 313.198 134.579 313.1 134.259 313.1C133.942 313.1 133.678 313.199 133.466 313.399C133.255 313.598 133.119 313.897 133.058 314.296L132.243 314.151C132.342 313.604 132.569 313.18 132.922 312.88C133.276 312.579 133.715 312.429 134.241 312.429C134.604 312.429 134.937 312.507 135.242 312.662C135.548 312.818 135.781 313.03 135.943 313.299C136.104 313.568 136.185 313.853 136.185 314.155C136.185 314.442 136.108 314.704 135.954 314.939C135.8 315.175 135.572 315.362 135.27 315.501C135.662 315.592 135.967 315.78 136.185 316.065C136.402 316.351 136.511 316.708 136.511 317.137C136.511 317.717 136.3 318.209 135.877 318.612C135.454 319.015 134.919 319.217 134.273 319.217C133.69 319.217 133.206 319.043 132.821 318.696C132.435 318.348 132.216 317.898 132.161 317.345Z"/>
<path d="M137.535 319.099L137.535 314.287L138.269 314.287L138.269 315.016C138.457 314.675 138.63 314.45 138.788 314.341C138.947 314.232 139.121 314.178 139.312 314.178C139.586 314.178 139.866 314.266 140.15 314.441L139.869 315.198C139.669 315.08 139.47 315.021 139.271 315.021C139.093 315.021 138.932 315.074 138.79 315.182C138.648 315.289 138.547 315.438 138.487 315.628C138.396 315.918 138.351 316.235 138.351 316.58L138.351 319.099L137.535 319.099Z"/>
<path d="M143.757 319.099L143.757 318.492C143.452 318.969 143.003 319.208 142.411 319.208C142.027 319.208 141.675 319.102 141.353 318.891C141.031 318.679 140.782 318.384 140.605 318.005C140.428 317.626 140.34 317.19 140.34 316.697C140.34 316.217 140.42 315.781 140.58 315.39C140.74 314.999 140.981 314.699 141.301 314.491C141.621 314.282 141.979 314.178 142.375 314.178C142.665 314.178 142.923 314.239 143.149 314.362C143.376 314.484 143.56 314.643 143.702 314.84L143.702 312.456L144.513 312.456L144.513 319.099L143.757 319.099ZM141.178 316.697C141.178 317.314 141.308 317.774 141.568 318.079C141.828 318.385 142.134 318.537 142.488 318.537C142.844 318.537 143.147 318.391 143.396 318.1C143.646 317.808 143.77 317.363 143.77 316.765C143.77 316.107 143.643 315.623 143.39 315.315C143.136 315.007 142.823 314.853 142.452 314.853C142.089 314.853 141.786 315.001 141.543 315.297C141.3 315.593 141.178 316.06 141.178 316.697Z"/>
<path d="M148.374 320.943L148.374 314.287L149.117 314.287L149.117 314.912C149.292 314.667 149.49 314.484 149.711 314.362C149.931 314.239 150.199 314.178 150.513 314.178C150.924 314.178 151.286 314.284 151.6 314.495C151.914 314.707 152.152 315.005 152.312 315.39C152.472 315.775 152.552 316.197 152.552 316.657C152.552 317.149 152.463 317.592 152.287 317.987C152.11 318.381 151.853 318.683 151.516 318.893C151.18 319.103 150.825 319.208 150.454 319.208C150.182 319.208 149.938 319.15 149.722 319.036C149.506 318.921 149.329 318.776 149.19 318.601L149.19 320.943L148.374 320.943ZM149.113 316.72C149.113 317.339 149.238 317.797 149.489 318.093C149.739 318.389 150.043 318.537 150.399 318.537C150.762 318.537 151.072 318.384 151.331 318.077C151.589 317.771 151.718 317.296 151.718 316.652C151.718 316.039 151.592 315.58 151.34 315.275C151.087 314.969 150.786 314.817 150.436 314.817C150.088 314.817 149.781 314.979 149.514 315.304C149.246 315.629 149.113 316.101 149.113 316.72Z"/>
<path d="M153.535 319.099L153.535 312.456L154.351 312.456L154.351 314.84C154.731 314.399 155.212 314.178 155.792 314.178C156.148 314.178 156.458 314.248 156.721 314.389C156.983 314.529 157.171 314.723 157.285 314.971C157.398 315.219 157.455 315.578 157.455 316.049L157.455 319.099L156.639 319.099L156.639 316.049C156.639 315.642 156.551 315.345 156.374 315.159C156.197 314.973 155.947 314.88 155.624 314.88C155.382 314.88 155.155 314.943 154.942 315.068C154.729 315.194 154.577 315.364 154.487 315.578C154.396 315.793 154.351 316.089 154.351 316.466L154.351 319.099L153.535 319.099Z"/>
<path d="M161.836 318.505C161.534 318.762 161.244 318.943 160.964 319.049C160.685 319.155 160.385 319.208 160.065 319.208C159.536 319.208 159.13 319.079 158.846 318.82C158.562 318.562 158.42 318.232 158.42 317.83C158.42 317.595 158.473 317.379 158.581 317.184C158.688 316.99 158.828 316.833 159.002 316.716C159.176 316.598 159.371 316.509 159.589 316.448C159.749 316.406 159.991 316.365 160.314 316.326C160.972 316.247 161.457 316.154 161.768 316.045C161.771 315.933 161.773 315.862 161.773 315.832C161.773 315.5 161.696 315.266 161.542 315.13C161.333 314.945 161.024 314.853 160.613 314.853C160.229 314.853 159.946 314.92 159.763 315.055C159.581 315.189 159.445 315.427 159.358 315.768L158.56 315.66C158.633 315.318 158.752 315.043 158.918 314.833C159.084 314.623 159.325 314.461 159.639 314.348C159.953 314.235 160.317 314.178 160.731 314.178C161.142 314.178 161.475 314.226 161.732 314.323C161.989 314.42 162.178 314.541 162.299 314.688C162.419 314.834 162.504 315.019 162.552 315.243C162.579 315.382 162.593 315.633 162.593 315.995L162.593 317.083C162.593 317.841 162.61 318.32 162.645 318.521C162.68 318.722 162.749 318.915 162.851 319.099L161.999 319.099C161.915 318.93 161.861 318.732 161.836 318.505ZM161.768 316.684C161.472 316.805 161.028 316.907 160.436 316.992C160.101 317.04 159.864 317.095 159.725 317.155C159.586 317.215 159.479 317.304 159.403 317.42C159.328 317.536 159.29 317.666 159.29 317.808C159.29 318.025 159.372 318.206 159.537 318.351C159.701 318.496 159.942 318.569 160.259 318.569C160.574 318.569 160.853 318.5 161.098 318.363C161.342 318.225 161.522 318.037 161.637 317.798C161.725 317.614 161.768 317.342 161.768 316.983L161.768 316.684Z"/>
<path d="M163.531 317.663L164.338 317.536C164.383 317.859 164.509 318.107 164.716 318.279C164.923 318.451 165.212 318.537 165.584 318.537C165.958 318.537 166.236 318.461 166.417 318.308C166.599 318.156 166.689 317.977 166.689 317.771C166.689 317.587 166.609 317.442 166.449 317.336C166.337 317.264 166.059 317.172 165.615 317.06C165.017 316.909 164.603 316.778 164.372 316.668C164.141 316.558 163.965 316.405 163.846 316.21C163.727 316.015 163.667 315.8 163.667 315.565C163.667 315.35 163.716 315.151 163.814 314.969C163.912 314.786 164.046 314.634 164.215 314.513C164.342 314.42 164.515 314.34 164.734 314.275C164.953 314.21 165.188 314.178 165.439 314.178C165.816 314.178 166.148 314.232 166.433 314.341C166.719 314.45 166.929 314.597 167.065 314.783C167.201 314.969 167.295 315.217 167.346 315.528L166.549 315.637C166.513 315.389 166.408 315.196 166.234 315.057C166.06 314.918 165.815 314.849 165.498 314.849C165.123 314.849 164.856 314.911 164.696 315.034C164.535 315.158 164.455 315.303 164.455 315.469C164.455 315.575 164.489 315.67 164.555 315.755C164.622 315.842 164.726 315.915 164.868 315.972C164.949 316.003 165.189 316.072 165.588 316.181C166.165 316.335 166.568 316.461 166.796 316.559C167.024 316.657 167.203 316.8 167.333 316.987C167.463 317.175 167.528 317.407 167.528 317.685C167.528 317.957 167.448 318.213 167.29 318.453C167.131 318.693 166.902 318.879 166.603 319.011C166.304 319.142 165.966 319.208 165.588 319.208C164.963 319.208 164.486 319.078 164.159 318.818C163.831 318.558 163.622 318.173 163.531 317.663Z"/>
<path d="M171.792 317.549L172.634 317.653C172.501 318.146 172.255 318.528 171.896 318.8C171.536 319.072 171.077 319.208 170.518 319.208C169.814 319.208 169.256 318.991 168.844 318.557C168.432 318.124 168.225 317.516 168.225 316.734C168.225 315.924 168.434 315.296 168.851 314.849C169.268 314.402 169.808 314.178 170.473 314.178C171.116 314.178 171.642 314.397 172.05 314.835C172.458 315.273 172.662 315.889 172.662 316.684C172.662 316.732 172.66 316.805 172.657 316.901L169.068 316.901C169.098 317.43 169.248 317.835 169.517 318.116C169.786 318.397 170.121 318.537 170.523 318.537C170.822 318.537 171.077 318.459 171.289 318.301C171.5 318.144 171.668 317.894 171.792 317.549ZM169.114 316.231L171.801 316.231C171.764 315.826 171.662 315.522 171.492 315.32C171.233 315.006 170.896 314.849 170.482 314.849C170.107 314.849 169.792 314.974 169.537 315.225C169.282 315.475 169.141 315.811 169.114 316.231Z"/>
</g>
<path d="M131.584 272.32L456.074 272.32" fill="none" opacity="1" stroke="#777575" stroke-dasharray="5.0" stroke-linecap="butt" stroke-linejoin="round" stroke-width="3" vectornator:layerName="Line 1"/>
<path d="M131.772 170.921L456.262 170.921" fill="none" opacity="1" stroke="#777575" stroke-dasharray="5.0" stroke-linecap="butt" stroke-linejoin="round" stroke-width="3" vectornator:layerName="Line 2"/>
<g opacity="1" vectornator:layerName="Oval 1">
<path d="M194.994 384.404C189.598 387.907 182.393 387.688 177.284 383.384C171.006 378.097 170.268 368.646 175.634 362.275C181 355.904 190.44 355.025 196.717 360.313" fill="none" stroke="#000000" stroke-linecap="butt" stroke-linejoin="miter" stroke-width="1"/>
<g fill="#000000" stroke="none">
<path d="M196.189 388.02L198.366 381.424L191.552 382.776L196.189 388.02Z" fill="#000000"/>
</g>
</g>
</g>
</svg>
