<?xml version="1.0" encoding="UTF-8" standalone="no"?>
<!DOCTYPE svg PUBLIC "-//W3C//DTD SVG 1.1//EN" "http://www.w3.org/Graphics/SVG/1.1/DTD/svg11.dtd">
<!-- Created with Vectornator (http://vectornator.io/) -->
<svg height="100%" stroke-miterlimit="10" style="fill-rule:nonzero;clip-rule:evenodd;stroke-linecap:round;stroke-linejoin:round;" version="1.1" viewBox="27.016 5.499 531.13 185.726" width="100%" xml:space="preserve" xmlns="http://www.w3.org/2000/svg" xmlns:vectornator="http://vectornator.io" xmlns:xlink="http://www.w3.org/1999/xlink">
<defs/>
<g id="Untitled" vectornator:layerName="Untitled">
<path d="M27.516 98.362C27.516 47.3513 146.19 5.999 292.581 5.999C438.972 5.999 557.646 47.3513 557.646 98.362C557.646 149.373 438.972 190.725 292.581 190.725C146.19 190.725 27.516 149.373 27.516 98.362Z" fill="#651da4" fill-rule="nonzero" opacity="0.651493" stroke="#c0c0c0" stroke-linecap="butt" stroke-linejoin="miter" stroke-width="1" vectornator:layerName="ellipse"/>
<g fill="#ffffff" opacity="1" stroke="none" vectornator:layerName="tspan">
<path d="M226.215 27.9691C226.742 28.3324 227.228 28.598 227.674 28.7659L227.34 29.557C226.723 29.3343 226.107 28.9827 225.494 28.5023C224.857 28.8577 224.154 29.0355 223.385 29.0355C222.607 29.0355 221.902 28.848 221.269 28.473C220.637 28.098 220.149 27.5706 219.808 26.8909C219.466 26.2113 219.295 25.4456 219.295 24.5941C219.295 23.7464 219.467 22.9749 219.81 22.2796C220.154 21.5843 220.643 21.055 221.278 20.6917C221.913 20.3284 222.623 20.1468 223.408 20.1468C224.201 20.1468 224.916 20.3353 225.553 20.7122C226.189 21.0892 226.675 21.6165 227.009 22.2943C227.343 22.972 227.51 23.7367 227.51 24.5882C227.51 25.2952 227.402 25.931 227.187 26.4954C226.973 27.0599 226.648 27.5511 226.215 27.9691ZM223.713 26.5159C224.369 26.6995 224.91 26.973 225.336 27.3363C226.004 26.7269 226.338 25.8109 226.338 24.5882C226.338 23.8929 226.22 23.2855 225.983 22.7659C225.747 22.2464 225.401 21.8431 224.946 21.556C224.491 21.2689 223.98 21.1253 223.414 21.1253C222.566 21.1253 221.863 21.4154 221.305 21.9954C220.746 22.5755 220.467 23.4417 220.467 24.5941C220.467 25.7113 220.743 26.5687 221.296 27.1663C221.849 27.764 222.555 28.0628 223.414 28.0628C223.82 28.0628 224.203 27.9867 224.562 27.8343C224.207 27.6038 223.832 27.4398 223.437 27.3421L223.713 26.5159Z"/>
<path d="M230.053 28.889L228.148 22.6663L229.238 22.6663L230.228 26.2581L230.598 27.5941C230.613 27.5277 230.721 27.0999 230.92 26.3109L231.91 22.6663L232.994 22.6663L233.926 26.2757L234.236 27.4652L234.594 26.264L235.66 22.6663L236.685 22.6663L234.74 28.889L233.644 28.889L232.654 25.1624L232.414 24.1019L231.154 28.889L230.053 28.889Z"/>
<path d="M237.178 25.7777C237.178 24.6253 237.498 23.7718 238.139 23.2171C238.674 22.7562 239.326 22.5257 240.096 22.5257C240.951 22.5257 241.65 22.806 242.193 23.3665C242.736 23.9271 243.008 24.7015 243.008 25.6898C243.008 26.4906 242.888 27.1204 242.647 27.5794C242.407 28.0384 242.058 28.3949 241.599 28.6488C241.14 28.9027 240.639 29.0296 240.096 29.0296C239.225 29.0296 238.52 28.7503 237.983 28.1917C237.446 27.6331 237.178 26.8284 237.178 25.7777ZM238.262 25.7777C238.262 26.5745 238.435 27.1712 238.783 27.5677C239.131 27.9642 239.568 28.1624 240.096 28.1624C240.619 28.1624 241.055 27.9632 241.402 27.5648C241.75 27.1663 241.924 26.5589 241.924 25.7425C241.924 24.973 241.749 24.39 241.399 23.9935C241.05 23.597 240.615 23.3988 240.096 23.3988C239.568 23.3988 239.131 23.596 238.783 23.9906C238.435 24.3851 238.262 24.9808 238.262 25.7777Z"/>
<path d="M244.232 28.889L244.232 22.6663L245.182 22.6663L245.182 23.6097C245.424 23.1683 245.647 22.8773 245.852 22.7367C246.058 22.596 246.283 22.5257 246.529 22.5257C246.885 22.5257 247.246 22.639 247.613 22.8656L247.25 23.8441C246.992 23.6917 246.734 23.6156 246.477 23.6156C246.246 23.6156 246.039 23.6849 245.855 23.8236C245.672 23.9622 245.541 24.1546 245.463 24.4007C245.346 24.7757 245.287 25.1859 245.287 25.6312L245.287 28.889L244.232 28.889Z"/>
<path d="M252.318 28.889L252.318 27.9749C251.834 28.6781 251.176 29.0296 250.344 29.0296C249.977 29.0296 249.634 28.9593 249.315 28.8187C248.997 28.6781 248.761 28.5013 248.606 28.2884C248.452 28.0755 248.344 27.8148 248.281 27.5062C248.238 27.2992 248.217 26.971 248.217 26.5218L248.217 22.6663L249.271 22.6663L249.271 26.1175C249.271 26.6683 249.293 27.0394 249.336 27.2308C249.402 27.5081 249.543 27.7259 249.758 27.8841C249.973 28.0423 250.238 28.1214 250.555 28.1214C250.871 28.1214 251.168 28.0404 251.445 27.8783C251.723 27.7161 251.919 27.4954 252.034 27.2161C252.149 26.9368 252.207 26.5316 252.207 26.0003L252.207 22.6663L253.262 22.6663L253.262 28.889L252.318 28.889Z"/>
<path d="M254.914 28.889L254.914 22.6663L255.857 22.6663L255.857 23.5394C256.053 23.2347 256.312 22.9896 256.637 22.804C256.961 22.6185 257.33 22.5257 257.744 22.5257C258.205 22.5257 258.583 22.6214 258.878 22.8128C259.173 23.0042 259.381 23.2718 259.502 23.6156C259.994 22.889 260.635 22.5257 261.424 22.5257C262.041 22.5257 262.516 22.6966 262.848 23.0384C263.18 23.3802 263.346 23.9066 263.346 24.6175L263.346 28.889L262.297 28.889L262.297 24.9691C262.297 24.5472 262.263 24.2435 262.194 24.0579C262.126 23.8724 262.002 23.723 261.822 23.6097C261.643 23.4964 261.432 23.4398 261.189 23.4398C260.752 23.4398 260.389 23.5853 260.1 23.8763C259.81 24.1673 259.666 24.6331 259.666 25.2738L259.666 28.889L258.611 28.889L258.611 24.846C258.611 24.3773 258.525 24.0257 258.353 23.7913C258.182 23.557 257.9 23.4398 257.51 23.4398C257.213 23.4398 256.938 23.5179 256.686 23.6742C256.435 23.8304 256.252 24.0589 256.139 24.3597C256.025 24.6605 255.969 25.0941 255.969 25.6605L255.969 28.889L254.914 28.889Z"/>
<path d="M267.834 26.3109L267.834 25.2503L271.074 25.2503L271.074 26.3109L267.834 26.3109Z"/>
<path d="M277.678 28.889L277.678 21.3128L274.848 21.3128L274.848 20.2992L281.656 20.2992L281.656 21.3128L278.814 21.3128L278.814 28.889L277.678 28.889Z"/>
<path d="M282.687 28.889L282.687 20.2992L283.742 20.2992L283.742 23.3812C284.234 22.8109 284.855 22.5257 285.605 22.5257C286.066 22.5257 286.467 22.6165 286.807 22.7982C287.146 22.9798 287.39 23.2308 287.536 23.5511C287.683 23.8714 287.756 24.3363 287.756 24.9456L287.756 28.889L286.701 28.889L286.701 24.9456C286.701 24.4183 286.587 24.0345 286.358 23.7943C286.13 23.554 285.807 23.4339 285.389 23.4339C285.076 23.4339 284.782 23.515 284.507 23.6771C284.231 23.8392 284.035 24.0589 283.918 24.3363C283.801 24.6136 283.742 24.9964 283.742 25.4847L283.742 28.889L282.687 28.889Z"/>
<path d="M293.621 26.8851L294.711 27.0199C294.539 27.6566 294.221 28.1507 293.756 28.5023C293.291 28.8538 292.697 29.0296 291.975 29.0296C291.064 29.0296 290.343 28.7493 289.81 28.1888C289.276 27.6283 289.01 26.8421 289.01 25.8304C289.01 24.7835 289.279 23.971 289.818 23.3929C290.357 22.8148 291.057 22.5257 291.916 22.5257C292.748 22.5257 293.428 22.8089 293.955 23.3753C294.482 23.9417 294.746 24.7386 294.746 25.7659C294.746 25.8284 294.744 25.9222 294.74 26.0472L290.1 26.0472C290.139 26.7308 290.332 27.2542 290.68 27.6175C291.027 27.9808 291.461 28.1624 291.98 28.1624C292.367 28.1624 292.697 28.0609 292.971 27.8577C293.244 27.6546 293.461 27.3304 293.621 26.8851ZM290.158 25.18L293.633 25.18C293.586 24.6566 293.453 24.264 293.234 24.0023C292.898 23.596 292.463 23.3929 291.928 23.3929C291.443 23.3929 291.036 23.555 290.706 23.8792C290.376 24.2034 290.193 24.637 290.158 25.18Z"/>
<path d="M299.117 26.1292L300.189 26.0355C300.24 26.4652 300.358 26.8177 300.544 27.0931C300.729 27.3685 301.018 27.5911 301.408 27.7611C301.799 27.931 302.238 28.0159 302.727 28.0159C303.16 28.0159 303.543 27.9515 303.875 27.8226C304.207 27.6937 304.454 27.5169 304.616 27.2923C304.778 27.0677 304.859 26.8226 304.859 26.557C304.859 26.2874 304.781 26.0521 304.625 25.8509C304.469 25.6497 304.211 25.4808 303.852 25.3441C303.621 25.2542 303.111 25.1146 302.322 24.9251C301.533 24.7357 300.98 24.557 300.664 24.389C300.254 24.1742 299.948 23.9075 299.747 23.5892C299.546 23.2708 299.445 22.9144 299.445 22.5199C299.445 22.0863 299.568 21.681 299.814 21.304C300.06 20.9271 300.42 20.6409 300.893 20.4456C301.365 20.2503 301.891 20.1527 302.469 20.1527C303.105 20.1527 303.667 20.2552 304.153 20.4603C304.64 20.6654 305.014 20.9671 305.275 21.3656C305.537 21.764 305.678 22.2152 305.697 22.7191L304.607 22.8011C304.549 22.2581 304.351 21.848 304.013 21.5706C303.675 21.2933 303.176 21.1546 302.516 21.1546C301.828 21.1546 301.327 21.2806 301.013 21.5325C300.698 21.7845 300.541 22.0882 300.541 22.4437C300.541 22.7523 300.652 23.0062 300.875 23.2054C301.094 23.4046 301.665 23.6087 302.589 23.8177C303.513 24.0267 304.146 24.2093 304.49 24.3656C304.99 24.596 305.359 24.888 305.598 25.2415C305.836 25.595 305.955 26.0023 305.955 26.4632C305.955 26.9202 305.824 27.3509 305.562 27.7552C305.301 28.1595 304.925 28.474 304.435 28.6986C303.944 28.9232 303.393 29.0355 302.779 29.0355C302.002 29.0355 301.351 28.9222 300.825 28.6956C300.3 28.4691 299.888 28.1283 299.589 27.6732C299.29 27.2181 299.133 26.7034 299.117 26.1292Z"/>
<path d="M311.633 26.8851L312.723 27.0199C312.551 27.6566 312.232 28.1507 311.768 28.5023C311.303 28.8538 310.709 29.0296 309.986 29.0296C309.076 29.0296 308.354 28.7493 307.821 28.1888C307.288 27.6283 307.021 26.8421 307.021 25.8304C307.021 24.7835 307.291 23.971 307.83 23.3929C308.369 22.8148 309.068 22.5257 309.928 22.5257C310.76 22.5257 311.439 22.8089 311.967 23.3753C312.494 23.9417 312.758 24.7386 312.758 25.7659C312.758 25.8284 312.756 25.9222 312.752 26.0472L308.111 26.0472C308.15 26.7308 308.344 27.2542 308.691 27.6175C309.039 27.9808 309.473 28.1624 309.992 28.1624C310.379 28.1624 310.709 28.0609 310.982 27.8577C311.256 27.6546 311.473 27.3304 311.633 26.8851ZM308.17 25.18L311.644 25.18C311.598 24.6566 311.465 24.264 311.246 24.0023C310.91 23.596 310.475 23.3929 309.939 23.3929C309.455 23.3929 309.048 23.555 308.718 23.8792C308.388 24.2034 308.205 24.637 308.17 25.18Z"/>
<path d="M314.035 28.889L314.035 22.6663L314.984 22.6663L314.984 23.6097C315.227 23.1683 315.45 22.8773 315.655 22.7367C315.86 22.596 316.086 22.5257 316.332 22.5257C316.687 22.5257 317.049 22.639 317.416 22.8656L317.053 23.8441C316.795 23.6917 316.537 23.6156 316.279 23.6156C316.049 23.6156 315.842 23.6849 315.658 23.8236C315.475 23.9622 315.344 24.1546 315.266 24.4007C315.148 24.7757 315.09 25.1859 315.09 25.6312L315.09 28.889L314.035 28.889Z"/>
<path d="M319.771 28.889L317.404 22.6663L318.518 22.6663L319.853 26.3929C319.998 26.7952 320.131 27.2132 320.252 27.6468C320.346 27.3187 320.477 26.9242 320.644 26.4632L322.027 22.6663L323.111 22.6663L320.756 28.889L319.771 28.889Z"/>
<path d="M324.049 21.512L324.049 20.2992L325.103 20.2992L325.103 21.512L324.049 21.512ZM324.049 28.889L324.049 22.6663L325.103 22.6663L325.103 28.889L324.049 28.889Z"/>
<path d="M330.769 26.6097L331.807 26.7445C331.693 27.4593 331.403 28.0189 330.936 28.4232C330.47 28.8275 329.896 29.0296 329.217 29.0296C328.365 29.0296 327.681 28.7513 327.163 28.1947C326.645 27.638 326.387 26.8402 326.387 25.8011C326.387 25.1292 326.498 24.5413 326.721 24.0374C326.943 23.5335 327.282 23.1556 327.737 22.9036C328.192 22.6517 328.687 22.5257 329.223 22.5257C329.898 22.5257 330.451 22.6966 330.881 23.0384C331.31 23.3802 331.586 23.8656 331.707 24.4945L330.682 24.6527C330.584 24.2347 330.411 23.9202 330.163 23.7093C329.915 23.4984 329.615 23.3929 329.264 23.3929C328.732 23.3929 328.301 23.5833 327.969 23.9642C327.637 24.345 327.471 24.9476 327.471 25.7718C327.471 26.6077 327.631 27.2152 327.951 27.5941C328.271 27.973 328.689 28.1624 329.205 28.1624C329.619 28.1624 329.965 28.0355 330.242 27.7816C330.519 27.5277 330.695 27.137 330.769 26.6097Z"/>
<path d="M336.969 26.8851L338.059 27.0199C337.887 27.6566 337.568 28.1507 337.103 28.5023C336.639 28.8538 336.045 29.0296 335.322 29.0296C334.412 29.0296 333.69 28.7493 333.157 28.1888C332.624 27.6283 332.357 26.8421 332.357 25.8304C332.357 24.7835 332.627 23.971 333.166 23.3929C333.705 22.8148 334.404 22.5257 335.264 22.5257C336.096 22.5257 336.775 22.8089 337.303 23.3753C337.83 23.9417 338.094 24.7386 338.094 25.7659C338.094 25.8284 338.092 25.9222 338.088 26.0472L333.447 26.0472C333.486 26.7308 333.68 27.2542 334.027 27.6175C334.375 27.9808 334.809 28.1624 335.328 28.1624C335.715 28.1624 336.045 28.0609 336.318 27.8577C336.592 27.6546 336.809 27.3304 336.969 26.8851ZM333.506 25.18L336.98 25.18C336.934 24.6566 336.801 24.264 336.582 24.0023C336.246 23.596 335.81 23.3929 335.275 23.3929C334.791 23.3929 334.384 23.555 334.054 23.8792C333.724 24.2034 333.541 24.637 333.506 25.18Z"/>
<path d="M344.352 28.889L342.072 20.2992L343.238 20.2992L344.545 25.93C344.685 26.5199 344.807 27.1058 344.908 27.6878C345.127 26.7699 345.256 26.2406 345.295 26.0999L346.93 20.2992L348.301 20.2992L349.531 24.6468C349.84 25.7249 350.062 26.7386 350.199 27.6878C350.309 27.1449 350.451 26.5218 350.627 25.8187L351.975 20.2992L353.117 20.2992L350.762 28.889L349.666 28.889L347.855 22.3441C347.703 21.7972 347.613 21.4613 347.586 21.3363C347.496 21.7308 347.412 22.0667 347.334 22.3441L345.512 28.889L344.352 28.889Z"/>
<path d="M358.086 26.8851L359.176 27.0199C359.004 27.6566 358.685 28.1507 358.221 28.5023C357.756 28.8538 357.162 29.0296 356.439 29.0296C355.529 29.0296 354.808 28.7493 354.274 28.1888C353.741 27.6283 353.475 26.8421 353.475 25.8304C353.475 24.7835 353.744 23.971 354.283 23.3929C354.822 22.8148 355.521 22.5257 356.381 22.5257C357.213 22.5257 357.893 22.8089 358.42 23.3753C358.947 23.9417 359.211 24.7386 359.211 25.7659C359.211 25.8284 359.209 25.9222 359.205 26.0472L354.564 26.0472C354.603 26.7308 354.797 27.2542 355.144 27.6175C355.492 27.9808 355.926 28.1624 356.445 28.1624C356.832 28.1624 357.162 28.0609 357.435 27.8577C357.709 27.6546 357.926 27.3304 358.086 26.8851ZM354.623 25.18L358.098 25.18C358.051 24.6566 357.918 24.264 357.699 24.0023C357.363 23.596 356.928 23.3929 356.393 23.3929C355.908 23.3929 355.501 23.555 355.171 23.8792C354.841 24.2034 354.658 24.637 354.623 25.18Z"/>
<path d="M361.473 28.889L360.494 28.889L360.494 20.2992L361.549 20.2992L361.549 23.3636C361.994 22.805 362.562 22.5257 363.254 22.5257C363.637 22.5257 363.999 22.6029 364.341 22.7572C364.683 22.9115 364.964 23.1283 365.185 23.4075C365.405 23.6868 365.578 24.0238 365.703 24.4183C365.828 24.8128 365.891 25.2347 365.891 25.6839C365.891 26.7503 365.627 27.5745 365.1 28.1566C364.572 28.7386 363.939 29.0296 363.201 29.0296C362.467 29.0296 361.891 28.723 361.473 28.1097L361.473 28.889ZM361.461 25.7308C361.461 26.4769 361.562 27.0159 361.766 27.348C362.098 27.8909 362.547 28.1624 363.113 28.1624C363.574 28.1624 363.973 27.9622 364.309 27.5618C364.644 27.1615 364.812 26.5648 364.812 25.7718C364.812 24.9593 364.651 24.3597 364.329 23.973C364.007 23.5863 363.617 23.3929 363.16 23.3929C362.699 23.3929 362.301 23.5931 361.965 23.9935C361.629 24.3939 361.461 24.973 361.461 25.7308Z"/>
</g>
<g opacity="1" vectornator:layerName="g">
<path d="M257.085 50.4734L320.528 50.4734C322.591 50.4734 324.264 52.1458 324.264 54.2088L324.264 87.1486C324.264 89.2116 322.591 90.884 320.528 90.884L257.085 90.884C255.022 90.884 253.35 89.2116 253.35 87.1486L253.35 54.2088C253.35 52.1458 255.022 50.4734 257.085 50.4734Z" fill="#ffffff" fill-rule="nonzero" opacity="1" stroke="#000000" stroke-linecap="butt" stroke-linejoin="miter" stroke-width="1.24513" vectornator:layerName="rect"/>
<g fill="#333333" opacity="1" stroke="none" vectornator:layerName="tspan">
<path d="M264.935 68.6787L264.935 62.4753L269.42 62.4753L269.42 63.2074L265.756 63.2074L265.756 65.1073L269.188 65.1073L269.188 65.8351L265.756 65.8351L265.756 67.9466L269.564 67.9466L269.564 68.6787L264.935 68.6787Z"/>
<path d="M270.305 66.8168L270.305 66.0509L272.645 66.0509L272.645 66.8168L270.305 66.8168Z"/>
<path d="M276.419 67.0326L277.168 67.1299C277.086 67.6462 276.877 68.0503 276.54 68.3423C276.203 68.6342 275.789 68.7802 275.298 68.7802C274.683 68.7802 274.188 68.5792 273.815 68.1772C273.441 67.7753 273.254 67.1991 273.254 66.4487C273.254 65.9635 273.334 65.5389 273.495 65.175C273.656 64.8111 273.901 64.5382 274.229 64.3562C274.558 64.1743 274.916 64.0833 275.302 64.0833C275.79 64.0833 276.189 64.2067 276.5 64.4535C276.81 64.7004 277.009 65.0509 277.096 65.5051L276.356 65.6193C276.285 65.3175 276.16 65.0904 275.981 64.938C275.802 64.7857 275.586 64.7095 275.332 64.7095C274.948 64.7095 274.636 64.8471 274.396 65.1221C274.157 65.3972 274.037 65.8323 274.037 66.4275C274.037 67.0312 274.152 67.4699 274.384 67.7435C274.615 68.0172 274.917 68.154 275.289 68.154C275.588 68.154 275.838 68.0623 276.038 67.8789C276.239 67.6956 276.366 67.4135 276.419 67.0326Z"/>
<path d="M277.536 66.4318C277.536 65.5996 277.768 64.9832 278.23 64.5826C278.617 64.2497 279.088 64.0833 279.643 64.0833C280.261 64.0833 280.766 64.2857 281.158 64.6905C281.55 65.0953 281.747 65.6546 281.747 66.3683C281.747 66.9466 281.66 67.4015 281.486 67.7329C281.313 68.0644 281.06 68.3218 280.729 68.5052C280.397 68.6885 280.036 68.7802 279.643 68.7802C279.014 68.7802 278.506 68.5785 278.118 68.1751C277.73 67.7717 277.536 67.1906 277.536 66.4318ZM278.319 66.4318C278.319 67.0072 278.445 67.4381 278.696 67.7245C278.947 68.0108 279.263 68.154 279.643 68.154C280.022 68.154 280.336 68.0101 280.587 67.7224C280.838 67.4346 280.964 66.996 280.964 66.4064C280.964 65.8506 280.837 65.4296 280.585 65.1433C280.333 64.8569 280.019 64.7138 279.643 64.7138C279.263 64.7138 278.947 64.8562 278.696 65.1412C278.445 65.4261 278.319 65.8563 278.319 66.4318Z"/>
<path d="M282.639 68.6787L282.639 64.1848L283.321 64.1848L283.321 64.8153C283.462 64.5953 283.649 64.4183 283.883 64.2843C284.118 64.1503 284.384 64.0833 284.683 64.0833C285.016 64.0833 285.289 64.1524 285.502 64.2906C285.715 64.4289 285.865 64.6221 285.953 64.8703C286.308 64.3456 286.771 64.0833 287.341 64.0833C287.786 64.0833 288.129 64.2067 288.369 64.4535C288.609 64.7004 288.728 65.0805 288.728 65.5939L288.728 68.6787L287.971 68.6787L287.971 65.8478C287.971 65.5431 287.946 65.3238 287.897 65.1898C287.848 65.0558 287.758 64.9479 287.628 64.8661C287.499 64.7843 287.346 64.7434 287.171 64.7434C286.855 64.7434 286.593 64.8485 286.384 65.0586C286.175 65.2688 286.071 65.6052 286.071 66.0678L286.071 68.6787L285.309 68.6787L285.309 65.7589C285.309 65.4204 285.247 65.1665 285.123 64.9973C284.999 64.828 284.796 64.7434 284.514 64.7434C284.3 64.7434 284.101 64.7998 283.919 64.9127C283.737 65.0255 283.606 65.1905 283.524 65.4077C283.442 65.625 283.401 65.9381 283.401 66.3471L283.401 68.6787L282.639 68.6787Z"/>
<path d="M289.858 68.6787L289.858 64.1848L290.54 64.1848L290.54 64.8153C290.681 64.5953 290.868 64.4183 291.102 64.2843C291.336 64.1503 291.603 64.0833 291.902 64.0833C292.235 64.0833 292.508 64.1524 292.721 64.2906C292.934 64.4289 293.084 64.6221 293.172 64.8703C293.527 64.3456 293.99 64.0833 294.559 64.0833C295.005 64.0833 295.348 64.2067 295.588 64.4535C295.828 64.7004 295.947 65.0805 295.947 65.5939L295.947 68.6787L295.19 68.6787L295.19 65.8478C295.19 65.5431 295.165 65.3238 295.116 65.1898C295.067 65.0558 294.977 64.9479 294.847 64.8661C294.717 64.7843 294.565 64.7434 294.39 64.7434C294.074 64.7434 293.812 64.8485 293.603 65.0586C293.394 65.2688 293.29 65.6052 293.29 66.0678L293.29 68.6787L292.528 68.6787L292.528 65.7589C292.528 65.4204 292.466 65.1665 292.342 64.9973C292.218 64.828 292.015 64.7434 291.733 64.7434C291.518 64.7434 291.32 64.7998 291.138 64.9127C290.956 65.0255 290.824 65.1905 290.743 65.4077C290.661 65.625 290.62 65.9381 290.62 66.3471L290.62 68.6787L289.858 68.6787Z"/>
<path d="M300.153 67.2315L300.941 67.3288C300.816 67.7887 300.587 68.1455 300.251 68.3994C299.915 68.6533 299.486 68.7802 298.964 68.7802C298.307 68.7802 297.786 68.5778 297.401 68.173C297.016 67.7682 296.823 67.2005 296.823 66.4698C296.823 65.7138 297.018 65.127 297.407 64.7095C297.797 64.292 298.302 64.0833 298.922 64.0833C299.523 64.0833 300.014 64.2878 300.395 64.6968C300.776 65.1059 300.966 65.6814 300.966 66.4233C300.966 66.4684 300.965 66.5361 300.962 66.6264L297.61 66.6264C297.639 67.1201 297.778 67.4981 298.029 67.7604C298.28 68.0228 298.593 68.154 298.969 68.154C299.248 68.154 299.486 68.0806 299.684 67.9339C299.881 67.7872 300.038 67.5531 300.153 67.2315ZM297.653 66.0001L300.162 66.0001C300.128 65.6221 300.032 65.3386 299.874 65.1496C299.632 64.8562 299.317 64.7095 298.931 64.7095C298.581 64.7095 298.287 64.8266 298.048 65.0608C297.81 65.2949 297.678 65.608 297.653 66.0001Z"/>
<path d="M301.888 68.6787L301.888 64.1848L302.574 64.1848L302.574 64.8661C302.749 64.5473 302.91 64.3372 303.058 64.2356C303.207 64.1341 303.369 64.0833 303.547 64.0833C303.804 64.0833 304.065 64.1651 304.33 64.3287L304.068 65.0354C303.881 64.9253 303.695 64.8703 303.509 64.8703C303.343 64.8703 303.193 64.9204 303.061 65.0206C302.928 65.1207 302.833 65.2596 302.777 65.4374C302.692 65.7082 302.65 66.0044 302.65 66.326L302.65 68.6787L301.888 68.6787Z"/>
<path d="M307.715 67.0326L308.464 67.1299C308.382 67.6462 308.173 68.0503 307.836 68.3423C307.499 68.6342 307.085 68.7802 306.594 68.7802C305.979 68.7802 305.484 68.5792 305.111 68.1772C304.737 67.7753 304.55 67.1991 304.55 66.4487C304.55 65.9635 304.63 65.5389 304.791 65.175C304.952 64.8111 305.197 64.5382 305.525 64.3562C305.854 64.1743 306.212 64.0833 306.598 64.0833C307.086 64.0833 307.485 64.2067 307.796 64.4535C308.106 64.7004 308.305 65.0509 308.392 65.5051L307.652 65.6193C307.581 65.3175 307.456 65.0904 307.277 64.938C307.098 64.7857 306.882 64.7095 306.628 64.7095C306.244 64.7095 305.932 64.8471 305.693 65.1221C305.453 65.3972 305.333 65.8323 305.333 66.4275C305.333 67.0312 305.448 67.4699 305.68 67.7435C305.911 68.0172 306.213 68.154 306.585 68.154C306.884 68.154 307.134 68.0623 307.334 67.8789C307.535 67.6956 307.662 67.4135 307.715 67.0326Z"/>
<path d="M312.192 67.2315L312.979 67.3288C312.855 67.7887 312.625 68.1455 312.289 68.3994C311.954 68.6533 311.525 68.7802 311.003 68.7802C310.346 68.7802 309.825 68.5778 309.439 68.173C309.054 67.7682 308.862 67.2005 308.862 66.4698C308.862 65.7138 309.057 65.127 309.446 64.7095C309.835 64.292 310.34 64.0833 310.961 64.0833C311.562 64.0833 312.052 64.2878 312.433 64.6968C312.814 65.1059 313.005 65.6814 313.005 66.4233C313.005 66.4684 313.003 66.5361 313 66.6264L309.649 66.6264C309.677 67.1201 309.817 67.4981 310.068 67.7604C310.319 68.0228 310.632 68.154 311.007 68.154C311.287 68.154 311.525 68.0806 311.722 67.9339C311.92 67.7872 312.076 67.5531 312.192 67.2315ZM309.691 66.0001L312.201 66.0001C312.167 65.6221 312.071 65.3386 311.913 65.1496C311.67 64.8562 311.356 64.7095 310.969 64.7095C310.619 64.7095 310.325 64.8266 310.087 65.0608C309.849 65.2949 309.717 65.608 309.691 66.0001Z"/>
</g>
<g fill="#333333" opacity="1" stroke="none" vectornator:layerName="text">
<path d="M270.367 79.9527C270.085 80.1925 269.813 80.3617 269.552 80.4605C269.291 80.5592 269.012 80.6086 268.712 80.6086C268.219 80.6086 267.839 80.488 267.574 80.2468C267.309 80.0056 267.176 79.6974 267.176 79.3222C267.176 79.1022 267.227 78.9012 267.327 78.7192C267.427 78.5372 267.558 78.3913 267.72 78.2812C267.882 78.1712 268.065 78.088 268.268 78.0316C268.418 77.9921 268.643 77.954 268.945 77.9173C269.56 77.844 270.013 77.7565 270.304 77.655C270.306 77.5506 270.308 77.4843 270.308 77.4561C270.308 77.1458 270.236 76.9272 270.092 76.8002C269.897 76.6281 269.608 76.5421 269.224 76.5421C268.866 76.5421 268.602 76.6049 268.431 76.7304C268.26 76.8559 268.134 77.0781 268.052 77.3969L267.308 77.2953C267.375 76.9765 267.487 76.7191 267.642 76.5231C267.797 76.327 268.021 76.1761 268.315 76.0703C268.608 75.9645 268.948 75.9116 269.335 75.9116C269.718 75.9116 270.03 75.9567 270.27 76.047C270.509 76.1373 270.686 76.2508 270.799 76.3877C270.911 76.5245 270.99 76.6973 271.036 76.906C271.061 77.0358 271.074 77.2699 271.074 77.6084L271.074 78.624C271.074 79.3321 271.09 79.7799 271.122 79.9675C271.155 80.1551 271.219 80.3349 271.315 80.507L270.519 80.507C270.44 80.349 270.39 80.1643 270.367 79.9527ZM270.304 78.2516C270.027 78.3645 269.612 78.4604 269.059 78.5394C268.746 78.5845 268.525 78.6353 268.395 78.6917C268.265 78.7481 268.165 78.8306 268.095 78.9392C268.024 79.0478 267.989 79.1684 267.989 79.301C267.989 79.5041 268.066 79.6734 268.22 79.8088C268.373 79.9442 268.598 80.0119 268.894 80.0119C269.188 80.0119 269.449 79.9477 269.677 79.8194C269.906 79.691 270.074 79.5154 270.181 79.2926C270.263 79.1205 270.304 78.8666 270.304 78.5309L270.304 78.2516Z"/>
<path d="M272.254 82.2292L272.254 76.0132L272.948 76.0132L272.948 76.5971C273.112 76.3686 273.297 76.1972 273.503 76.083C273.708 75.9687 273.958 75.9116 274.251 75.9116C274.635 75.9116 274.974 76.0103 275.267 76.2078C275.56 76.4053 275.782 76.6839 275.931 77.0435C276.081 77.4032 276.156 77.7974 276.156 78.2262C276.156 78.6861 276.073 79.1 275.908 79.4682C275.743 79.8363 275.503 80.1184 275.189 80.3145C274.874 80.5105 274.543 80.6086 274.196 80.6086C273.943 80.6086 273.715 80.555 273.513 80.4478C273.311 80.3406 273.146 80.2052 273.016 80.0415L273.016 82.2292L272.254 82.2292ZM272.944 78.2855C272.944 78.8638 273.061 79.2912 273.295 79.5676C273.529 79.8441 273.813 79.9823 274.146 79.9823C274.484 79.9823 274.774 79.8391 275.015 79.5528C275.256 79.2665 275.377 78.8229 275.377 78.222C275.377 77.6493 275.259 77.2206 275.024 76.9356C274.788 76.6507 274.507 76.5083 274.18 76.5083C273.855 76.5083 273.568 76.6599 273.318 76.9631C273.069 77.2664 272.944 77.7072 272.944 78.2855Z"/>
<path d="M277.074 82.2292L277.074 76.0132L277.768 76.0132L277.768 76.5971C277.931 76.3686 278.116 76.1972 278.322 76.083C278.528 75.9687 278.778 75.9116 279.071 75.9116C279.455 75.9116 279.793 76.0103 280.087 76.2078C280.38 76.4053 280.602 76.6839 280.751 77.0435C280.901 77.4032 280.975 77.7974 280.975 78.2262C280.975 78.6861 280.893 79.1 280.728 79.4682C280.563 79.8363 280.323 80.1184 280.008 80.3145C279.694 80.5105 279.363 80.6086 279.016 80.6086C278.762 80.6086 278.534 80.555 278.333 80.4478C278.131 80.3406 277.965 80.2052 277.836 80.0415L277.836 82.2292L277.074 82.2292ZM277.764 78.2855C277.764 78.8638 277.881 79.2912 278.115 79.5676C278.349 79.8441 278.632 79.9823 278.965 79.9823C279.304 79.9823 279.594 79.8391 279.835 79.5528C280.076 79.2665 280.197 78.8229 280.197 78.222C280.197 77.6493 280.079 77.2206 279.843 76.9356C279.608 76.6507 279.326 76.5083 278.999 76.5083C278.675 76.5083 278.388 76.6599 278.138 76.9631C277.888 77.2664 277.764 77.7072 277.764 78.2855Z"/>
<path d="M281.877 80.507L281.877 74.3036L282.638 74.3036L282.638 80.507L281.877 80.507Z"/>
<path d="M283.823 75.1796L283.823 74.3036L284.585 74.3036L284.585 75.1796L283.823 75.1796ZM283.823 80.507L283.823 76.0132L284.585 76.0132L284.585 80.507L283.823 80.507Z"/>
<path d="M288.677 78.861L289.426 78.9583C289.344 79.4745 289.134 79.8786 288.797 80.1706C288.46 80.4626 288.046 80.6086 287.555 80.6086C286.94 80.6086 286.446 80.4076 286.072 80.0056C285.698 79.6036 285.511 79.0274 285.511 78.277C285.511 77.7918 285.592 77.3672 285.753 77.0033C285.913 76.6394 286.158 76.3665 286.487 76.1845C286.815 76.0026 287.173 75.9116 287.56 75.9116C288.048 75.9116 288.447 76.035 288.757 76.2819C289.067 76.5287 289.266 76.8792 289.354 77.3334L288.613 77.4476C288.543 77.1458 288.418 76.9187 288.239 76.7664C288.06 76.614 287.843 76.5379 287.589 76.5379C287.205 76.5379 286.894 76.6754 286.654 76.9504C286.414 77.2255 286.294 77.6606 286.294 78.2559C286.294 78.8595 286.41 79.2982 286.641 79.5718C286.873 79.8455 287.174 79.9823 287.547 79.9823C287.846 79.9823 288.095 79.8906 288.296 79.7073C288.496 79.5239 288.623 79.2418 288.677 78.861Z"/>
<path d="M293.01 79.9527C292.728 80.1925 292.456 80.3617 292.195 80.4605C291.934 80.5592 291.654 80.6086 291.355 80.6086C290.861 80.6086 290.482 80.488 290.217 80.2468C289.952 80.0056 289.819 79.6974 289.819 79.3222C289.819 79.1022 289.869 78.9012 289.969 78.7192C290.069 78.5372 290.201 78.3913 290.363 78.2812C290.525 78.1712 290.708 78.088 290.911 78.0316C291.06 77.9921 291.286 77.954 291.588 77.9173C292.203 77.844 292.656 77.7565 292.946 77.655C292.949 77.5506 292.95 77.4843 292.95 77.4561C292.95 77.1458 292.878 76.9272 292.735 76.8002C292.54 76.6281 292.251 76.5421 291.867 76.5421C291.509 76.5421 291.244 76.6049 291.074 76.7304C290.903 76.8559 290.777 77.0781 290.695 77.3969L289.95 77.2953C290.018 76.9765 290.129 76.7191 290.285 76.5231C290.44 76.327 290.664 76.1761 290.957 76.0703C291.251 75.9645 291.591 75.9116 291.977 75.9116C292.361 75.9116 292.673 75.9567 292.912 76.047C293.152 76.1373 293.328 76.2508 293.441 76.3877C293.554 76.5245 293.633 76.6973 293.678 76.906C293.704 77.0358 293.716 77.2699 293.716 77.6084L293.716 78.624C293.716 79.3321 293.733 79.7799 293.765 79.9675C293.797 80.1551 293.862 80.3349 293.958 80.507L293.162 80.507C293.083 80.349 293.032 80.1643 293.01 79.9527ZM292.946 78.2516C292.67 78.3645 292.255 78.4604 291.702 78.5394C291.389 78.5845 291.168 78.6353 291.038 78.6917C290.908 78.7481 290.808 78.8306 290.737 78.9392C290.667 79.0478 290.632 79.1684 290.632 79.301C290.632 79.5041 290.708 79.6734 290.862 79.8088C291.016 79.9442 291.241 80.0119 291.537 80.0119C291.83 80.0119 292.091 79.9477 292.32 79.8194C292.548 79.691 292.716 79.5154 292.823 79.2926C292.905 79.1205 292.946 78.8666 292.946 78.5309L292.946 78.2516Z"/>
<path d="M296.56 79.8257L296.67 80.4985C296.455 80.5437 296.264 80.5662 296.094 80.5662C295.818 80.5662 295.604 80.5225 295.451 80.4351C295.299 80.3476 295.192 80.2327 295.13 80.0902C295.068 79.9477 295.037 79.648 295.037 79.191L295.037 76.6056L294.478 76.6056L294.478 76.0132L295.037 76.0132L295.037 74.9003L295.794 74.4433L295.794 76.0132L296.56 76.0132L296.56 76.6056L295.794 76.6056L295.794 79.2333C295.794 79.4505 295.807 79.5902 295.834 79.6522C295.861 79.7143 295.905 79.7637 295.965 79.8003C296.026 79.837 296.113 79.8554 296.226 79.8554C296.31 79.8554 296.422 79.8455 296.56 79.8257Z"/>
<path d="M297.309 75.1796L297.309 74.3036L298.071 74.3036L298.071 75.1796L297.309 75.1796ZM297.309 80.507L297.309 76.0132L298.071 76.0132L298.071 80.507L297.309 80.507Z"/>
<path d="M298.946 78.2601C298.946 77.4279 299.178 76.8115 299.64 76.4109C300.027 76.0781 300.498 75.9116 301.054 75.9116C301.672 75.9116 302.176 76.114 302.569 76.5188C302.961 76.9236 303.157 77.4829 303.157 78.1966C303.157 78.7749 303.07 79.2298 302.897 79.5613C302.723 79.8927 302.471 80.1501 302.139 80.3335C301.808 80.5169 301.446 80.6086 301.054 80.6086C300.425 80.6086 299.916 80.4069 299.528 80.0035C299.14 79.6001 298.946 79.0189 298.946 78.2601ZM299.729 78.2601C299.729 78.8356 299.855 79.2665 300.106 79.5528C300.357 79.8391 300.673 79.9823 301.054 79.9823C301.432 79.9823 301.746 79.8384 301.997 79.5507C302.248 79.2629 302.374 78.8243 302.374 78.2347C302.374 77.679 302.248 77.2579 301.995 76.9716C301.743 76.6853 301.429 76.5421 301.054 76.5421C300.673 76.5421 300.357 76.6846 300.106 76.9695C299.855 77.2544 299.729 77.6846 299.729 78.2601Z"/>
<path d="M304.05 80.507L304.05 76.0132L304.735 76.0132L304.735 76.6521C305.065 76.1584 305.542 75.9116 306.165 75.9116C306.436 75.9116 306.685 75.9603 306.912 76.0576C307.139 76.1549 307.309 76.2826 307.422 76.4405C307.535 76.5985 307.614 76.7861 307.659 77.0033C307.687 77.1444 307.701 77.3912 307.701 77.7438L307.701 80.507L306.94 80.507L306.94 77.7735C306.94 77.4632 306.91 77.2311 306.851 77.0774C306.792 76.9236 306.687 76.8009 306.536 76.7092C306.385 76.6176 306.208 76.5717 306.005 76.5717C305.68 76.5717 305.4 76.6747 305.165 76.8806C304.929 77.0866 304.811 77.4773 304.811 78.0527L304.811 80.507L304.05 80.507Z"/>
</g>
</g>
<g opacity="1" vectornator:layerName="g">
<path d="M127.495 107.5L195.376 107.5C197.439 107.5 199.111 109.173 199.111 111.236L199.111 144.175C199.111 146.238 197.439 147.911 195.376 147.911L127.495 147.911C125.433 147.911 123.76 146.238 123.76 144.175L123.76 111.236C123.76 109.173 125.433 107.5 127.495 107.5Z" fill="#ffffff" fill-rule="nonzero" opacity="1" stroke="#000000" stroke-linecap="butt" stroke-linejoin="miter" stroke-width="1.24513" vectornator:layerName="rect"/>
<g fill="#333333" opacity="1" stroke="none" vectornator:layerName="tspan">
<path d="M135.086 124.462L135.861 124.394C135.897 124.705 135.983 124.959 136.117 125.158C136.251 125.357 136.459 125.518 136.741 125.64C137.023 125.763 137.34 125.825 137.693 125.825C138.006 125.825 138.282 125.778 138.522 125.685C138.762 125.592 138.94 125.464 139.058 125.302C139.175 125.14 139.233 124.963 139.233 124.771C139.233 124.576 139.177 124.406 139.064 124.261C138.951 124.116 138.765 123.994 138.505 123.895C138.339 123.83 137.971 123.729 137.401 123.592C136.831 123.456 136.432 123.327 136.203 123.205C135.907 123.05 135.686 122.858 135.541 122.628C135.396 122.398 135.323 122.14 135.323 121.855C135.323 121.542 135.412 121.25 135.59 120.977C135.768 120.705 136.027 120.498 136.368 120.357C136.71 120.216 137.089 120.146 137.507 120.146C137.967 120.146 138.372 120.22 138.723 120.368C139.074 120.516 139.345 120.734 139.534 121.022C139.723 121.31 139.824 121.635 139.838 121.999L139.051 122.058C139.009 121.666 138.866 121.37 138.622 121.17C138.378 120.97 138.017 120.869 137.541 120.869C137.044 120.869 136.682 120.96 136.455 121.142C136.228 121.324 136.115 121.544 136.115 121.8C136.115 122.023 136.195 122.207 136.356 122.35C136.514 122.494 136.926 122.642 137.593 122.793C138.261 122.944 138.718 123.075 138.967 123.188C139.328 123.355 139.594 123.566 139.766 123.821C139.938 124.076 140.024 124.37 140.024 124.703C140.024 125.033 139.93 125.344 139.741 125.636C139.552 125.928 139.28 126.155 138.926 126.317C138.572 126.48 138.174 126.561 137.731 126.561C137.17 126.561 136.699 126.479 136.32 126.315C135.94 126.152 135.643 125.906 135.427 125.577C135.211 125.248 135.098 124.877 135.086 124.462Z"/>
<path d="M141.048 126.455L141.048 120.252L141.81 120.252L141.81 122.477C142.166 122.066 142.614 121.86 143.156 121.86C143.489 121.86 143.778 121.925 144.023 122.056C144.269 122.188 144.444 122.369 144.55 122.6C144.656 122.831 144.709 123.167 144.709 123.607L144.709 126.455L143.947 126.455L143.947 123.607C143.947 123.226 143.865 122.949 143.7 122.776C143.534 122.602 143.301 122.515 142.999 122.515C142.774 122.515 142.561 122.574 142.362 122.691C142.163 122.808 142.022 122.967 141.937 123.167C141.852 123.367 141.81 123.644 141.81 123.997L141.81 126.455L141.048 126.455Z"/>
<path d="M145.585 124.208C145.585 123.376 145.816 122.76 146.279 122.359C146.665 122.026 147.136 121.86 147.692 121.86C148.31 121.86 148.815 122.062 149.207 122.467C149.599 122.872 149.795 123.431 149.795 124.145C149.795 124.723 149.708 125.178 149.535 125.509C149.361 125.841 149.109 126.098 148.777 126.282C148.446 126.465 148.084 126.557 147.692 126.557C147.063 126.557 146.554 126.355 146.166 125.951C145.779 125.548 145.585 124.967 145.585 124.208ZM146.367 124.208C146.367 124.784 146.493 125.214 146.744 125.501C146.995 125.787 147.311 125.93 147.692 125.93C148.07 125.93 148.384 125.786 148.636 125.499C148.887 125.211 149.012 124.772 149.012 124.183C149.012 123.627 148.886 123.206 148.633 122.92C148.381 122.633 148.067 122.49 147.692 122.49C147.311 122.49 146.995 122.633 146.744 122.917C146.493 123.202 146.367 123.633 146.367 124.208Z"/>
<path d="M150.688 128.177L150.688 121.961L151.382 121.961L151.382 122.545C151.545 122.317 151.73 122.145 151.936 122.031C152.142 121.917 152.392 121.86 152.685 121.86C153.069 121.86 153.407 121.958 153.701 122.156C153.994 122.353 154.215 122.632 154.365 122.992C154.514 123.351 154.589 123.745 154.589 124.174C154.589 124.634 154.507 125.048 154.342 125.416C154.177 125.784 153.937 126.066 153.622 126.262C153.308 126.459 152.977 126.557 152.63 126.557C152.376 126.557 152.148 126.503 151.947 126.396C151.745 126.289 151.579 126.153 151.449 125.99L151.449 128.177L150.688 128.177ZM151.378 124.233C151.378 124.812 151.495 125.239 151.729 125.516C151.963 125.792 152.246 125.93 152.579 125.93C152.918 125.93 153.208 125.787 153.449 125.501C153.69 125.214 153.811 124.771 153.811 124.17C153.811 123.597 153.693 123.169 153.457 122.884C153.222 122.599 152.94 122.456 152.613 122.456C152.289 122.456 152.002 122.608 151.752 122.911C151.502 123.214 151.378 123.655 151.378 124.233Z"/>
<path d="M155.507 128.177L155.507 121.961L156.201 121.961L156.201 122.545C156.365 122.317 156.55 122.145 156.756 122.031C156.962 121.917 157.211 121.86 157.505 121.86C157.888 121.86 158.227 121.958 158.52 122.156C158.814 122.353 159.035 122.632 159.185 122.992C159.334 123.351 159.409 123.745 159.409 124.174C159.409 124.634 159.326 125.048 159.161 125.416C158.996 125.784 158.757 126.066 158.442 126.262C158.127 126.459 157.797 126.557 157.45 126.557C157.196 126.557 156.968 126.503 156.766 126.396C156.565 126.289 156.399 126.153 156.269 125.99L156.269 128.177L155.507 128.177ZM156.197 124.233C156.197 124.812 156.314 125.239 156.548 125.516C156.783 125.792 157.066 125.93 157.399 125.93C157.737 125.93 158.027 125.787 158.268 125.501C158.51 125.214 158.63 124.771 158.63 124.17C158.63 123.597 158.513 123.169 158.277 122.884C158.041 122.599 157.76 122.456 157.433 122.456C157.108 122.456 156.821 122.608 156.572 122.911C156.322 123.214 156.197 123.655 156.197 124.233Z"/>
<path d="M160.331 121.128L160.331 120.252L161.093 120.252L161.093 121.128L160.331 121.128ZM160.331 126.455L160.331 121.961L161.093 121.961L161.093 126.455L160.331 126.455Z"/>
<path d="M162.252 126.455L162.252 121.961L162.938 121.961L162.938 122.6C163.268 122.106 163.745 121.86 164.368 121.86C164.639 121.86 164.888 121.908 165.115 122.006C165.342 122.103 165.512 122.231 165.625 122.389C165.738 122.547 165.817 122.734 165.862 122.951C165.89 123.092 165.904 123.339 165.904 123.692L165.904 126.455L165.143 126.455L165.143 123.721C165.143 123.411 165.113 123.179 165.054 123.025C164.994 122.872 164.889 122.749 164.738 122.657C164.588 122.566 164.41 122.52 164.207 122.52C163.883 122.52 163.603 122.623 163.367 122.829C163.132 123.035 163.014 123.425 163.014 124.001L163.014 126.455L162.252 126.455Z"/>
<path d="M166.932 126.827L167.673 126.937C167.704 127.166 167.79 127.332 167.931 127.437C168.12 127.578 168.378 127.648 168.705 127.648C169.058 127.648 169.33 127.578 169.522 127.437C169.714 127.296 169.844 127.098 169.911 126.844C169.951 126.689 169.969 126.363 169.966 125.867C169.634 126.259 169.219 126.455 168.722 126.455C168.105 126.455 167.626 126.232 167.288 125.786C166.949 125.341 166.78 124.806 166.78 124.183C166.78 123.754 166.858 123.358 167.013 122.996C167.168 122.633 167.393 122.353 167.688 122.156C167.983 121.958 168.329 121.86 168.727 121.86C169.257 121.86 169.694 122.074 170.038 122.503L170.038 121.961L170.741 121.961L170.741 125.846C170.741 126.545 170.67 127.041 170.527 127.333C170.385 127.625 170.159 127.856 169.85 128.025C169.541 128.194 169.161 128.279 168.71 128.279C168.174 128.279 167.741 128.158 167.411 127.917C167.081 127.676 166.921 127.313 166.932 126.827ZM167.563 124.128C167.563 124.717 167.68 125.147 167.914 125.418C168.148 125.689 168.442 125.825 168.794 125.825C169.144 125.825 169.437 125.69 169.674 125.42C169.911 125.151 170.03 124.729 170.03 124.153C170.03 123.603 169.908 123.188 169.664 122.909C169.42 122.63 169.126 122.49 168.782 122.49C168.443 122.49 168.155 122.628 167.918 122.903C167.681 123.178 167.563 123.586 167.563 124.128Z"/>
<path d="M177.232 124.809L177.981 124.906C177.899 125.423 177.69 125.827 177.352 126.119C177.015 126.411 176.601 126.557 176.111 126.557C175.496 126.557 175.001 126.356 174.627 125.954C174.254 125.552 174.067 124.975 174.067 124.225C174.067 123.74 174.147 123.315 174.308 122.951C174.469 122.587 174.713 122.314 175.042 122.133C175.371 121.951 175.728 121.86 176.115 121.86C176.603 121.86 177.002 121.983 177.312 122.23C177.623 122.477 177.821 122.827 177.909 123.281L177.168 123.396C177.098 123.094 176.973 122.867 176.794 122.714C176.615 122.562 176.398 122.486 176.144 122.486C175.761 122.486 175.449 122.623 175.209 122.898C174.969 123.173 174.85 123.609 174.85 124.204C174.85 124.808 174.965 125.246 175.197 125.52C175.428 125.793 175.73 125.93 176.102 125.93C176.401 125.93 176.651 125.839 176.851 125.655C177.051 125.472 177.178 125.19 177.232 124.809Z"/>
<path d="M181.565 125.901C181.283 126.14 181.011 126.31 180.75 126.408C180.489 126.507 180.209 126.557 179.91 126.557C179.417 126.557 179.037 126.436 178.772 126.195C178.507 125.954 178.374 125.645 178.374 125.27C178.374 125.05 178.424 124.849 178.525 124.667C178.625 124.485 178.756 124.339 178.918 124.229C179.08 124.119 179.263 124.036 179.466 123.98C179.616 123.94 179.841 123.902 180.143 123.865C180.758 123.792 181.211 123.705 181.501 123.603C181.504 123.499 181.506 123.432 181.506 123.404C181.506 123.094 181.434 122.875 181.29 122.748C181.095 122.576 180.806 122.49 180.422 122.49C180.064 122.49 179.8 122.553 179.629 122.678C179.458 122.804 179.332 123.026 179.25 123.345L178.506 123.243C178.573 122.925 178.685 122.667 178.84 122.471C178.995 122.275 179.219 122.124 179.513 122.018C179.806 121.913 180.146 121.86 180.532 121.86C180.916 121.86 181.228 121.905 181.468 121.995C181.707 122.085 181.884 122.199 181.997 122.336C182.109 122.472 182.188 122.645 182.234 122.854C182.259 122.984 182.272 123.218 182.272 123.556L182.272 124.572C182.272 125.28 182.288 125.728 182.32 125.915C182.353 126.103 182.417 126.283 182.513 126.455L181.717 126.455C181.638 126.297 181.587 126.112 181.565 125.901ZM181.501 124.2C181.225 124.312 180.81 124.408 180.257 124.487C179.944 124.532 179.723 124.583 179.593 124.64C179.463 124.696 179.363 124.779 179.293 124.887C179.222 124.996 179.187 125.116 179.187 125.249C179.187 125.452 179.264 125.621 179.417 125.757C179.571 125.892 179.796 125.96 180.092 125.96C180.386 125.96 180.647 125.896 180.875 125.767C181.104 125.639 181.272 125.463 181.379 125.241C181.461 125.068 181.501 124.815 181.501 124.479L181.501 124.2Z"/>
<path d="M183.444 126.455L183.444 121.961L184.129 121.961L184.129 122.642C184.304 122.324 184.466 122.114 184.614 122.012C184.762 121.91 184.925 121.86 185.102 121.86C185.359 121.86 185.62 121.941 185.885 122.105L185.623 122.812C185.437 122.702 185.251 122.647 185.064 122.647C184.898 122.647 184.748 122.697 184.616 122.797C184.483 122.897 184.389 123.036 184.332 123.214C184.248 123.485 184.205 123.781 184.205 124.102L184.205 126.455L183.444 126.455Z"/>
<path d="M188.001 125.774L188.111 126.447C187.897 126.492 187.705 126.514 187.536 126.514C187.259 126.514 187.045 126.471 186.892 126.383C186.74 126.296 186.633 126.181 186.571 126.038C186.509 125.896 186.478 125.596 186.478 125.139L186.478 122.554L185.919 122.554L185.919 121.961L186.478 121.961L186.478 120.848L187.235 120.391L187.235 121.961L188.001 121.961L188.001 122.554L187.235 122.554L187.235 125.181C187.235 125.399 187.249 125.538 187.275 125.6C187.302 125.662 187.346 125.712 187.406 125.748C187.467 125.785 187.554 125.803 187.667 125.803C187.751 125.803 187.863 125.793 188.001 125.774Z"/>
</g>
<g fill="#333333" opacity="1" stroke="none" vectornator:layerName="text">
<path d="M147.978 138.524L148.731 138.406C148.773 138.707 148.891 138.939 149.084 139.099C149.277 139.26 149.547 139.341 149.894 139.341C150.244 139.341 150.504 139.269 150.673 139.127C150.842 138.985 150.927 138.817 150.927 138.626C150.927 138.453 150.852 138.318 150.703 138.219C150.598 138.152 150.339 138.066 149.924 137.961C149.365 137.82 148.978 137.698 148.762 137.595C148.547 137.492 148.383 137.35 148.272 137.168C148.16 136.986 148.104 136.785 148.104 136.565C148.104 136.365 148.15 136.179 148.242 136.008C148.334 135.838 148.459 135.696 148.616 135.583C148.735 135.496 148.896 135.422 149.101 135.361C149.306 135.3 149.525 135.27 149.759 135.27C150.112 135.27 150.421 135.321 150.688 135.422C150.954 135.524 151.151 135.661 151.278 135.835C151.405 136.008 151.492 136.24 151.54 136.531L150.796 136.633C150.762 136.401 150.664 136.221 150.502 136.091C150.339 135.961 150.11 135.896 149.814 135.896C149.464 135.896 149.215 135.954 149.065 136.07C148.916 136.185 148.841 136.321 148.841 136.476C148.841 136.575 148.872 136.664 148.934 136.743C148.996 136.824 149.093 136.892 149.226 136.946C149.302 136.974 149.526 137.039 149.899 137.14C150.437 137.284 150.813 137.402 151.026 137.494C151.239 137.585 151.406 137.719 151.528 137.894C151.649 138.068 151.71 138.286 151.71 138.545C151.71 138.799 151.636 139.038 151.488 139.262C151.339 139.487 151.126 139.66 150.846 139.783C150.567 139.906 150.251 139.967 149.899 139.967C149.315 139.967 148.87 139.846 148.564 139.603C148.258 139.36 148.062 139.001 147.978 138.524Z"/>
<path d="M155.692 138.418L156.479 138.516C156.354 138.975 156.125 139.332 155.789 139.586C155.453 139.84 155.024 139.967 154.502 139.967C153.845 139.967 153.324 139.765 152.939 139.36C152.554 138.955 152.361 138.387 152.361 137.657C152.361 136.901 152.556 136.314 152.945 135.896C153.335 135.479 153.84 135.27 154.46 135.27C155.061 135.27 155.552 135.475 155.933 135.884C156.314 136.293 156.504 136.868 156.504 137.61C156.504 137.655 156.503 137.723 156.5 137.813L153.148 137.813C153.177 138.307 153.316 138.685 153.567 138.947C153.818 139.209 154.132 139.341 154.507 139.341C154.786 139.341 155.024 139.267 155.222 139.121C155.419 138.974 155.576 138.74 155.692 138.418ZM153.191 137.187L155.7 137.187C155.666 136.809 155.57 136.525 155.412 136.336C155.17 136.043 154.855 135.896 154.469 135.896C154.119 135.896 153.825 136.013 153.586 136.247C153.348 136.482 153.216 136.795 153.191 137.187Z"/>
<path d="M157.426 139.865L157.426 135.372L158.112 135.372L158.112 136.053C158.287 135.734 158.448 135.524 158.596 135.422C158.745 135.321 158.907 135.27 159.085 135.27C159.342 135.27 159.603 135.352 159.868 135.515L159.606 136.222C159.419 136.112 159.233 136.057 159.047 136.057C158.881 136.057 158.731 136.107 158.599 136.207C158.466 136.307 158.371 136.446 158.315 136.624C158.23 136.895 158.188 137.191 158.188 137.513L158.188 139.865L157.426 139.865Z"/>
<path d="M161.569 139.865L159.86 135.372L160.664 135.372L161.628 138.063C161.733 138.353 161.829 138.655 161.916 138.968C161.984 138.731 162.078 138.446 162.2 138.114L163.198 135.372L163.981 135.372L162.28 139.865L161.569 139.865Z"/>
<path d="M164.658 134.538L164.658 133.662L165.42 133.662L165.42 134.538L164.658 134.538ZM164.658 139.865L164.658 135.372L165.42 135.372L165.42 139.865L164.658 139.865Z"/>
<path d="M169.512 138.219L170.261 138.317C170.179 138.833 169.969 139.237 169.632 139.529C169.295 139.821 168.881 139.967 168.39 139.967C167.775 139.967 167.281 139.766 166.907 139.364C166.533 138.962 166.346 138.386 166.346 137.635C166.346 137.15 166.427 136.726 166.588 136.362C166.748 135.998 166.993 135.725 167.322 135.543C167.65 135.361 168.008 135.27 168.394 135.27C168.882 135.27 169.282 135.393 169.592 135.64C169.902 135.887 170.101 136.238 170.189 136.692L169.448 136.806C169.378 136.504 169.253 136.277 169.074 136.125C168.894 135.972 168.678 135.896 168.424 135.896C168.04 135.896 167.729 136.034 167.489 136.309C167.249 136.584 167.129 137.019 167.129 137.614C167.129 138.218 167.245 138.657 167.476 138.93C167.708 139.204 168.009 139.341 168.382 139.341C168.681 139.341 168.93 139.249 169.131 139.066C169.331 138.882 169.458 138.6 169.512 138.219Z"/>
<path d="M173.988 138.418L174.776 138.516C174.651 138.975 174.421 139.332 174.086 139.586C173.75 139.84 173.321 139.967 172.799 139.967C172.142 139.967 171.621 139.765 171.236 139.36C170.851 138.955 170.658 138.387 170.658 137.657C170.658 136.901 170.853 136.314 171.242 135.896C171.632 135.479 172.136 135.27 172.757 135.27C173.358 135.27 173.849 135.475 174.23 135.884C174.61 136.293 174.801 136.868 174.801 137.61C174.801 137.655 174.799 137.723 174.797 137.813L171.445 137.813C171.474 138.307 171.613 138.685 171.864 138.947C172.115 139.209 172.428 139.341 172.804 139.341C173.083 139.341 173.321 139.267 173.519 139.121C173.716 138.974 173.873 138.74 173.988 138.418ZM171.488 137.187L173.997 137.187C173.963 136.809 173.867 136.525 173.709 136.336C173.467 136.043 173.152 135.896 172.766 135.896C172.416 135.896 172.122 136.013 171.883 136.247C171.645 136.482 171.513 136.795 171.488 137.187Z"/>
</g>
</g>
<g opacity="1" vectornator:layerName="g">
<path d="M376.652 107.78L477.702 107.78C479.765 107.78 481.438 109.453 481.438 111.516L481.438 144.456C481.438 146.519 479.765 148.191 477.702 148.191L376.652 148.191C374.589 148.191 372.916 146.519 372.916 144.456L372.916 111.516C372.916 109.453 374.589 107.78 376.652 107.78Z" fill="#ffffff" fill-rule="nonzero" opacity="1" stroke="#000000" stroke-linecap="butt" stroke-linejoin="miter" stroke-width="1.24513" vectornator:layerName="rect"/>
<g fill="#333333" opacity="1" stroke="none" vectornator:layerName="tspan">
<path d="M388.588 124.455L388.588 118.252L390.928 118.252C391.34 118.252 391.654 118.271 391.872 118.311C392.176 118.362 392.432 118.458 392.638 118.601C392.843 118.743 393.009 118.943 393.135 119.2C393.26 119.456 393.323 119.738 393.323 120.046C393.323 120.573 393.155 121.02 392.819 121.385C392.484 121.75 391.877 121.933 391 121.933L389.409 121.933L389.409 124.455L388.588 124.455ZM389.409 121.201L391.013 121.201C391.543 121.201 391.92 121.102 392.142 120.905C392.365 120.707 392.477 120.429 392.477 120.071C392.477 119.812 392.411 119.59 392.28 119.405C392.149 119.22 391.976 119.098 391.762 119.039C391.623 119.002 391.368 118.984 390.996 118.984L389.409 118.984L389.409 121.201Z"/>
<path d="M397.203 123.901C396.921 124.14 396.65 124.31 396.389 124.408C396.128 124.507 395.848 124.557 395.549 124.557C395.055 124.557 394.676 124.436 394.411 124.195C394.145 123.954 394.013 123.645 394.013 123.27C394.013 123.05 394.063 122.849 394.163 122.667C394.263 122.485 394.394 122.339 394.556 122.229C394.719 122.119 394.901 122.036 395.104 121.98C395.254 121.94 395.48 121.902 395.782 121.865C396.396 121.792 396.849 121.705 397.14 121.603C397.143 121.499 397.144 121.432 397.144 121.404C397.144 121.094 397.072 120.875 396.928 120.748C396.734 120.576 396.444 120.49 396.061 120.49C395.703 120.49 395.438 120.553 395.267 120.678C395.097 120.804 394.97 121.026 394.889 121.345L394.144 121.243C394.212 120.925 394.323 120.667 394.478 120.471C394.633 120.275 394.858 120.124 395.151 120.018C395.444 119.913 395.784 119.86 396.171 119.86C396.554 119.86 396.866 119.905 397.106 119.995C397.346 120.085 397.522 120.199 397.635 120.336C397.748 120.472 397.827 120.645 397.872 120.854C397.897 120.984 397.91 121.218 397.91 121.556L397.91 122.572C397.91 123.28 397.926 123.728 397.959 123.915C397.991 124.103 398.055 124.283 398.151 124.455L397.356 124.455C397.277 124.297 397.226 124.112 397.203 123.901ZM397.14 122.2C396.863 122.312 396.449 122.408 395.896 122.487C395.583 122.532 395.361 122.583 395.231 122.64C395.102 122.696 395.002 122.779 394.931 122.887C394.86 122.996 394.825 123.116 394.825 123.249C394.825 123.452 394.902 123.621 395.056 123.757C395.21 123.892 395.435 123.96 395.731 123.96C396.024 123.96 396.285 123.896 396.514 123.767C396.742 123.639 396.91 123.463 397.017 123.241C397.099 123.068 397.14 122.815 397.14 122.479L397.14 122.2Z"/>
<path d="M399.057 126.186L398.972 125.471C399.138 125.516 399.284 125.538 399.408 125.538C399.577 125.538 399.713 125.51 399.814 125.454C399.916 125.397 399.999 125.318 400.064 125.217C400.112 125.141 400.189 124.951 400.296 124.65C400.311 124.607 400.333 124.545 400.364 124.463L398.659 119.961L399.48 119.961L400.415 122.564C400.536 122.894 400.645 123.241 400.741 123.604C400.828 123.255 400.933 122.913 401.054 122.58L402.014 119.961L402.776 119.961L401.067 124.531C400.883 125.025 400.741 125.365 400.639 125.551C400.504 125.802 400.349 125.986 400.174 126.103C399.999 126.22 399.79 126.279 399.548 126.279C399.401 126.279 399.237 126.248 399.057 126.186Z"/>
<path d="M403.424 124.455L403.424 119.961L404.105 119.961L404.105 120.592C404.246 120.372 404.433 120.195 404.668 120.061C404.902 119.927 405.168 119.86 405.467 119.86C405.8 119.86 406.073 119.929 406.286 120.067C406.499 120.205 406.649 120.398 406.737 120.647C407.092 120.122 407.555 119.86 408.125 119.86C408.57 119.86 408.913 119.983 409.153 120.23C409.393 120.477 409.513 120.857 409.513 121.37L409.513 124.455L408.755 124.455L408.755 121.624C408.755 121.319 408.731 121.1 408.681 120.966C408.632 120.832 408.542 120.724 408.412 120.642C408.283 120.561 408.13 120.52 407.955 120.52C407.64 120.52 407.377 120.625 407.168 120.835C406.96 121.045 406.855 121.382 406.855 121.844L406.855 124.455L406.094 124.455L406.094 121.535C406.094 121.197 406.032 120.943 405.907 120.774C405.783 120.604 405.58 120.52 405.298 120.52C405.084 120.52 404.886 120.576 404.704 120.689C404.522 120.802 404.39 120.967 404.308 121.184C404.226 121.401 404.185 121.714 404.185 122.123L404.185 124.455L403.424 124.455Z"/>
<path d="M413.719 123.008L414.506 123.105C414.382 123.565 414.152 123.922 413.816 124.176C413.48 124.43 413.052 124.557 412.53 124.557C411.872 124.557 411.351 124.354 410.966 123.949C410.581 123.545 410.389 122.977 410.389 122.246C410.389 121.49 410.583 120.903 410.973 120.486C411.362 120.068 411.867 119.86 412.487 119.86C413.088 119.86 413.579 120.064 413.96 120.473C414.341 120.882 414.531 121.458 414.531 122.2C414.531 122.245 414.53 122.312 414.527 122.403L411.176 122.403C411.204 122.896 411.343 123.274 411.595 123.537C411.846 123.799 412.159 123.93 412.534 123.93C412.813 123.93 413.052 123.857 413.249 123.71C413.447 123.564 413.603 123.329 413.719 123.008ZM411.218 121.776L413.727 121.776C413.693 121.398 413.597 121.115 413.439 120.926C413.197 120.633 412.882 120.486 412.496 120.486C412.146 120.486 411.852 120.603 411.614 120.837C411.375 121.071 411.243 121.384 411.218 121.776Z"/>
<path d="M415.462 124.455L415.462 119.961L416.148 119.961L416.148 120.6C416.478 120.106 416.954 119.86 417.578 119.86C417.849 119.86 418.098 119.908 418.325 120.006C418.552 120.103 418.722 120.231 418.835 120.389C418.947 120.547 419.026 120.734 419.072 120.951C419.1 121.092 419.114 121.339 419.114 121.692L419.114 124.455L418.352 124.455L418.352 121.721C418.352 121.411 418.323 121.179 418.263 121.025C418.204 120.872 418.099 120.749 417.948 120.657C417.797 120.566 417.62 120.52 417.417 120.52C417.093 120.52 416.813 120.623 416.577 120.829C416.342 121.035 416.224 121.425 416.224 122.001L416.224 124.455L415.462 124.455Z"/>
<path d="M421.945 123.774L422.055 124.447C421.84 124.492 421.649 124.514 421.479 124.514C421.203 124.514 420.988 124.471 420.836 124.383C420.684 124.296 420.577 124.181 420.515 124.038C420.452 123.896 420.421 123.596 420.421 123.139L420.421 120.554L419.863 120.554L419.863 119.961L420.421 119.961L420.421 118.848L421.179 118.391L421.179 119.961L421.945 119.961L421.945 120.554L421.179 120.554L421.179 123.181C421.179 123.399 421.192 123.538 421.219 123.6C421.246 123.662 421.29 123.712 421.35 123.748C421.411 123.785 421.498 123.803 421.61 123.803C421.695 123.803 421.807 123.793 421.945 123.774Z"/>
<path d="M425.097 126.177L425.097 119.961L425.791 119.961L425.791 120.545C425.955 120.317 426.14 120.145 426.346 120.031C426.551 119.917 426.801 119.86 427.094 119.86C427.478 119.86 427.817 119.958 428.11 120.156C428.403 120.353 428.625 120.632 428.774 120.992C428.924 121.351 428.999 121.745 428.999 122.174C428.999 122.634 428.916 123.048 428.751 123.416C428.586 123.784 428.346 124.066 428.032 124.262C427.717 124.459 427.386 124.557 427.039 124.557C426.786 124.557 426.558 124.503 426.356 124.396C426.154 124.289 425.989 124.153 425.859 123.99L425.859 126.177L425.097 126.177ZM425.787 122.233C425.787 122.812 425.904 123.239 426.138 123.516C426.372 123.792 426.656 123.93 426.989 123.93C427.327 123.93 427.617 123.787 427.858 123.501C428.099 123.214 428.22 122.771 428.22 122.17C428.22 121.597 428.102 121.169 427.867 120.884C427.631 120.599 427.35 120.456 427.023 120.456C426.698 120.456 426.411 120.608 426.161 120.911C425.912 121.214 425.787 121.655 425.787 122.233Z"/>
<path d="M429.908 124.455L429.908 119.961L430.594 119.961L430.594 120.642C430.769 120.324 430.93 120.114 431.078 120.012C431.227 119.91 431.389 119.86 431.567 119.86C431.824 119.86 432.085 119.941 432.35 120.105L432.088 120.812C431.901 120.702 431.715 120.647 431.529 120.647C431.363 120.647 431.213 120.697 431.081 120.797C430.948 120.897 430.853 121.036 430.797 121.214C430.712 121.485 430.67 121.781 430.67 122.102L430.67 124.455L429.908 124.455Z"/>
<path d="M432.519 122.208C432.519 121.376 432.751 120.76 433.213 120.359C433.6 120.026 434.071 119.86 434.627 119.86C435.244 119.86 435.749 120.062 436.141 120.467C436.534 120.872 436.73 121.431 436.73 122.145C436.73 122.723 436.643 123.178 436.469 123.509C436.296 123.841 436.043 124.098 435.712 124.282C435.38 124.465 435.019 124.557 434.627 124.557C433.997 124.557 433.489 124.355 433.101 123.951C432.713 123.548 432.519 122.967 432.519 122.208ZM433.302 122.208C433.302 122.784 433.428 123.214 433.679 123.501C433.93 123.787 434.246 123.93 434.627 123.93C435.005 123.93 435.319 123.786 435.57 123.499C435.821 123.211 435.947 122.772 435.947 122.183C435.947 121.627 435.821 121.206 435.568 120.92C435.316 120.633 435.002 120.49 434.627 120.49C434.246 120.49 433.93 120.633 433.679 120.917C433.428 121.202 433.302 121.633 433.302 122.208Z"/>
<path d="M440.555 122.809L441.304 122.906C441.222 123.423 441.013 123.827 440.675 124.119C440.338 124.411 439.924 124.557 439.433 124.557C438.819 124.557 438.324 124.356 437.95 123.954C437.577 123.552 437.39 122.975 437.39 122.225C437.39 121.74 437.47 121.315 437.631 120.951C437.792 120.587 438.036 120.314 438.365 120.133C438.694 119.951 439.051 119.86 439.438 119.86C439.926 119.86 440.325 119.983 440.635 120.23C440.946 120.477 441.144 120.827 441.232 121.281L440.491 121.396C440.421 121.094 440.296 120.867 440.117 120.714C439.938 120.562 439.721 120.486 439.467 120.486C439.084 120.486 438.772 120.623 438.532 120.898C438.292 121.173 438.173 121.609 438.173 122.204C438.173 122.808 438.288 123.246 438.519 123.52C438.751 123.793 439.053 123.93 439.425 123.93C439.724 123.93 439.974 123.839 440.174 123.655C440.374 123.472 440.501 123.19 440.555 122.809Z"/>
<path d="M445.032 123.008L445.819 123.105C445.695 123.565 445.465 123.922 445.129 124.176C444.793 124.43 444.365 124.557 443.843 124.557C443.185 124.557 442.664 124.354 442.279 123.949C441.894 123.545 441.702 122.977 441.702 122.246C441.702 121.49 441.896 120.903 442.286 120.486C442.675 120.068 443.18 119.86 443.8 119.86C444.401 119.86 444.892 120.064 445.273 120.473C445.654 120.882 445.844 121.458 445.844 122.2C445.844 122.245 445.843 122.312 445.84 122.403L442.489 122.403C442.517 122.896 442.656 123.274 442.908 123.537C443.159 123.799 443.472 123.93 443.847 123.93C444.126 123.93 444.365 123.857 444.562 123.71C444.76 123.564 444.916 123.329 445.032 123.008ZM442.531 121.776L445.04 121.776C445.006 121.398 444.91 121.115 444.752 120.926C444.51 120.633 444.195 120.486 443.809 120.486C443.459 120.486 443.165 120.603 442.927 120.837C442.688 121.071 442.556 121.384 442.531 121.776Z"/>
<path d="M446.47 123.114L447.224 122.995C447.266 123.297 447.384 123.528 447.577 123.689C447.77 123.85 448.04 123.93 448.387 123.93C448.737 123.93 448.997 123.859 449.166 123.717C449.335 123.574 449.42 123.407 449.42 123.215C449.42 123.043 449.345 122.908 449.196 122.809C449.091 122.741 448.832 122.655 448.417 122.551C447.858 122.41 447.471 122.288 447.255 122.185C447.04 122.082 446.876 121.939 446.765 121.757C446.653 121.575 446.597 121.374 446.597 121.154C446.597 120.954 446.643 120.769 446.735 120.598C446.827 120.427 446.951 120.286 447.109 120.173C447.228 120.085 447.389 120.011 447.594 119.951C447.798 119.89 448.018 119.86 448.252 119.86C448.605 119.86 448.914 119.91 449.181 120.012C449.447 120.114 449.644 120.251 449.771 120.425C449.898 120.598 449.985 120.83 450.033 121.121L449.289 121.222C449.255 120.991 449.157 120.81 448.995 120.681C448.832 120.551 448.603 120.486 448.307 120.486C447.957 120.486 447.707 120.544 447.558 120.659C447.408 120.775 447.334 120.91 447.334 121.066C447.334 121.164 447.365 121.253 447.427 121.332C447.489 121.414 447.586 121.482 447.719 121.535C447.795 121.563 448.019 121.628 448.392 121.73C448.93 121.874 449.306 121.992 449.519 122.083C449.732 122.175 449.899 122.308 450.021 122.483C450.142 122.658 450.203 122.875 450.203 123.135C450.203 123.389 450.129 123.628 449.98 123.852C449.832 124.076 449.619 124.25 449.339 124.372C449.06 124.495 448.744 124.557 448.392 124.557C447.808 124.557 447.363 124.435 447.057 124.193C446.75 123.95 446.555 123.59 446.47 123.114Z"/>
<path d="M450.803 123.114L451.557 122.995C451.599 123.297 451.717 123.528 451.91 123.689C452.103 123.85 452.373 123.93 452.72 123.93C453.07 123.93 453.33 123.859 453.499 123.717C453.668 123.574 453.753 123.407 453.753 123.215C453.753 123.043 453.678 122.908 453.529 122.809C453.424 122.741 453.165 122.655 452.75 122.551C452.191 122.41 451.804 122.288 451.588 122.185C451.373 122.082 451.209 121.939 451.098 121.757C450.986 121.575 450.93 121.374 450.93 121.154C450.93 120.954 450.976 120.769 451.068 120.598C451.16 120.427 451.284 120.286 451.442 120.173C451.561 120.085 451.722 120.011 451.927 119.951C452.131 119.89 452.351 119.86 452.585 119.86C452.938 119.86 453.247 119.91 453.514 120.012C453.78 120.114 453.977 120.251 454.104 120.425C454.231 120.598 454.318 120.83 454.366 121.121L453.622 121.222C453.588 120.991 453.49 120.81 453.328 120.681C453.165 120.551 452.936 120.486 452.64 120.486C452.29 120.486 452.04 120.544 451.891 120.659C451.741 120.775 451.667 120.91 451.667 121.066C451.667 121.164 451.698 121.253 451.76 121.332C451.822 121.414 451.919 121.482 452.052 121.535C452.128 121.563 452.352 121.628 452.725 121.73C453.263 121.874 453.639 121.992 453.852 122.083C454.065 122.175 454.232 122.308 454.354 122.483C454.475 122.658 454.536 122.875 454.536 123.135C454.536 123.389 454.462 123.628 454.313 123.852C454.165 124.076 453.952 124.25 453.672 124.372C453.393 124.495 453.077 124.557 452.725 124.557C452.141 124.557 451.696 124.435 451.39 124.193C451.083 123.95 450.888 123.59 450.803 123.114Z"/>
<path d="M455.445 119.128L455.445 118.252L456.207 118.252L456.207 119.128L455.445 119.128ZM455.445 124.455L455.445 119.961L456.207 119.961L456.207 124.455L455.445 124.455Z"/>
<path d="M457.367 124.455L457.367 119.961L458.052 119.961L458.052 120.6C458.382 120.106 458.859 119.86 459.482 119.86C459.753 119.86 460.002 119.908 460.229 120.006C460.456 120.103 460.626 120.231 460.739 120.389C460.852 120.547 460.931 120.734 460.976 120.951C461.004 121.092 461.018 121.339 461.018 121.692L461.018 124.455L460.257 124.455L460.257 121.721C460.257 121.411 460.227 121.179 460.168 121.025C460.109 120.872 460.003 120.749 459.853 120.657C459.702 120.566 459.525 120.52 459.321 120.52C458.997 120.52 458.717 120.623 458.482 120.829C458.246 121.035 458.128 121.425 458.128 122.001L458.128 124.455L457.367 124.455Z"/>
<path d="M462.047 124.827L462.787 124.937C462.818 125.166 462.904 125.332 463.045 125.437C463.234 125.578 463.492 125.648 463.82 125.648C464.172 125.648 464.444 125.578 464.636 125.437C464.828 125.296 464.958 125.098 465.025 124.844C465.065 124.689 465.083 124.363 465.081 123.867C464.748 124.259 464.333 124.455 463.836 124.455C463.219 124.455 462.74 124.232 462.402 123.786C462.063 123.341 461.894 122.806 461.894 122.183C461.894 121.754 461.972 121.358 462.127 120.996C462.282 120.633 462.507 120.353 462.802 120.156C463.097 119.958 463.443 119.86 463.841 119.86C464.371 119.86 464.808 120.074 465.152 120.503L465.152 119.961L465.855 119.961L465.855 123.846C465.855 124.545 465.784 125.041 465.641 125.333C465.499 125.625 465.273 125.856 464.964 126.025C464.655 126.194 464.275 126.279 463.824 126.279C463.288 126.279 462.855 126.158 462.525 125.917C462.195 125.676 462.035 125.313 462.047 124.827ZM462.677 122.128C462.677 122.717 462.794 123.147 463.028 123.418C463.262 123.689 463.556 123.825 463.908 123.825C464.258 123.825 464.552 123.69 464.789 123.42C465.025 123.151 465.144 122.729 465.144 122.153C465.144 121.603 465.022 121.188 464.778 120.909C464.534 120.63 464.24 120.49 463.896 120.49C463.557 120.49 463.269 120.628 463.032 120.903C462.796 121.178 462.677 121.586 462.677 122.128Z"/>
</g>
<g fill="#333333" opacity="1" stroke="none" vectornator:layerName="text">
<path d="M413.719 134.644L414.472 134.526C414.514 134.828 414.632 135.059 414.825 135.22C415.019 135.381 415.289 135.461 415.636 135.461C415.985 135.461 416.245 135.39 416.414 135.247C416.583 135.105 416.668 134.938 416.668 134.746C416.668 134.574 416.593 134.438 416.444 134.34C416.339 134.272 416.08 134.186 415.665 134.081C415.107 133.94 414.72 133.818 414.504 133.715C414.288 133.612 414.124 133.47 414.013 133.288C413.901 133.106 413.846 132.905 413.846 132.685C413.846 132.485 413.892 132.299 413.983 132.129C414.075 131.958 414.2 131.816 414.358 131.703C414.476 131.616 414.638 131.542 414.842 131.481C415.047 131.421 415.266 131.39 415.5 131.39C415.853 131.39 416.162 131.441 416.429 131.543C416.696 131.644 416.892 131.782 417.019 131.955C417.146 132.129 417.234 132.361 417.282 132.651L416.537 132.753C416.503 132.521 416.405 132.341 416.243 132.211C416.081 132.081 415.851 132.017 415.555 132.017C415.205 132.017 414.956 132.074 414.806 132.19C414.657 132.306 414.582 132.441 414.582 132.596C414.582 132.695 414.613 132.784 414.675 132.863C414.737 132.945 414.834 133.012 414.967 133.066C415.043 133.094 415.267 133.159 415.64 133.261C416.179 133.404 416.555 133.522 416.768 133.614C416.981 133.706 417.148 133.839 417.269 134.014C417.39 134.189 417.451 134.406 417.451 134.665C417.451 134.919 417.377 135.158 417.229 135.383C417.081 135.607 416.867 135.78 416.588 135.903C416.308 136.026 415.992 136.087 415.64 136.087C415.056 136.087 414.611 135.966 414.305 135.723C413.999 135.481 413.803 135.121 413.719 134.644Z"/>
<path d="M421.433 134.538L422.22 134.636C422.096 135.096 421.866 135.452 421.53 135.706C421.194 135.96 420.766 136.087 420.244 136.087C419.586 136.087 419.065 135.885 418.68 135.48C418.295 135.075 418.103 134.507 418.103 133.777C418.103 133.021 418.297 132.434 418.687 132.017C419.076 131.599 419.581 131.39 420.201 131.39C420.802 131.39 421.293 131.595 421.674 132.004C422.055 132.413 422.245 132.988 422.245 133.73C422.245 133.775 422.244 133.843 422.241 133.933L418.89 133.933C418.918 134.427 419.057 134.805 419.309 135.067C419.56 135.33 419.873 135.461 420.248 135.461C420.527 135.461 420.766 135.388 420.963 135.241C421.161 135.094 421.317 134.86 421.433 134.538ZM418.932 133.307L421.441 133.307C421.407 132.929 421.311 132.646 421.153 132.457C420.911 132.163 420.596 132.017 420.21 132.017C419.86 132.017 419.566 132.134 419.328 132.368C419.089 132.602 418.957 132.915 418.932 133.307Z"/>
<path d="M423.168 135.986L423.168 131.492L423.853 131.492L423.853 132.173C424.028 131.854 424.19 131.644 424.338 131.543C424.486 131.441 424.649 131.39 424.826 131.39C425.083 131.39 425.344 131.472 425.609 131.636L425.347 132.342C425.161 132.232 424.975 132.177 424.788 132.177C424.622 132.177 424.472 132.227 424.34 132.328C424.207 132.428 424.113 132.567 424.056 132.744C423.972 133.015 423.929 133.311 423.929 133.633L423.929 135.986L423.168 135.986Z"/>
<path d="M427.31 135.986L425.601 131.492L426.405 131.492L427.37 134.183C427.474 134.474 427.57 134.775 427.657 135.089C427.725 134.852 427.819 134.567 427.941 134.234L428.939 131.492L429.722 131.492L428.021 135.986L427.31 135.986Z"/>
<path d="M430.399 130.658L430.399 129.782L431.161 129.782L431.161 130.658L430.399 130.658ZM430.399 135.986L430.399 131.492L431.161 131.492L431.161 135.986L430.399 135.986Z"/>
<path d="M435.253 134.34L436.002 134.437C435.92 134.953 435.71 135.357 435.373 135.649C435.036 135.941 434.622 136.087 434.131 136.087C433.516 136.087 433.022 135.886 432.648 135.484C432.275 135.082 432.088 134.506 432.088 133.756C432.088 133.27 432.168 132.846 432.329 132.482C432.49 132.118 432.734 131.845 433.063 131.663C433.392 131.481 433.749 131.39 434.136 131.39C434.624 131.39 435.023 131.514 435.333 131.761C435.643 132.007 435.842 132.358 435.93 132.812L435.189 132.926C435.119 132.624 434.994 132.397 434.815 132.245C434.636 132.093 434.419 132.017 434.165 132.017C433.782 132.017 433.47 132.154 433.23 132.429C432.99 132.704 432.87 133.139 432.87 133.734C432.87 134.338 432.986 134.777 433.217 135.05C433.449 135.324 433.751 135.461 434.123 135.461C434.422 135.461 434.672 135.369 434.872 135.186C435.072 135.003 435.199 134.72 435.253 134.34Z"/>
<path d="M439.73 134.538L440.517 134.636C440.393 135.096 440.163 135.452 439.827 135.706C439.491 135.96 439.063 136.087 438.541 136.087C437.883 136.087 437.362 135.885 436.977 135.48C436.592 135.075 436.4 134.507 436.4 133.777C436.4 133.021 436.594 132.434 436.983 132.017C437.373 131.599 437.878 131.39 438.498 131.39C439.099 131.39 439.59 131.595 439.971 132.004C440.352 132.413 440.542 132.988 440.542 133.73C440.542 133.775 440.541 133.843 440.538 133.933L437.187 133.933C437.215 134.427 437.354 134.805 437.605 135.067C437.857 135.33 438.17 135.461 438.545 135.461C438.824 135.461 439.063 135.388 439.26 135.241C439.457 135.094 439.614 134.86 439.73 134.538ZM437.229 133.307L439.738 133.307C439.704 132.929 439.608 132.646 439.45 132.457C439.208 132.163 438.893 132.017 438.507 132.017C438.157 132.017 437.863 132.134 437.625 132.368C437.386 132.602 437.254 132.915 437.229 133.307Z"/>
</g>
</g>
<path d="M254.155 90.8542L216.248 104.994L217.336 107.911L195.979 111.226L214.289 99.7447L215.377 102.661L253.285 88.5212L254.155 90.8542Z" fill="#d8d8d8" fill-rule="nonzero" opacity="1" stroke="#000000" stroke-linecap="butt" stroke-linejoin="miter" stroke-width="1" vectornator:layerName="path"/>
<path d="M324.373 88.5706L355.624 102.983L356.928 100.156L374.324 112.978L353.278 108.071L354.581 105.244L323.33 90.8317L324.373 88.5706Z" fill="#d8d8d8" fill-rule="nonzero" opacity="1" stroke="#000000" stroke-linecap="butt" stroke-linejoin="miter" stroke-width="1" vectornator:layerName="path"/>
<g fill="#ffffff" opacity="1" stroke="none" vectornator:layerName="text">
<path d="M198.867 88.507L201.352 82.036L202.274 82.036L204.923 88.507L203.947 88.507L203.192 86.5472L200.486 86.5472L199.776 88.507L198.867 88.507ZM200.734 85.8497L202.927 85.8497L202.252 84.0576C202.046 83.5132 201.893 83.0659 201.793 82.7158C201.711 83.1307 201.594 83.5427 201.444 83.9517L200.734 85.8497Z"/>
<path d="M208.547 88.507L208.547 87.9155C208.249 88.3805 207.812 88.6129 207.236 88.6129C206.862 88.6129 206.518 88.5099 206.205 88.304C205.892 88.098 205.649 87.8103 205.477 87.441C205.304 87.0717 205.218 86.6472 205.218 86.1676C205.218 85.6997 205.296 85.2752 205.452 84.8941C205.608 84.513 205.842 84.2209 206.154 84.0179C206.466 83.8149 206.815 83.7133 207.2 83.7133C207.483 83.7133 207.734 83.7729 207.955 83.8921C208.176 84.0113 208.355 84.1665 208.494 84.3578L208.494 82.036L209.284 82.036L209.284 88.507L208.547 88.507ZM206.035 86.1676C206.035 86.7679 206.162 87.2166 206.415 87.5138C206.668 87.8111 206.966 87.9597 207.311 87.9597C207.658 87.9597 207.953 87.8177 208.196 87.5337C208.438 87.2497 208.56 86.8164 208.56 86.2338C208.56 85.5923 208.436 85.1214 208.189 84.8213C207.942 84.5211 207.637 84.371 207.275 84.371C206.922 84.371 206.627 84.5152 206.39 84.8036C206.153 85.092 206.035 85.5466 206.035 86.1676Z"/>
<path d="M213.574 88.507L213.574 87.9155C213.277 88.3805 212.84 88.6129 212.263 88.6129C211.889 88.6129 211.546 88.5099 211.233 88.304C210.919 88.098 210.676 87.8103 210.504 87.441C210.332 87.0717 210.246 86.6472 210.246 86.1676C210.246 85.6997 210.324 85.2752 210.48 84.8941C210.636 84.513 210.87 84.2209 211.182 84.0179C211.494 83.8149 211.842 83.7133 212.228 83.7133C212.51 83.7133 212.762 83.7729 212.983 83.8921C213.203 84.0113 213.383 84.1665 213.521 84.3578L213.521 82.036L214.311 82.036L214.311 88.507L213.574 88.507ZM211.063 86.1676C211.063 86.7679 211.189 87.2166 211.442 87.5138C211.695 87.8111 211.994 87.9597 212.338 87.9597C212.685 87.9597 212.981 87.8177 213.223 87.5337C213.466 87.2497 213.587 86.8164 213.587 86.2338C213.587 85.5923 213.464 85.1214 213.217 84.8213C212.969 84.5211 212.665 84.371 212.303 84.371C211.95 84.371 211.655 84.5152 211.418 84.8036C211.181 85.092 211.063 85.5466 211.063 86.1676Z"/>
<path d="M218.077 82.9497L218.077 82.036L218.871 82.036L218.871 82.9497L218.077 82.9497ZM218.077 88.507L218.077 83.8193L218.871 83.8193L218.871 88.507L218.077 88.507Z"/>
<path d="M221.815 87.7963L221.93 88.4982C221.706 88.5453 221.506 88.5688 221.33 88.5688C221.041 88.5688 220.818 88.5232 220.659 88.432C220.5 88.3407 220.388 88.2208 220.323 88.0722C220.259 87.9236 220.226 87.6109 220.226 87.1342L220.226 84.4372L219.644 84.4372L219.644 83.8193L220.226 83.8193L220.226 82.6584L221.016 82.1817L221.016 83.8193L221.815 83.8193L221.815 84.4372L221.016 84.4372L221.016 87.1784C221.016 87.405 221.03 87.5506 221.058 87.6154C221.086 87.6801 221.132 87.7316 221.195 87.7699C221.258 87.8081 221.349 87.8272 221.467 87.8272C221.555 87.8272 221.671 87.8169 221.815 87.7963Z"/>
<path d="M225.801 86.9974L226.622 87.0989C226.493 87.5786 226.253 87.9508 225.903 88.2157C225.552 88.4805 225.105 88.6129 224.561 88.6129C223.875 88.6129 223.331 88.4018 222.93 87.9795C222.528 87.5572 222.327 86.965 222.327 86.2029C222.327 85.4142 222.53 84.8021 222.936 84.3666C223.343 83.9311 223.869 83.7133 224.517 83.7133C225.143 83.7133 225.655 83.9267 226.053 84.3534C226.45 84.7801 226.649 85.3804 226.649 86.1543C226.649 86.2014 226.647 86.272 226.644 86.3662L223.148 86.3662C223.178 86.8812 223.323 87.2755 223.585 87.5492C223.847 87.8228 224.174 87.9597 224.565 87.9597C224.857 87.9597 225.105 87.8831 225.311 87.7301C225.517 87.5771 225.68 87.3329 225.801 86.9974ZM223.192 85.7129L225.81 85.7129C225.775 85.3186 225.675 85.0228 225.51 84.8257C225.257 84.5196 224.929 84.3666 224.525 84.3666C224.161 84.3666 223.854 84.4887 223.605 84.733C223.356 84.9772 223.219 85.3039 223.192 85.7129Z"/>
<path d="M227.62 88.507L227.62 83.8193L228.33 83.8193L228.33 84.477C228.478 84.2474 228.673 84.0628 228.917 83.923C229.162 83.7832 229.44 83.7133 229.752 83.7133C230.099 83.7133 230.384 83.7854 230.606 83.9296C230.828 84.0738 230.985 84.2754 231.076 84.5343C231.447 83.987 231.929 83.7133 232.524 83.7133C232.989 83.7133 233.346 83.8421 233.596 84.0996C233.847 84.357 233.972 84.7536 233.972 85.2892L233.972 88.507L233.181 88.507L233.181 85.554C233.181 85.2362 233.156 85.0074 233.104 84.8676C233.053 84.7278 232.959 84.6153 232.824 84.5299C232.689 84.4446 232.53 84.4019 232.347 84.4019C232.018 84.4019 231.744 84.5115 231.526 84.7308C231.308 84.95 231.2 85.3009 231.2 85.7835L231.2 88.507L230.405 88.507L230.405 85.4613C230.405 85.1082 230.34 84.8433 230.211 84.6668C230.081 84.4902 229.869 84.4019 229.575 84.4019C229.352 84.4019 229.145 84.4608 228.955 84.5785C228.765 84.6962 228.628 84.8683 228.542 85.0949C228.457 85.3215 228.414 85.6482 228.414 86.0749L228.414 88.507L227.62 88.507Z"/>
<path d="M234.832 87.1077L235.618 86.9842C235.662 87.299 235.785 87.5403 235.987 87.7081C236.188 87.8758 236.47 87.9597 236.832 87.9597C237.197 87.9597 237.468 87.8854 237.644 87.7367C237.821 87.5881 237.909 87.4138 237.909 87.2137C237.909 87.0342 237.831 86.8929 237.675 86.7899C237.566 86.7193 237.295 86.6296 236.863 86.5207C236.28 86.3735 235.876 86.2463 235.651 86.1389C235.426 86.0315 235.255 85.8828 235.139 85.693C235.023 85.5032 234.965 85.2936 234.965 85.064C234.965 84.8551 235.013 84.6616 235.108 84.4836C235.204 84.3056 235.334 84.1577 235.499 84.04C235.622 83.9487 235.791 83.8715 236.004 83.8082C236.218 83.745 236.446 83.7133 236.691 83.7133C237.058 83.7133 237.381 83.7663 237.66 83.8722C237.938 83.9782 238.143 84.1216 238.275 84.3026C238.408 84.4836 238.499 84.7256 238.549 85.0287L237.772 85.1347C237.737 84.8934 237.635 84.705 237.465 84.5697C237.296 84.4343 237.057 84.3666 236.748 84.3666C236.383 84.3666 236.123 84.4269 235.967 84.5476C235.811 84.6682 235.733 84.8095 235.733 84.9713C235.733 85.0743 235.765 85.167 235.83 85.2494C235.895 85.3348 235.996 85.4054 236.134 85.4613C236.214 85.4907 236.448 85.5584 236.836 85.6643C237.398 85.8144 237.79 85.9373 238.013 86.0329C238.235 86.1286 238.409 86.2676 238.536 86.4501C238.662 86.6325 238.726 86.8591 238.726 87.1298C238.726 87.3947 238.648 87.6441 238.494 87.878C238.339 88.1119 238.116 88.2929 237.825 88.4209C237.534 88.5489 237.204 88.6129 236.836 88.6129C236.227 88.6129 235.763 88.4864 235.444 88.2333C235.124 87.9803 234.921 87.6051 234.832 87.1077Z"/>
</g>
<g fill="#ffffff" opacity="1" stroke="none" vectornator:layerName="text">
<path d="M227.357 114.376L228.165 114.305C228.203 114.629 228.292 114.895 228.432 115.102C228.571 115.31 228.788 115.477 229.083 115.605C229.377 115.733 229.708 115.797 230.076 115.797C230.403 115.797 230.691 115.749 230.941 115.652C231.191 115.555 231.377 115.421 231.499 115.252C231.622 115.083 231.683 114.898 231.683 114.698C231.683 114.495 231.624 114.318 231.506 114.166C231.388 114.015 231.194 113.887 230.923 113.784C230.75 113.717 230.366 113.612 229.771 113.469C229.177 113.326 228.761 113.192 228.522 113.065C228.213 112.903 227.983 112.702 227.831 112.462C227.68 112.223 227.604 111.954 227.604 111.657C227.604 111.33 227.697 111.025 227.882 110.741C228.068 110.457 228.338 110.241 228.694 110.094C229.05 109.947 229.446 109.874 229.882 109.874C230.361 109.874 230.784 109.951 231.151 110.105C231.517 110.26 231.799 110.487 231.996 110.787C232.193 111.088 232.299 111.427 232.314 111.807L231.493 111.869C231.449 111.46 231.299 111.151 231.045 110.942C230.79 110.733 230.414 110.628 229.917 110.628C229.399 110.628 229.022 110.723 228.785 110.913C228.548 111.103 228.429 111.332 228.429 111.6C228.429 111.832 228.513 112.023 228.681 112.173C228.846 112.323 229.276 112.477 229.972 112.635C230.668 112.792 231.146 112.93 231.405 113.047C231.781 113.221 232.059 113.441 232.239 113.707C232.418 113.974 232.508 114.28 232.508 114.628C232.508 114.972 232.41 115.296 232.212 115.601C232.015 115.905 231.732 116.142 231.363 116.312C230.993 116.481 230.578 116.565 230.116 116.565C229.53 116.565 229.039 116.48 228.644 116.309C228.248 116.139 227.937 115.882 227.712 115.539C227.487 115.196 227.369 114.809 227.357 114.376Z"/>
<path d="M233.576 116.455L233.576 109.984L234.371 109.984L234.371 112.306C234.742 111.876 235.209 111.661 235.774 111.661C236.122 111.661 236.423 111.73 236.679 111.867C236.935 112.003 237.119 112.192 237.229 112.434C237.339 112.675 237.394 113.025 237.394 113.484L237.394 116.455L236.6 116.455L236.6 113.484C236.6 113.087 236.514 112.798 236.342 112.617C236.17 112.436 235.926 112.346 235.611 112.346C235.376 112.346 235.154 112.407 234.947 112.529C234.739 112.651 234.592 112.816 234.503 113.025C234.415 113.234 234.371 113.523 234.371 113.89L234.371 116.455L233.576 116.455Z"/>
<path d="M238.308 114.111C238.308 113.243 238.549 112.6 239.032 112.182C239.435 111.835 239.927 111.661 240.506 111.661C241.151 111.661 241.678 111.872 242.087 112.295C242.496 112.717 242.7 113.3 242.7 114.045C242.7 114.648 242.61 115.123 242.429 115.468C242.248 115.814 241.984 116.083 241.639 116.274C241.293 116.465 240.915 116.561 240.506 116.561C239.85 116.561 239.32 116.351 238.915 115.93C238.51 115.509 238.308 114.903 238.308 114.111ZM239.125 114.111C239.125 114.711 239.256 115.161 239.518 115.46C239.78 115.758 240.109 115.908 240.506 115.908C240.901 115.908 241.229 115.758 241.491 115.457C241.753 115.157 241.884 114.7 241.884 114.085C241.884 113.505 241.752 113.066 241.488 112.767C241.225 112.468 240.898 112.319 240.506 112.319C240.109 112.319 239.78 112.468 239.518 112.765C239.256 113.062 239.125 113.511 239.125 114.111Z"/>
<path d="M244.497 116.455L243.062 111.767L243.883 111.767L244.629 114.473L244.907 115.479C244.919 115.429 245 115.107 245.15 114.513L245.896 111.767L246.713 111.767L247.414 114.486L247.648 115.382L247.918 114.478L248.721 111.767L249.493 111.767L248.028 116.455L247.202 116.455L246.457 113.648L246.276 112.849L245.327 116.455L244.497 116.455Z"/>
<path d="M255.73 114.738L256.512 114.839C256.426 115.378 256.208 115.8 255.856 116.104C255.505 116.409 255.073 116.561 254.561 116.561C253.919 116.561 253.404 116.351 253.014 115.932C252.624 115.513 252.429 114.912 252.429 114.129C252.429 113.623 252.513 113.18 252.68 112.8C252.848 112.421 253.103 112.136 253.446 111.946C253.789 111.756 254.162 111.661 254.565 111.661C255.074 111.661 255.491 111.79 255.814 112.048C256.138 112.305 256.345 112.671 256.437 113.144L255.664 113.264C255.591 112.949 255.46 112.712 255.274 112.553C255.087 112.394 254.861 112.315 254.596 112.315C254.196 112.315 253.871 112.458 253.621 112.745C253.37 113.032 253.245 113.486 253.245 114.107C253.245 114.736 253.366 115.194 253.607 115.479C253.849 115.765 254.163 115.908 254.552 115.908C254.864 115.908 255.124 115.812 255.333 115.621C255.542 115.429 255.675 115.135 255.73 114.738Z"/>
<path d="M260.25 115.877C259.956 116.127 259.673 116.303 259.401 116.406C259.129 116.509 258.836 116.561 258.525 116.561C258.01 116.561 257.614 116.435 257.337 116.184C257.061 115.932 256.922 115.61 256.922 115.219C256.922 114.99 256.974 114.78 257.079 114.59C257.183 114.4 257.32 114.248 257.489 114.133C257.659 114.018 257.849 113.932 258.061 113.873C258.217 113.832 258.452 113.792 258.767 113.754C259.409 113.677 259.881 113.586 260.184 113.48C260.187 113.371 260.189 113.302 260.189 113.272C260.189 112.949 260.114 112.721 259.964 112.588C259.761 112.409 259.459 112.319 259.059 112.319C258.685 112.319 258.409 112.385 258.231 112.515C258.053 112.646 257.921 112.878 257.836 113.211L257.059 113.105C257.13 112.772 257.246 112.504 257.408 112.299C257.57 112.095 257.804 111.937 258.11 111.827C258.416 111.717 258.77 111.661 259.173 111.661C259.574 111.661 259.899 111.708 260.149 111.803C260.399 111.897 260.583 112.015 260.701 112.158C260.818 112.301 260.901 112.481 260.948 112.699C260.974 112.834 260.988 113.078 260.988 113.431L260.988 114.491C260.988 115.229 261.005 115.697 261.038 115.892C261.072 116.088 261.139 116.275 261.239 116.455L260.409 116.455C260.327 116.29 260.274 116.097 260.25 115.877ZM260.184 114.102C259.896 114.22 259.463 114.32 258.887 114.402C258.56 114.45 258.329 114.503 258.194 114.561C258.058 114.62 257.954 114.706 257.88 114.82C257.807 114.933 257.77 115.059 257.77 115.197C257.77 115.409 257.85 115.585 258.01 115.727C258.171 115.868 258.405 115.939 258.714 115.939C259.02 115.939 259.293 115.872 259.531 115.738C259.769 115.604 259.944 115.421 260.056 115.188C260.142 115.009 260.184 114.744 260.184 114.394L260.184 114.102Z"/>
<path d="M262.21 116.455L262.21 111.767L262.925 111.767L262.925 112.478C263.108 112.145 263.276 111.926 263.431 111.82C263.585 111.714 263.755 111.661 263.941 111.661C264.208 111.661 264.481 111.747 264.757 111.917L264.484 112.654C264.289 112.54 264.095 112.482 263.901 112.482C263.727 112.482 263.571 112.535 263.433 112.639C263.295 112.744 263.196 112.888 263.137 113.074C263.049 113.356 263.005 113.665 263.005 114.001L263.005 116.455L262.21 116.455Z"/>
<path d="M266.964 115.744L267.079 116.446C266.855 116.493 266.655 116.517 266.479 116.517C266.19 116.517 265.967 116.471 265.808 116.38C265.649 116.289 265.537 116.169 265.472 116.02C265.408 115.872 265.375 115.559 265.375 115.082L265.375 112.385L264.793 112.385L264.793 111.767L265.375 111.767L265.375 110.606L266.165 110.13L266.165 111.767L266.964 111.767L266.964 112.385L266.165 112.385L266.165 115.126C266.165 115.353 266.179 115.499 266.207 115.563C266.235 115.628 266.281 115.68 266.344 115.718C266.407 115.756 266.498 115.775 266.616 115.775C266.704 115.775 266.82 115.765 266.964 115.744Z"/>
</g>
<g fill="#ffffff" opacity="1" stroke="none" vectornator:layerName="text">
<path d="M352.948 88.109L352.948 81.638L355.389 81.638C355.818 81.638 356.147 81.6586 356.373 81.6998C356.691 81.7528 356.957 81.8535 357.172 82.0021C357.387 82.1508 357.56 82.3589 357.691 82.6267C357.822 82.8945 357.887 83.1888 357.887 83.5095C357.887 84.0598 357.712 84.5255 357.362 84.9066C357.012 85.2877 356.379 85.4782 355.464 85.4782L353.804 85.4782L353.804 88.109L352.948 88.109ZM353.804 84.7146L355.477 84.7146C356.03 84.7146 356.423 84.6116 356.656 84.4056C356.888 84.1996 357.004 83.9098 357.004 83.536C357.004 83.2653 356.936 83.0336 356.799 82.8408C356.662 82.6481 356.482 82.5208 356.258 82.459C356.114 82.4207 355.848 82.4016 355.459 82.4016L353.804 82.4016L353.804 84.7146Z"/>
<path d="M358.867 88.109L358.867 83.4213L359.582 83.4213L359.582 84.1319C359.765 83.7994 359.933 83.5802 360.088 83.4742C360.242 83.3683 360.412 83.3153 360.597 83.3153C360.865 83.3153 361.137 83.4007 361.414 83.5713L361.14 84.3085C360.946 84.1937 360.752 84.1363 360.558 84.1363C360.384 84.1363 360.228 84.1886 360.09 84.293C359.951 84.3975 359.853 84.5424 359.794 84.7278C359.706 85.0103 359.662 85.3193 359.662 85.6548L359.662 88.109L358.867 88.109Z"/>
<path d="M361.591 85.7651C361.591 84.897 361.832 84.2541 362.314 83.8362C362.718 83.4889 363.209 83.3153 363.789 83.3153C364.433 83.3153 364.96 83.5265 365.369 83.9487C365.778 84.371 365.983 84.9544 365.983 85.6989C365.983 86.3022 365.892 86.7767 365.711 87.1225C365.53 87.4682 365.267 87.7367 364.921 87.928C364.575 88.1193 364.198 88.2149 363.789 88.2149C363.133 88.2149 362.602 88.0045 362.197 87.5837C361.793 87.1629 361.591 86.5567 361.591 85.7651ZM362.407 85.7651C362.407 86.3654 362.538 86.8149 362.8 87.1136C363.062 87.4123 363.391 87.5617 363.789 87.5617C364.183 87.5617 364.511 87.4116 364.773 87.1114C365.035 86.8113 365.166 86.3537 365.166 85.7386C365.166 85.1589 365.034 84.7197 364.771 84.4211C364.507 84.1224 364.18 83.973 363.789 83.973C363.391 83.973 363.062 84.1216 362.8 84.4188C362.538 84.7161 362.407 85.1648 362.407 85.7651Z"/>
<path d="M369.973 86.3919L370.754 86.4935C370.669 87.032 370.45 87.4535 370.099 87.7581C369.747 88.0627 369.315 88.2149 368.803 88.2149C368.162 88.2149 367.646 88.0053 367.256 87.5859C366.866 87.1666 366.671 86.5656 366.671 85.7828C366.671 85.2766 366.755 84.8338 366.923 84.4542C367.09 84.0745 367.346 83.7898 367.689 83.6C368.031 83.4102 368.404 83.3153 368.808 83.3153C369.317 83.3153 369.733 83.4441 370.057 83.7016C370.38 83.959 370.588 84.3247 370.679 84.7985L369.907 84.9176C369.833 84.6028 369.703 84.3659 369.516 84.207C369.329 84.0481 369.103 83.9686 368.838 83.9686C368.438 83.9686 368.113 84.1121 367.863 84.399C367.613 84.6859 367.488 85.1398 367.488 85.7607C367.488 86.3905 367.608 86.8481 367.85 87.1335C368.091 87.4189 368.406 87.5617 368.794 87.5617C369.106 87.5617 369.367 87.466 369.576 87.2747C369.784 87.0835 369.917 86.7892 369.973 86.3919Z"/>
<path d="M374.643 86.5994L375.464 86.7009C375.334 87.1806 375.095 87.5528 374.744 87.8177C374.394 88.0825 373.947 88.2149 373.403 88.2149C372.717 88.2149 372.173 88.0038 371.772 87.5815C371.37 87.1592 371.169 86.567 371.169 85.8049C371.169 85.0162 371.372 84.4041 371.778 83.9686C372.184 83.5331 372.711 83.3153 373.358 83.3153C373.985 83.3153 374.497 83.5287 374.895 83.9554C375.292 84.3821 375.49 84.9824 375.49 85.7563C375.49 85.8034 375.489 85.874 375.486 85.9682L371.99 85.9682C372.019 86.4832 372.165 86.8775 372.427 87.1511C372.689 87.4248 373.016 87.5617 373.407 87.5617C373.698 87.5617 373.947 87.4851 374.153 87.3321C374.359 87.1791 374.522 86.9349 374.643 86.5994ZM372.034 85.3149L374.652 85.3149C374.616 84.9206 374.516 84.6248 374.352 84.4277C374.099 84.1216 373.77 83.9686 373.367 83.9686C373.002 83.9686 372.696 84.0907 372.447 84.335C372.198 84.5792 372.061 84.9059 372.034 85.3149Z"/>
<path d="M376.144 86.7097L376.929 86.5861C376.974 86.901 377.096 87.1423 377.298 87.3101C377.5 87.4778 377.781 87.5617 378.143 87.5617C378.508 87.5617 378.779 87.4874 378.955 87.3387C379.132 87.1901 379.22 87.0158 379.22 86.8157C379.22 86.6362 379.142 86.4949 378.986 86.3919C378.877 86.3213 378.607 86.2316 378.174 86.1227C377.591 85.9755 377.188 85.8483 376.962 85.7409C376.737 85.6334 376.567 85.4848 376.45 85.295C376.334 85.1052 376.276 84.8956 376.276 84.666C376.276 84.4571 376.324 84.2636 376.42 84.0856C376.515 83.9075 376.645 83.7597 376.81 83.642C376.934 83.5507 377.102 83.4735 377.316 83.4102C377.529 83.347 377.758 83.3153 378.002 83.3153C378.37 83.3153 378.693 83.3683 378.971 83.4742C379.249 83.5802 379.454 83.7236 379.587 83.9046C379.719 84.0856 379.81 84.3276 379.86 84.6307L379.083 84.7367C379.048 84.4954 378.946 84.307 378.777 84.1717C378.607 84.0363 378.368 83.9686 378.059 83.9686C377.694 83.9686 377.434 84.0289 377.278 84.1496C377.122 84.2702 377.044 84.4115 377.044 84.5733C377.044 84.6763 377.077 84.769 377.141 84.8514C377.206 84.9368 377.308 85.0074 377.446 85.0633C377.525 85.0927 377.759 85.1604 378.148 85.2663C378.71 85.4164 379.102 85.5393 379.324 85.6349C379.546 85.7306 379.721 85.8696 379.847 86.052C379.974 86.2345 380.037 86.4611 380.037 86.7318C380.037 86.9967 379.96 87.2461 379.805 87.48C379.651 87.7139 379.428 87.8949 379.136 88.0229C378.845 88.1509 378.516 88.2149 378.148 88.2149C377.539 88.2149 377.074 88.0884 376.755 87.8353C376.436 87.5823 376.232 87.2071 376.144 86.7097Z"/>
<path d="M380.664 86.7097L381.449 86.5861C381.494 86.901 381.616 87.1423 381.818 87.3101C382.02 87.4778 382.301 87.5617 382.663 87.5617C383.028 87.5617 383.299 87.4874 383.475 87.3387C383.652 87.1901 383.74 87.0158 383.74 86.8157C383.74 86.6362 383.662 86.4949 383.506 86.3919C383.397 86.3213 383.127 86.2316 382.694 86.1227C382.111 85.9755 381.708 85.8483 381.482 85.7409C381.257 85.6334 381.087 85.4848 380.97 85.295C380.854 85.1052 380.796 84.8956 380.796 84.666C380.796 84.4571 380.844 84.2636 380.94 84.0856C381.035 83.9075 381.165 83.7597 381.33 83.642C381.454 83.5507 381.622 83.4735 381.836 83.4102C382.049 83.347 382.278 83.3153 382.522 83.3153C382.89 83.3153 383.213 83.3683 383.491 83.4742C383.769 83.5802 383.974 83.7236 384.107 83.9046C384.239 84.0856 384.33 84.3276 384.38 84.6307L383.603 84.7367C383.568 84.4954 383.466 84.307 383.297 84.1717C383.127 84.0363 382.888 83.9686 382.579 83.9686C382.214 83.9686 381.954 84.0289 381.798 84.1496C381.642 84.2702 381.564 84.4115 381.564 84.5733C381.564 84.6763 381.597 84.769 381.661 84.8514C381.726 84.9368 381.828 85.0074 381.966 85.0633C382.045 85.0927 382.279 85.1604 382.668 85.2663C383.23 85.4164 383.622 85.5393 383.844 85.6349C384.066 85.7306 384.241 85.8696 384.367 86.052C384.494 86.2345 384.557 86.4611 384.557 86.7318C384.557 86.9967 384.48 87.2461 384.325 87.48C384.171 87.7139 383.948 87.8949 383.656 88.0229C383.365 88.1509 383.036 88.2149 382.668 88.2149C382.059 88.2149 381.594 88.0884 381.275 87.8353C380.956 87.5823 380.752 87.2071 380.664 86.7097Z"/>
<path d="M388.013 89.9055L388.013 83.4213L388.737 83.4213L388.737 84.0304C388.908 83.792 389.1 83.6133 389.315 83.4941C389.53 83.3749 389.79 83.3153 390.097 83.3153C390.497 83.3153 390.85 83.4183 391.156 83.6243C391.462 83.8303 391.693 84.1209 391.849 84.4961C392.005 84.8713 392.083 85.2825 392.083 85.7298C392.083 86.2095 391.997 86.6413 391.825 87.0253C391.652 87.4094 391.402 87.7036 391.074 87.9082C390.746 88.1127 390.401 88.2149 390.039 88.2149C389.774 88.2149 389.537 88.159 389.326 88.0472C389.116 87.9354 388.943 87.7941 388.808 87.6235L388.808 89.9055L388.013 89.9055ZM388.733 85.7916C388.733 86.3949 388.855 86.8407 389.099 87.1291C389.343 87.4175 389.639 87.5617 389.986 87.5617C390.339 87.5617 390.642 87.4123 390.893 87.1136C391.145 86.8149 391.271 86.3522 391.271 85.7254C391.271 85.128 391.148 84.6807 390.902 84.3835C390.656 84.0863 390.363 83.9377 390.021 83.9377C389.683 83.9377 389.384 84.0959 389.123 84.4122C388.863 84.7286 388.733 85.1884 388.733 85.7916Z"/>
<path d="M396.1 87.5308C395.805 87.7809 395.522 87.9575 395.25 88.0604C394.978 88.1634 394.686 88.2149 394.374 88.2149C393.859 88.2149 393.463 88.0891 393.186 87.8375C392.91 87.5859 392.771 87.2644 392.771 86.8731C392.771 86.6435 392.824 86.4339 392.928 86.2441C393.033 86.0543 393.169 85.902 393.339 85.7872C393.508 85.6724 393.698 85.5856 393.91 85.5268C394.066 85.4856 394.302 85.4459 394.617 85.4076C395.258 85.3311 395.73 85.2399 396.033 85.1339C396.036 85.025 396.038 84.9559 396.038 84.9265C396.038 84.6028 395.963 84.3747 395.813 84.2423C395.61 84.0628 395.308 83.973 394.908 83.973C394.534 83.973 394.258 84.0385 394.08 84.1695C393.902 84.3004 393.771 84.5321 393.685 84.8647L392.908 84.7587C392.979 84.4262 393.095 84.1577 393.257 83.9532C393.419 83.7486 393.653 83.5912 393.959 83.4809C394.265 83.3705 394.619 83.3153 395.023 83.3153C395.423 83.3153 395.748 83.3624 395.998 83.4566C396.248 83.5507 396.432 83.6692 396.55 83.8119C396.668 83.9546 396.75 84.1349 396.797 84.3526C396.824 84.488 396.837 84.7322 396.837 85.0854L396.837 86.1447C396.837 86.8834 396.854 87.3505 396.888 87.5462C396.921 87.7419 396.988 87.9295 397.088 88.109L396.259 88.109C396.176 87.9442 396.123 87.7515 396.1 87.5308ZM396.033 85.7563C395.745 85.874 395.312 85.9741 394.736 86.0565C394.409 86.1035 394.178 86.1565 394.043 86.2154C393.907 86.2742 393.803 86.3603 393.729 86.4736C393.656 86.5869 393.619 86.7127 393.619 86.851C393.619 87.0629 393.699 87.2394 393.86 87.3807C394.02 87.5219 394.255 87.5926 394.564 87.5926C394.87 87.5926 395.142 87.5256 395.38 87.3917C395.619 87.2578 395.794 87.0746 395.905 86.8422C395.991 86.6627 396.033 86.3978 396.033 86.0476L396.033 85.7563Z"/>
<path d="M398.033 89.9144L397.945 89.1684C398.118 89.2155 398.27 89.239 398.399 89.239C398.576 89.239 398.717 89.2096 398.823 89.1507C398.929 89.0919 399.016 89.0095 399.084 88.9035C399.134 88.8241 399.215 88.6269 399.326 88.312C399.341 88.2679 399.365 88.2032 399.397 88.1178L397.618 83.4213L398.474 83.4213L399.45 86.1359C399.576 86.4802 399.69 86.8422 399.79 87.2218C399.881 86.8569 399.99 86.5008 400.116 86.1536L401.118 83.4213L401.913 83.4213L400.13 88.1885C399.938 88.7034 399.79 89.058 399.684 89.2522C399.543 89.5141 399.381 89.7062 399.198 89.8283C399.016 89.9504 398.798 90.0115 398.545 90.0115C398.392 90.0115 398.221 89.9791 398.033 89.9144Z"/>
<path d="M402.588 88.109L402.588 83.4213L403.299 83.4213L403.299 84.079C403.446 83.8494 403.642 83.6648 403.886 83.525C404.13 83.3852 404.408 83.3153 404.72 83.3153C405.068 83.3153 405.352 83.3874 405.574 83.5316C405.797 83.6758 405.953 83.8774 406.045 84.1363C406.415 83.589 406.898 83.3153 407.492 83.3153C407.957 83.3153 408.315 83.4441 408.565 83.7016C408.815 83.959 408.94 84.3556 408.94 84.8911L408.94 88.109L408.15 88.109L408.15 85.156C408.15 84.8382 408.124 84.6094 408.073 84.4696C408.021 84.3298 407.928 84.2173 407.793 84.1319C407.657 84.0466 407.498 84.0039 407.316 84.0039C406.986 84.0039 406.713 84.1135 406.495 84.3328C406.277 84.552 406.168 84.9029 406.168 85.3855L406.168 88.109L405.374 88.109L405.374 85.0633C405.374 84.7102 405.309 84.4453 405.179 84.2688C405.05 84.0922 404.838 84.0039 404.544 84.0039C404.32 84.0039 404.113 84.0628 403.924 84.1805C403.734 84.2982 403.596 84.4703 403.511 84.6969C403.426 84.9235 403.383 85.2502 403.383 85.6769L403.383 88.109L402.588 88.109Z"/>
<path d="M413.328 86.5994L414.149 86.7009C414.019 87.1806 413.779 87.5528 413.429 87.8177C413.079 88.0825 412.632 88.2149 412.087 88.2149C411.402 88.2149 410.858 88.0038 410.456 87.5815C410.055 87.1592 409.854 86.567 409.854 85.8049C409.854 85.0162 410.057 84.4041 410.463 83.9686C410.869 83.5331 411.396 83.3153 412.043 83.3153C412.67 83.3153 413.182 83.5287 413.579 83.9554C413.977 84.3821 414.175 84.9824 414.175 85.7563C414.175 85.8034 414.174 85.874 414.171 85.9682L410.675 85.9682C410.704 86.4832 410.85 86.8775 411.112 87.1511C411.374 87.4248 411.7 87.5617 412.092 87.5617C412.383 87.5617 412.632 87.4851 412.838 87.3321C413.044 87.1791 413.207 86.9349 413.328 86.5994ZM410.719 85.3149L413.337 85.3149C413.301 84.9206 413.201 84.6248 413.036 84.4277C412.783 84.1216 412.455 83.9686 412.052 83.9686C411.687 83.9686 411.38 84.0907 411.132 84.335C410.883 84.5792 410.746 84.9059 410.719 85.3149Z"/>
<path d="M415.146 88.109L415.146 83.4213L415.861 83.4213L415.861 84.0878C416.206 83.5728 416.703 83.3153 417.353 83.3153C417.636 83.3153 417.896 83.3661 418.132 83.4676C418.369 83.5691 418.547 83.7023 418.664 83.8671C418.782 84.0319 418.864 84.2276 418.912 84.4542C418.941 84.6013 418.956 84.8588 418.956 85.2266L418.956 88.109L418.161 88.109L418.161 85.2575C418.161 84.9338 418.13 84.6918 418.068 84.5314C418.007 84.371 417.897 84.243 417.74 84.1474C417.582 84.0517 417.398 84.0039 417.186 84.0039C416.847 84.0039 416.555 84.1113 416.309 84.3261C416.064 84.541 415.941 84.9485 415.941 85.5488L415.941 88.109L415.146 88.109Z"/>
<path d="M421.909 87.3983L422.023 88.1002C421.8 88.1473 421.6 88.1708 421.423 88.1708C421.135 88.1708 420.911 88.1252 420.752 88.034C420.593 87.9427 420.481 87.8228 420.417 87.6742C420.352 87.5256 420.32 87.2129 420.32 86.7362L420.32 84.0392L419.737 84.0392L419.737 83.4213L420.32 83.4213L420.32 82.2604L421.11 81.7836L421.11 83.4213L421.909 83.4213L421.909 84.0392L421.11 84.0392L421.11 86.7804C421.11 87.007 421.124 87.1526 421.152 87.2174C421.18 87.2821 421.225 87.3336 421.289 87.3719C421.352 87.4101 421.442 87.4292 421.56 87.4292C421.648 87.4292 421.764 87.4189 421.909 87.3983Z"/>
</g>
</g>
</svg>
