<?xml version="1.0" encoding="UTF-8" standalone="no"?>
<!DOCTYPE svg PUBLIC "-//W3C//DTD SVG 1.1//EN" "http://www.w3.org/Graphics/SVG/1.1/DTD/svg11.dtd">
<!-- Created with Vectornator (http://vectornator.io/) -->
<svg height="100%" stroke-miterlimit="10" style="fill-rule:nonzero;clip-rule:evenodd;stroke-linecap:round;stroke-linejoin:round;" version="1.1" viewBox="0 0 800 400" width="100%" xml:space="preserve" xmlns="http://www.w3.org/2000/svg" xmlns:vectornator="http://vectornator.io" xmlns:xlink="http://www.w3.org/1999/xlink">
<defs>
<linearGradient gradientTransform="matrix(86.428 0 0 30.577 252.781 18.9016)" gradientUnits="userSpaceOnUse" id="LinearGradient" x1="0" x2="1" y1="0" y2="0">
<stop offset="0" stop-color="#204051"/>
</linearGradient>
<linearGradient gradientTransform="matrix(86.428 0 0 30.577 357.201 18.7185)" gradientUnits="userSpaceOnUse" id="LinearGradient_2" x1="0" x2="1" y1="0" y2="0">
<stop offset="0" stop-color="#204051"/>
</linearGradient>
<linearGradient gradientTransform="matrix(86.428 0 0 30.577 460.791 18.0665)" gradientUnits="userSpaceOnUse" id="LinearGradient_3" x1="0" x2="1" y1="0" y2="0">
<stop offset="0" stop-color="#204051"/>
</linearGradient>
</defs>
<g id="Untitled" vectornator:layerName="Untitled">
<g opacity="1" vectornator:layerName="g">
<path d="M252.781 18.9016L339.209 18.9016L339.209 18.9016L339.209 49.4786L339.209 49.4786L252.781 49.4786L252.781 49.4786L252.781 18.9016L252.781 18.9016Z" fill="url(#LinearGradient)" fill-rule="nonzero" opacity="1" stroke="#000000" stroke-linecap="butt" stroke-linejoin="miter" stroke-width="1" vectornator:layerName="rect"/>
<g fill="#ffffff" opacity="1" stroke="none" vectornator:layerName="text">
<path d="M268.379 37.8556L266.616 31.2128L267.518 31.2128L268.529 35.5673C268.637 36.0235 268.731 36.4766 268.809 36.9267C268.979 36.2168 269.078 35.8075 269.109 35.6987L270.373 31.2128L271.433 31.2128L272.385 34.575C272.623 35.4087 272.795 36.1926 272.901 36.9267C272.986 36.5068 273.096 36.025 273.232 35.4812L274.274 31.2128L275.158 31.2128L273.336 37.8556L272.489 37.8556L271.089 32.7942C270.971 32.3713 270.901 32.1115 270.88 32.0148C270.811 32.3199 270.746 32.5797 270.685 32.7942L269.276 37.8556L268.379 37.8556Z"/>
<path d="M279 36.3059L279.843 36.4101C279.71 36.9025 279.464 37.2847 279.104 37.5566C278.745 37.8284 278.286 37.9644 277.727 37.9644C277.023 37.9644 276.465 37.7476 276.053 37.3141C275.64 36.8806 275.434 36.2727 275.434 35.4903C275.434 34.6807 275.643 34.0524 276.059 33.6053C276.476 33.1582 277.017 32.9347 277.682 32.9347C278.325 32.9347 278.851 33.1537 279.259 33.5917C279.666 34.0297 279.87 34.646 279.87 35.4405C279.87 35.4888 279.869 35.5613 279.866 35.658L276.277 35.658C276.307 36.1866 276.457 36.5914 276.726 36.8723C276.994 37.1533 277.33 37.2937 277.732 37.2937C278.031 37.2937 278.286 37.2152 278.497 37.0581C278.709 36.901 278.876 36.6503 279 36.3059ZM276.322 34.9873L279.009 34.9873C278.973 34.5825 278.87 34.2789 278.701 34.0766C278.441 33.7624 278.105 33.6053 277.691 33.6053C277.316 33.6053 277.001 33.7307 276.746 33.9814C276.491 34.2321 276.349 34.5674 276.322 34.9873Z"/>
<path d="M281.619 37.8556L280.863 37.8556L280.863 31.2128L281.678 31.2128L281.678 33.5826C282.023 33.1507 282.462 32.9347 282.997 32.9347C283.293 32.9347 283.573 32.9943 283.837 33.1137C284.102 33.233 284.319 33.4006 284.49 33.6166C284.661 33.8326 284.794 34.0932 284.891 34.3983C284.988 34.7034 285.036 35.0296 285.036 35.377C285.036 36.2017 284.832 36.8391 284.424 37.2892C284.016 37.7393 283.527 37.9644 282.956 37.9644C282.388 37.9644 281.943 37.7272 281.619 37.253L281.619 37.8556ZM281.61 35.4133C281.61 35.9903 281.689 36.4071 281.846 36.6639C282.103 37.0838 282.45 37.2937 282.888 37.2937C283.245 37.2937 283.553 37.1389 283.812 36.8293C284.072 36.5197 284.202 36.0582 284.202 35.445C284.202 34.8167 284.078 34.353 283.828 34.0539C283.579 33.7548 283.278 33.6053 282.924 33.6053C282.568 33.6053 282.26 33.7601 282 34.0698C281.74 34.3794 281.61 34.8272 281.61 35.4133Z"/>
<path d="M287.469 37.8556L290.02 31.2128L290.967 31.2128L293.686 37.8556L292.685 37.8556L291.91 35.8437L289.132 35.8437L288.403 37.8556L287.469 37.8556ZM289.386 35.1278L291.638 35.1278L290.945 33.2881C290.733 32.7293 290.576 32.2701 290.473 31.9106C290.389 32.3366 290.269 32.7595 290.115 33.1794L289.386 35.1278Z"/>
<path d="M294.388 37.8556L294.388 31.2128L296.894 31.2128C297.335 31.2128 297.672 31.2339 297.905 31.2762C298.231 31.3306 298.504 31.4341 298.725 31.5866C298.945 31.7392 299.123 31.9529 299.257 32.2278C299.392 32.5027 299.459 32.8048 299.459 33.1341C299.459 33.6989 299.279 34.177 298.92 34.5682C298.56 34.9594 297.911 35.155 296.971 35.155L295.267 35.155L295.267 37.8556L294.388 37.8556ZM295.267 34.3711L296.985 34.3711C297.553 34.3711 297.956 34.2654 298.195 34.0539C298.433 33.8424 298.553 33.5449 298.553 33.1612C298.553 32.8833 298.482 32.6454 298.342 32.4476C298.201 32.2497 298.016 32.1191 297.787 32.0556C297.639 32.0163 297.365 31.9967 296.967 31.9967L295.267 31.9967L295.267 34.3711Z"/>
<path d="M300.728 37.8556L300.728 31.2128L301.607 31.2128L301.607 37.8556L300.728 37.8556Z"/>
<path d="M308.771 36.093L309.573 36.1972C309.485 36.75 309.261 37.1827 308.9 37.4954C308.539 37.808 308.095 37.9644 307.57 37.9644C306.911 37.9644 306.382 37.7491 305.982 37.3187C305.581 36.8882 305.381 36.2712 305.381 35.4676C305.381 34.9481 305.467 34.4934 305.639 34.1037C305.812 33.7141 306.074 33.4218 306.426 33.2269C306.778 33.0321 307.16 32.9347 307.574 32.9347C308.097 32.9347 308.524 33.0668 308.857 33.3312C309.189 33.5955 309.402 33.9708 309.496 34.4572L308.703 34.5795C308.627 34.2563 308.493 34.0131 308.302 33.85C308.11 33.6869 307.878 33.6053 307.606 33.6053C307.195 33.6053 306.861 33.7526 306.605 34.0471C306.348 34.3416 306.219 34.8076 306.219 35.445C306.219 36.0914 306.343 36.5612 306.591 36.8542C306.839 37.1472 307.162 37.2937 307.561 37.2937C307.881 37.2937 308.148 37.1956 308.363 36.9992C308.577 36.8029 308.713 36.5008 308.771 36.093Z"/>
<path d="M310.252 37.8556L310.252 31.2128L311.068 31.2128L311.068 37.8556L310.252 37.8556Z"/>
<path d="M312.337 32.1508L312.337 31.2128L313.152 31.2128L313.152 32.1508L312.337 32.1508ZM312.337 37.8556L312.337 33.0434L313.152 33.0434L313.152 37.8556L312.337 37.8556Z"/>
<path d="M317.688 36.3059L318.531 36.4101C318.398 36.9025 318.152 37.2847 317.792 37.5566C317.433 37.8284 316.974 37.9644 316.415 37.9644C315.711 37.9644 315.153 37.7476 314.74 37.3141C314.328 36.8806 314.122 36.2727 314.122 35.4903C314.122 34.6807 314.33 34.0524 314.747 33.6053C315.164 33.1582 315.705 32.9347 316.369 32.9347C317.013 32.9347 317.539 33.1537 317.946 33.5917C318.354 34.0297 318.558 34.646 318.558 35.4405C318.558 35.4888 318.557 35.5613 318.554 35.658L314.965 35.658C314.995 36.1866 315.145 36.5914 315.413 36.8723C315.682 37.1533 316.018 37.2937 316.419 37.2937C316.718 37.2937 316.974 37.2152 317.185 37.0581C317.397 36.901 317.564 36.6503 317.688 36.3059ZM315.01 34.9873L317.697 34.9873C317.661 34.5825 317.558 34.2789 317.389 34.0766C317.129 33.7624 316.792 33.6053 316.379 33.6053C316.004 33.6053 315.689 33.7307 315.434 33.9814C315.179 34.2321 315.037 34.5674 315.01 34.9873Z"/>
<path d="M319.555 37.8556L319.555 33.0434L320.289 33.0434L320.289 33.7276C320.642 33.199 321.153 32.9347 321.821 32.9347C322.111 32.9347 322.377 32.9868 322.62 33.091C322.864 33.1952 323.046 33.3319 323.166 33.5011C323.287 33.6703 323.372 33.8711 323.42 34.1037C323.45 34.2548 323.465 34.5191 323.465 34.8967L323.465 37.8556L322.65 37.8556L322.65 34.9284C322.65 34.5961 322.618 34.3477 322.555 34.183C322.491 34.0184 322.379 33.887 322.217 33.7888C322.055 33.6906 321.866 33.6416 321.648 33.6416C321.301 33.6416 321.001 33.7518 320.749 33.9723C320.497 34.1929 320.371 34.6112 320.371 35.2275L320.371 37.8556L319.555 37.8556Z"/>
<path d="M326.497 37.1261L326.615 37.8466C326.385 37.8949 326.18 37.9191 325.998 37.9191C325.702 37.9191 325.473 37.8722 325.31 37.7786C325.147 37.6849 325.032 37.5618 324.965 37.4093C324.899 37.2567 324.866 36.9358 324.866 36.4464L324.866 33.6778L324.267 33.6778L324.267 33.0434L324.866 33.0434L324.866 31.8517L325.677 31.3623L325.677 33.0434L326.497 33.0434L326.497 33.6778L325.677 33.6778L325.677 36.4917C325.677 36.7243 325.691 36.8738 325.72 36.9403C325.748 37.0068 325.795 37.0596 325.86 37.0989C325.925 37.1382 326.018 37.1578 326.139 37.1578C326.229 37.1578 326.349 37.1472 326.497 37.1261Z"/>
</g>
</g>
<g opacity="1" vectornator:layerName="g">
<path d="M357.201 18.7185L443.629 18.7185L443.629 18.7185L443.629 49.2955L443.629 49.2955L357.201 49.2955L357.201 49.2955L357.201 18.7185L357.201 18.7185Z" fill="url(#LinearGradient_2)" fill-rule="nonzero" opacity="1" stroke="#000000" stroke-linecap="butt" stroke-linejoin="miter" stroke-width="1" vectornator:layerName="rect"/>
<g fill="#ffffff" opacity="1" stroke="none" vectornator:layerName="text">
<path d="M365.904 37.0911L364.142 30.4482L365.044 30.4482L366.054 34.8028C366.163 35.2589 366.256 35.712 366.335 36.1621C366.504 35.4523 366.604 35.0429 366.634 34.9342L367.898 30.4482L368.959 30.4482L369.91 33.8104C370.149 34.6442 370.321 35.4281 370.427 36.1621C370.511 35.7423 370.622 35.2604 370.757 34.7167L371.8 30.4482L372.683 30.4482L370.862 37.0911L370.014 37.0911L368.614 32.0296C368.496 31.6067 368.427 31.3469 368.406 31.2503C368.336 31.5554 368.271 31.8152 368.211 32.0296L366.802 37.0911L365.904 37.0911Z"/>
<path d="M376.526 35.5414L377.369 35.6456C377.236 36.138 376.989 36.5201 376.63 36.792C376.27 37.0639 375.811 37.1998 375.252 37.1998C374.549 37.1998 373.99 36.9831 373.578 36.5496C373.166 36.1161 372.96 35.5081 372.96 34.7257C372.96 33.9162 373.168 33.2878 373.585 32.8407C374.002 32.3937 374.543 32.1701 375.207 32.1701C375.851 32.1701 376.376 32.3891 376.784 32.8271C377.192 33.2652 377.396 33.8814 377.396 34.6759C377.396 34.7242 377.394 34.7967 377.391 34.8934L373.802 34.8934C373.833 35.422 373.982 35.8268 374.251 36.1078C374.52 36.3887 374.855 36.5292 375.257 36.5292C375.556 36.5292 375.811 36.4506 376.023 36.2936C376.234 36.1365 376.402 35.8857 376.526 35.5414ZM373.848 34.2228L376.535 34.2228C376.499 33.818 376.396 33.5144 376.227 33.312C375.967 32.9978 375.63 32.8407 375.216 32.8407C374.842 32.8407 374.527 32.9661 374.271 33.2168C374.016 33.4676 373.875 33.8029 373.848 34.2228Z"/>
<path d="M379.145 37.0911L378.388 37.0911L378.388 30.4482L379.204 30.4482L379.204 32.8181C379.548 32.3861 379.988 32.1701 380.522 32.1701C380.818 32.1701 381.099 32.2298 381.363 32.3491C381.627 32.4684 381.845 32.6361 382.015 32.8521C382.186 33.0681 382.32 33.3286 382.416 33.6337C382.513 33.9388 382.561 34.2651 382.561 34.6125C382.561 35.4371 382.357 36.0745 381.95 36.5246C381.542 36.9748 381.052 37.1998 380.482 37.1998C379.914 37.1998 379.468 36.9627 379.145 36.4884L379.145 37.0911ZM379.136 34.6487C379.136 35.2257 379.214 35.6426 379.371 35.8993C379.628 36.3192 379.976 36.5292 380.414 36.5292C380.77 36.5292 381.078 36.3744 381.338 36.0647C381.598 35.7551 381.728 35.2937 381.728 34.6804C381.728 34.0521 381.603 33.5884 381.354 33.2893C381.105 32.9903 380.803 32.8407 380.45 32.8407C380.093 32.8407 379.785 32.9956 379.525 33.3052C379.266 33.6148 379.136 34.0627 379.136 34.6487Z"/>
<path d="M384.995 37.0911L387.546 30.4482L388.493 30.4482L391.212 37.0911L390.21 37.0911L389.435 35.0792L386.658 35.0792L385.928 37.0911L384.995 37.0911ZM386.911 34.3632L389.163 34.3632L388.47 32.5236C388.259 31.9647 388.102 31.5055 387.999 31.1461C387.914 31.572 387.795 31.9949 387.641 32.4148L386.911 34.3632Z"/>
<path d="M391.914 37.0911L391.914 30.4482L394.42 30.4482C394.861 30.4482 395.198 30.4694 395.43 30.5117C395.756 30.5661 396.03 30.6695 396.25 30.8221C396.471 30.9746 396.648 31.1883 396.783 31.4632C396.917 31.7381 396.984 32.0402 396.984 32.3695C396.984 32.9344 396.805 33.4124 396.445 33.8036C396.086 34.1948 395.436 34.3904 394.497 34.3904L392.793 34.3904L392.793 37.0911L391.914 37.0911ZM392.793 33.6065L394.51 33.6065C395.078 33.6065 395.481 33.5008 395.72 33.2893C395.959 33.0779 396.078 32.7803 396.078 32.3967C396.078 32.1188 396.008 31.8809 395.867 31.683C395.727 31.4851 395.542 31.3545 395.312 31.2911C395.164 31.2518 394.891 31.2321 394.492 31.2321L392.793 31.2321L392.793 33.6065Z"/>
<path d="M398.253 37.0911L398.253 30.4482L399.132 30.4482L399.132 37.0911L398.253 37.0911Z"/>
<path d="M406.45 35.5414L407.293 35.6456C407.16 36.138 406.914 36.5201 406.554 36.792C406.195 37.0639 405.736 37.1998 405.177 37.1998C404.473 37.1998 403.915 36.9831 403.503 36.5496C403.09 36.1161 402.884 35.5081 402.884 34.7257C402.884 33.9162 403.092 33.2878 403.509 32.8407C403.926 32.3937 404.467 32.1701 405.132 32.1701C405.775 32.1701 406.301 32.3891 406.708 32.8271C407.116 33.2652 407.32 33.8814 407.32 34.6759C407.32 34.7242 407.319 34.7967 407.316 34.8934L403.727 34.8934C403.757 35.422 403.907 35.8268 404.175 36.1078C404.444 36.3887 404.78 36.5292 405.181 36.5292C405.48 36.5292 405.736 36.4506 405.947 36.2936C406.159 36.1365 406.326 35.8857 406.45 35.5414ZM403.772 34.2228L406.459 34.2228C406.423 33.818 406.32 33.5144 406.151 33.312C405.891 32.9978 405.554 32.8407 405.141 32.8407C404.766 32.8407 404.451 32.9661 404.196 33.2168C403.941 33.4676 403.799 33.8029 403.772 34.2228Z"/>
<path d="M408.317 37.0911L408.317 32.2789L409.051 32.2789L409.051 32.9631C409.404 32.4344 409.915 32.1701 410.583 32.1701C410.873 32.1701 411.139 32.2222 411.382 32.3264C411.626 32.4307 411.808 32.5674 411.928 32.7365C412.049 32.9057 412.134 33.1066 412.182 33.3392C412.212 33.4902 412.227 33.7545 412.227 34.1321L412.227 37.0911L411.412 37.0911L411.412 34.1639C411.412 33.8316 411.38 33.5831 411.317 33.4185C411.253 33.2538 411.141 33.1224 410.979 33.0243C410.817 32.9261 410.628 32.877 410.41 32.877C410.063 32.877 409.763 32.9873 409.511 33.2078C409.259 33.4283 409.133 33.8467 409.133 34.4629L409.133 37.0911L408.317 37.0911Z"/>
<path d="M416.6 37.0911L416.6 36.4839C416.295 36.9612 415.846 37.1998 415.254 37.1998C414.871 37.1998 414.518 37.0941 414.196 36.8826C413.875 36.6712 413.625 36.3759 413.449 35.9968C413.272 35.6176 413.184 35.1819 413.184 34.6895C413.184 34.2092 413.264 33.7734 413.424 33.3822C413.584 32.991 413.824 32.6912 414.144 32.4828C414.464 32.2743 414.822 32.1701 415.218 32.1701C415.508 32.1701 415.766 32.2313 415.993 32.3536C416.219 32.476 416.404 32.6353 416.546 32.8317L416.546 30.4482L417.357 30.4482L417.357 37.0911L416.6 37.0911ZM414.022 34.6895C414.022 35.3057 414.152 35.7664 414.412 36.0715C414.671 36.3766 414.978 36.5292 415.331 36.5292C415.688 36.5292 415.991 36.3834 416.24 36.0919C416.489 35.8004 416.614 35.3556 416.614 34.7575C416.614 34.0989 416.487 33.6156 416.233 33.3075C415.979 32.9993 415.667 32.8453 415.295 32.8453C414.933 32.8453 414.63 32.9933 414.387 33.2893C414.143 33.5854 414.022 34.0521 414.022 34.6895Z"/>
<path d="M418.639 38.9353L418.639 32.2789L419.382 32.2789L419.382 32.9042C419.558 32.6595 419.755 32.476 419.976 32.3536C420.196 32.2313 420.464 32.1701 420.778 32.1701C421.189 32.1701 421.551 32.2758 421.865 32.4873C422.18 32.6988 422.417 32.9971 422.577 33.3822C422.737 33.7674 422.817 34.1895 422.817 34.6487C422.817 35.1411 422.729 35.5844 422.552 35.9786C422.375 36.3729 422.118 36.6749 421.782 36.8849C421.445 37.0948 421.091 37.1998 420.719 37.1998C420.447 37.1998 420.203 37.1424 419.987 37.0276C419.771 36.9128 419.594 36.7678 419.455 36.5926L419.455 38.9353L418.639 38.9353ZM419.378 34.7121C419.378 35.3314 419.503 35.7891 419.754 36.0851C420.005 36.3812 420.308 36.5292 420.665 36.5292C421.027 36.5292 421.338 36.3759 421.596 36.0693C421.854 35.7626 421.983 35.2876 421.983 34.6442C421.983 34.031 421.857 33.5718 421.605 33.2667C421.353 32.9616 421.051 32.809 420.701 32.809C420.353 32.809 420.046 32.9714 419.779 33.2961C419.511 33.6209 419.378 34.0929 419.378 34.7121Z"/>
<path d="M423.497 34.685C423.497 33.7938 423.744 33.1338 424.24 32.7048C424.654 32.3483 425.158 32.1701 425.753 32.1701C426.415 32.1701 426.956 32.3869 427.375 32.8204C427.795 33.2538 428.005 33.8527 428.005 34.617C428.005 35.2363 427.912 35.7234 427.727 36.0783C427.541 36.4333 427.27 36.7089 426.916 36.9053C426.561 37.1016 426.173 37.1998 425.753 37.1998C425.08 37.1998 424.535 36.9838 424.12 36.5518C423.704 36.1199 423.497 35.4976 423.497 34.685ZM424.335 34.685C424.335 35.3012 424.469 35.7626 424.738 36.0693C425.007 36.3759 425.345 36.5292 425.753 36.5292C426.158 36.5292 426.495 36.3751 426.764 36.067C427.033 35.7589 427.167 35.2891 427.167 34.6578C427.167 34.0627 427.032 33.6118 426.761 33.3052C426.491 32.9986 426.155 32.8453 425.753 32.8453C425.345 32.8453 425.007 32.9978 424.738 33.3029C424.469 33.608 424.335 34.0687 424.335 34.685Z"/>
<path d="M428.966 31.3862L428.966 30.4482L429.782 30.4482L429.782 31.3862L428.966 31.3862ZM428.966 37.0911L428.966 32.2789L429.782 32.2789L429.782 37.0911L428.966 37.0911Z"/>
<path d="M431.023 37.0911L431.023 32.2789L431.757 32.2789L431.757 32.9631C432.111 32.4344 432.621 32.1701 433.289 32.1701C433.579 32.1701 433.845 32.2222 434.088 32.3264C434.332 32.4307 434.514 32.5674 434.634 32.7365C434.755 32.9057 434.84 33.1066 434.888 33.3392C434.918 33.4902 434.934 33.7545 434.934 34.1321L434.934 37.0911L434.118 37.0911L434.118 34.1639C434.118 33.8316 434.086 33.5831 434.023 33.4185C433.959 33.2538 433.847 33.1224 433.685 33.0243C433.524 32.9261 433.334 32.877 433.117 32.877C432.769 32.877 432.469 32.9873 432.217 33.2078C431.965 33.4283 431.839 33.8467 431.839 34.4629L431.839 37.0911L431.023 37.0911Z"/>
<path d="M437.965 36.3615L438.083 37.082C437.853 37.1303 437.648 37.1545 437.467 37.1545C437.17 37.1545 436.941 37.1077 436.778 37.014C436.615 36.9204 436.5 36.7973 436.433 36.6447C436.367 36.4922 436.334 36.1712 436.334 35.6818L436.334 32.9132L435.736 32.9132L435.736 32.2789L436.334 32.2789L436.334 31.0871L437.145 30.5978L437.145 32.2789L437.965 32.2789L437.965 32.9132L437.145 32.9132L437.145 35.7271C437.145 35.9598 437.159 36.1093 437.188 36.1757C437.217 36.2422 437.263 36.2951 437.328 36.3343C437.393 36.3736 437.486 36.3932 437.607 36.3932C437.698 36.3932 437.817 36.3827 437.965 36.3615Z"/>
</g>
</g>
<path d="M296.38 50.1795L296.568 381.934" fill="#d8d8d8" fill-rule="nonzero" opacity="1" stroke="#000000" stroke-linecap="butt" stroke-linejoin="miter" stroke-width="1" vectornator:layerName="line"/>
<path d="M402.171 50.9005L400.008 377.575" fill="#d8d8d8" fill-rule="nonzero" opacity="1" stroke="#000000" stroke-linecap="butt" stroke-linejoin="miter" stroke-width="1" vectornator:layerName="line"/>
<path d="M289.93 65.4995L302.556 65.4995L302.556 65.4995L302.556 373.163L302.556 373.163L289.93 373.163L289.93 373.163L289.93 65.4995L289.93 65.4995Z" fill="#d8d8d8" fill-rule="nonzero" opacity="1" stroke="#000000" stroke-linecap="butt" stroke-linejoin="miter" stroke-width="1" vectornator:layerName="rect"/>
<path d="M396.008 101.803L408.634 101.803L408.634 101.803L408.634 124.413L408.634 124.413L396.008 124.413L396.008 124.413L396.008 101.803L396.008 101.803Z" fill="#d8d8d8" fill-rule="nonzero" opacity="1" stroke="#000000" stroke-linecap="butt" stroke-linejoin="miter" stroke-width="1" vectornator:layerName="rect"/>
<path d="M301.455 70.6565L392.681 103.442" fill="#d8d8d8" fill-rule="nonzero" opacity="1" stroke="#000000" stroke-linecap="butt" stroke-linejoin="miter" stroke-width="1" vectornator:layerName="line"/>
<path d="M396.03 121.443L305.419 154.244" fill="#d8d8d8" fill-rule="nonzero" opacity="1" stroke="#000000" stroke-linecap="butt" stroke-linejoin="miter" stroke-width="1" vectornator:layerName="line"/>
<path d="M381.682 94.4864L395.204 104.574L379.847 108.857" fill="#d8d8d8" fill-opacity="0" fill-rule="nonzero" opacity="1" stroke="#000000" stroke-linecap="butt" stroke-linejoin="miter" stroke-width="1" vectornator:layerName="polyline"/>
<path d="M314.943 144.413L302.379 155.672L318.058 158.561" fill="#d8d8d8" fill-opacity="0" fill-rule="nonzero" opacity="1" stroke="#000000" stroke-linecap="butt" stroke-linejoin="miter" stroke-width="1" vectornator:layerName="polyline"/>
<path d="M302.913 163.19L495.112 203.932" fill="#d8d8d8" fill-rule="nonzero" opacity="1" stroke="#000000" stroke-linecap="butt" stroke-linejoin="miter" stroke-width="1" vectornator:layerName="line"/>
<path d="M496.883 222.057L303.446 265.169" fill="#d8d8d8" fill-rule="nonzero" opacity="1" stroke="#000000" stroke-linecap="butt" stroke-linejoin="miter" stroke-width="1" vectornator:layerName="line"/>
<path d="M314.665 254.667L302.101 265.926L317.78 268.815" fill="#d8d8d8" fill-opacity="0" fill-rule="nonzero" opacity="1" stroke="#000000" stroke-linecap="butt" stroke-linejoin="miter" stroke-width="1" vectornator:layerName="polyline"/>
<path d="M395.422 304.102L408.048 304.102L408.048 304.102L408.048 326.712L408.048 326.712L395.422 326.712L395.422 326.712L395.422 304.102L395.422 304.102Z" fill="#d8d8d8" fill-rule="nonzero" opacity="1" stroke="#000000" stroke-linecap="butt" stroke-linejoin="miter" stroke-width="1" vectornator:layerName="rect"/>
<path d="M302.773 274.37L391.949 306.724" fill="#d8d8d8" fill-rule="nonzero" opacity="1" stroke="#000000" stroke-linecap="butt" stroke-linejoin="miter" stroke-width="1" vectornator:layerName="line"/>
<path d="M395.501 323.237L306.107 352.613" fill="#d8d8d8" fill-rule="nonzero" opacity="1" stroke="#000000" stroke-linecap="butt" stroke-linejoin="miter" stroke-width="1" vectornator:layerName="line"/>
<path d="M381.096 296.785L394.618 306.873L379.261 311.156" fill="#d8d8d8" fill-opacity="0" fill-rule="nonzero" opacity="1" stroke="#000000" stroke-linecap="butt" stroke-linejoin="miter" stroke-width="1" vectornator:layerName="polyline"/>
<path d="M315.239 342.265L302.675 353.524L318.354 356.413" fill="#d8d8d8" fill-opacity="0" fill-rule="nonzero" opacity="1" stroke="#000000" stroke-linecap="butt" stroke-linejoin="miter" stroke-width="1" vectornator:layerName="polyline"/>
<g opacity="1" vectornator:layerName="g">
<path d="M460.791 18.0665L547.219 18.0665L547.219 18.0665L547.219 48.6435L547.219 48.6435L460.791 48.6435L460.791 48.6435L460.791 18.0665L460.791 18.0665Z" fill="url(#LinearGradient_3)" fill-rule="nonzero" opacity="1" stroke="#000000" stroke-linecap="butt" stroke-linejoin="miter" stroke-width="1" vectornator:layerName="rect"/>
<g fill="#ffffff" opacity="1" stroke="none" vectornator:layerName="text">
<path d="M469.494 37.0911L467.731 30.4482L468.633 30.4482L469.643 34.8028C469.752 35.2589 469.846 35.712 469.924 36.1621C470.094 35.4523 470.193 35.0429 470.223 34.9342L471.488 30.4482L472.548 30.4482L473.5 33.8104C473.738 34.6442 473.91 35.4281 474.016 36.1621C474.101 35.7423 474.211 35.2604 474.347 34.7167L475.389 30.4482L476.273 30.4482L474.451 37.0911L473.604 37.0911L472.204 32.0296C472.086 31.6067 472.016 31.3469 471.995 31.2503C471.926 31.5554 471.861 31.8152 471.8 32.0296L470.391 37.0911L469.494 37.0911Z"/>
<path d="M480.115 35.5414L480.958 35.6456C480.825 36.138 480.579 36.5201 480.219 36.792C479.86 37.0639 479.401 37.1998 478.842 37.1998C478.138 37.1998 477.58 36.9831 477.168 36.5496C476.755 36.1161 476.549 35.5081 476.549 34.7257C476.549 33.9162 476.758 33.2878 477.174 32.8407C477.591 32.3937 478.132 32.1701 478.797 32.1701C479.44 32.1701 479.966 32.3891 480.373 32.8271C480.781 33.2652 480.985 33.8814 480.985 34.6759C480.985 34.7242 480.984 34.7967 480.981 34.8934L477.392 34.8934C477.422 35.422 477.572 35.8268 477.841 36.1078C478.109 36.3887 478.445 36.5292 478.846 36.5292C479.146 36.5292 479.401 36.4506 479.612 36.2936C479.824 36.1365 479.991 35.8857 480.115 35.5414ZM477.437 34.2228L480.124 34.2228C480.088 33.818 479.985 33.5144 479.816 33.312C479.556 32.9978 479.22 32.8407 478.806 32.8407C478.431 32.8407 478.116 32.9661 477.861 33.2168C477.606 33.4676 477.464 33.8029 477.437 34.2228Z"/>
<path d="M482.734 37.0911L481.978 37.0911L481.978 30.4482L482.793 30.4482L482.793 32.8181C483.138 32.3861 483.577 32.1701 484.112 32.1701C484.408 32.1701 484.688 32.2298 484.952 32.3491C485.217 32.4684 485.434 32.6361 485.605 32.8521C485.775 33.0681 485.909 33.3286 486.006 33.6337C486.103 33.9388 486.151 34.2651 486.151 34.6125C486.151 35.4371 485.947 36.0745 485.539 36.5246C485.131 36.9748 484.642 37.1998 484.071 37.1998C483.503 37.1998 483.058 36.9627 482.734 36.4884L482.734 37.0911ZM482.725 34.6487C482.725 35.2257 482.804 35.6426 482.961 35.8993C483.218 36.3192 483.565 36.5292 484.003 36.5292C484.359 36.5292 484.668 36.3744 484.927 36.0647C485.187 35.7551 485.317 35.2937 485.317 34.6804C485.317 34.0521 485.192 33.5884 484.943 33.2893C484.694 32.9903 484.393 32.8407 484.039 32.8407C483.683 32.8407 483.375 32.9956 483.115 33.3052C482.855 33.6148 482.725 34.0627 482.725 34.6487Z"/>
<path d="M488.584 37.0911L491.135 30.4482L492.082 30.4482L494.801 37.0911L493.8 37.0911L493.025 35.0792L490.247 35.0792L489.518 37.0911L488.584 37.0911ZM490.501 34.3632L492.753 34.3632L492.06 32.5236C491.848 31.9647 491.691 31.5055 491.588 31.1461C491.504 31.572 491.384 31.9949 491.23 32.4148L490.501 34.3632Z"/>
<path d="M495.503 37.0911L495.503 30.4482L498.009 30.4482C498.45 30.4482 498.787 30.4694 499.02 30.5117C499.346 30.5661 499.619 30.6695 499.84 30.8221C500.06 30.9746 500.238 31.1883 500.372 31.4632C500.507 31.7381 500.574 32.0402 500.574 32.3695C500.574 32.9344 500.394 33.4124 500.035 33.8036C499.675 34.1948 499.026 34.3904 498.086 34.3904L496.382 34.3904L496.382 37.0911L495.503 37.0911ZM496.382 33.6065L498.1 33.6065C498.668 33.6065 499.071 33.5008 499.31 33.2893C499.548 33.0779 499.668 32.7803 499.668 32.3967C499.668 32.1188 499.597 31.8809 499.457 31.683C499.316 31.4851 499.131 31.3545 498.902 31.2911C498.754 31.2518 498.48 31.2321 498.082 31.2321L496.382 31.2321L496.382 33.6065Z"/>
<path d="M501.843 37.0911L501.843 30.4482L502.722 30.4482L502.722 37.0911L501.843 37.0911Z"/>
<path d="M510.04 35.5414L510.882 35.6456C510.749 36.138 510.503 36.5201 510.144 36.792C509.784 37.0639 509.325 37.1998 508.766 37.1998C508.062 37.1998 507.504 36.9831 507.092 36.5496C506.68 36.1161 506.473 35.5081 506.473 34.7257C506.473 33.9162 506.682 33.2878 507.099 32.8407C507.516 32.3937 508.056 32.1701 508.721 32.1701C509.364 32.1701 509.89 32.3891 510.298 32.8271C510.706 33.2652 510.91 33.8814 510.91 34.6759C510.91 34.7242 510.908 34.7967 510.905 34.8934L507.316 34.8934C507.347 35.422 507.496 35.8268 507.765 36.1078C508.034 36.3887 508.369 36.5292 508.771 36.5292C509.07 36.5292 509.325 36.4506 509.537 36.2936C509.748 36.1365 509.916 35.8857 510.04 35.5414ZM507.362 34.2228L510.049 34.2228C510.012 33.818 509.91 33.5144 509.741 33.312C509.481 32.9978 509.144 32.8407 508.73 32.8407C508.355 32.8407 508.041 32.9661 507.785 33.2168C507.53 33.4676 507.389 33.8029 507.362 34.2228Z"/>
<path d="M511.906 37.0911L511.906 32.2789L512.641 32.2789L512.641 32.9631C512.994 32.4344 513.504 32.1701 514.172 32.1701C514.462 32.1701 514.729 32.2222 514.972 32.3264C515.215 32.4307 515.397 32.5674 515.518 32.7365C515.639 32.9057 515.723 33.1066 515.772 33.3392C515.802 33.4902 515.817 33.7545 515.817 34.1321L515.817 37.0911L515.001 37.0911L515.001 34.1639C515.001 33.8316 514.97 33.5831 514.906 33.4185C514.843 33.2538 514.73 33.1224 514.569 33.0243C514.407 32.9261 514.217 32.877 514 32.877C513.653 32.877 513.353 32.9873 513.1 33.2078C512.848 33.4283 512.722 33.8467 512.722 34.4629L512.722 37.0911L511.906 37.0911Z"/>
<path d="M520.19 37.0911L520.19 36.4839C519.884 36.9612 519.436 37.1998 518.844 37.1998C518.46 37.1998 518.107 37.0941 517.786 36.8826C517.464 36.6712 517.215 36.3759 517.038 35.9968C516.861 35.6176 516.773 35.1819 516.773 34.6895C516.773 34.2092 516.853 33.7734 517.013 33.3822C517.173 32.991 517.413 32.6912 517.734 32.4828C518.054 32.2743 518.412 32.1701 518.808 32.1701C519.098 32.1701 519.356 32.2313 519.582 32.3536C519.809 32.476 519.993 32.6353 520.135 32.8317L520.135 30.4482L520.946 30.4482L520.946 37.0911L520.19 37.0911ZM517.611 34.6895C517.611 35.3057 517.741 35.7664 518.001 36.0715C518.261 36.3766 518.567 36.5292 518.921 36.5292C519.277 36.5292 519.58 36.3834 519.829 36.0919C520.079 35.8004 520.203 35.3556 520.203 34.7575C520.203 34.0989 520.076 33.6156 519.823 33.3075C519.569 32.9993 519.256 32.8453 518.885 32.8453C518.522 32.8453 518.219 32.9933 517.976 33.2893C517.733 33.5854 517.611 34.0521 517.611 34.6895Z"/>
<path d="M522.229 38.9353L522.229 32.2789L522.972 32.2789L522.972 32.9042C523.147 32.6595 523.345 32.476 523.565 32.3536C523.786 32.2313 524.053 32.1701 524.367 32.1701C524.778 32.1701 525.141 32.2758 525.455 32.4873C525.769 32.6988 526.006 32.9971 526.166 33.3822C526.326 33.7674 526.406 34.1895 526.406 34.6487C526.406 35.1411 526.318 35.5844 526.141 35.9786C525.965 36.3729 525.708 36.6749 525.371 36.8849C525.034 37.0948 524.68 37.1998 524.308 37.1998C524.037 37.1998 523.793 37.1424 523.577 37.0276C523.361 36.9128 523.183 36.7678 523.044 36.5926L523.044 38.9353L522.229 38.9353ZM522.967 34.7121C522.967 35.3314 523.093 35.7891 523.343 36.0851C523.594 36.3812 523.898 36.5292 524.254 36.5292C524.617 36.5292 524.927 36.3759 525.185 36.0693C525.444 35.7626 525.573 35.2876 525.573 34.6442C525.573 34.031 525.447 33.5718 525.194 33.2667C524.942 32.9616 524.641 32.809 524.29 32.809C523.943 32.809 523.636 32.9714 523.368 33.2961C523.101 33.6209 522.967 34.0929 522.967 34.7121Z"/>
<path d="M527.086 34.685C527.086 33.7938 527.334 33.1338 527.829 32.7048C528.243 32.3483 528.748 32.1701 529.343 32.1701C530.004 32.1701 530.545 32.3869 530.965 32.8204C531.385 33.2538 531.595 33.8527 531.595 34.617C531.595 35.2363 531.502 35.7234 531.316 36.0783C531.13 36.4333 530.86 36.7089 530.505 36.9053C530.15 37.1016 529.763 37.1998 529.343 37.1998C528.669 37.1998 528.125 36.9838 527.709 36.5518C527.294 36.1199 527.086 35.4976 527.086 34.685ZM527.924 34.685C527.924 35.3012 528.059 35.7626 528.328 36.0693C528.597 36.3759 528.935 36.5292 529.343 36.5292C529.748 36.5292 530.084 36.3751 530.353 36.067C530.622 35.7589 530.756 35.2891 530.756 34.6578C530.756 34.0627 530.621 33.6118 530.351 33.3052C530.081 32.9986 529.744 32.8453 529.343 32.8453C528.935 32.8453 528.597 32.9978 528.328 33.3029C528.059 33.608 527.924 34.0687 527.924 34.685Z"/>
<path d="M532.555 31.3862L532.555 30.4482L533.371 30.4482L533.371 31.3862L532.555 31.3862ZM532.555 37.0911L532.555 32.2789L533.371 32.2789L533.371 37.0911L532.555 37.0911Z"/>
<path d="M534.613 37.0911L534.613 32.2789L535.347 32.2789L535.347 32.9631C535.7 32.4344 536.211 32.1701 536.878 32.1701C537.168 32.1701 537.435 32.2222 537.678 32.3264C537.921 32.4307 538.103 32.5674 538.224 32.7365C538.345 32.9057 538.429 33.1066 538.478 33.3392C538.508 33.4902 538.523 33.7545 538.523 34.1321L538.523 37.0911L537.707 37.0911L537.707 34.1639C537.707 33.8316 537.676 33.5831 537.612 33.4185C537.549 33.2538 537.436 33.1224 537.275 33.0243C537.113 32.9261 536.923 32.877 536.706 32.877C536.359 32.877 536.059 32.9873 535.807 33.2078C535.554 33.4283 535.428 33.8467 535.428 34.4629L535.428 37.0911L534.613 37.0911Z"/>
<path d="M541.554 36.3615L541.672 37.082C541.443 37.1303 541.237 37.1545 541.056 37.1545C540.76 37.1545 540.53 37.1077 540.367 37.014C540.204 36.9204 540.089 36.7973 540.023 36.6447C539.956 36.4922 539.923 36.1712 539.923 35.6818L539.923 32.9132L539.325 32.9132L539.325 32.2789L539.923 32.2789L539.923 31.0871L540.734 30.5978L540.734 32.2789L541.554 32.2789L541.554 32.9132L540.734 32.9132L540.734 35.7271C540.734 35.9598 540.749 36.1093 540.777 36.1757C540.806 36.2422 540.853 36.2951 540.918 36.3343C540.983 36.3736 541.076 36.3932 541.196 36.3932C541.287 36.3932 541.406 36.3827 541.554 36.3615Z"/>
</g>
</g>
<path d="M505.76 50.2485L503.598 376.922" fill="#d8d8d8" fill-rule="nonzero" opacity="1" stroke="#000000" stroke-linecap="butt" stroke-linejoin="miter" stroke-width="1" vectornator:layerName="line"/>
<path d="M498.827 202.029L511.453 202.029L511.453 202.029L511.453 224.639L511.453 224.639L498.827 224.639L498.827 224.639L498.827 202.029L498.827 202.029Z" fill="#d8d8d8" fill-rule="nonzero" opacity="1" stroke="#000000" stroke-linecap="butt" stroke-linejoin="miter" stroke-width="1" vectornator:layerName="rect"/>
<path d="M484.501 194.712L498.023 204.8L482.666 209.083" fill="#d8d8d8" fill-opacity="0" fill-rule="nonzero" opacity="1" stroke="#000000" stroke-linecap="butt" stroke-linejoin="miter" stroke-width="1" vectornator:layerName="polyline"/>
<g fill="#333333" opacity="1" stroke="none" vectornator:layerName="text">
<path d="M419.454 184.906L419.454 178.264L420.356 178.264L423.845 183.479L423.845 178.264L424.688 178.264L424.688 184.906L423.786 184.906L420.297 179.686L420.297 184.906L419.454 184.906Z"/>
<path d="M429.355 183.357L430.198 183.461C430.065 183.953 429.818 184.336 429.459 184.607C429.1 184.879 428.64 185.015 428.081 185.015C427.378 185.015 426.82 184.799 426.407 184.365C425.995 183.932 425.789 183.324 425.789 182.541C425.789 181.732 425.997 181.103 426.414 180.656C426.831 180.209 427.372 179.986 428.036 179.986C428.68 179.986 429.205 180.205 429.613 180.643C430.021 181.081 430.225 181.697 430.225 182.491C430.225 182.54 430.223 182.612 430.22 182.709L426.631 182.709C426.662 183.237 426.811 183.642 427.08 183.923C427.349 184.204 427.684 184.345 428.086 184.345C428.385 184.345 428.64 184.266 428.852 184.109C429.063 183.952 429.231 183.701 429.355 183.357ZM426.677 182.038L429.364 182.038C429.328 181.633 429.225 181.33 429.056 181.127C428.796 180.813 428.459 180.656 428.045 180.656C427.671 180.656 427.356 180.782 427.1 181.032C426.845 181.283 426.704 181.618 426.677 182.038Z"/>
<path d="M430.895 183.47L431.702 183.343C431.747 183.666 431.873 183.914 432.08 184.086C432.287 184.259 432.576 184.345 432.948 184.345C433.323 184.345 433.601 184.268 433.782 184.116C433.963 183.963 434.054 183.784 434.054 183.579C434.054 183.395 433.974 183.25 433.814 183.144C433.702 183.071 433.424 182.979 432.98 182.867C432.382 182.716 431.967 182.586 431.736 182.475C431.505 182.365 431.33 182.213 431.21 182.018C431.091 181.823 431.031 181.608 431.031 181.372C431.031 181.158 431.08 180.959 431.179 180.776C431.277 180.594 431.41 180.442 431.58 180.321C431.706 180.227 431.879 180.148 432.098 180.083C432.317 180.018 432.552 179.986 432.803 179.986C433.181 179.986 433.512 180.04 433.798 180.149C434.083 180.257 434.294 180.405 434.43 180.59C434.566 180.776 434.659 181.025 434.711 181.336L433.913 181.445C433.877 181.197 433.772 181.004 433.598 180.865C433.425 180.726 433.179 180.656 432.862 180.656C432.487 180.656 432.22 180.718 432.06 180.842C431.9 180.966 431.82 181.111 431.82 181.277C431.82 181.383 431.853 181.478 431.919 181.562C431.986 181.65 432.09 181.723 432.232 181.78C432.314 181.81 432.554 181.88 432.953 181.988C433.53 182.142 433.932 182.269 434.16 182.367C434.388 182.465 434.567 182.608 434.697 182.795C434.827 182.982 434.892 183.215 434.892 183.493C434.892 183.765 434.813 184.021 434.654 184.261C434.495 184.501 434.267 184.687 433.968 184.818C433.669 184.95 433.33 185.015 432.953 185.015C432.327 185.015 431.851 184.885 431.523 184.626C431.195 184.366 430.986 183.981 430.895 183.47Z"/>
<path d="M437.642 184.177L437.76 184.897C437.531 184.946 437.325 184.97 437.144 184.97C436.848 184.97 436.618 184.923 436.455 184.829C436.292 184.736 436.177 184.613 436.111 184.46C436.044 184.308 436.011 183.987 436.011 183.497L436.011 180.729L435.413 180.729L435.413 180.094L436.011 180.094L436.011 178.903L436.822 178.413L436.822 180.094L437.642 180.094L437.642 180.729L436.822 180.729L436.822 183.543C436.822 183.775 436.837 183.925 436.865 183.991C436.894 184.058 436.941 184.111 437.006 184.15C437.071 184.189 437.164 184.209 437.284 184.209C437.375 184.209 437.494 184.198 437.642 184.177Z"/>
<path d="M441.734 183.357L442.577 183.461C442.444 183.953 442.198 184.336 441.838 184.607C441.479 184.879 441.02 185.015 440.461 185.015C439.757 185.015 439.199 184.799 438.787 184.365C438.374 183.932 438.168 183.324 438.168 182.541C438.168 181.732 438.376 181.103 438.793 180.656C439.21 180.209 439.751 179.986 440.416 179.986C441.059 179.986 441.585 180.205 441.992 180.643C442.4 181.081 442.604 181.697 442.604 182.491C442.604 182.54 442.603 182.612 442.6 182.709L439.011 182.709C439.041 183.237 439.191 183.642 439.459 183.923C439.728 184.204 440.064 184.345 440.465 184.345C440.764 184.345 441.02 184.266 441.231 184.109C441.443 183.952 441.61 183.701 441.734 183.357ZM439.056 182.038L441.743 182.038C441.707 181.633 441.604 181.33 441.435 181.127C441.175 180.813 440.838 180.656 440.425 180.656C440.05 180.656 439.735 180.782 439.48 181.032C439.225 181.283 439.083 181.618 439.056 182.038Z"/>
<path d="M446.723 184.906L446.723 184.299C446.418 184.777 445.969 185.015 445.377 185.015C444.994 185.015 444.641 184.91 444.319 184.698C443.998 184.487 443.748 184.191 443.572 183.812C443.395 183.433 443.306 182.997 443.306 182.505C443.306 182.025 443.387 181.589 443.547 181.198C443.707 180.806 443.947 180.507 444.267 180.298C444.587 180.09 444.945 179.986 445.341 179.986C445.631 179.986 445.889 180.047 446.116 180.169C446.342 180.291 446.527 180.451 446.669 180.647L446.669 178.264L447.48 178.264L447.48 184.906L446.723 184.906ZM444.145 182.505C444.145 183.121 444.275 183.582 444.534 183.887C444.794 184.192 445.101 184.345 445.454 184.345C445.811 184.345 446.114 184.199 446.363 183.907C446.612 183.616 446.737 183.171 446.737 182.573C446.737 181.914 446.61 181.431 446.356 181.123C446.102 180.815 445.79 180.661 445.418 180.661C445.056 180.661 444.753 180.809 444.51 181.105C444.266 181.401 444.145 181.868 444.145 182.505Z"/>
<path d="M454.481 183.144L455.283 183.248C455.195 183.801 454.971 184.234 454.61 184.546C454.249 184.859 453.805 185.015 453.28 185.015C452.621 185.015 452.092 184.8 451.692 184.37C451.291 183.939 451.091 183.322 451.091 182.519C451.091 181.999 451.177 181.544 451.349 181.155C451.522 180.765 451.784 180.473 452.136 180.278C452.488 180.083 452.87 179.986 453.284 179.986C453.807 179.986 454.234 180.118 454.567 180.382C454.899 180.646 455.112 181.022 455.206 181.508L454.413 181.63C454.337 181.307 454.203 181.064 454.012 180.901C453.82 180.738 453.588 180.656 453.316 180.656C452.905 180.656 452.571 180.803 452.315 181.098C452.058 181.393 451.929 181.858 451.929 182.496C451.929 183.142 452.053 183.612 452.301 183.905C452.549 184.198 452.872 184.345 453.271 184.345C453.591 184.345 453.858 184.246 454.073 184.05C454.287 183.854 454.423 183.552 454.481 183.144Z"/>
<path d="M459.121 184.313C458.818 184.57 458.528 184.751 458.248 184.857C457.969 184.962 457.669 185.015 457.349 185.015C456.82 185.015 456.414 184.886 456.13 184.628C455.846 184.37 455.704 184.04 455.704 183.638C455.704 183.402 455.758 183.187 455.865 182.992C455.972 182.797 456.113 182.641 456.286 182.523C456.46 182.405 456.656 182.316 456.873 182.256C457.033 182.213 457.275 182.173 457.598 182.133C458.257 182.055 458.741 181.961 459.053 181.852C459.056 181.741 459.057 181.67 459.057 181.639C459.057 181.307 458.98 181.073 458.826 180.937C458.618 180.753 458.308 180.661 457.897 180.661C457.513 180.661 457.23 180.728 457.048 180.862C456.865 180.997 456.73 181.235 456.642 181.576L455.844 181.467C455.917 181.126 456.036 180.85 456.202 180.64C456.369 180.43 456.609 180.269 456.923 180.155C457.237 180.042 457.601 179.986 458.015 179.986C458.426 179.986 458.76 180.034 459.016 180.131C459.273 180.227 459.462 180.349 459.583 180.495C459.704 180.642 459.788 180.827 459.836 181.05C459.864 181.189 459.877 181.44 459.877 181.803L459.877 182.89C459.877 183.648 459.895 184.128 459.929 184.329C459.964 184.53 460.033 184.722 460.136 184.906L459.284 184.906C459.199 184.737 459.145 184.539 459.121 184.313ZM459.053 182.491C458.757 182.612 458.312 182.715 457.72 182.799C457.385 182.848 457.148 182.902 457.009 182.963C456.87 183.023 456.763 183.111 456.687 183.228C456.612 183.344 456.574 183.473 456.574 183.615C456.574 183.833 456.656 184.014 456.821 184.159C456.986 184.304 457.226 184.376 457.544 184.376C457.858 184.376 458.137 184.308 458.382 184.17C458.627 184.033 458.806 183.845 458.921 183.606C459.009 183.422 459.053 183.15 459.053 182.79L459.053 182.491Z"/>
<path d="M461.123 184.906L461.123 178.264L461.939 178.264L461.939 184.906L461.123 184.906Z"/>
<path d="M463.185 184.906L463.185 178.264L464.001 178.264L464.001 184.906L463.185 184.906Z"/>
</g>
</g>
</svg>
