<?xml version="1.0" encoding="utf-8"?>
<svg viewBox="0 0 600 400" lang="en" role="figure" id="figure-1.1" xmlns="http://www.w3.org/2000/svg" xmlns:bx="https://boxy-svg.com">
  <desc>Figure for the Qworum specification v2.0</desc>
  <title>Figure 2.2</title>
  <defs>
    <linearGradient id="color-0" bx:pinned="true">
      <stop style="stop-color: #e4e3e3;"/>
    </linearGradient>
    <linearGradient id="color-1" bx:pinned="true">
      <stop style="stop-color: #84a9ac;"/>
    </linearGradient>
    <linearGradient id="color-2" bx:pinned="true">
      <stop style="stop-color: #3b6978;"/>
    </linearGradient>
    <linearGradient id="color-3" bx:pinned="true">
      <stop style="stop-color: #204051;"/>
    </linearGradient>
    <linearGradient id="comment-color-0">
      <title>Comment 0</title>
      <stop style="stop-color: #fdffbc;"/>
    </linearGradient>
  </defs>
  <g transform="matrix(1, 0, 0, 1, 19.266993, -36.909443)">
    <rect x="140.705" y="57.171" width="86.428" height="30.577" style="stroke: rgb(0, 0, 0); fill: url(#color-3);"/>
    <text style="fill: rgb(255, 255, 255); font-family: Arial, sans-serif; font-size: 11.6px; white-space: pre;" x="159.427" y="76.125">API client</text>
  </g>
  <g transform="matrix(1, 0, 0, 1, 19.266993, -36.909443)">
    <rect x="332.513" y="57.275" width="86.428" height="30.577" style="stroke: rgb(0, 0, 0); fill: url(#color-3);"/>
    <text style="fill: rgb(255, 255, 255); font-family: Arial, sans-serif; font-size: 11.6px; white-space: pre;" x="353.267" y="76.071">Web API</text>
  </g>
  <text style="white-space: pre; fill: rgb(51, 51, 51); font-family: Arial, sans-serif; font-size: 11.6px;" x="247.687" y="73.148"> </text>
  <line style="fill: rgb(216, 216, 216); stroke: rgb(0, 0, 0);" x1="203.571" y1="51.54" x2="203.759" y2="383.294"/>
  <line style="fill: rgb(216, 216, 216); stroke: rgb(0, 0, 0);" x1="394.588" y1="379.222" x2="396.75" y2="52.548" transform="matrix(-1, 0, 0, -1, 791.338013, 431.769981)"/>
  <rect x="197.121" y="66.86" width="12.626" height="307.664" style="fill: rgb(216, 216, 216); stroke: rgb(0, 0, 0);"/>
  <rect x="390.588" y="103.451" width="12.626" height="22.61" style="fill: rgb(216, 216, 216); stroke: rgb(0, 0, 0);"/>
  <line style="fill: rgb(216, 216, 216); stroke: rgb(0, 0, 0);" x1="210.321" y1="73.362" x2="390.734" y2="106.411"/>
  <line style="fill: rgb(216, 216, 216); stroke: rgb(0, 0, 0);" x1="391.199" y1="123.451" x2="210.428" y2="166.324"/>
  <polyline style="fill: rgb(216, 216, 216); stroke: rgb(0, 0, 0);" points="557.678 -73.154 572.481 -65.062 557.876 -58.668"/>
  <polyline style="fill: rgb(216, 216, 216); stroke: rgb(0, 0, 0); fill-opacity: 0;" points="375.171 97.1 389.974 105.192 375.369 111.586" transform="matrix(0.990122, 0.140211, -0.140211, 0.990122, 18.409212, -52.61011)"/>
  <polyline style="fill: rgb(216, 216, 216); stroke: rgb(0, 0, 0); fill-opacity: 0;" points="211.154 163.72 225.957 155.628 211.352 149.234" transform="matrix(-0.97357, 0.228388, -0.228388, -0.97357, 465.591244, 266.317246)" bx:origin="0.421 0.75"/>
  <text style="white-space: pre; fill: rgb(51, 51, 51); font-family: Arial, sans-serif; font-size: 11.6px;" x="246.916" y="174.026"> </text>
  <rect x="389.817" y="204.329" width="12.626" height="22.61" style="fill: rgb(216, 216, 216); stroke: rgb(0, 0, 0);"/>
  <line style="fill: rgb(216, 216, 216); stroke: rgb(0, 0, 0);" x1="209.55" y1="174.24" x2="389.963" y2="207.289"/>
  <line style="fill: rgb(216, 216, 216); stroke: rgb(0, 0, 0);" x1="390.428" y1="224.329" x2="209.657" y2="267.202"/>
  <polyline style="fill: rgb(216, 216, 216); stroke: rgb(0, 0, 0); fill-opacity: 0;" points="374.4 197.978 389.203 206.07 374.598 212.464" transform="matrix(0.990122, 0.140211, -0.140211, 0.990122, 32.545794, -51.505501)"/>
  <polyline style="fill: rgb(216, 216, 216); stroke: rgb(0, 0, 0); fill-opacity: 0;" points="210.383 264.598 225.186 256.506 210.581 250.112" transform="matrix(-0.97357, 0.228388, -0.228388, -0.97357, 487.108939, 465.583136)" bx:origin="0.421 0.75"/>
  <text style="white-space: pre; fill: rgb(51, 51, 51); font-family: Arial, sans-serif; font-size: 11.6px;" x="247.101" y="275.446"> </text>
  <text style="white-space: pre; fill: rgb(51, 51, 51); font-family: Arial, sans-serif; font-size: 11.6px;" x="258.917" y="231.797">Qworum script</text>
  <text style="white-space: pre; fill: rgb(51, 51, 51); font-family: Arial, sans-serif; font-size: 11.6px;" x="280.51" y="133.999" bx:origin="-5.593 -9.414">HTML</text>
  <rect x="445.231" y="137.963" width="136.93" height="56.988" rx="15" ry="15" style="stroke: rgb(0, 0, 0); fill: url(#comment-color-0); stroke-opacity: 0.5;"/>
  <polyline style="stroke: rgb(0, 0, 0); stroke-opacity: 0.5; fill: url(#comment-color-0);" points="337.55 196.59 447.865 174.173 337.116 181.819" transform="matrix(-1, 0, 0, -1, 784.980988, 370.763)"/>
  <polyline style="stroke: rgb(0, 0, 0); stroke-opacity: 0.5; fill: url(#comment-color-0);" points="336.297 137.125 446.378 167.325 335.865 157.025" transform="matrix(-1, 0, 0, -1, 782.242981, 304.449997)"/>
  <text style="white-space: pre; fill: rgb(51, 51, 51); font-family: Arial, sans-serif; font-size: 11.6px;" x="465.611" y="169.701" bx:origin="-5.593 -9.414">User interaction</text>
</svg>