<?xml version="1.0" encoding="utf-8"?>
<svg viewBox="0 0 75.6 75.591" xmlns="http://www.w3.org/2000/svg">
  <linearGradient id="a" gradientTransform="matrix(0, 73.256835, -73.256835, 0, 31.492547, 1.237314)" gradientUnits="userSpaceOnUse" x2="1">
    <stop offset="0" stop-color="#ff1b2d"/>
    <stop offset="0.3" stop-color="#ff1b2d"/>
    <stop offset="0.614" stop-color="#ff1b2d"/>
    <stop offset="1" stop-color="#a70014"/>
  </linearGradient>
  <linearGradient id="b" gradientTransform="matrix(0, 64.791715, -64.791715, 0, 50.470738, 5.555871)" gradientUnits="userSpaceOnUse" x2="1">
    <stop offset="0" stop-color="#9c0000"/>
    <stop offset="0.7" stop-color="#ff4b4b"/>
    <stop offset="1" stop-color="#ff4b4b"/>
  </linearGradient>
  <path d="M 37.794 0.005 C 16.921 0.005 0 16.926 0 37.799 C 0 58.068 15.957 74.61 35.994 75.549 C 36.592 75.577 37.191 75.593 37.794 75.593 C 47.471 75.593 56.295 71.955 62.982 65.975 C 58.551 68.913 53.372 70.603 47.837 70.603 C 38.836 70.603 30.776 66.139 25.355 59.098 C 21.175 54.164 18.469 46.872 18.284 38.689 L 18.284 36.909 C 18.469 28.725 21.175 21.432 25.353 16.5 C 30.775 9.459 38.836 4.994 47.836 4.994 C 53.372 4.994 58.553 6.685 62.983 9.624 C 56.33 3.672 47.558 0.041 37.936 0.006 C 37.888 0.006 37.841 0.004 37.793 0.004 L 37.794 0.005 Z" fill="url(#a)"/>
  <path d="M 25.354 16.502 C 28.822 12.408 33.301 9.939 38.195 9.939 C 49.198 9.939 58.116 22.413 58.116 37.801 C 58.116 53.188 49.197 65.663 38.195 65.663 C 33.301 65.663 28.822 63.195 25.355 59.1 C 30.776 66.141 38.836 70.606 47.837 70.606 C 53.373 70.606 58.552 68.916 62.982 65.978 C 70.718 59.057 75.589 48.998 75.589 37.801 C 75.589 26.605 70.719 16.547 62.985 9.627 C 58.554 6.687 53.373 4.997 47.837 4.997 C 38.837 4.997 30.776 9.462 25.355 16.503" fill="url(#b)"/>
</svg>