<?xml version="1.0" encoding="UTF-8" standalone="no"?>
<!DOCTYPE svg PUBLIC "-//W3C//DTD SVG 1.1//EN" "http://www.w3.org/Graphics/SVG/1.1/DTD/svg11.dtd">
<!-- Created with Vectornator (http://vectornator.io/) -->
<svg height="100%" stroke-miterlimit="10" style="fill-rule:nonzero;clip-rule:evenodd;stroke-linecap:round;stroke-linejoin:round;" version="1.1" viewBox="11.4097 55.6621 477.853 237.785" width="100%" xml:space="preserve" xmlns="http://www.w3.org/2000/svg" xmlns:vectornator="http://vectornator.io" xmlns:xlink="http://www.w3.org/1999/xlink">
<defs>
<linearGradient gradientTransform="matrix(477.853 0 0 477.853 11.4097 174.555)" gradientUnits="userSpaceOnUse" id="LinearGradient" x1="0" x2="1" y1="0" y2="0">
<stop offset="0" stop-color="#651da4"/>
</linearGradient>
<linearGradient gradientTransform="matrix(37.0041 26.9657 26.9657 -37.0041 314.106 98.8221)" gradientUnits="userSpaceOnUse" id="LinearGradient_2" x1="0" x2="1" y1="0" y2="0">
<stop offset="0" stop-color="#ca9fef"/>
<stop offset="0.2182" stop-color="#b67ce9"/>
<stop offset="0.7515" stop-color="#681daa"/>
<stop offset="1" stop-color="#481476"/>
</linearGradient>
<linearGradient gradientTransform="matrix(0 14.7886 14.7886 0 333.403 98.5526)" gradientUnits="userSpaceOnUse" id="LinearGradient_3" x1="0" x2="1" y1="0" y2="0">
<stop offset="0" stop-color="#ca9fef"/>
<stop offset="0.2182" stop-color="#b67ce9"/>
<stop offset="0.7515" stop-color="#681daa"/>
<stop offset="1" stop-color="#481476"/>
</linearGradient>
<linearGradient gradientTransform="matrix(18.5881 -0.410759 -0.410759 -18.5881 318.865 111.598)" gradientUnits="userSpaceOnUse" id="LinearGradient_4" x1="0" x2="1" y1="0" y2="0">
<stop offset="0" stop-color="#ca9fef"/>
<stop offset="0.2182" stop-color="#b67ce9"/>
<stop offset="0.7515" stop-color="#681daa"/>
<stop offset="1" stop-color="#481476"/>
</linearGradient>
<linearGradient gradientTransform="matrix(0 -18.8966 -18.8966 0 331.672 125.562)" gradientUnits="userSpaceOnUse" id="LinearGradient_5" x1="0" x2="1" y1="0" y2="0">
<stop offset="0" stop-color="#ca9fef"/>
<stop offset="0.2182" stop-color="#b67ce9"/>
<stop offset="0.7515" stop-color="#681daa"/>
<stop offset="1" stop-color="#481476"/>
</linearGradient>
<linearGradient gradientTransform="matrix(-13.8534 -0.205253 -0.205253 13.8534 346.3 112.457)" gradientUnits="userSpaceOnUse" id="LinearGradient_6" x1="0" x2="1" y1="0" y2="0">
<stop offset="0" stop-color="#ca9fef"/>
<stop offset="0.2182" stop-color="#b67ce9"/>
<stop offset="0.7515" stop-color="#681daa"/>
<stop offset="1" stop-color="#481476"/>
</linearGradient>
<linearGradient gradientTransform="matrix(14.0695 -20.2314 -20.2314 -14.0695 318.949 119.279)" gradientUnits="userSpaceOnUse" id="LinearGradient_7" x1="0" x2="1" y1="0" y2="0">
<stop offset="0" stop-color="#ca9fef"/>
<stop offset="0.2182" stop-color="#b67ce9"/>
<stop offset="0.7515" stop-color="#681daa"/>
<stop offset="1" stop-color="#481476"/>
</linearGradient>
<linearGradient gradientTransform="matrix(-18.9993 -14.0698 -14.0698 18.9993 338.579 125.559)" gradientUnits="userSpaceOnUse" id="LinearGradient_8" x1="0" x2="1" y1="0" y2="0">
<stop offset="0" stop-color="#ca9fef"/>
<stop offset="0.2182" stop-color="#b67ce9"/>
<stop offset="0.7515" stop-color="#681daa"/>
<stop offset="1" stop-color="#481476"/>
</linearGradient>
<linearGradient gradientTransform="matrix(-13.6587 19.4096 19.4096 13.6587 345.814 105.756)" gradientUnits="userSpaceOnUse" id="LinearGradient_9" x1="0" x2="1" y1="0" y2="0">
<stop offset="0" stop-color="#ca9fef"/>
<stop offset="0.2182" stop-color="#b67ce9"/>
<stop offset="0.7515" stop-color="#681daa"/>
<stop offset="1" stop-color="#481476"/>
</linearGradient>
<linearGradient gradientTransform="matrix(19.2952 14.0608 14.0608 -19.2952 326.219 98.864)" gradientUnits="userSpaceOnUse" id="LinearGradient_10" x1="0" x2="1" y1="0" y2="0">
<stop offset="0" stop-color="#ca9fef"/>
<stop offset="0.2182" stop-color="#b67ce9"/>
<stop offset="0.7515" stop-color="#681daa"/>
<stop offset="1" stop-color="#481476"/>
</linearGradient>
</defs>
<g id="Graphics" vectornator:layerName="Graphics">
<path d="M14.4097 55.6621L486.263 55.6621C487.92 55.6621 489.263 57.0053 489.263 58.6621L489.263 290.447C489.263 292.104 487.92 293.447 486.263 293.447L14.4097 293.447C12.7528 293.447 11.4097 292.104 11.4097 290.447L11.4097 58.6621C11.4097 57.0053 12.7528 55.6621 14.4097 55.6621Z" fill="url(#LinearGradient)" fill-rule="nonzero" opacity="0.651634" stroke="#000000" stroke-linecap="butt" stroke-linejoin="miter" stroke-width="0" vectornator:layerName="Background"/>
<g opacity="1" vectornator:layerName="Application layers">
<g opacity="1" vectornator:layerName="Data">
<path d="M17 218.814L483.54 218.814L483.54 218.814L483.54 288.814L483.54 288.814L17 288.814L17 288.814L17 218.814L17 218.814Z" fill="#ffffff" fill-opacity="0.13" fill-rule="nonzero" opacity="1" stroke="#606060" stroke-linecap="butt" stroke-linejoin="miter" stroke-width="1" vectornator:layerName="rect"/>
<g fill="#ffffff" opacity="1" stroke="none" vectornator:layerName="text">
<path d="M24.3097 254.421L24.3355 245.258L27.4918 245.267C28.2043 245.269 28.7479 245.314 29.1226 245.403C29.6473 245.525 30.0946 245.745 30.4645 246.063C30.9467 246.473 31.3067 246.995 31.5445 247.632C31.7823 248.268 31.9 248.994 31.8977 249.811C31.8958 250.507 31.8128 251.123 31.6488 251.66C31.4848 252.197 31.2752 252.641 31.02 252.993C30.7649 253.344 30.4859 253.62 30.1833 253.822C29.8806 254.023 29.5156 254.175 29.0883 254.278C28.6609 254.381 28.1701 254.431 27.6159 254.43L24.3097 254.421ZM25.5252 253.343L27.4815 253.348C28.0857 253.35 28.5598 253.295 28.9038 253.184C29.2479 253.072 29.5223 252.914 29.727 252.711C30.0154 252.424 30.2404 252.038 30.4022 251.553C30.564 251.068 30.6458 250.48 30.6478 249.788C30.6505 248.83 30.4953 248.093 30.1821 247.578C29.869 247.062 29.4877 246.716 29.0382 246.54C28.7135 246.414 28.1908 246.35 27.47 246.348L25.545 246.343L25.5252 253.343Z"/>
<path d="M37.7432 253.64C37.3256 253.993 36.9238 254.242 36.538 254.386C36.1522 254.531 35.7384 254.603 35.2967 254.602C34.5676 254.599 34.0077 254.42 33.617 254.062C33.2263 253.705 33.0318 253.249 33.0334 252.695C33.0343 252.37 33.1091 252.074 33.2577 251.805C33.4064 251.537 33.6008 251.322 33.8408 251.16C34.0808 250.998 34.351 250.876 34.6512 250.793C34.8722 250.736 35.2057 250.68 35.6517 250.628C36.5603 250.522 37.2294 250.394 37.659 250.246C37.6636 250.092 37.666 249.994 37.6661 249.952C37.6674 249.494 37.5621 249.17 37.3501 248.982C37.0633 248.727 36.6366 248.599 36.0699 248.597C35.5407 248.596 35.1499 248.688 34.8973 248.872C34.6447 249.057 34.4573 249.385 34.3351 249.855L33.2355 249.702C33.3369 249.231 33.5025 248.852 33.7325 248.563C33.9625 248.274 34.2944 248.052 34.7281 247.897C35.1619 247.742 35.6642 247.665 36.235 247.667C36.8017 247.668 37.2619 247.736 37.6157 247.871C37.9695 248.005 38.2294 248.173 38.3955 248.376C38.5616 248.578 38.6776 248.834 38.7434 249.142C38.7803 249.334 38.7981 249.68 38.7967 250.18L38.7925 251.68C38.7895 252.726 38.8116 253.387 38.8588 253.665C38.9059 253.942 39 254.208 39.1409 254.462L37.9659 254.459C37.8499 254.225 37.7757 253.952 37.7432 253.64ZM37.6565 251.127C37.2477 251.292 36.6348 251.432 35.8179 251.547C35.3552 251.612 35.0279 251.686 34.836 251.769C34.6441 251.852 34.4958 251.973 34.3912 252.133C34.2866 252.293 34.234 252.471 34.2334 252.667C34.2326 252.967 34.3454 253.218 34.5719 253.418C34.7985 253.619 35.1305 253.72 35.568 253.721C36.0013 253.722 36.387 253.629 36.725 253.44C37.0631 253.251 37.3117 252.993 37.471 252.664C37.5925 252.41 37.654 252.035 37.6554 251.539L37.6565 251.127Z"/>
<path d="M42.9875 253.467L43.1472 254.461C42.8303 254.527 42.5469 254.559 42.2969 254.559C41.8886 254.558 41.5721 254.492 41.3474 254.362C41.1228 254.233 40.965 254.062 40.8739 253.852C40.7828 253.641 40.7382 253.198 40.7401 252.523L40.7509 248.704L39.9259 248.702L39.9283 247.827L40.7533 247.829L40.758 246.186L41.8786 245.514L41.8721 247.833L43.0033 247.836L43.0009 248.711L41.8696 248.708L41.8587 252.589C41.8578 252.91 41.877 253.116 41.9163 253.208C41.9556 253.299 42.02 253.373 42.1095 253.427C42.1989 253.481 42.3269 253.509 42.4936 253.509C42.6186 253.51 42.7832 253.496 42.9875 253.467Z"/>
<path d="M48.4182 253.67C48.0005 254.023 47.5988 254.272 47.2129 254.416C46.8271 254.561 46.4134 254.633 45.9717 254.632C45.2425 254.63 44.6826 254.45 44.292 254.093C43.9013 253.735 43.7068 253.279 43.7083 252.725C43.7092 252.4 43.784 252.104 43.9327 251.835C44.0814 251.567 44.2757 251.352 44.5158 251.19C44.7558 251.028 45.0259 250.906 45.3262 250.824C45.5472 250.766 45.8807 250.711 46.3266 250.658C47.2353 250.552 47.9044 250.425 48.334 250.276C48.3386 250.122 48.3409 250.024 48.3411 249.982C48.3423 249.524 48.237 249.2 48.025 249.012C47.7383 248.757 47.3115 248.629 46.7449 248.628C46.2157 248.626 45.8248 248.718 45.5722 248.902C45.3196 249.087 45.1322 249.415 45.0101 249.885L43.9105 249.732C44.0118 249.261 44.1775 248.882 44.4075 248.593C44.6374 248.304 44.9693 248.082 45.4031 247.927C45.8369 247.772 46.3392 247.695 46.91 247.697C47.4767 247.698 47.9369 247.766 48.2907 247.901C48.6445 248.035 48.9044 248.203 49.0705 248.406C49.2366 248.609 49.3525 248.864 49.4183 249.173C49.4553 249.364 49.4731 249.71 49.4717 250.21L49.4674 251.71C49.4645 252.756 49.4866 253.418 49.5337 253.695C49.5809 253.972 49.6749 254.238 49.8159 254.492L48.6409 254.489C48.5249 254.255 48.4506 253.982 48.4182 253.67ZM48.3315 251.157C47.9227 251.323 47.3098 251.462 46.4928 251.577C46.0301 251.642 45.7028 251.716 45.5109 251.799C45.319 251.882 45.1708 252.003 45.0662 252.163C44.9615 252.324 44.9089 252.502 44.9084 252.697C44.9076 252.997 45.0204 253.248 45.2469 253.448C45.4734 253.649 45.8054 253.75 46.2429 253.751C46.6763 253.752 47.0619 253.659 47.4 253.47C47.738 253.281 47.9867 253.023 48.1459 252.694C48.2675 252.44 48.3289 252.065 48.3303 251.57L48.3315 251.157Z"/>
<path d="M54.7346 254.506L54.7604 245.344L55.8854 245.347L55.8596 254.509L54.7346 254.506Z"/>
<path d="M61.9369 253.708C61.5192 254.061 61.1175 254.31 60.7316 254.454C60.3458 254.599 59.9321 254.671 59.4904 254.67C58.7612 254.668 58.2013 254.488 57.8107 254.131C57.42 253.773 57.2254 253.317 57.227 252.763C57.2279 252.438 57.3027 252.142 57.4514 251.873C57.6001 251.605 57.7944 251.39 58.0345 251.228C58.2745 251.066 58.5446 250.944 58.8449 250.862C59.0659 250.804 59.3994 250.749 59.8453 250.696C60.754 250.59 61.4231 250.463 61.8527 250.314C61.8573 250.16 61.8596 250.062 61.8598 250.02C61.861 249.562 61.7557 249.239 61.5437 249.05C61.257 248.795 60.8302 248.667 60.2636 248.666C59.7344 248.664 59.3435 248.756 59.0909 248.94C58.8383 249.125 58.6509 249.453 58.5288 249.923L57.4292 249.77C57.5305 249.3 57.6962 248.92 57.9262 248.631C58.1561 248.342 58.488 248.12 58.9218 247.965C59.3556 247.81 59.8579 247.733 60.4287 247.735C60.9954 247.736 61.4556 247.804 61.8094 247.939C62.1632 248.073 62.4231 248.241 62.5892 248.444C62.7553 248.647 62.8712 248.902 62.937 249.211C62.974 249.402 62.9918 249.748 62.9904 250.248L62.9861 251.748C62.9832 252.794 63.0053 253.456 63.0524 253.733C63.0996 254.01 63.1936 254.276 63.3346 254.531L62.1596 254.527C62.0436 254.294 61.9693 254.02 61.9369 253.708ZM61.8502 251.195C61.4414 251.361 60.8285 251.501 60.0115 251.615C59.5488 251.68 59.2215 251.754 59.0296 251.837C58.8377 251.92 58.6895 252.041 58.5848 252.202C58.4802 252.362 58.4276 252.54 58.4271 252.735C58.4262 253.035 58.5391 253.286 58.7656 253.486C58.9921 253.687 59.3241 253.788 59.7616 253.789C60.195 253.79 60.5806 253.697 60.9187 253.508C61.2567 253.319 61.5054 253.061 61.6646 252.732C61.7862 252.478 61.8476 252.103 61.849 251.608L61.8502 251.195Z"/>
<path d="M64.6649 257.091L64.5428 256.034C64.7885 256.101 65.003 256.135 65.1863 256.136C65.4363 256.136 65.6364 256.095 65.7866 256.012C65.9369 255.93 66.0601 255.813 66.1564 255.663C66.2275 255.551 66.3429 255.272 66.5025 254.827C66.5235 254.765 66.5571 254.673 66.6033 254.552L64.1033 247.895L65.3157 247.899L66.6862 251.746C66.864 252.234 67.0229 252.747 67.1631 253.285C67.2937 252.769 67.4493 252.265 67.6298 251.774L69.0595 247.909L70.1845 247.912L67.6405 254.655C67.3676 255.384 67.1558 255.885 67.005 256.16C66.8039 256.53 66.574 256.801 66.3152 256.973C66.0564 257.145 65.7478 257.231 65.3895 257.23C65.1728 257.229 64.9313 257.183 64.6649 257.091Z"/>
<path d="M75.6718 252.428L76.8339 252.575C76.6486 253.253 76.3076 253.78 75.8107 254.153C75.3138 254.527 74.6799 254.712 73.9091 254.71C72.9383 254.708 72.1693 254.406 71.6023 253.807C71.0352 253.207 70.7532 252.368 70.7562 251.289C70.7594 250.172 71.0493 249.306 71.626 248.691C72.2028 248.076 72.9495 247.77 73.8661 247.773C74.7536 247.775 75.4778 248.079 76.0386 248.685C76.5994 249.291 76.8782 250.142 76.8751 251.237C76.875 251.304 76.8726 251.404 76.868 251.537L71.9181 251.523C71.9577 252.253 72.1624 252.812 72.5321 253.2C72.9018 253.589 73.3638 253.784 73.9179 253.785C74.3304 253.786 74.6828 253.679 74.9751 253.463C75.2674 253.247 75.4996 252.902 75.6718 252.428ZM71.9832 250.599L75.6894 250.609C75.641 250.051 75.5005 249.631 75.2679 249.352C74.9108 248.917 74.4469 248.699 73.876 248.698C73.3594 248.696 72.9245 248.868 72.5714 249.213C72.2184 249.558 72.0223 250.02 71.9832 250.599Z"/>
<path d="M78.2282 254.572L78.2469 247.935L79.2594 247.938L79.2566 248.944C79.5163 248.474 79.7557 248.164 79.9749 248.015C80.194 247.865 80.4349 247.791 80.6974 247.792C81.0765 247.793 81.4616 247.915 81.8526 248.158L81.4621 249.2C81.1876 249.037 80.9128 248.955 80.6378 248.954C80.392 248.954 80.171 249.027 79.9747 249.174C79.7785 249.322 79.6383 249.526 79.5542 249.789C79.4281 250.188 79.3644 250.626 79.363 251.101L79.3532 254.576L78.2282 254.572Z"/>
</g>
</g>
<g opacity="1" vectornator:layerName="Business logic">
<path d="M17 148.749L484.443 148.749L484.443 148.749L484.443 218.749L484.443 218.749L17 218.749L17 218.749L17 148.749L17 148.749Z" fill="#ffffff" fill-opacity="0.13" fill-rule="nonzero" opacity="1" stroke="#606060" stroke-linecap="butt" stroke-linejoin="miter" stroke-width="1" vectornator:layerName="rect"/>
<g fill="#ffffff" opacity="1" stroke="none" vectornator:layerName="text">
<path d="M24.281 188.319L24.2583 179.157L27.6958 179.148C28.3958 179.146 28.9575 179.238 29.3808 179.422C29.8042 179.606 30.1362 179.891 30.3767 180.276C30.6172 180.661 30.738 181.063 30.7391 181.484C30.74 181.876 30.6347 182.245 30.4231 182.591C30.2114 182.938 29.8913 183.218 29.4626 183.431C30.0172 183.592 30.4439 183.868 30.7428 184.259C31.0417 184.65 31.1918 185.112 31.1931 185.646C31.1942 186.075 31.1045 186.474 30.9242 186.843C30.7439 187.212 30.5206 187.497 30.2544 187.698C29.9883 187.899 29.6543 188.05 29.2524 188.154C28.8506 188.257 28.358 188.309 27.7747 188.31L24.281 188.319ZM25.4803 183.004L27.4616 182.999C27.9991 182.997 28.3844 182.961 28.6175 182.889C28.9256 182.797 29.1576 182.644 29.3133 182.432C29.469 182.219 29.5465 181.952 29.5457 181.631C29.5449 181.327 29.4713 181.059 29.3249 180.828C29.1785 180.597 28.9698 180.44 28.6988 180.355C28.4277 180.27 27.963 180.229 27.3047 180.23L25.4735 180.235L25.4803 183.004ZM25.4908 187.235L27.772 187.229C28.1637 187.228 28.4387 187.213 28.5969 187.183C28.876 187.133 29.1091 187.049 29.2963 186.932C29.4835 186.814 29.6373 186.644 29.7575 186.421C29.8778 186.198 29.9376 185.94 29.9369 185.649C29.936 185.307 29.8478 185.01 29.6722 184.759C29.4965 184.507 29.2534 184.331 28.9427 184.229C28.6321 184.128 28.1851 184.078 27.6017 184.08L25.483 184.085L25.4908 187.235Z"/>
<path d="M37.0747 188.287L37.0723 187.312C36.5575 188.064 35.8563 188.44 34.9688 188.443C34.5771 188.444 34.2113 188.369 33.8714 188.22C33.5314 188.071 33.2789 187.883 33.1137 187.657C32.9486 187.43 32.8323 187.152 32.7648 186.823C32.7184 186.602 32.6946 186.252 32.6934 185.773L32.6833 181.661L33.8083 181.658L33.8174 185.339C33.8188 185.927 33.8427 186.322 33.8891 186.526C33.9606 186.822 34.1112 187.054 34.3408 187.222C34.5704 187.39 34.8539 187.474 35.1914 187.473C35.5289 187.472 35.8454 187.385 36.1408 187.212C36.4362 187.038 36.645 186.802 36.7671 186.504C36.8893 186.205 36.9497 185.773 36.9483 185.206L36.9395 181.65L38.0645 181.647L38.0809 188.285L37.0747 188.287Z"/>
<path d="M39.3885 186.3L40.5006 186.123C40.5642 186.568 40.739 186.91 41.025 187.146C41.311 187.383 41.7102 187.501 42.2227 187.5C42.7394 187.498 43.1225 187.392 43.372 187.181C43.6214 186.97 43.7458 186.723 43.7451 186.44C43.7445 186.185 43.6336 185.986 43.4124 185.84C43.258 185.741 42.8743 185.615 42.2615 185.462C41.4359 185.256 40.8636 185.077 40.5445 184.926C40.2254 184.774 39.9832 184.564 39.8179 184.296C39.6527 184.028 39.5697 183.731 39.5689 183.406C39.5681 183.11 39.6352 182.836 39.7699 182.584C39.9047 182.331 40.0886 182.122 40.3215 181.954C40.4962 181.825 40.7345 181.715 41.0363 181.624C41.3382 181.534 41.662 181.488 42.0079 181.488C42.5287 181.486 42.9862 181.56 43.3803 181.709C43.7744 181.858 44.0655 182.061 44.2537 182.316C44.4418 182.572 44.5718 182.915 44.6437 183.344L43.5441 183.496C43.4932 183.155 43.3478 182.888 43.1077 182.697C42.8677 182.506 42.5289 182.411 42.0914 182.412C41.5747 182.414 41.2062 182.5 40.9858 182.671C40.7654 182.843 40.6555 183.043 40.656 183.272C40.6564 183.418 40.7025 183.549 40.7945 183.666C40.8865 183.786 41.0305 183.886 41.2265 183.965C41.3391 184.006 41.6706 184.101 42.2209 184.25C43.0173 184.46 43.5729 184.633 43.8879 184.767C44.2028 184.902 44.4501 185.098 44.6299 185.356C44.8098 185.614 44.9001 185.935 44.9011 186.318C44.902 186.693 44.7935 187.046 44.5756 187.378C44.3576 187.71 44.0427 187.967 43.6306 188.149C43.2186 188.331 42.7521 188.423 42.2313 188.425C41.3688 188.427 40.7111 188.249 40.2581 187.892C39.8051 187.535 39.5153 187.004 39.3885 186.3Z"/>
<path d="M46.2302 180.396L46.227 179.102L47.352 179.099L47.3552 180.393L46.2302 180.396ZM46.2497 188.265L46.2332 181.627L47.3582 181.624L47.3746 188.262L46.2497 188.265Z"/>
<path d="M49.0871 188.258L49.0707 181.62L50.0832 181.618L50.0855 182.561C50.5712 181.831 51.2745 181.465 52.1953 181.462C52.5953 181.461 52.9632 181.532 53.299 181.675C53.6348 181.818 53.8863 182.006 54.0535 182.239C54.2208 182.472 54.3381 182.749 54.4056 183.069C54.4477 183.278 54.4695 183.642 54.4708 184.163L54.4809 188.244L53.3559 188.247L53.3459 184.21C53.3448 183.751 53.3002 183.409 53.2121 183.182C53.124 182.955 52.9684 182.774 52.7451 182.639C52.5219 182.504 52.2602 182.437 51.9602 182.438C51.4811 182.439 51.0679 182.592 50.7208 182.897C50.3736 183.202 50.2011 183.78 50.2032 184.63L50.2121 188.255L49.0871 188.258Z"/>
<path d="M60.7443 186.091L61.9072 186.232C61.7255 186.912 61.3872 187.44 60.8923 187.816C60.3974 188.192 59.7646 188.381 58.9937 188.383C58.0229 188.385 57.2524 188.088 56.6821 187.492C56.1119 186.895 55.8255 186.058 55.8228 184.978C55.82 183.862 56.1054 182.994 56.6789 182.376C57.2523 181.758 57.9974 181.448 58.9141 181.446C59.8016 181.444 60.5273 181.744 61.0913 182.347C61.6553 182.949 61.9386 183.799 61.9414 184.895C61.9415 184.961 61.9397 185.061 61.9359 185.195L56.9859 185.207C57.0293 185.936 57.237 186.494 57.6088 186.88C57.9806 187.267 58.4435 187.459 58.9977 187.458C59.4102 187.457 59.762 187.348 60.0531 187.13C60.3443 186.913 60.5747 186.567 60.7443 186.091ZM57.0461 184.282L60.7523 184.272C60.7009 183.714 60.5582 183.296 60.3242 183.017C59.9648 182.585 59.4997 182.369 58.9289 182.371C58.4122 182.372 57.9782 182.546 57.627 182.893C57.2758 183.239 57.0821 183.702 57.0461 184.282Z"/>
<path d="M62.8697 186.242L63.9818 186.064C64.0454 186.51 64.2202 186.851 64.5062 187.088C64.7922 187.325 65.1914 187.443 65.7039 187.441C66.2206 187.44 66.6037 187.334 66.8531 187.123C67.1026 186.912 67.227 186.665 67.2263 186.381C67.2257 186.127 67.1148 185.928 66.8936 185.782C66.7392 185.683 66.3555 185.557 65.7426 185.404C64.9171 185.198 64.3448 185.019 64.0257 184.867C63.7065 184.716 63.4644 184.506 63.2991 184.238C63.1339 183.97 63.0508 183.673 63.05 183.348C63.0493 183.052 63.1163 182.778 63.2511 182.526C63.3859 182.273 63.5698 182.063 63.8027 181.896C63.9774 181.767 64.2156 181.657 64.5175 181.566C64.8194 181.476 65.1432 181.43 65.489 181.429C66.0099 181.428 66.4673 181.502 66.8615 181.651C67.2556 181.8 67.5467 182.003 67.7349 182.258C67.923 182.514 68.053 182.856 68.1249 183.285L67.0253 183.438C66.9744 183.097 66.829 182.83 66.5889 182.639C66.3489 182.448 66.0101 182.353 65.5726 182.354C65.0559 182.356 64.6874 182.442 64.467 182.613C64.2466 182.785 64.1366 182.985 64.1372 183.214C64.1376 183.36 64.1837 183.491 64.2757 183.607C64.3676 183.728 64.5116 183.828 64.7077 183.906C64.8203 183.948 65.1518 184.043 65.7021 184.191C66.4985 184.402 67.0541 184.575 67.369 184.709C67.684 184.844 67.9313 185.04 68.1111 185.298C68.2909 185.556 68.3813 185.876 68.3823 186.26C68.3832 186.635 68.2747 186.988 68.0568 187.32C67.8388 187.652 67.5238 187.909 67.1118 188.091C66.6997 188.273 66.2333 188.365 65.7125 188.366C64.85 188.369 64.1922 188.191 63.7393 187.834C63.2863 187.477 62.9964 186.946 62.8697 186.242Z"/>
<path d="M69.2697 186.226L70.3817 186.049C70.4453 186.494 70.6201 186.836 70.9062 187.072C71.1922 187.309 71.5914 187.427 72.1039 187.426C72.6206 187.424 73.0036 187.318 73.2531 187.107C73.5026 186.896 73.627 186.649 73.6263 186.366C73.6257 186.111 73.5147 185.912 73.2936 185.766C73.1391 185.667 72.7555 185.541 72.1426 185.388C71.3171 185.182 70.7448 185.003 70.4257 184.852C70.1065 184.7 69.8643 184.491 69.6991 184.222C69.5338 183.954 69.4508 183.657 69.45 183.332C69.4493 183.036 69.5163 182.762 69.6511 182.51C69.7859 182.257 69.9698 182.048 70.2027 181.88C70.3774 181.751 70.6156 181.641 70.9175 181.55C71.2193 181.46 71.5432 181.414 71.889 181.414C72.4099 181.412 72.8673 181.486 73.2615 181.635C73.6556 181.784 73.9467 181.987 74.1348 182.242C74.323 182.498 74.453 182.841 74.5249 183.27L73.4252 183.422C73.3744 183.081 73.229 182.814 72.9889 182.623C72.7488 182.432 72.4101 182.337 71.9726 182.338C71.4559 182.34 71.0874 182.426 70.8669 182.597C70.6465 182.769 70.5366 182.969 70.5372 183.198C70.5375 183.344 70.5837 183.475 70.6757 183.592C70.7676 183.712 70.9116 183.812 71.1077 183.891C71.2203 183.932 71.5517 184.027 72.1021 184.176C72.8985 184.386 73.4541 184.559 73.769 184.693C74.0839 184.828 74.3313 185.024 74.5111 185.282C74.6909 185.54 74.7813 185.861 74.7822 186.244C74.7832 186.619 74.6747 186.972 74.4567 187.304C74.2388 187.636 73.9238 187.893 73.5118 188.075C73.0997 188.258 72.6333 188.349 72.1124 188.351C71.2499 188.353 70.5922 188.175 70.1392 187.818C69.6863 187.461 69.3964 186.93 69.2697 186.226Z"/>
<path d="M79.6558 188.182L79.6331 179.019L80.7581 179.017L80.7808 188.179L79.6558 188.182Z"/>
<path d="M82.0976 184.857C82.0945 183.628 82.4339 182.717 83.1158 182.123C83.6854 181.63 84.3807 181.383 85.2015 181.381C86.114 181.378 86.8606 181.676 87.4412 182.272C88.0218 182.868 88.3135 183.694 88.3161 184.748C88.3182 185.602 88.1917 186.274 87.9367 186.765C87.6817 187.255 87.3097 187.636 86.8208 187.908C86.3319 188.18 85.7978 188.317 85.2187 188.318C84.2895 188.32 83.5377 188.024 82.9633 187.43C82.3889 186.836 82.1004 185.978 82.0976 184.857ZM83.2538 184.854C83.2559 185.704 83.4429 186.34 83.8148 186.762C84.1867 187.184 84.6539 187.395 85.2164 187.393C85.7747 187.392 86.2388 187.178 86.6085 186.752C86.9783 186.326 87.1621 185.678 87.16 184.807C87.1579 183.986 86.9699 183.365 86.596 182.943C86.222 182.521 85.758 182.311 85.2038 182.312C84.6413 182.313 84.1751 182.525 83.8054 182.947C83.4356 183.368 83.2517 184.004 83.2538 184.854Z"/>
<path d="M89.4384 188.708L90.5325 188.868C90.5792 189.205 90.7069 189.45 90.9156 189.604C91.1953 189.812 91.5768 189.915 92.0601 189.914C92.581 189.912 92.9828 189.807 93.2656 189.598C93.5484 189.389 93.7394 189.097 93.8384 188.722C93.8962 188.493 93.9221 188.011 93.9161 187.278C93.4259 187.858 92.8141 188.149 92.0808 188.151C91.1683 188.153 90.4612 187.826 89.9596 187.169C89.4579 186.512 89.206 185.723 89.2037 184.802C89.2021 184.169 89.3153 183.584 89.5431 183.048C89.771 182.512 90.1022 182.098 90.5369 181.805C90.9716 181.512 91.4827 181.365 92.0702 181.364C92.8535 181.362 93.5002 181.677 94.0101 182.309L94.0081 181.509L95.0456 181.506L95.0598 187.244C95.0623 188.277 94.9589 189.01 94.7496 189.441C94.5402 189.873 94.2078 190.215 93.7521 190.466C93.2965 190.717 92.7353 190.843 92.0687 190.845C91.277 190.847 90.637 190.67 90.1486 190.315C89.6602 189.96 89.4235 189.424 89.4384 188.708ZM90.3598 184.718C90.3619 185.589 90.5364 186.224 90.8832 186.623C91.2301 187.022 91.6639 187.221 92.1847 187.22C92.7014 187.218 93.1342 187.018 93.4832 186.62C93.8322 186.221 94.0057 185.596 94.0036 184.746C94.0016 183.934 93.8199 183.322 93.4584 182.91C93.097 182.499 92.6621 182.293 92.1538 182.295C91.6538 182.296 91.2293 182.5 90.8803 182.907C90.5313 183.314 90.3578 183.918 90.3598 184.718Z"/>
<path d="M96.7488 180.271L96.7456 178.977L97.8706 178.974L97.8738 180.268L96.7488 180.271ZM96.7683 188.14L96.7518 181.502L97.8768 181.499L97.8932 188.137L96.7683 188.14Z"/>
<path d="M103.931 185.691L105.038 185.832C104.919 186.594 104.611 187.192 104.114 187.625C103.617 188.057 103.006 188.274 102.281 188.276C101.373 188.278 100.642 187.983 100.088 187.391C99.5347 186.798 99.2566 185.948 99.2538 184.84C99.2521 184.123 99.3693 183.496 99.6054 182.958C99.8416 182.419 100.202 182.015 100.687 181.745C101.172 181.476 101.699 181.34 102.27 181.338C102.991 181.337 103.581 181.517 104.04 181.881C104.5 182.244 104.795 182.761 104.925 183.432L103.832 183.603C103.727 183.158 103.542 182.823 103.276 182.598C103.011 182.374 102.691 182.262 102.316 182.263C101.75 182.265 101.29 182.469 100.936 182.876C100.583 183.283 100.408 183.926 100.41 184.806C100.412 185.697 100.585 186.345 100.927 186.748C101.27 187.151 101.716 187.352 102.266 187.351C102.708 187.35 103.076 187.214 103.372 186.942C103.667 186.67 103.853 186.253 103.931 185.691Z"/>
<path d="M109.537 188.108L109.514 178.945L110.639 178.943L110.662 188.105L109.537 188.108Z"/>
<path d="M116.735 187.271C116.319 187.627 115.919 187.878 115.534 188.024C115.149 188.171 114.735 188.245 114.294 188.246C113.564 188.248 113.004 188.071 112.611 187.716C112.218 187.361 112.021 186.906 112.02 186.352C112.019 186.027 112.093 185.73 112.24 185.461C112.387 185.192 112.58 184.975 112.819 184.812C113.059 184.649 113.328 184.526 113.628 184.442C113.849 184.383 114.182 184.326 114.627 184.27C115.536 184.16 116.204 184.029 116.633 183.878C116.637 183.724 116.638 183.626 116.638 183.584C116.637 183.126 116.53 182.803 116.317 182.616C116.029 182.363 115.602 182.237 115.035 182.238C114.506 182.239 114.115 182.333 113.864 182.519C113.612 182.705 113.426 183.034 113.307 183.505L112.206 183.358C112.305 182.887 112.469 182.506 112.697 182.216C112.926 181.926 113.257 181.702 113.689 181.545C114.122 181.387 114.624 181.308 115.195 181.306C115.762 181.305 116.222 181.371 116.577 181.503C116.931 181.635 117.192 181.803 117.359 182.004C117.527 182.206 117.644 182.461 117.711 182.769C117.749 182.961 117.769 183.306 117.77 183.806L117.774 185.306C117.776 186.352 117.802 187.014 117.851 187.29C117.899 187.567 117.995 187.833 118.137 188.087L116.962 188.09C116.845 187.857 116.769 187.584 116.735 187.271ZM116.635 184.759C116.227 184.927 115.615 185.07 114.799 185.189C114.336 185.256 114.009 185.332 113.818 185.416C113.626 185.5 113.479 185.622 113.375 185.783C113.271 185.943 113.22 186.122 113.22 186.318C113.221 186.618 113.335 186.867 113.563 187.067C113.79 187.266 114.123 187.365 114.56 187.364C114.993 187.363 115.379 187.267 115.716 187.077C116.053 186.887 116.3 186.627 116.458 186.297C116.578 186.043 116.637 185.667 116.636 185.172L116.635 184.759Z"/>
<path d="M119.481 190.64L119.353 189.584C119.599 189.65 119.814 189.683 119.997 189.682C120.247 189.681 120.447 189.639 120.597 189.556C120.747 189.472 120.869 189.355 120.965 189.205C121.035 189.092 121.149 188.813 121.306 188.366C121.327 188.304 121.36 188.212 121.406 188.091L118.871 181.447L120.083 181.444L121.474 185.285C121.654 185.772 121.816 186.284 121.959 186.821C122.087 186.304 122.24 185.799 122.418 185.307L123.827 181.435L124.952 181.432L122.443 188.189C122.174 188.918 121.965 189.421 121.816 189.696C121.617 190.068 121.388 190.34 121.13 190.514C120.873 190.687 120.564 190.774 120.206 190.775C119.989 190.776 119.748 190.731 119.481 190.64Z"/>
<path d="M130.463 185.919L131.626 186.06C131.444 186.739 131.106 187.267 130.611 187.643C130.116 188.02 129.483 188.209 128.712 188.21C127.741 188.213 126.971 187.916 126.401 187.319C125.83 186.723 125.544 185.885 125.541 184.806C125.539 183.689 125.824 182.822 126.397 182.204C126.971 181.586 127.716 181.275 128.633 181.273C129.52 181.271 130.246 181.571 130.81 182.174C131.374 182.777 131.657 183.626 131.66 184.722C131.66 184.789 131.658 184.889 131.654 185.022L126.704 185.034C126.748 185.763 126.956 186.321 127.327 186.708C127.699 187.094 128.162 187.287 128.716 187.285C129.129 187.284 129.481 187.175 129.772 186.958C130.063 186.74 130.293 186.394 130.463 185.919ZM126.765 184.109L130.471 184.1C130.419 183.542 130.277 183.123 130.043 182.845C129.683 182.412 129.218 182.197 128.647 182.198C128.131 182.199 127.697 182.373 127.346 182.72C126.994 183.067 126.801 183.53 126.765 184.109Z"/>
<path d="M133.031 188.05L133.014 181.412L134.027 181.41L134.029 182.416C134.286 181.945 134.524 181.634 134.743 181.483C134.961 181.332 135.201 181.257 135.464 181.256C135.843 181.255 136.229 181.375 136.621 181.616L136.236 182.661C135.961 182.499 135.685 182.418 135.41 182.419C135.165 182.419 134.944 182.494 134.749 182.642C134.553 182.791 134.414 182.996 134.331 183.259C134.207 183.659 134.146 184.097 134.147 184.572L134.156 188.047L133.031 188.05Z"/>
</g>
</g>
<g opacity="1" vectornator:layerName="UI">
<path d="M17 78.5414L485.157 78.5414L485.157 78.5414L485.157 148.541L485.157 148.541L17 148.541L17 148.541L17 78.5414L17 78.5414Z" fill="#ffffff" fill-opacity="0.13" fill-rule="nonzero" opacity="1" stroke="#606060" stroke-linecap="butt" stroke-linejoin="miter" stroke-width="1" vectornator:layerName="rect"/>
<g fill="#ffffff" opacity="1" stroke="none" vectornator:layerName="text">
<path d="M30.3156 111.401L31.5281 111.4L31.5316 116.694C31.5322 117.614 31.4285 118.346 31.2205 118.888C31.0126 119.429 30.6368 119.87 30.0933 120.21C29.5497 120.55 28.8363 120.72 27.953 120.721C27.0946 120.721 26.3925 120.574 25.8464 120.279C25.3004 119.983 24.9105 119.555 24.6768 118.995C24.4431 118.435 24.326 117.669 24.3253 116.698L24.3219 111.405L25.5344 111.404L25.5378 116.691C25.5384 117.487 25.6127 118.073 25.7609 118.45C25.909 118.827 26.1634 119.118 26.5239 119.322C26.8845 119.526 27.3252 119.628 27.846 119.627C28.7377 119.627 29.373 119.424 29.7519 119.02C30.1308 118.615 30.3198 117.838 30.3191 116.688L30.3156 111.401Z"/>
<path d="M33.7591 120.561L33.7531 111.398L34.9656 111.398L34.9716 120.56L33.7591 120.561Z"/>
<path d="M40.4966 120.556L40.4906 111.394L41.6156 111.393L41.6216 120.556L40.4966 120.556Z"/>
<path d="M47.6961 119.733C47.2797 120.087 46.8788 120.338 46.4935 120.484C46.1081 120.63 45.6946 120.703 45.253 120.703C44.5238 120.704 43.9633 120.526 43.5714 120.17C43.1795 119.814 42.9833 119.359 42.983 118.805C42.9828 118.48 43.0565 118.183 43.2043 117.914C43.352 117.645 43.5456 117.429 43.7851 117.267C44.0246 117.104 44.2943 116.981 44.5942 116.898C44.815 116.839 45.1483 116.783 45.5941 116.728C46.5024 116.619 47.171 116.49 47.6001 116.339C47.6042 116.185 47.6062 116.087 47.6062 116.046C47.6059 115.587 47.4994 115.264 47.2868 115.077C46.9991 114.823 46.572 114.696 46.0053 114.697C45.4761 114.697 45.0856 114.79 44.8336 114.975C44.5816 115.161 44.3954 115.489 44.2749 115.96L43.1748 115.811C43.2745 115.34 43.4388 114.96 43.6678 114.67C43.8967 114.38 44.2279 114.157 44.6611 114.001C45.0943 113.844 45.5963 113.766 46.1672 113.765C46.7338 113.765 47.1943 113.831 47.5486 113.964C47.9028 114.097 48.1633 114.265 48.3301 114.467C48.4969 114.669 48.6138 114.924 48.6806 115.232C48.7183 115.424 48.7372 115.77 48.7376 116.27L48.7386 117.77C48.7392 118.816 48.7636 119.477 48.8117 119.754C48.8598 120.031 48.9548 120.297 49.0966 120.551L47.9216 120.552C47.8048 120.318 47.7296 120.045 47.6961 119.733ZM47.6007 117.221C47.1925 117.387 46.5801 117.53 45.7635 117.647C45.301 117.714 44.974 117.789 44.7824 117.872C44.5908 117.956 44.4429 118.078 44.3389 118.238C44.2348 118.399 44.1828 118.577 44.183 118.773C44.1832 119.073 44.2969 119.323 44.5241 119.523C44.7513 119.722 45.0836 119.822 45.5211 119.822C45.9545 119.822 46.3398 119.727 46.6772 119.537C47.0146 119.347 47.2623 119.087 47.4205 118.758C47.5411 118.504 47.6013 118.129 47.601 117.633L47.6007 117.221Z"/>
<path d="M50.4358 123.106L50.3101 122.05C50.556 122.117 50.7706 122.15 50.9539 122.15C51.2039 122.149 51.4039 122.108 51.5538 122.024C51.7038 121.941 51.8266 121.824 51.9224 121.674C51.9931 121.561 52.1075 121.282 52.2656 120.836C52.2864 120.774 52.3196 120.682 52.3654 120.561L49.8423 113.913L51.0548 113.912L52.4385 117.755C52.618 118.242 52.7788 118.755 52.9208 119.292C53.0496 118.775 53.2035 118.271 53.3823 117.779L54.7985 113.91L55.9235 113.909L53.4029 120.66C53.1326 121.39 52.9225 121.892 52.7727 122.167C52.5729 122.538 52.3439 122.81 52.0857 122.983C51.8275 123.156 51.5192 123.243 51.1609 123.243C50.9442 123.243 50.7025 123.198 50.4358 123.106Z"/>
<path d="M61.4265 118.405L62.5891 118.548C62.4062 119.228 62.0669 119.755 61.5714 120.13C61.0758 120.505 60.4426 120.693 59.6717 120.694C58.7009 120.695 57.9309 120.396 57.3618 119.799C56.7926 119.201 56.5077 118.363 56.507 117.283C56.5063 116.167 56.7932 115.3 57.3678 114.683C57.9424 114.066 58.688 113.757 59.6047 113.756C60.4922 113.756 61.2174 114.057 61.7803 114.661C62.3432 115.265 62.625 116.115 62.6257 117.211C62.6257 117.277 62.6237 117.377 62.6196 117.511L57.6696 117.514C57.7118 118.243 57.9184 118.801 58.2895 119.189C58.6606 119.576 59.1232 119.769 59.6774 119.769C60.0899 119.769 60.4419 119.66 60.7334 119.443C61.0249 119.226 61.256 118.88 61.4265 118.405ZM57.7315 116.589L61.4378 116.586C61.3874 116.028 61.2455 115.61 61.012 115.331C60.6533 114.897 60.1886 114.681 59.6178 114.681C59.1011 114.682 58.6669 114.855 58.315 115.201C57.9631 115.547 57.7687 116.01 57.7315 116.589Z"/>
<path d="M63.9904 120.541L63.986 113.904L64.9985 113.903L64.9992 114.909C65.2572 114.438 65.4955 114.128 65.7142 113.977C65.9329 113.827 66.1734 113.752 66.4359 113.752C66.8151 113.752 67.2006 113.872 67.5924 114.114L67.2056 115.158C66.9305 114.995 66.6554 114.914 66.3804 114.914C66.1346 114.915 65.9138 114.989 65.7181 115.137C65.5223 115.285 65.3829 115.49 65.2997 115.753C65.175 116.153 65.1128 116.59 65.1131 117.065L65.1154 120.54L63.9904 120.541Z"/>
</g>
</g>
</g>
<g opacity="1" vectornator:layerName="API protocols">
<g opacity="1" vectornator:layerName="Data protocols">
<path d="M89.9792 218.213L191.734 218.213L191.734 218.213L191.734 288.814L191.734 288.814L89.9792 288.814L89.9792 288.814L89.9792 218.213L89.9792 218.213Z" fill="#c4c4c4" fill-rule="nonzero" opacity="1" stroke="#808080" stroke-linecap="butt" stroke-linejoin="miter" stroke-width="1" vectornator:layerName="rect"/>
<g fill="#474747" opacity="1" stroke="none" vectornator:layerName="tspan">
<path d="M126.09 243.051L126.09 234.461L129.74 234.461C130.658 234.461 131.325 234.538 131.741 234.693C132.157 234.847 132.49 235.121 132.74 235.516C132.99 235.91 133.115 236.362 133.115 236.869C133.115 237.514 132.926 238.046 132.547 238.466C132.168 238.886 131.602 239.151 130.848 239.26C131.223 239.479 131.532 239.719 131.776 239.981C132.021 240.243 132.35 240.707 132.764 241.375L133.813 243.051L131.738 243.051L130.484 241.182C130.039 240.514 129.734 240.093 129.57 239.919C129.406 239.745 129.232 239.626 129.049 239.562C128.865 239.497 128.574 239.465 128.176 239.465L127.824 239.465L127.824 243.051L126.09 243.051ZM127.824 238.094L129.107 238.094C129.94 238.094 130.459 238.059 130.666 237.989C130.873 237.918 131.035 237.797 131.152 237.625C131.27 237.453 131.328 237.239 131.328 236.981C131.328 236.692 131.251 236.458 131.097 236.281C130.942 236.103 130.725 235.991 130.443 235.944C130.303 235.924 129.881 235.914 129.178 235.914L127.824 235.914L127.824 238.094Z"/>
<path d="M134.75 243.051L134.75 234.461L141.119 234.461L141.119 235.914L136.484 235.914L136.484 237.819L140.797 237.819L140.797 239.266L136.484 239.266L136.484 241.604L141.283 241.604L141.283 243.051L134.75 243.051Z"/>
<path d="M142.315 240.256L144.002 240.092C144.104 240.659 144.31 241.075 144.62 241.34C144.931 241.606 145.35 241.739 145.877 241.739C146.436 241.739 146.857 241.62 147.14 241.384C147.423 241.148 147.565 240.871 147.565 240.555C147.565 240.352 147.505 240.179 147.386 240.036C147.267 239.894 147.059 239.77 146.762 239.664C146.559 239.594 146.096 239.469 145.373 239.289C144.443 239.059 143.791 238.776 143.416 238.44C142.889 237.967 142.625 237.391 142.625 236.711C142.625 236.274 142.749 235.865 142.997 235.484C143.245 235.103 143.603 234.813 144.069 234.614C144.536 234.414 145.1 234.315 145.76 234.315C146.838 234.315 147.649 234.551 148.194 235.024C148.739 235.496 149.025 236.127 149.053 236.916L147.318 236.993C147.244 236.551 147.085 236.234 146.841 236.04C146.597 235.847 146.231 235.75 145.742 235.75C145.238 235.75 144.844 235.854 144.559 236.061C144.375 236.194 144.283 236.371 144.283 236.594C144.283 236.797 144.369 236.971 144.541 237.116C144.76 237.299 145.291 237.491 146.135 237.69C146.979 237.889 147.603 238.095 148.007 238.308C148.411 238.521 148.728 238.812 148.956 239.181C149.185 239.55 149.299 240.006 149.299 240.549C149.299 241.041 149.162 241.502 148.889 241.932C148.615 242.362 148.229 242.681 147.729 242.89C147.229 243.099 146.606 243.203 145.859 243.203C144.774 243.203 143.94 242.952 143.357 242.451C142.775 241.949 142.428 241.217 142.315 240.256Z"/>
<path d="M152.691 243.051L152.691 235.914L150.143 235.914L150.143 234.461L156.969 234.461L156.969 235.914L154.426 235.914L154.426 243.051L152.691 243.051Z"/>
<path d="M120.081 258.893L120.081 257.446L123.819 257.446L123.819 260.868C123.456 261.219 122.93 261.529 122.24 261.796C121.551 262.064 120.853 262.198 120.146 262.198C119.247 262.198 118.464 262.009 117.796 261.632C117.128 261.255 116.626 260.716 116.29 260.015C115.954 259.314 115.786 258.551 115.786 257.727C115.786 256.832 115.974 256.037 116.349 255.342C116.724 254.647 117.273 254.114 117.995 253.743C118.546 253.457 119.232 253.315 120.052 253.315C121.118 253.315 121.951 253.538 122.551 253.986C123.15 254.433 123.536 255.051 123.708 255.84L121.985 256.162C121.864 255.741 121.637 255.408 121.303 255.163C120.969 254.919 120.552 254.797 120.052 254.797C119.294 254.797 118.691 255.037 118.244 255.518C117.797 255.998 117.573 256.711 117.573 257.657C117.573 258.676 117.8 259.441 118.253 259.951C118.706 260.46 119.3 260.715 120.034 260.715C120.398 260.715 120.762 260.644 121.127 260.501C121.492 260.359 121.806 260.186 122.067 259.983L122.067 258.893L120.081 258.893Z"/>
<path d="M126.983 262.051L125.337 262.051L125.337 255.828L126.866 255.828L126.866 256.713C127.128 256.295 127.363 256.02 127.572 255.887C127.781 255.754 128.019 255.688 128.284 255.688C128.659 255.688 129.021 255.791 129.368 255.998L128.858 257.434C128.581 257.254 128.323 257.164 128.085 257.164C127.855 257.164 127.659 257.228 127.499 257.355C127.339 257.482 127.213 257.711 127.121 258.043C127.029 258.375 126.983 259.071 126.983 260.129L126.983 262.051Z"/>
<path d="M131.308 257.727L129.814 257.457C129.982 256.856 130.271 256.41 130.681 256.121C131.091 255.832 131.7 255.688 132.509 255.688C133.243 255.688 133.79 255.775 134.149 255.949C134.509 256.122 134.762 256.343 134.908 256.611C135.055 256.878 135.128 257.369 135.128 258.084L135.11 260.006C135.11 260.553 135.137 260.956 135.19 261.216C135.242 261.476 135.341 261.754 135.485 262.051L133.857 262.051C133.814 261.942 133.761 261.78 133.698 261.565C133.671 261.467 133.651 261.403 133.64 261.371C133.358 261.645 133.058 261.85 132.737 261.987C132.417 262.123 132.075 262.192 131.712 262.192C131.071 262.192 130.566 262.018 130.197 261.67C129.828 261.323 129.644 260.883 129.644 260.352C129.644 260 129.728 259.687 129.896 259.411C130.064 259.136 130.299 258.925 130.602 258.779C130.904 258.632 131.341 258.504 131.911 258.395C132.681 258.25 133.214 258.116 133.511 257.991L133.511 257.826C133.511 257.51 133.433 257.285 133.276 257.15C133.12 257.015 132.825 256.948 132.392 256.948C132.099 256.948 131.87 257.005 131.706 257.12C131.542 257.236 131.409 257.438 131.308 257.727ZM133.511 259.063C133.3 259.133 132.966 259.217 132.509 259.315C132.052 259.412 131.753 259.508 131.612 259.602C131.398 259.754 131.29 259.948 131.29 260.182C131.29 260.412 131.376 260.612 131.548 260.78C131.72 260.948 131.939 261.032 132.204 261.032C132.501 261.032 132.784 260.934 133.054 260.739C133.253 260.59 133.384 260.409 133.446 260.194C133.489 260.053 133.511 259.785 133.511 259.391L133.511 259.063Z"/>
<path d="M136.704 255.828L138.239 255.828L138.239 256.743C138.439 256.43 138.708 256.176 139.048 255.981C139.388 255.785 139.765 255.688 140.179 255.688C140.901 255.688 141.515 255.971 142.019 256.537C142.523 257.104 142.774 257.893 142.774 258.905C142.774 259.944 142.521 260.751 142.013 261.327C141.505 261.904 140.89 262.192 140.167 262.192C139.823 262.192 139.512 262.123 139.232 261.987C138.953 261.85 138.659 261.616 138.351 261.284L138.351 264.418L136.704 264.418L136.704 255.828ZM138.333 258.834C138.333 259.534 138.472 260.05 138.749 260.384C139.026 260.718 139.364 260.885 139.763 260.885C140.146 260.885 140.464 260.732 140.718 260.425C140.972 260.118 141.099 259.616 141.099 258.916C141.099 258.264 140.968 257.78 140.706 257.463C140.444 257.147 140.12 256.989 139.733 256.989C139.331 256.989 138.997 257.144 138.732 257.454C138.466 257.765 138.333 258.225 138.333 258.834Z"/>
<path d="M145.722 253.461L145.722 256.619C146.253 255.998 146.888 255.688 147.626 255.688C148.005 255.688 148.347 255.758 148.651 255.899C148.956 256.039 149.186 256.219 149.34 256.438C149.494 256.657 149.6 256.899 149.656 257.164C149.713 257.43 149.741 257.842 149.741 258.401L149.741 262.051L148.095 262.051L148.095 258.764C148.095 258.112 148.064 257.698 148.001 257.522C147.939 257.346 147.828 257.206 147.67 257.103C147.512 256.999 147.314 256.948 147.075 256.948C146.802 256.948 146.558 257.014 146.343 257.147C146.128 257.28 145.971 257.48 145.871 257.747C145.772 258.015 145.722 258.41 145.722 258.934L145.722 262.051L144.075 262.051L144.075 253.461L145.722 253.461Z"/>
<path d="M158.337 260.961C158.763 261.266 159.226 261.508 159.726 261.688L159.087 262.912C158.825 262.834 158.569 262.727 158.319 262.59C158.265 262.563 157.88 262.309 157.165 261.828C156.603 262.075 155.98 262.198 155.296 262.198C153.976 262.198 152.941 261.809 152.193 261.032C151.445 260.254 151.071 259.162 151.071 257.756C151.071 256.354 151.446 255.263 152.196 254.484C152.946 253.704 153.964 253.315 155.249 253.315C156.523 253.315 157.532 253.704 158.278 254.484C159.024 255.263 159.398 256.354 159.398 257.756C159.398 258.498 159.294 259.151 159.087 259.713C158.931 260.143 158.681 260.559 158.337 260.961ZM156.942 259.983C157.165 259.721 157.332 259.405 157.443 259.034C157.555 258.662 157.61 258.237 157.61 257.756C157.61 256.764 157.392 256.023 156.954 255.533C156.517 255.042 155.944 254.797 155.237 254.797C154.53 254.797 153.957 255.043 153.518 255.535C153.078 256.028 152.858 256.768 152.858 257.756C152.858 258.76 153.078 259.511 153.518 260.009C153.957 260.507 154.513 260.756 155.185 260.756C155.435 260.756 155.671 260.715 155.894 260.633C155.542 260.403 155.185 260.223 154.821 260.094L155.308 259.104C155.878 259.299 156.423 259.592 156.942 259.983Z"/>
<path d="M160.804 262.051L160.804 253.532L162.538 253.532L162.538 260.604L166.851 260.604L166.851 262.051L160.804 262.051Z"/>
<path d="M144.389 281.051L144.389 279.405L146.041 279.405L146.041 281.051L144.389 281.051ZM140.393 281.051L140.393 279.405L142.039 279.405L142.039 281.051L140.393 281.051ZM136.391 281.051L136.391 279.405L138.037 279.405L138.037 281.051L136.391 281.051Z"/>
</g>
</g>
<g opacity="1" vectornator:layerName="RPC protocols">
<path d="M196.458 148.186L302.114 148.186L302.114 148.186L302.114 288.814L302.114 288.814L196.458 288.814L196.458 288.814L196.458 148.186L196.458 148.186Z" fill="#c4c4c4" fill-rule="nonzero" opacity="1" stroke="#808080" stroke-linecap="butt" stroke-linejoin="miter" stroke-width="1" vectornator:layerName="rect"/>
<g fill="#474747" opacity="1" stroke="none" vectornator:layerName="tspan">
<path d="M222.968 162.089L224.696 162.089L224.696 167.526C224.696 168.237 224.634 168.784 224.509 169.167C224.341 169.667 224.036 170.068 223.595 170.371C223.153 170.674 222.571 170.825 221.849 170.825C221.001 170.825 220.349 170.588 219.892 170.113C219.435 169.639 219.204 168.942 219.2 168.024L220.835 167.837C220.854 168.329 220.927 168.677 221.052 168.88C221.239 169.189 221.524 169.343 221.907 169.343C222.294 169.343 222.567 169.232 222.728 169.012C222.888 168.791 222.968 168.333 222.968 167.638L222.968 162.089Z"/>
<path d="M226.103 167.884L227.79 167.72C227.892 168.286 228.098 168.702 228.408 168.968C228.719 169.233 229.138 169.366 229.665 169.366C230.224 169.366 230.645 169.248 230.928 169.012C231.211 168.775 231.353 168.499 231.353 168.183C231.353 167.98 231.293 167.807 231.174 167.664C231.055 167.522 230.847 167.398 230.55 167.292C230.347 167.222 229.884 167.097 229.161 166.917C228.231 166.687 227.579 166.403 227.204 166.067C226.677 165.595 226.413 165.019 226.413 164.339C226.413 163.901 226.537 163.492 226.785 163.111C227.033 162.731 227.391 162.441 227.857 162.241C228.324 162.042 228.888 161.942 229.548 161.942C230.626 161.942 231.437 162.179 231.982 162.651C232.527 163.124 232.813 163.755 232.841 164.544L231.106 164.62C231.032 164.179 230.873 163.861 230.629 163.668C230.385 163.475 230.019 163.378 229.53 163.378C229.026 163.378 228.632 163.482 228.347 163.689C228.163 163.821 228.071 163.999 228.071 164.222C228.071 164.425 228.157 164.599 228.329 164.743C228.548 164.927 229.079 165.118 229.923 165.317C230.767 165.517 231.391 165.723 231.795 165.936C232.199 166.149 232.516 166.44 232.744 166.809C232.973 167.178 233.087 167.634 233.087 168.177C233.087 168.669 232.95 169.13 232.677 169.56C232.403 169.989 232.017 170.309 231.517 170.518C231.017 170.727 230.394 170.831 229.647 170.831C228.562 170.831 227.728 170.58 227.146 170.078C226.563 169.576 226.216 168.845 226.103 167.884Z"/>
<path d="M234.194 166.437C234.194 165.562 234.325 164.827 234.587 164.233C234.782 163.796 235.049 163.403 235.387 163.056C235.725 162.708 236.095 162.45 236.497 162.282C237.032 162.056 237.649 161.942 238.349 161.942C239.614 161.942 240.627 162.335 241.387 163.12C242.146 163.905 242.526 164.997 242.526 166.396C242.526 167.782 242.149 168.867 241.396 169.65C240.642 170.434 239.634 170.825 238.372 170.825C237.095 170.825 236.079 170.436 235.325 169.656C234.571 168.877 234.194 167.804 234.194 166.437ZM235.981 166.378C235.981 167.351 236.206 168.088 236.655 168.59C237.104 169.092 237.675 169.343 238.366 169.343C239.058 169.343 239.625 169.094 240.068 168.596C240.512 168.098 240.733 167.351 240.733 166.355C240.733 165.37 240.518 164.636 240.086 164.151C239.654 163.667 239.081 163.425 238.366 163.425C237.651 163.425 237.075 163.67 236.638 164.16C236.2 164.65 235.981 165.39 235.981 166.378Z"/>
<path d="M243.897 170.679L243.897 162.089L245.585 162.089L249.101 167.825L249.101 162.089L250.712 162.089L250.712 170.679L248.972 170.679L245.509 165.077L245.509 170.679L243.897 170.679Z"/>
<path d="M252.347 168.388L252.347 166.741L255.581 166.741L255.581 168.388L252.347 168.388Z"/>
<path d="M256.548 170.679L256.548 162.089L260.198 162.089C261.116 162.089 261.783 162.166 262.199 162.32C262.615 162.475 262.948 162.749 263.198 163.144C263.448 163.538 263.573 163.989 263.573 164.497C263.573 165.142 263.384 165.674 263.005 166.094C262.626 166.514 262.06 166.778 261.306 166.888C261.681 167.107 261.99 167.347 262.234 167.608C262.479 167.87 262.808 168.335 263.222 169.003L264.271 170.679L262.196 170.679L260.942 168.81C260.497 168.142 260.192 167.721 260.028 167.547C259.864 167.373 259.69 167.254 259.507 167.19C259.323 167.125 259.032 167.093 258.634 167.093L258.282 167.093L258.282 170.679L256.548 170.679ZM258.282 165.722L259.565 165.722C260.397 165.722 260.917 165.687 261.124 165.616C261.331 165.546 261.493 165.425 261.61 165.253C261.728 165.081 261.786 164.866 261.786 164.608C261.786 164.319 261.709 164.086 261.555 163.908C261.4 163.731 261.183 163.618 260.901 163.571C260.761 163.552 260.339 163.542 259.636 163.542L258.282 163.542L258.282 165.722Z"/>
<path d="M265.208 170.679L265.208 162.089L267.991 162.089C269.046 162.089 269.733 162.132 270.054 162.218C270.546 162.347 270.958 162.627 271.29 163.059C271.622 163.49 271.788 164.048 271.788 164.732C271.788 165.259 271.692 165.702 271.501 166.062C271.31 166.421 271.066 166.703 270.771 166.908C270.477 167.113 270.177 167.249 269.872 167.316C269.458 167.398 268.858 167.439 268.073 167.439L266.942 167.439L266.942 170.679L265.208 170.679ZM266.942 163.542L266.942 165.98L267.892 165.98C268.575 165.98 269.032 165.935 269.263 165.845C269.493 165.755 269.674 165.614 269.805 165.423C269.936 165.232 270.001 165.009 270.001 164.755C270.001 164.442 269.909 164.185 269.726 163.982C269.542 163.778 269.31 163.651 269.028 163.601C268.821 163.562 268.405 163.542 267.78 163.542L266.942 163.542Z"/>
<path d="M278.708 167.521L280.39 168.054C280.132 168.991 279.703 169.688 279.104 170.143C278.504 170.598 277.743 170.825 276.821 170.825C275.681 170.825 274.743 170.436 274.009 169.656C273.274 168.877 272.907 167.812 272.907 166.46C272.907 165.03 273.276 163.92 274.015 163.129C274.753 162.338 275.724 161.942 276.927 161.942C277.978 161.942 278.831 162.253 279.487 162.874C279.878 163.241 280.171 163.769 280.366 164.456L278.649 164.866C278.548 164.421 278.336 164.069 278.014 163.812C277.691 163.554 277.3 163.425 276.839 163.425C276.202 163.425 275.686 163.653 275.289 164.11C274.893 164.567 274.694 165.308 274.694 166.331C274.694 167.417 274.89 168.191 275.28 168.651C275.671 169.112 276.179 169.343 276.804 169.343C277.265 169.343 277.661 169.196 277.993 168.903C278.325 168.61 278.563 168.149 278.708 167.521Z"/>
<path d="M222.669 189.679L225.604 185.196L222.944 181.089L224.972 181.089L226.694 183.849L228.382 181.089L230.392 181.089L227.72 185.261L230.655 189.679L228.563 189.679L226.659 186.708L224.749 189.679L222.669 189.679Z"/>
<path d="M231.522 189.679L231.522 181.089L234.118 181.089L235.677 186.948L237.218 181.089L239.819 181.089L239.819 189.679L238.208 189.679L238.208 182.917L236.503 189.679L234.833 189.679L233.134 182.917L233.134 189.679L231.522 189.679Z"/>
<path d="M241.589 189.679L241.589 181.159L243.323 181.159L243.323 188.232L247.636 188.232L247.636 189.679L241.589 189.679Z"/>
<path d="M248.673 187.388L248.673 185.741L251.907 185.741L251.907 187.388L248.673 187.388Z"/>
<path d="M252.874 189.679L252.874 181.089L256.524 181.089C257.442 181.089 258.109 181.166 258.525 181.32C258.941 181.475 259.274 181.749 259.524 182.144C259.774 182.538 259.899 182.989 259.899 183.497C259.899 184.142 259.71 184.674 259.331 185.094C258.952 185.514 258.386 185.778 257.632 185.888C258.007 186.107 258.316 186.347 258.561 186.608C258.805 186.87 259.134 187.335 259.548 188.003L260.597 189.679L258.522 189.679L257.269 187.81C256.823 187.142 256.519 186.721 256.354 186.547C256.19 186.373 256.017 186.254 255.833 186.19C255.649 186.125 255.358 186.093 254.96 186.093L254.608 186.093L254.608 189.679L252.874 189.679ZM254.608 184.722L255.892 184.722C256.724 184.722 257.243 184.687 257.45 184.616C257.657 184.546 257.819 184.425 257.937 184.253C258.054 184.081 258.112 183.866 258.112 183.608C258.112 183.319 258.035 183.086 257.881 182.908C257.727 182.731 257.509 182.618 257.228 182.571C257.087 182.552 256.665 182.542 255.962 182.542L254.608 182.542L254.608 184.722Z"/>
<path d="M261.534 189.679L261.534 181.089L264.317 181.089C265.372 181.089 266.06 181.132 266.38 181.218C266.872 181.347 267.284 181.627 267.616 182.059C267.948 182.49 268.114 183.048 268.114 183.732C268.114 184.259 268.019 184.702 267.827 185.062C267.636 185.421 267.393 185.703 267.098 185.908C266.803 186.113 266.503 186.249 266.198 186.316C265.784 186.398 265.185 186.439 264.399 186.439L263.269 186.439L263.269 189.679L261.534 189.679ZM263.269 182.542L263.269 184.98L264.218 184.98C264.901 184.98 265.358 184.935 265.589 184.845C265.819 184.755 266 184.614 266.131 184.423C266.262 184.232 266.327 184.009 266.327 183.755C266.327 183.442 266.235 183.185 266.052 182.982C265.868 182.778 265.636 182.651 265.354 182.601C265.147 182.562 264.731 182.542 264.106 182.542L263.269 182.542Z"/>
<path d="M275.034 186.521L276.716 187.054C276.458 187.991 276.029 188.688 275.43 189.143C274.83 189.598 274.069 189.825 273.147 189.825C272.007 189.825 271.069 189.436 270.335 188.656C269.601 187.877 269.233 186.812 269.233 185.46C269.233 184.03 269.603 182.92 270.341 182.129C271.079 181.338 272.05 180.942 273.253 180.942C274.304 180.942 275.157 181.253 275.813 181.874C276.204 182.241 276.497 182.769 276.692 183.456L274.976 183.866C274.874 183.421 274.662 183.069 274.34 182.812C274.018 182.554 273.626 182.425 273.165 182.425C272.528 182.425 272.012 182.653 271.615 183.11C271.219 183.567 271.021 184.308 271.021 185.331C271.021 186.417 271.216 187.191 271.606 187.651C271.997 188.112 272.505 188.343 273.13 188.343C273.591 188.343 273.987 188.196 274.319 187.903C274.651 187.61 274.89 187.149 275.034 186.521Z"/>
<path d="M234.376 209.089L236.257 209.317C236.288 209.536 236.36 209.687 236.474 209.769C236.63 209.886 236.876 209.944 237.212 209.944C237.642 209.944 237.964 209.88 238.179 209.751C238.323 209.665 238.433 209.526 238.507 209.335C238.558 209.198 238.583 208.946 238.583 208.579L238.583 207.671C238.091 208.343 237.47 208.679 236.72 208.679C235.884 208.679 235.222 208.325 234.733 207.618C234.351 207.06 234.159 206.364 234.159 205.532C234.159 204.489 234.41 203.692 234.912 203.142C235.414 202.591 236.038 202.316 236.784 202.316C237.554 202.316 238.188 202.653 238.688 203.329L238.688 202.456L240.229 202.456L240.229 208.04C240.229 208.774 240.169 209.323 240.048 209.687C239.927 210.05 239.757 210.335 239.538 210.542C239.319 210.749 239.027 210.911 238.662 211.028C238.297 211.146 237.835 211.204 237.276 211.204C236.222 211.204 235.474 211.024 235.032 210.662C234.591 210.301 234.37 209.843 234.37 209.288C234.37 209.233 234.372 209.167 234.376 209.089ZM235.847 205.439C235.847 206.099 235.975 206.582 236.23 206.889C236.486 207.195 236.802 207.349 237.177 207.349C237.579 207.349 237.919 207.191 238.196 206.877C238.474 206.563 238.612 206.097 238.612 205.48C238.612 204.835 238.479 204.357 238.214 204.044C237.948 203.732 237.612 203.575 237.206 203.575C236.812 203.575 236.486 203.729 236.23 204.035C235.975 204.342 235.847 204.81 235.847 205.439Z"/>
<path d="M241.876 208.679L241.876 200.089L245.526 200.089C246.444 200.089 247.111 200.166 247.527 200.32C247.943 200.475 248.276 200.749 248.526 201.144C248.776 201.538 248.901 201.989 248.901 202.497C248.901 203.142 248.712 203.674 248.333 204.094C247.954 204.514 247.388 204.778 246.634 204.888C247.009 205.107 247.318 205.347 247.562 205.608C247.807 205.87 248.136 206.335 248.55 207.003L249.599 208.679L247.524 208.679L246.271 206.81C245.825 206.142 245.521 205.721 245.356 205.547C245.192 205.373 245.019 205.254 244.835 205.19C244.651 205.125 244.36 205.093 243.962 205.093L243.61 205.093L243.61 208.679L241.876 208.679ZM243.61 203.722L244.894 203.722C245.726 203.722 246.245 203.687 246.452 203.616C246.659 203.546 246.821 203.425 246.938 203.253C247.056 203.081 247.114 202.866 247.114 202.608C247.114 202.319 247.037 202.086 246.883 201.908C246.729 201.731 246.511 201.618 246.229 201.571C246.089 201.552 245.667 201.542 244.964 201.542L243.61 201.542L243.61 203.722Z"/>
<path d="M250.536 208.679L250.536 200.089L253.319 200.089C254.374 200.089 255.062 200.132 255.382 200.218C255.874 200.347 256.286 200.627 256.618 201.059C256.95 201.49 257.116 202.048 257.116 202.732C257.116 203.259 257.021 203.702 256.829 204.062C256.638 204.421 256.395 204.703 256.1 204.908C255.805 205.113 255.505 205.249 255.2 205.316C254.786 205.398 254.187 205.439 253.401 205.439L252.271 205.439L252.271 208.679L250.536 208.679ZM252.271 201.542L252.271 203.98L253.22 203.98C253.903 203.98 254.36 203.935 254.591 203.845C254.821 203.755 255.002 203.614 255.133 203.423C255.264 203.232 255.329 203.009 255.329 202.755C255.329 202.442 255.237 202.185 255.054 201.982C254.87 201.778 254.638 201.651 254.356 201.601C254.149 201.562 253.733 201.542 253.108 201.542L252.271 201.542Z"/>
<path d="M264.036 205.521L265.718 206.054C265.46 206.991 265.031 207.688 264.432 208.143C263.832 208.598 263.071 208.825 262.149 208.825C261.009 208.825 260.071 208.436 259.337 207.656C258.603 206.877 258.235 205.812 258.235 204.46C258.235 203.03 258.604 201.92 259.343 201.129C260.081 200.338 261.052 199.942 262.255 199.942C263.306 199.942 264.159 200.253 264.815 200.874C265.206 201.241 265.499 201.769 265.694 202.456L263.978 202.866C263.876 202.421 263.664 202.069 263.342 201.812C263.02 201.554 262.628 201.425 262.167 201.425C261.53 201.425 261.014 201.653 260.617 202.11C260.221 202.567 260.022 203.308 260.022 204.331C260.022 205.417 260.218 206.191 260.608 206.651C260.999 207.112 261.507 207.343 262.132 207.343C262.593 207.343 262.989 207.196 263.321 206.903C263.653 206.61 263.892 206.149 264.036 205.521Z"/>
<path d="M253.176 227.679L253.176 226.032L254.828 226.032L254.828 227.679L253.176 227.679ZM249.18 227.679L249.18 226.032L250.826 226.032L250.826 227.679L249.18 227.679ZM245.178 227.679L245.178 226.032L246.824 226.032L246.824 227.679L245.178 227.679Z"/>
</g>
</g>
<g opacity="1" vectornator:layerName="Full-stack protocols">
<path d="M307.48 78.5414L484.37 78.5414L484.37 78.5414L484.37 288.814L484.37 288.814L307.48 288.814L307.48 288.814L307.48 78.5414L307.48 78.5414Z" fill="#c4c4c4" fill-rule="nonzero" opacity="1" stroke="#808080" stroke-linecap="butt" stroke-linejoin="miter" stroke-width="1" vectornator:layerName="rect"/>
<g opacity="1" vectornator:layerName="Qworum logo+name">
<g opacity="1" vectornator:layerName="Qworum logo">
<path d="M345.984 112.233L345.985 112.233L345.985 112.233L345.985 105.658L332.517 98.8061L325.941 98.8063L319.09 112.274L319.09 118.85L332.558 125.701L339.133 125.701L345.984 112.234L345.985 112.233L345.984 112.233ZM332.538 106.539L338.25 112.252C338.229 112.252 338.209 112.254 338.188 112.254L338.251 112.254L332.54 117.966L332.54 117.966L332.537 117.968L332.537 117.968L326.823 112.254L332.538 106.539L332.538 106.539L332.538 106.539L332.538 106.539Z" fill="url(#LinearGradient_2)" fill-rule="nonzero" opacity="1" stroke="none" vectornator:layerName="path"/>
<path d="M345.985 105.658L345.985 112.233L336.415 102.661L324.719 114.358L320.821 110.459L332.517 98.8061L345.985 105.658Z" fill="url(#LinearGradient_3)" fill-rule="nonzero" opacity="1" stroke="none" vectornator:layerName="polygon"/>
<path d="M325.941 98.8063L332.517 98.8061L322.945 108.376L334.641 120.072L330.743 123.971L319.09 112.274L325.941 98.8063Z" fill="url(#LinearGradient_4)" fill-rule="nonzero" opacity="1" stroke="none" vectornator:layerName="polygon"/>
<path d="M319.09 118.85L319.09 112.274L328.66 121.846L340.356 110.15L344.254 114.048L332.558 125.701L319.09 118.85Z" fill="url(#LinearGradient_5)" fill-rule="nonzero" opacity="1" stroke="none" vectornator:layerName="polygon"/>
<path d="M339.133 125.701L332.558 125.701L342.129 116.131L332.527 106.539L332.527 98.8061L345.985 112.232L339.133 125.701Z" fill="url(#LinearGradient_6)" fill-rule="nonzero" opacity="1" stroke="none" vectornator:layerName="polygon"/>
<path d="M332.538 106.539L326.787 112.289L319.09 112.274L327.536 103.802C328.347 102.989 329.596 102.698 330.723 103.162C331.85 103.626 332.533 104.712 332.536 105.86L332.538 106.539Z" fill="url(#LinearGradient_7)" fill-rule="nonzero" opacity="1" stroke="none" vectornator:layerName="path"/>
<path d="M326.821 112.252L332.537 117.968L332.558 125.701L324.348 117.516C323.492 116.663 323.185 115.348 323.674 114.161C324.162 112.975 325.306 112.256 326.514 112.253L326.821 112.252Z" fill="url(#LinearGradient_8)" fill-rule="nonzero" opacity="1" stroke="none" vectornator:layerName="path"/>
<path d="M332.537 117.968L338.252 112.254L345.985 112.233L338.063 120.179C337.167 121.077 335.786 121.399 334.541 120.886C333.295 120.373 332.541 119.172 332.537 117.903L332.537 117.968Z" fill="url(#LinearGradient_9)" fill-rule="nonzero" opacity="1" stroke="none" vectornator:layerName="path"/>
<path d="M338.19 112.202L332.465 106.487L332.465 98.7541L340.401 106.676C341.299 107.572 341.621 108.953 341.108 110.199C340.595 111.444 339.394 112.198 338.126 112.202L338.19 112.202Z" fill="url(#LinearGradient_10)" fill-rule="nonzero" opacity="1" stroke="none" vectornator:layerName="path"/>
</g>
<path d="M365.031 123.346L362.218 119.976C361.44 120.17 360.644 120.267 359.83 120.267C358.096 120.267 356.505 119.86 355.055 119.047C353.604 118.233 352.454 117.106 351.605 115.664C350.755 114.223 350.33 112.591 350.33 110.769C350.33 108.965 350.755 107.341 351.605 105.899C352.454 104.457 353.604 103.33 355.055 102.516C356.505 101.703 358.096 101.296 359.83 101.296C361.582 101.296 363.178 101.703 364.62 102.516C366.061 103.33 367.202 104.457 368.043 105.899C368.883 107.341 369.303 108.965 369.303 110.769C369.303 112.414 368.954 113.913 368.255 115.266C367.557 116.62 366.606 117.721 365.403 118.57L369.648 123.346L365.031 123.346ZM354.151 110.769C354.151 112.006 354.39 113.094 354.868 114.032C355.346 114.97 356.014 115.691 356.872 116.194C357.73 116.699 358.716 116.951 359.83 116.951C360.945 116.951 361.927 116.699 362.776 116.194C363.625 115.691 364.288 114.97 364.766 114.032C365.243 113.094 365.482 112.006 365.482 110.769C365.482 109.531 365.243 108.447 364.766 107.518C364.288 106.589 363.625 105.877 362.776 105.383C361.927 104.887 360.945 104.64 359.83 104.64C358.716 104.64 357.73 104.887 356.872 105.383C356.014 105.877 355.346 106.589 354.868 107.518C354.39 108.447 354.151 109.531 354.151 110.769ZM394.441 105.383L390.143 120.082L386.136 120.082L383.456 109.813L380.776 120.082L376.743 120.082L372.417 105.383L376.185 105.383L378.786 116.58L381.598 105.383L385.526 105.383L388.286 116.553L390.886 105.383L394.441 105.383ZM404.933 120.321C403.518 120.321 402.245 120.007 401.112 119.379C399.98 118.751 399.092 117.862 398.446 116.712C397.8 115.563 397.478 114.236 397.478 112.732C397.478 111.229 397.809 109.902 398.472 108.751C399.136 107.602 400.042 106.713 401.193 106.085C402.342 105.457 403.625 105.143 405.04 105.143C406.455 105.143 407.737 105.457 408.888 106.085C410.037 106.713 410.943 107.602 411.607 108.751C412.271 109.902 412.603 111.229 412.603 112.732C412.603 114.236 412.262 115.563 411.58 116.712C410.899 117.862 409.979 118.751 408.821 119.379C407.662 120.007 406.366 120.321 404.933 120.321ZM404.933 117.083C405.606 117.083 406.238 116.92 406.831 116.592C407.424 116.266 407.897 115.775 408.25 115.12C408.605 114.465 408.782 113.669 408.782 112.732C408.782 111.334 408.415 110.26 407.68 109.508C406.946 108.756 406.049 108.38 404.987 108.38C403.925 108.38 403.036 108.756 402.32 109.508C401.604 110.26 401.246 111.334 401.246 112.732C401.246 114.129 401.595 115.204 402.293 115.956C402.992 116.708 403.872 117.083 404.933 117.083ZM420.997 107.665C421.475 106.885 422.099 106.275 422.868 105.834C423.638 105.391 424.518 105.17 425.509 105.17L425.509 109.07L424.526 109.07C423.359 109.07 422.479 109.344 421.887 109.892C421.294 110.441 420.997 111.396 420.997 112.759L420.997 120.082L417.282 120.082L417.282 105.383L420.997 105.383L420.997 107.665ZM443.827 105.383L443.827 120.082L440.087 120.082L440.087 118.224C439.609 118.862 438.985 119.362 438.215 119.724C437.446 120.086 436.611 120.267 435.708 120.267C434.559 120.267 433.541 120.024 432.657 119.538C431.773 119.052 431.078 118.335 430.574 117.388C430.07 116.442 429.818 115.315 429.818 114.006L429.818 105.383L433.532 105.383L433.532 113.475C433.532 114.642 433.824 115.54 434.408 116.168C434.992 116.796 435.788 117.11 436.796 117.11C437.822 117.11 438.627 116.796 439.21 116.168C439.795 115.54 440.087 114.642 440.087 113.475L440.087 105.383L443.827 105.383ZM467.694 105.17C469.498 105.17 470.953 105.723 472.059 106.828C473.164 107.934 473.717 109.477 473.717 111.458L473.717 120.082L470.002 120.082L470.002 111.963C470.002 110.813 469.71 109.932 469.127 109.322C468.542 108.712 467.746 108.406 466.738 108.406C465.729 108.406 464.929 108.712 464.337 109.322C463.745 109.932 463.448 110.813 463.448 111.963L463.448 120.082L459.733 120.082L459.733 111.963C459.733 110.813 459.441 109.932 458.858 109.322C458.273 108.712 457.477 108.406 456.469 108.406C455.443 108.406 454.634 108.712 454.042 109.322C453.449 109.932 453.153 110.813 453.153 111.963L453.153 120.082L449.438 120.082L449.438 105.383L453.153 105.383L453.153 107.16C453.631 106.541 454.245 106.054 454.997 105.7C455.749 105.346 456.576 105.17 457.478 105.17C458.628 105.17 459.654 105.413 460.555 105.899C461.458 106.386 462.157 107.08 462.652 107.982C463.13 107.133 463.824 106.452 464.735 105.939C465.646 105.426 466.632 105.17 467.694 105.17Z" fill="#651da4" fill-rule="nonzero" opacity="1" stroke="none" vectornator:layerName="Qworum name"/>
</g>
</g>
</g>
<g fill="#ffffff" opacity="1" stroke="none" vectornator:layerName="Title">
<path d="M96.2959 71.5414L96.2959 63.2152L93.3222 63.2152L93.3222 61.5199L101.286 61.5199L101.286 63.2152L98.3193 63.2152L98.3193 71.5414L96.2959 71.5414Z"/>
<path d="M104.492 61.5199L104.492 65.2045C105.112 64.4799 105.853 64.1176 106.714 64.1176C107.156 64.1176 107.555 64.1996 107.91 64.3636C108.266 64.5277 108.533 64.7373 108.713 64.9926C108.893 65.2478 109.016 65.5303 109.082 65.8402C109.149 66.1501 109.182 66.6309 109.182 67.2826L109.182 71.5414L107.261 71.5414L107.261 67.7064C107.261 66.9454 107.224 66.4623 107.151 66.2572C107.078 66.0521 106.95 65.8892 106.765 65.7684C106.581 65.6477 106.349 65.5873 106.071 65.5873C105.752 65.5873 105.467 65.6648 105.217 65.8197C104.966 65.9746 104.783 66.2082 104.666 66.5204C104.55 66.8326 104.492 67.294 104.492 67.9047L104.492 71.5414L102.571 71.5414L102.571 61.5199L104.492 61.5199Z"/>
<path d="M115.334 69.2308L117.248 69.5521C117.002 70.2539 116.613 70.7883 116.082 71.1551C115.552 71.522 114.887 71.7054 114.09 71.7054C112.827 71.7054 111.893 71.293 111.287 70.4681C110.809 69.8073 110.569 68.9733 110.569 67.9662C110.569 66.7631 110.884 65.8208 111.513 65.1395C112.142 64.4582 112.937 64.1176 113.898 64.1176C114.978 64.1176 115.831 64.4742 116.455 65.1874C117.079 65.9006 117.378 66.9932 117.351 68.4652L112.538 68.4652C112.552 69.0349 112.707 69.4781 113.003 69.7948C113.299 70.1115 113.668 70.2699 114.11 70.2699C114.411 70.2699 114.664 70.1879 114.869 70.0238C115.074 69.8597 115.229 69.5954 115.334 69.2308ZM115.443 67.2894C115.43 66.7334 115.286 66.3107 115.013 66.0214C114.739 65.732 114.407 65.5873 114.015 65.5873C113.595 65.5873 113.249 65.7399 112.976 66.0453C112.702 66.3506 112.568 66.7653 112.572 67.2894L115.443 67.2894Z"/>
<path d="M124.241 66.4965L122.498 66.182C122.694 65.4802 123.031 64.9607 123.51 64.6234C123.988 64.2862 124.699 64.1176 125.643 64.1176C126.499 64.1176 127.137 64.219 127.557 64.4218C127.976 64.6246 128.271 64.882 128.442 65.1942C128.613 65.5064 128.698 66.0795 128.698 66.9135L128.678 69.1556C128.678 69.7937 128.708 70.2642 128.77 70.5673C128.832 70.8703 128.947 71.195 129.115 71.5414L127.215 71.5414C127.165 71.4138 127.103 71.2246 127.03 70.974C126.998 70.8601 126.976 70.7849 126.962 70.7484C126.634 71.0674 126.283 71.3067 125.909 71.4662C125.535 71.6257 125.137 71.7054 124.713 71.7054C123.965 71.7054 123.376 71.5026 122.946 71.097C122.515 70.6914 122.3 70.1787 122.3 69.559C122.3 69.1488 122.398 68.7831 122.594 68.4618C122.79 68.1405 123.064 67.8944 123.417 67.7235C123.771 67.5526 124.28 67.4034 124.945 67.2758C125.843 67.1071 126.465 66.9499 126.811 66.8041L126.811 66.6127C126.811 66.2435 126.72 65.9803 126.538 65.8231C126.356 65.6659 126.012 65.5873 125.506 65.5873C125.164 65.5873 124.897 65.6545 124.706 65.7889C124.515 65.9234 124.36 66.1592 124.241 66.4965ZM126.811 68.0551C126.565 68.1371 126.176 68.2351 125.643 68.349C125.109 68.4629 124.761 68.5746 124.597 68.684C124.346 68.8617 124.221 69.0873 124.221 69.3607C124.221 69.6296 124.321 69.862 124.521 70.058C124.722 70.2539 124.977 70.3519 125.287 70.3519C125.633 70.3519 125.964 70.238 126.278 70.0101C126.511 69.837 126.663 69.625 126.736 69.3744C126.786 69.2103 126.811 68.8982 126.811 68.4379L126.811 68.0551Z"/>
<path d="M130.537 64.2816L132.328 64.2816L132.328 65.348C132.561 64.9834 132.875 64.6872 133.271 64.4593C133.668 64.2315 134.108 64.1176 134.591 64.1176C135.434 64.1176 136.149 64.448 136.737 65.1088C137.325 65.7696 137.619 66.6901 137.619 67.8705C137.619 69.0827 137.323 70.0249 136.73 70.6971C136.138 71.3693 135.42 71.7054 134.577 71.7054C134.176 71.7054 133.813 71.6257 133.487 71.4662C133.161 71.3067 132.818 71.0332 132.458 70.6459L132.458 74.3031L130.537 74.3031L130.537 64.2816ZM132.437 67.7885C132.437 68.6042 132.599 69.2069 132.923 69.5966C133.246 69.9862 133.641 70.181 134.105 70.181C134.552 70.181 134.923 70.0022 135.22 69.6444C135.516 69.2867 135.664 68.6999 135.664 67.8842C135.664 67.1231 135.511 66.558 135.206 66.1888C134.901 65.8197 134.522 65.6351 134.071 65.6351C133.602 65.6351 133.212 65.8163 132.902 66.1786C132.592 66.5409 132.437 67.0775 132.437 67.7885Z"/>
<path d="M139.089 64.2816L140.88 64.2816L140.88 65.348C141.112 64.9834 141.427 64.6872 141.823 64.4593C142.22 64.2315 142.659 64.1176 143.143 64.1176C143.986 64.1176 144.701 64.448 145.289 65.1088C145.877 65.7696 146.171 66.6901 146.171 67.8705C146.171 69.0827 145.875 70.0249 145.282 70.6971C144.69 71.3693 143.972 71.7054 143.129 71.7054C142.728 71.7054 142.364 71.6257 142.039 71.4662C141.713 71.3067 141.37 71.0332 141.01 70.6459L141.01 74.3031L139.089 74.3031L139.089 64.2816ZM140.989 67.7885C140.989 68.6042 141.151 69.2069 141.475 69.5966C141.798 69.9862 142.192 70.181 142.657 70.181C143.104 70.181 143.475 70.0022 143.771 69.6444C144.068 69.2867 144.216 68.6999 144.216 67.8842C144.216 67.1231 144.063 66.558 143.758 66.1888C143.452 65.8197 143.074 65.6351 142.623 65.6351C142.154 65.6351 141.764 65.8163 141.454 66.1786C141.144 66.5409 140.989 67.0775 140.989 67.7885Z"/>
<path d="M147.695 71.5414L147.695 61.5199L149.616 61.5199L149.616 71.5414L147.695 71.5414Z"/>
<path d="M151.585 63.2972L151.585 61.5199L153.506 61.5199L153.506 63.2972L151.585 63.2972ZM151.585 71.5414L151.585 64.2816L153.506 64.2816L153.506 71.5414L151.585 71.5414Z"/>
<path d="M161.805 66.4281L159.911 66.7699C159.847 66.3916 159.703 66.1068 159.477 65.9154C159.251 65.724 158.959 65.6283 158.599 65.6283C158.12 65.6283 157.738 65.7935 157.454 66.1239C157.169 66.4543 157.026 67.0069 157.026 67.7816C157.026 68.6429 157.171 69.2513 157.46 69.6068C157.75 69.9623 158.138 70.14 158.626 70.14C158.991 70.14 159.289 70.0363 159.521 69.829C159.754 69.6216 159.918 69.265 160.014 68.7592L161.9 69.0804C161.704 69.9463 161.328 70.6003 160.772 71.0424C160.216 71.4844 159.471 71.7054 158.537 71.7054C157.475 71.7054 156.629 71.3705 155.998 70.7006C155.366 70.0306 155.051 69.1032 155.051 67.9183C155.051 66.7198 155.367 65.7867 156.001 65.119C156.634 64.4514 157.491 64.1176 158.571 64.1176C159.455 64.1176 160.158 64.3078 160.68 64.6884C161.202 65.0689 161.577 65.6488 161.805 66.4281Z"/>
<path d="M164.696 66.4965L162.953 66.182C163.149 65.4802 163.486 64.9607 163.965 64.6234C164.443 64.2862 165.154 64.1176 166.098 64.1176C166.954 64.1176 167.592 64.219 168.012 64.4218C168.431 64.6246 168.726 64.882 168.897 65.1942C169.068 65.5064 169.153 66.0795 169.153 66.9135L169.133 69.1556C169.133 69.7937 169.164 70.2642 169.225 70.5673C169.287 70.8703 169.402 71.195 169.57 71.5414L167.67 71.5414C167.62 71.4138 167.558 71.2246 167.485 70.974C167.453 70.8601 167.431 70.7849 167.417 70.7484C167.089 71.0674 166.738 71.3067 166.364 71.4662C165.991 71.6257 165.592 71.7054 165.168 71.7054C164.421 71.7054 163.832 71.5026 163.401 71.097C162.97 70.6914 162.755 70.1787 162.755 69.559C162.755 69.1488 162.853 68.7831 163.049 68.4618C163.245 68.1405 163.519 67.8944 163.873 67.7235C164.226 67.5526 164.735 67.4034 165.4 67.2758C166.298 67.1071 166.92 66.9499 167.267 66.8041L167.267 66.6127C167.267 66.2435 167.175 65.9803 166.993 65.8231C166.811 65.6659 166.467 65.5873 165.961 65.5873C165.619 65.5873 165.353 65.6545 165.161 65.7889C164.97 65.9234 164.815 66.1592 164.696 66.4965ZM167.267 68.0551C167.02 68.1371 166.631 68.2351 166.098 68.349C165.564 68.4629 165.216 68.5746 165.052 68.684C164.801 68.8617 164.676 69.0873 164.676 69.3607C164.676 69.6296 164.776 69.862 164.977 70.058C165.177 70.2539 165.432 70.3519 165.742 70.3519C166.089 70.3519 166.419 70.238 166.733 70.0101C166.966 69.837 167.118 69.625 167.191 69.3744C167.242 69.2103 167.267 68.8982 167.267 68.4379L167.267 68.0551Z"/>
<path d="M174.376 64.2816L174.376 65.8129L173.063 65.8129L173.063 68.7386C173.063 69.3311 173.076 69.6763 173.101 69.7743C173.126 69.8723 173.183 69.9532 173.272 70.017C173.361 70.0808 173.469 70.1127 173.597 70.1127C173.774 70.1127 174.032 70.0511 174.369 69.9281L174.533 71.4183C174.087 71.6097 173.581 71.7054 173.016 71.7054C172.669 71.7054 172.357 71.6473 172.079 71.5311C171.801 71.4149 171.597 71.2645 171.467 71.08C171.337 70.8954 171.247 70.6459 171.197 70.3314C171.156 70.1081 171.136 69.6569 171.136 68.9779L171.136 65.8129L170.254 65.8129L170.254 64.2816L171.136 64.2816L171.136 62.8392L173.063 61.7181L173.063 64.2816L174.376 64.2816Z"/>
<path d="M175.709 63.2972L175.709 61.5199L177.63 61.5199L177.63 63.2972L175.709 63.2972ZM175.709 71.5414L175.709 64.2816L177.63 64.2816L177.63 71.5414L175.709 71.5414Z"/>
<path d="M179.154 67.809C179.154 67.1709 179.311 66.5534 179.626 65.9564C179.94 65.3594 180.386 64.9037 180.962 64.5892C181.539 64.2748 182.183 64.1176 182.894 64.1176C183.992 64.1176 184.892 64.4742 185.594 65.1874C186.296 65.9006 186.646 66.8018 186.646 67.891C186.646 68.9893 186.292 69.8996 185.583 70.6219C184.875 71.3443 183.983 71.7054 182.907 71.7054C182.242 71.7054 181.607 71.5551 181.003 71.2543C180.4 70.9535 179.94 70.5126 179.626 69.9315C179.311 69.3505 179.154 68.6429 179.154 67.809ZM181.123 67.9115C181.123 68.6315 181.294 69.183 181.636 69.5658C181.978 69.9486 182.399 70.14 182.9 70.14C183.402 70.14 183.822 69.9486 184.162 69.5658C184.501 69.183 184.671 68.627 184.671 67.8978C184.671 67.1869 184.501 66.64 184.162 66.2572C183.822 65.8744 183.402 65.683 182.9 65.683C182.399 65.683 181.978 65.8744 181.636 66.2572C181.294 66.64 181.123 67.1914 181.123 67.9115Z"/>
<path d="M194.754 71.5414L192.833 71.5414L192.833 67.8363C192.833 67.0524 192.792 66.5454 192.71 66.3153C192.628 66.0852 192.495 65.9063 192.31 65.7787C192.125 65.6511 191.903 65.5873 191.644 65.5873C191.311 65.5873 191.012 65.6784 190.748 65.8607C190.484 66.043 190.303 66.2845 190.205 66.5853C190.107 66.8861 190.058 67.4421 190.058 68.2533L190.058 71.5414L188.137 71.5414L188.137 64.2816L189.921 64.2816L189.921 65.348C190.554 64.5277 191.352 64.1176 192.313 64.1176C192.737 64.1176 193.125 64.1939 193.476 64.3466C193.826 64.4992 194.092 64.694 194.272 64.931C194.452 65.168 194.577 65.4369 194.648 65.7377C194.719 66.0385 194.754 66.4691 194.754 67.0297L194.754 71.5414Z"/>
<path d="M200.592 71.5414L200.592 61.5199L202.513 61.5199L202.513 71.5414L200.592 71.5414Z"/>
<path d="M205.917 66.4965L204.174 66.182C204.37 65.4802 204.707 64.9607 205.186 64.6234C205.664 64.2862 206.375 64.1176 207.318 64.1176C208.175 64.1176 208.813 64.219 209.232 64.4218C209.652 64.6246 209.947 64.882 210.118 65.1942C210.289 65.5064 210.374 66.0795 210.374 66.9135L210.353 69.1556C210.353 69.7937 210.384 70.2642 210.446 70.5673C210.507 70.8703 210.622 71.195 210.791 71.5414L208.891 71.5414C208.84 71.4138 208.779 71.2246 208.706 70.974C208.674 70.8601 208.651 70.7849 208.638 70.7484C208.31 71.0674 207.959 71.3067 207.585 71.4662C207.211 71.6257 206.812 71.7054 206.389 71.7054C205.641 71.7054 205.052 71.5026 204.622 71.097C204.191 70.6914 203.976 70.1787 203.976 69.559C203.976 69.1488 204.074 68.7831 204.27 68.4618C204.465 68.1405 204.74 67.8944 205.093 67.7235C205.446 67.5526 205.956 67.4034 206.621 67.2758C207.519 67.1071 208.141 66.9499 208.487 66.8041L208.487 66.6127C208.487 66.2435 208.396 65.9803 208.214 65.8231C208.032 65.6659 207.687 65.5873 207.182 65.5873C206.84 65.5873 206.573 65.6545 206.382 65.7889C206.19 65.9234 206.035 66.1592 205.917 66.4965ZM208.487 68.0551C208.241 68.1371 207.852 68.2351 207.318 68.349C206.785 68.4629 206.436 68.5746 206.272 68.684C206.022 68.8617 205.896 69.0873 205.896 69.3607C205.896 69.6296 205.997 69.862 206.197 70.058C206.398 70.2539 206.653 70.3519 206.963 70.3519C207.309 70.3519 207.64 70.238 207.954 70.0101C208.186 69.837 208.339 69.625 208.412 69.3744C208.462 69.2103 208.487 68.8982 208.487 68.4379L208.487 68.0551Z"/>
<path d="M211.358 64.2816L213.402 64.2816L215.139 69.4359L216.834 64.2816L218.823 64.2816L216.26 71.2679L215.802 72.5326C215.633 72.9564 215.472 73.28 215.32 73.5033C215.167 73.7266 214.992 73.9078 214.793 74.0468C214.595 74.1857 214.351 74.294 214.062 74.3715C213.773 74.4489 213.446 74.4877 213.081 74.4877C212.712 74.4877 212.35 74.4489 211.994 74.3715L211.823 72.8676C212.124 72.9268 212.395 72.9564 212.637 72.9564C213.083 72.9564 213.414 72.8254 213.628 72.5634C213.842 72.3013 214.006 71.9675 214.12 71.5619L211.358 64.2816Z"/>
<path d="M224.258 69.2308L226.172 69.5521C225.926 70.2539 225.537 70.7883 225.006 71.1551C224.475 71.522 223.811 71.7054 223.014 71.7054C221.751 71.7054 220.817 71.293 220.211 70.4681C219.732 69.8073 219.493 68.9733 219.493 67.9662C219.493 66.7631 219.808 65.8208 220.436 65.1395C221.065 64.4582 221.861 64.1176 222.822 64.1176C223.902 64.1176 224.755 64.4742 225.379 65.1874C226.003 65.9006 226.302 66.9932 226.274 68.4652L221.462 68.4652C221.476 69.0349 221.631 69.4781 221.927 69.7948C222.223 70.1115 222.592 70.2699 223.034 70.2699C223.335 70.2699 223.588 70.1879 223.793 70.0238C223.998 69.8597 224.153 69.5954 224.258 69.2308ZM224.367 67.2894C224.353 66.7334 224.21 66.3107 223.936 66.0214C223.663 65.732 223.33 65.5873 222.938 65.5873C222.519 65.5873 222.173 65.7399 221.899 66.0453C221.626 66.3506 221.492 66.7653 221.496 67.2894L224.367 67.2894Z"/>
<path d="M229.679 71.5414L227.758 71.5414L227.758 64.2816L229.542 64.2816L229.542 65.3138C229.847 64.8262 230.122 64.5049 230.366 64.35C230.61 64.195 230.886 64.1176 231.196 64.1176C231.634 64.1176 232.055 64.2383 232.461 64.4799L231.866 66.1547C231.543 65.945 231.242 65.8402 230.964 65.8402C230.695 65.8402 230.467 65.9143 230.28 66.0624C230.093 66.2105 229.946 66.4782 229.839 66.8656C229.732 67.253 229.679 68.0642 229.679 69.2992L229.679 71.5414Z"/>
<path d="M243.508 66.4281L241.614 66.7699C241.55 66.3916 241.406 66.1068 241.18 65.9154C240.955 65.724 240.662 65.6283 240.302 65.6283C239.823 65.6283 239.442 65.7935 239.157 66.1239C238.872 66.4543 238.729 67.0069 238.729 67.7816C238.729 68.6429 238.874 69.2513 239.164 69.6068C239.453 69.9623 239.841 70.14 240.329 70.14C240.694 70.14 240.992 70.0363 241.225 69.829C241.457 69.6216 241.621 69.265 241.717 68.7592L243.603 69.0804C243.408 69.9463 243.032 70.6003 242.476 71.0424C241.92 71.4844 241.174 71.7054 240.24 71.7054C239.178 71.7054 238.332 71.3705 237.701 70.7006C237.069 70.0306 236.754 69.1032 236.754 67.9183C236.754 66.7198 237.071 65.7867 237.704 65.119C238.338 64.4514 239.194 64.1176 240.274 64.1176C241.159 64.1176 241.861 64.3078 242.383 64.6884C242.905 65.0689 243.28 65.6488 243.508 66.4281Z"/>
<path d="M244.52 67.809C244.52 67.1709 244.677 66.5534 244.991 65.9564C245.306 65.3594 245.751 64.9037 246.328 64.5892C246.904 64.2748 247.548 64.1176 248.259 64.1176C249.357 64.1176 250.257 64.4742 250.959 65.1874C251.661 65.9006 252.012 66.8018 252.012 67.891C252.012 68.9893 251.657 69.8996 250.949 70.6219C250.24 71.3443 249.348 71.7054 248.272 71.7054C247.607 71.7054 246.972 71.5551 246.369 71.2543C245.765 70.9535 245.306 70.5126 244.991 69.9315C244.677 69.3505 244.52 68.6429 244.52 67.809ZM246.488 67.9115C246.488 68.6315 246.659 69.183 247.001 69.5658C247.343 69.9486 247.764 70.14 248.266 70.14C248.767 70.14 249.187 69.9486 249.527 69.5658C249.866 69.183 250.036 68.627 250.036 67.8978C250.036 67.1869 249.866 66.64 249.527 66.2572C249.187 65.8744 248.767 65.683 248.266 65.683C247.764 65.683 247.343 65.8744 247.001 66.2572C246.659 66.64 246.488 67.1914 246.488 67.9115Z"/>
<path d="M255.512 71.5414L252.586 64.2816L254.603 64.2816L255.97 67.9867L256.366 69.224C256.471 68.9095 256.537 68.7022 256.564 68.6019C256.628 68.3968 256.697 68.1918 256.77 67.9867L258.15 64.2816L260.126 64.2816L257.241 71.5414L255.512 71.5414Z"/>
<path d="M265.506 69.2308L267.42 69.5521C267.174 70.2539 266.785 70.7883 266.254 71.1551C265.723 71.522 265.059 71.7054 264.262 71.7054C262.999 71.7054 262.065 71.293 261.459 70.4681C260.98 69.8073 260.741 68.9733 260.741 67.9662C260.741 66.7631 261.056 65.8208 261.685 65.1395C262.313 64.4582 263.109 64.1176 264.07 64.1176C265.15 64.1176 266.003 64.4742 266.627 65.1874C267.251 65.9006 267.55 66.9932 267.522 68.4652L262.71 68.4652C262.724 69.0349 262.879 69.4781 263.175 69.7948C263.471 70.1115 263.84 70.2699 264.282 70.2699C264.583 70.2699 264.836 70.1879 265.041 70.0238C265.246 69.8597 265.401 69.5954 265.506 69.2308ZM265.615 67.2894C265.602 66.7334 265.458 66.3107 265.185 66.0214C264.911 65.732 264.578 65.5873 264.186 65.5873C263.767 65.5873 263.421 65.7399 263.147 66.0453C262.874 66.3506 262.74 66.7653 262.744 67.2894L265.615 67.2894Z"/>
<path d="M270.927 71.5414L269.006 71.5414L269.006 64.2816L270.79 64.2816L270.79 65.3138C271.095 64.8262 271.37 64.5049 271.614 64.35C271.858 64.195 272.134 64.1176 272.444 64.1176C272.882 64.1176 273.303 64.2383 273.709 64.4799L273.114 66.1547C272.791 65.945 272.49 65.8402 272.212 65.8402C271.943 65.8402 271.715 65.9143 271.528 66.0624C271.341 66.2105 271.194 66.4782 271.087 66.8656C270.98 67.253 270.927 68.0642 270.927 69.2992L270.927 71.5414Z"/>
<path d="M275.972 66.4965L274.228 66.182C274.424 65.4802 274.762 64.9607 275.24 64.6234C275.719 64.2862 276.43 64.1176 277.373 64.1176C278.23 64.1176 278.868 64.219 279.287 64.4218C279.706 64.6246 280.001 64.882 280.172 65.1942C280.343 65.5064 280.429 66.0795 280.429 66.9135L280.408 69.1556C280.408 69.7937 280.439 70.2642 280.5 70.5673C280.562 70.8703 280.677 71.195 280.846 71.5414L278.945 71.5414C278.895 71.4138 278.834 71.2246 278.761 70.974C278.729 70.8601 278.706 70.7849 278.692 70.7484C278.364 71.0674 278.013 71.3067 277.64 71.4662C277.266 71.6257 276.867 71.7054 276.443 71.7054C275.696 71.7054 275.107 71.5026 274.676 71.097C274.246 70.6914 274.03 70.1787 274.03 69.559C274.03 69.1488 274.128 68.7831 274.324 68.4618C274.52 68.1405 274.795 67.8944 275.148 67.7235C275.501 67.5526 276.01 67.4034 276.676 67.2758C277.574 67.1071 278.196 66.9499 278.542 66.8041L278.542 66.6127C278.542 66.2435 278.451 65.9803 278.269 65.8231C278.086 65.6659 277.742 65.5873 277.236 65.5873C276.895 65.5873 276.628 65.6545 276.436 65.7889C276.245 65.9234 276.09 66.1592 275.972 66.4965ZM278.542 68.0551C278.296 68.1371 277.906 68.2351 277.373 68.349C276.84 68.4629 276.491 68.5746 276.327 68.684C276.076 68.8617 275.951 69.0873 275.951 69.3607C275.951 69.6296 276.051 69.862 276.252 70.058C276.452 70.2539 276.708 70.3519 277.018 70.3519C277.364 70.3519 277.694 70.238 278.009 70.0101C278.241 69.837 278.394 69.625 278.467 69.3744C278.517 69.2103 278.542 68.8982 278.542 68.4379L278.542 68.0551Z"/>
<path d="M282.145 72.0199L284.339 72.2865C284.375 72.5417 284.46 72.7172 284.592 72.8129C284.774 72.9496 285.061 73.0179 285.453 73.0179C285.954 73.0179 286.33 72.9427 286.581 72.7924C286.75 72.6921 286.877 72.5303 286.964 72.307C287.023 72.1475 287.053 71.8536 287.053 71.4252L287.053 70.3656C286.478 71.1495 285.754 71.5414 284.879 71.5414C283.904 71.5414 283.131 71.1289 282.561 70.3041C282.115 69.6524 281.892 68.8412 281.892 67.8705C281.892 66.6537 282.184 65.724 282.77 65.0814C283.356 64.4388 284.084 64.1176 284.954 64.1176C285.852 64.1176 286.592 64.5118 287.176 65.3002L287.176 64.2816L288.974 64.2816L288.974 70.7963C288.974 71.653 288.903 72.2933 288.762 72.7172C288.62 73.141 288.422 73.4737 288.167 73.7152C287.912 73.9567 287.571 74.1459 287.145 74.2826C286.719 74.4193 286.18 74.4877 285.528 74.4877C284.298 74.4877 283.425 74.2769 282.91 73.8553C282.395 73.4338 282.138 72.8995 282.138 72.2523C282.138 72.1885 282.14 72.111 282.145 72.0199ZM283.86 67.7611C283.86 68.5313 284.01 69.0953 284.308 69.453C284.607 69.8107 284.975 69.9896 285.412 69.9896C285.881 69.9896 286.278 69.8062 286.602 69.4393C286.925 69.0725 287.087 68.529 287.087 67.809C287.087 67.057 286.932 66.4987 286.622 66.1342C286.312 65.7696 285.92 65.5873 285.446 65.5873C284.986 65.5873 284.607 65.7662 284.308 66.1239C284.01 66.4816 283.86 67.0274 283.86 67.7611Z"/>
<path d="M295.078 69.2308L296.992 69.5521C296.746 70.2539 296.358 70.7883 295.827 71.1551C295.296 71.522 294.631 71.7054 293.834 71.7054C292.572 71.7054 291.637 71.293 291.031 70.4681C290.553 69.8073 290.313 68.9733 290.313 67.9662C290.313 66.7631 290.628 65.8208 291.257 65.1395C291.886 64.4582 292.681 64.1176 293.643 64.1176C294.723 64.1176 295.575 64.4742 296.199 65.1874C296.824 65.9006 297.122 66.9932 297.095 68.4652L292.282 68.4652C292.296 69.0349 292.451 69.4781 292.747 69.7948C293.043 70.1115 293.412 70.2699 293.854 70.2699C294.155 70.2699 294.408 70.1879 294.613 70.0238C294.818 69.8597 294.973 69.5954 295.078 69.2308ZM295.187 67.2894C295.174 66.7334 295.03 66.3107 294.757 66.0214C294.483 65.732 294.151 65.5873 293.759 65.5873C293.339 65.5873 292.993 65.7399 292.72 66.0453C292.446 66.3506 292.312 66.7653 292.316 67.2894L295.187 67.2894Z"/>
<path d="M302.105 67.809C302.105 67.1709 302.263 66.5534 302.577 65.9564C302.892 65.3594 303.337 64.9037 303.914 64.5892C304.49 64.2748 305.134 64.1176 305.845 64.1176C306.943 64.1176 307.843 64.4742 308.545 65.1874C309.247 65.9006 309.598 66.8018 309.598 67.891C309.598 68.9893 309.243 69.8996 308.535 70.6219C307.826 71.3443 306.934 71.7054 305.858 71.7054C305.193 71.7054 304.558 71.5551 303.955 71.2543C303.351 70.9535 302.892 70.5126 302.577 69.9315C302.263 69.3505 302.105 68.6429 302.105 67.809ZM304.074 67.9115C304.074 68.6315 304.245 69.183 304.587 69.5658C304.929 69.9486 305.35 70.14 305.852 70.14C306.353 70.14 306.773 69.9486 307.113 69.5658C307.452 69.183 307.622 68.627 307.622 67.8978C307.622 67.1869 307.452 66.64 307.113 66.2572C306.773 65.8744 306.353 65.683 305.852 65.683C305.35 65.683 304.929 65.8744 304.587 66.2572C304.245 66.64 304.074 67.1914 304.074 67.9115Z"/>
<path d="M310.261 64.2816L311.327 64.2816L311.327 63.7347C311.327 63.1241 311.392 62.6683 311.522 62.3676C311.652 62.0668 311.891 61.8218 312.24 61.6327C312.588 61.4436 313.029 61.349 313.562 61.349C314.109 61.349 314.645 61.431 315.169 61.5951L314.909 62.9349C314.604 62.862 314.31 62.8256 314.027 62.8256C313.749 62.8256 313.55 62.8905 313.429 63.0204C313.308 63.1503 313.248 63.3998 313.248 63.7689L313.248 64.2816L314.684 64.2816L314.684 65.7924L313.248 65.7924L313.248 71.5414L311.327 71.5414L311.327 65.7924L310.261 65.7924L310.261 64.2816Z"/>
<path d="M328.185 71.5414L325.983 71.5414L325.108 69.265L321.103 69.265L320.275 71.5414L318.129 71.5414L322.032 61.5199L324.172 61.5199L328.185 71.5414ZM324.459 67.5765L323.078 63.8578L321.725 67.5765L324.459 67.5765Z"/>
<path d="M329.258 71.5414L329.258 61.5199L332.505 61.5199C333.735 61.5199 334.537 61.57 334.911 61.6703C335.485 61.8207 335.966 62.1477 336.353 62.6512C336.741 63.1548 336.935 63.8054 336.935 64.6029C336.935 65.2181 336.823 65.7354 336.6 66.1547C336.376 66.5739 336.093 66.9032 335.749 67.1425C335.404 67.3817 335.055 67.5401 334.699 67.6176C334.216 67.7133 333.517 67.7611 332.601 67.7611L331.281 67.7611L331.281 71.5414L329.258 71.5414ZM331.281 63.2152L331.281 66.059L332.389 66.059C333.186 66.059 333.719 66.0065 333.988 65.9017C334.257 65.7969 334.468 65.6329 334.621 65.4095C334.773 65.1862 334.85 64.9265 334.85 64.6302C334.85 64.2657 334.742 63.9649 334.528 63.7279C334.314 63.4909 334.043 63.3428 333.715 63.2836C333.473 63.238 332.988 63.2152 332.259 63.2152L331.281 63.2152Z"/>
<path d="M338.534 71.5414L338.534 61.5199L340.558 61.5199L340.558 71.5414L338.534 71.5414Z"/>
<path d="M346.307 64.2816L348.098 64.2816L348.098 65.348C348.33 64.9834 348.645 64.6872 349.041 64.4593C349.437 64.2315 349.877 64.1176 350.36 64.1176C351.203 64.1176 351.919 64.448 352.507 65.1088C353.095 65.7696 353.389 66.6901 353.389 67.8705C353.389 69.0827 353.092 70.0249 352.5 70.6971C351.908 71.3693 351.19 71.7054 350.347 71.7054C349.946 71.7054 349.582 71.6257 349.256 71.4662C348.93 71.3067 348.588 71.0332 348.228 70.6459L348.228 74.3031L346.307 74.3031L346.307 64.2816ZM348.207 67.7885C348.207 68.6042 348.369 69.2069 348.692 69.5966C349.016 69.9862 349.41 70.181 349.875 70.181C350.322 70.181 350.693 70.0022 350.989 69.6444C351.285 69.2867 351.434 68.6999 351.434 67.8842C351.434 67.1231 351.281 66.558 350.976 66.1888C350.67 65.8197 350.292 65.6351 349.841 65.6351C349.371 65.6351 348.982 65.8163 348.672 66.1786C348.362 66.5409 348.207 67.0775 348.207 67.7885Z"/>
<path d="M356.752 71.5414L354.831 71.5414L354.831 64.2816L356.615 64.2816L356.615 65.3138C356.921 64.8262 357.195 64.5049 357.439 64.35C357.683 64.195 357.96 64.1176 358.27 64.1176C358.707 64.1176 359.129 64.2383 359.534 64.4799L358.939 66.1547C358.616 65.945 358.315 65.8402 358.037 65.8402C357.768 65.8402 357.54 65.9143 357.353 66.0624C357.167 66.2105 357.02 66.4782 356.913 66.8656C356.805 67.253 356.752 68.0642 356.752 69.2992L356.752 71.5414Z"/>
<path d="M359.917 67.809C359.917 67.1709 360.074 66.5534 360.389 65.9564C360.703 65.3594 361.149 64.9037 361.725 64.5892C362.302 64.2748 362.945 64.1176 363.656 64.1176C364.755 64.1176 365.655 64.4742 366.356 65.1874C367.058 65.9006 367.409 66.8018 367.409 67.891C367.409 68.9893 367.055 69.8996 366.346 70.6219C365.638 71.3443 364.745 71.7054 363.67 71.7054C363.005 71.7054 362.37 71.5551 361.766 71.2543C361.162 70.9535 360.703 70.5126 360.389 69.9315C360.074 69.3505 359.917 68.6429 359.917 67.809ZM361.886 67.9115C361.886 68.6315 362.057 69.183 362.398 69.5658C362.74 69.9486 363.162 70.14 363.663 70.14C364.164 70.14 364.585 69.9486 364.924 69.5658C365.264 69.183 365.434 68.627 365.434 67.8978C365.434 67.1869 365.264 66.64 364.924 66.2572C364.585 65.8744 364.164 65.683 363.663 65.683C363.162 65.683 362.74 65.8744 362.398 66.2572C362.057 66.64 361.886 67.1914 361.886 67.9115Z"/>
<path d="M372.242 64.2816L372.242 65.8129L370.93 65.8129L370.93 68.7386C370.93 69.3311 370.942 69.6763 370.967 69.7743C370.992 69.8723 371.049 69.9532 371.138 70.017C371.227 70.0808 371.335 70.1127 371.463 70.1127C371.641 70.1127 371.898 70.0511 372.235 69.9281L372.399 71.4183C371.953 71.6097 371.447 71.7054 370.882 71.7054C370.535 71.7054 370.223 71.6473 369.945 71.5311C369.667 71.4149 369.463 71.2645 369.333 71.08C369.204 70.8954 369.114 70.6459 369.063 70.3314C369.022 70.1081 369.002 69.6569 369.002 68.9779L369.002 65.8129L368.12 65.8129L368.12 64.2816L369.002 64.2816L369.002 62.8392L370.93 61.7181L370.93 64.2816L372.242 64.2816Z"/>
<path d="M373.131 67.809C373.131 67.1709 373.288 66.5534 373.603 65.9564C373.917 65.3594 374.362 64.9037 374.939 64.5892C375.515 64.2748 376.159 64.1176 376.87 64.1176C377.968 64.1176 378.868 64.4742 379.57 65.1874C380.272 65.9006 380.623 66.8018 380.623 67.891C380.623 68.9893 380.269 69.8996 379.56 70.6219C378.851 71.3443 377.959 71.7054 376.884 71.7054C376.218 71.7054 375.584 71.5551 374.98 71.2543C374.376 70.9535 373.917 70.5126 373.603 69.9315C373.288 69.3505 373.131 68.6429 373.131 67.809ZM375.1 67.9115C375.1 68.6315 375.27 69.183 375.612 69.5658C375.954 69.9486 376.376 70.14 376.877 70.14C377.378 70.14 377.799 69.9486 378.138 69.5658C378.478 69.183 378.647 68.627 378.647 67.8978C378.647 67.1869 378.478 66.64 378.138 66.2572C377.799 65.8744 377.378 65.683 376.877 65.683C376.376 65.683 375.954 65.8744 375.612 66.2572C375.27 66.64 375.1 67.1914 375.1 67.9115Z"/>
<path d="M388.457 66.4281L386.563 66.7699C386.5 66.3916 386.355 66.1068 386.129 65.9154C385.904 65.724 385.611 65.6283 385.251 65.6283C384.772 65.6283 384.391 65.7935 384.106 66.1239C383.821 66.4543 383.679 67.0069 383.679 67.7816C383.679 68.6429 383.823 69.2513 384.113 69.6068C384.402 69.9623 384.791 70.14 385.278 70.14C385.643 70.14 385.941 70.0363 386.174 69.829C386.406 69.6216 386.57 69.265 386.666 68.7592L388.553 69.0804C388.357 69.9463 387.981 70.6003 387.425 71.0424C386.869 71.4844 386.124 71.7054 385.189 71.7054C384.128 71.7054 383.281 71.3705 382.65 70.7006C382.019 70.0306 381.703 69.1032 381.703 67.9183C381.703 66.7198 382.02 65.7867 382.653 65.119C383.287 64.4514 384.144 64.1176 385.224 64.1176C386.108 64.1176 386.811 64.3078 387.332 64.6884C387.854 65.0689 388.229 65.6488 388.457 66.4281Z"/>
<path d="M389.469 67.809C389.469 67.1709 389.626 66.5534 389.94 65.9564C390.255 65.3594 390.7 64.9037 391.277 64.5892C391.853 64.2748 392.497 64.1176 393.208 64.1176C394.306 64.1176 395.206 64.4742 395.908 65.1874C396.61 65.9006 396.961 66.8018 396.961 67.891C396.961 68.9893 396.607 69.8996 395.898 70.6219C395.189 71.3443 394.297 71.7054 393.222 71.7054C392.556 71.7054 391.922 71.5551 391.318 71.2543C390.714 70.9535 390.255 70.5126 389.94 69.9315C389.626 69.3505 389.469 68.6429 389.469 67.809ZM391.437 67.9115C391.437 68.6315 391.608 69.183 391.95 69.5658C392.292 69.9486 392.714 70.14 393.215 70.14C393.716 70.14 394.137 69.9486 394.476 69.5658C394.816 69.183 394.985 68.627 394.985 67.8978C394.985 67.1869 394.816 66.64 394.476 66.2572C394.137 65.8744 393.716 65.683 393.215 65.683C392.714 65.683 392.292 65.8744 391.95 66.2572C391.608 66.64 391.437 67.1914 391.437 67.9115Z"/>
<path d="M398.465 71.5414L398.465 61.5199L400.386 61.5199L400.386 71.5414L398.465 71.5414Z"/>
<path d="M401.678 69.4701L403.605 69.1761C403.687 69.5498 403.854 69.8335 404.104 70.0272C404.355 70.2209 404.706 70.3177 405.157 70.3177C405.654 70.3177 406.028 70.2266 406.278 70.0443C406.447 69.9167 406.531 69.7458 406.531 69.5316C406.531 69.3858 406.486 69.265 406.395 69.1693C406.299 69.0782 406.085 68.9939 405.752 68.9164C404.202 68.5746 403.22 68.2624 402.806 67.9799C402.231 67.5879 401.944 67.0433 401.944 66.3461C401.944 65.7172 402.193 65.1885 402.689 64.7601C403.186 64.3317 403.956 64.1176 405 64.1176C405.993 64.1176 406.732 64.2793 407.215 64.6029C407.698 64.9265 408.031 65.405 408.213 66.0385L406.401 66.3734C406.324 66.0909 406.177 65.8744 405.96 65.724C405.744 65.5736 405.435 65.4984 405.034 65.4984C404.528 65.4984 404.166 65.569 403.947 65.7103C403.801 65.8106 403.728 65.9405 403.728 66.1C403.728 66.2367 403.792 66.3529 403.92 66.4486C404.093 66.5762 404.691 66.7562 405.714 66.9886C406.737 67.2211 407.452 67.5059 407.857 67.8431C408.258 68.1849 408.459 68.6612 408.459 69.2718C408.459 69.9372 408.181 70.5092 407.625 70.9877C407.069 71.4662 406.246 71.7054 405.157 71.7054C404.168 71.7054 403.386 71.5049 402.809 71.1039C402.233 70.7028 401.855 70.1582 401.678 69.4701Z"/>
</g>
</g>
</svg>
